<?xml version="1.0" encoding="utf-8" standalone="no"?>
<!DOCTYPE svg PUBLIC "-//W3C//DTD SVG 1.1//EN"
  "http://www.w3.org/Graphics/SVG/1.1/DTD/svg11.dtd">
<!-- Created with matplotlib (https://matplotlib.org/) -->
<svg height="432pt" version="1.1" viewBox="0 0 576 432" width="576pt" xmlns="http://www.w3.org/2000/svg" xmlns:xlink="http://www.w3.org/1999/xlink">
 <metadata>
  <rdf:RDF xmlns:cc="http://creativecommons.org/ns#" xmlns:dc="http://purl.org/dc/elements/1.1/" xmlns:rdf="http://www.w3.org/1999/02/22-rdf-syntax-ns#">
   <cc:Work>
    <dc:type rdf:resource="http://purl.org/dc/dcmitype/StillImage"/>
    <dc:date>2022-04-11T20:24:41.100260</dc:date>
    <dc:format>image/svg+xml</dc:format>
    <dc:creator>
     <cc:Agent>
      <dc:title>Matplotlib v3.3.4, https://matplotlib.org/</dc:title>
     </cc:Agent>
    </dc:creator>
   </cc:Work>
  </rdf:RDF>
 </metadata>
 <defs>
  <style type="text/css">*{stroke-linecap:butt;stroke-linejoin:round;}</style>
 </defs>
 <g id="figure_1">
  <g id="patch_1">
   <path d="M 0 432 
L 576 432 
L 576 0 
L 0 0 
z
" style="fill:#ffffff;"/>
  </g>
  <g id="axes_1">
   <g id="patch_2">
    <path d="M 50.6 375.64 
L 568.8 375.64 
L 568.8 74.08 
L 50.6 74.08 
z
" style="fill:#ffffff;"/>
   </g>
   <g id="matplotlib.axis_1">
    <g id="xtick_1">
     <g id="line2d_1">
      <defs>
       <path d="M 0 0 
L 0 3.5 
" id="maacdcfc068" style="stroke:#666666;stroke-width:0.8;"/>
      </defs>
      <g>
       <use style="fill:#666666;stroke:#666666;stroke-width:0.8;" x="74.154545" xlink:href="#maacdcfc068" y="375.64"/>
      </g>
     </g>
     <g id="text_1">
      <!-- 0 -->
      <g style="fill:#666666;" transform="translate(68.428295 396.317187)scale(0.18 -0.18)">
       <defs>
        <path d="M 31.78125 66.40625 
Q 24.171875 66.40625 20.328125 58.90625 
Q 16.5 51.421875 16.5 36.375 
Q 16.5 21.390625 20.328125 13.890625 
Q 24.171875 6.390625 31.78125 6.390625 
Q 39.453125 6.390625 43.28125 13.890625 
Q 47.125 21.390625 47.125 36.375 
Q 47.125 51.421875 43.28125 58.90625 
Q 39.453125 66.40625 31.78125 66.40625 
z
M 31.78125 74.21875 
Q 44.046875 74.21875 50.515625 64.515625 
Q 56.984375 54.828125 56.984375 36.375 
Q 56.984375 17.96875 50.515625 8.265625 
Q 44.046875 -1.421875 31.78125 -1.421875 
Q 19.53125 -1.421875 13.0625 8.265625 
Q 6.59375 17.96875 6.59375 36.375 
Q 6.59375 54.828125 13.0625 64.515625 
Q 19.53125 74.21875 31.78125 74.21875 
z
" id="DejaVuSans-48"/>
       </defs>
       <use xlink:href="#DejaVuSans-48"/>
      </g>
     </g>
    </g>
    <g id="xtick_2">
     <g id="line2d_2">
      <g>
       <use style="fill:#666666;stroke:#666666;stroke-width:0.8;" x="170.295547" xlink:href="#maacdcfc068" y="375.64"/>
      </g>
     </g>
     <g id="text_2">
      <!-- 10 -->
      <g style="fill:#666666;" transform="translate(158.843047 396.317187)scale(0.18 -0.18)">
       <defs>
        <path d="M 12.40625 8.296875 
L 28.515625 8.296875 
L 28.515625 63.921875 
L 10.984375 60.40625 
L 10.984375 69.390625 
L 28.421875 72.90625 
L 38.28125 72.90625 
L 38.28125 8.296875 
L 54.390625 8.296875 
L 54.390625 0 
L 12.40625 0 
z
" id="DejaVuSans-49"/>
       </defs>
       <use xlink:href="#DejaVuSans-49"/>
       <use x="63.623047" xlink:href="#DejaVuSans-48"/>
      </g>
     </g>
    </g>
    <g id="xtick_3">
     <g id="line2d_3">
      <g>
       <use style="fill:#666666;stroke:#666666;stroke-width:0.8;" x="266.436549" xlink:href="#maacdcfc068" y="375.64"/>
      </g>
     </g>
     <g id="text_3">
      <!-- 20 -->
      <g style="fill:#666666;" transform="translate(254.984049 396.317187)scale(0.18 -0.18)">
       <defs>
        <path d="M 19.1875 8.296875 
L 53.609375 8.296875 
L 53.609375 0 
L 7.328125 0 
L 7.328125 8.296875 
Q 12.9375 14.109375 22.625 23.890625 
Q 32.328125 33.6875 34.8125 36.53125 
Q 39.546875 41.84375 41.421875 45.53125 
Q 43.3125 49.21875 43.3125 52.78125 
Q 43.3125 58.59375 39.234375 62.25 
Q 35.15625 65.921875 28.609375 65.921875 
Q 23.96875 65.921875 18.8125 64.3125 
Q 13.671875 62.703125 7.8125 59.421875 
L 7.8125 69.390625 
Q 13.765625 71.78125 18.9375 73 
Q 24.125 74.21875 28.421875 74.21875 
Q 39.75 74.21875 46.484375 68.546875 
Q 53.21875 62.890625 53.21875 53.421875 
Q 53.21875 48.921875 51.53125 44.890625 
Q 49.859375 40.875 45.40625 35.40625 
Q 44.1875 33.984375 37.640625 27.21875 
Q 31.109375 20.453125 19.1875 8.296875 
z
" id="DejaVuSans-50"/>
       </defs>
       <use xlink:href="#DejaVuSans-50"/>
       <use x="63.623047" xlink:href="#DejaVuSans-48"/>
      </g>
     </g>
    </g>
    <g id="xtick_4">
     <g id="line2d_4">
      <g>
       <use style="fill:#666666;stroke:#666666;stroke-width:0.8;" x="362.577551" xlink:href="#maacdcfc068" y="375.64"/>
      </g>
     </g>
     <g id="text_4">
      <!-- 30 -->
      <g style="fill:#666666;" transform="translate(351.125051 396.317187)scale(0.18 -0.18)">
       <defs>
        <path d="M 40.578125 39.3125 
Q 47.65625 37.796875 51.625 33 
Q 55.609375 28.21875 55.609375 21.1875 
Q 55.609375 10.40625 48.1875 4.484375 
Q 40.765625 -1.421875 27.09375 -1.421875 
Q 22.515625 -1.421875 17.65625 -0.515625 
Q 12.796875 0.390625 7.625 2.203125 
L 7.625 11.71875 
Q 11.71875 9.328125 16.59375 8.109375 
Q 21.484375 6.890625 26.8125 6.890625 
Q 36.078125 6.890625 40.9375 10.546875 
Q 45.796875 14.203125 45.796875 21.1875 
Q 45.796875 27.640625 41.28125 31.265625 
Q 36.765625 34.90625 28.71875 34.90625 
L 20.21875 34.90625 
L 20.21875 43.015625 
L 29.109375 43.015625 
Q 36.375 43.015625 40.234375 45.921875 
Q 44.09375 48.828125 44.09375 54.296875 
Q 44.09375 59.90625 40.109375 62.90625 
Q 36.140625 65.921875 28.71875 65.921875 
Q 24.65625 65.921875 20.015625 65.03125 
Q 15.375 64.15625 9.8125 62.3125 
L 9.8125 71.09375 
Q 15.4375 72.65625 20.34375 73.4375 
Q 25.25 74.21875 29.59375 74.21875 
Q 40.828125 74.21875 47.359375 69.109375 
Q 53.90625 64.015625 53.90625 55.328125 
Q 53.90625 49.265625 50.4375 45.09375 
Q 46.96875 40.921875 40.578125 39.3125 
z
" id="DejaVuSans-51"/>
       </defs>
       <use xlink:href="#DejaVuSans-51"/>
       <use x="63.623047" xlink:href="#DejaVuSans-48"/>
      </g>
     </g>
    </g>
    <g id="xtick_5">
     <g id="line2d_5">
      <g>
       <use style="fill:#666666;stroke:#666666;stroke-width:0.8;" x="458.718553" xlink:href="#maacdcfc068" y="375.64"/>
      </g>
     </g>
     <g id="text_5">
      <!-- 40 -->
      <g style="fill:#666666;" transform="translate(447.266053 396.317187)scale(0.18 -0.18)">
       <defs>
        <path d="M 37.796875 64.3125 
L 12.890625 25.390625 
L 37.796875 25.390625 
z
M 35.203125 72.90625 
L 47.609375 72.90625 
L 47.609375 25.390625 
L 58.015625 25.390625 
L 58.015625 17.1875 
L 47.609375 17.1875 
L 47.609375 0 
L 37.796875 0 
L 37.796875 17.1875 
L 4.890625 17.1875 
L 4.890625 26.703125 
z
" id="DejaVuSans-52"/>
       </defs>
       <use xlink:href="#DejaVuSans-52"/>
       <use x="63.623047" xlink:href="#DejaVuSans-48"/>
      </g>
     </g>
    </g>
    <g id="xtick_6">
     <g id="line2d_6">
      <g>
       <use style="fill:#666666;stroke:#666666;stroke-width:0.8;" x="554.859555" xlink:href="#maacdcfc068" y="375.64"/>
      </g>
     </g>
     <g id="text_6">
      <!-- 50 -->
      <g style="fill:#666666;" transform="translate(543.407055 396.317187)scale(0.18 -0.18)">
       <defs>
        <path d="M 10.796875 72.90625 
L 49.515625 72.90625 
L 49.515625 64.59375 
L 19.828125 64.59375 
L 19.828125 46.734375 
Q 21.96875 47.46875 24.109375 47.828125 
Q 26.265625 48.1875 28.421875 48.1875 
Q 40.625 48.1875 47.75 41.5 
Q 54.890625 34.8125 54.890625 23.390625 
Q 54.890625 11.625 47.5625 5.09375 
Q 40.234375 -1.421875 26.90625 -1.421875 
Q 22.3125 -1.421875 17.546875 -0.640625 
Q 12.796875 0.140625 7.71875 1.703125 
L 7.71875 11.625 
Q 12.109375 9.234375 16.796875 8.0625 
Q 21.484375 6.890625 26.703125 6.890625 
Q 35.15625 6.890625 40.078125 11.328125 
Q 45.015625 15.765625 45.015625 23.390625 
Q 45.015625 31 40.078125 35.4375 
Q 35.15625 39.890625 26.703125 39.890625 
Q 22.75 39.890625 18.8125 39.015625 
Q 14.890625 38.140625 10.796875 36.28125 
z
" id="DejaVuSans-53"/>
       </defs>
       <use xlink:href="#DejaVuSans-53"/>
       <use x="63.623047" xlink:href="#DejaVuSans-48"/>
      </g>
     </g>
    </g>
    <g id="text_7">
     <!-- cle step -->
     <g style="fill:#666666;" transform="translate(266.537031 420.777187)scale(0.22 -0.22)">
      <defs>
       <path d="M 48.78125 52.59375 
L 48.78125 44.1875 
Q 44.96875 46.296875 41.140625 47.34375 
Q 37.3125 48.390625 33.40625 48.390625 
Q 24.65625 48.390625 19.8125 42.84375 
Q 14.984375 37.3125 14.984375 27.296875 
Q 14.984375 17.28125 19.8125 11.734375 
Q 24.65625 6.203125 33.40625 6.203125 
Q 37.3125 6.203125 41.140625 7.25 
Q 44.96875 8.296875 48.78125 10.40625 
L 48.78125 2.09375 
Q 45.015625 0.34375 40.984375 -0.53125 
Q 36.96875 -1.421875 32.421875 -1.421875 
Q 20.0625 -1.421875 12.78125 6.34375 
Q 5.515625 14.109375 5.515625 27.296875 
Q 5.515625 40.671875 12.859375 48.328125 
Q 20.21875 56 33.015625 56 
Q 37.15625 56 41.109375 55.140625 
Q 45.0625 54.296875 48.78125 52.59375 
z
" id="DejaVuSans-99"/>
       <path d="M 9.421875 75.984375 
L 18.40625 75.984375 
L 18.40625 0 
L 9.421875 0 
z
" id="DejaVuSans-108"/>
       <path d="M 56.203125 29.59375 
L 56.203125 25.203125 
L 14.890625 25.203125 
Q 15.484375 15.921875 20.484375 11.0625 
Q 25.484375 6.203125 34.421875 6.203125 
Q 39.59375 6.203125 44.453125 7.46875 
Q 49.3125 8.734375 54.109375 11.28125 
L 54.109375 2.78125 
Q 49.265625 0.734375 44.1875 -0.34375 
Q 39.109375 -1.421875 33.890625 -1.421875 
Q 20.796875 -1.421875 13.15625 6.1875 
Q 5.515625 13.8125 5.515625 26.8125 
Q 5.515625 40.234375 12.765625 48.109375 
Q 20.015625 56 32.328125 56 
Q 43.359375 56 49.78125 48.890625 
Q 56.203125 41.796875 56.203125 29.59375 
z
M 47.21875 32.234375 
Q 47.125 39.59375 43.09375 43.984375 
Q 39.0625 48.390625 32.421875 48.390625 
Q 24.90625 48.390625 20.390625 44.140625 
Q 15.875 39.890625 15.1875 32.171875 
z
" id="DejaVuSans-101"/>
       <path id="DejaVuSans-32"/>
       <path d="M 44.28125 53.078125 
L 44.28125 44.578125 
Q 40.484375 46.53125 36.375 47.5 
Q 32.28125 48.484375 27.875 48.484375 
Q 21.1875 48.484375 17.84375 46.4375 
Q 14.5 44.390625 14.5 40.28125 
Q 14.5 37.15625 16.890625 35.375 
Q 19.28125 33.59375 26.515625 31.984375 
L 29.59375 31.296875 
Q 39.15625 29.25 43.1875 25.515625 
Q 47.21875 21.78125 47.21875 15.09375 
Q 47.21875 7.46875 41.1875 3.015625 
Q 35.15625 -1.421875 24.609375 -1.421875 
Q 20.21875 -1.421875 15.453125 -0.5625 
Q 10.6875 0.296875 5.421875 2 
L 5.421875 11.28125 
Q 10.40625 8.6875 15.234375 7.390625 
Q 20.0625 6.109375 24.8125 6.109375 
Q 31.15625 6.109375 34.5625 8.28125 
Q 37.984375 10.453125 37.984375 14.40625 
Q 37.984375 18.0625 35.515625 20.015625 
Q 33.0625 21.96875 24.703125 23.78125 
L 21.578125 24.515625 
Q 13.234375 26.265625 9.515625 29.90625 
Q 5.8125 33.546875 5.8125 39.890625 
Q 5.8125 47.609375 11.28125 51.796875 
Q 16.75 56 26.8125 56 
Q 31.78125 56 36.171875 55.265625 
Q 40.578125 54.546875 44.28125 53.078125 
z
" id="DejaVuSans-115"/>
       <path d="M 18.3125 70.21875 
L 18.3125 54.6875 
L 36.8125 54.6875 
L 36.8125 47.703125 
L 18.3125 47.703125 
L 18.3125 18.015625 
Q 18.3125 11.328125 20.140625 9.421875 
Q 21.96875 7.515625 27.59375 7.515625 
L 36.8125 7.515625 
L 36.8125 0 
L 27.59375 0 
Q 17.1875 0 13.234375 3.875 
Q 9.28125 7.765625 9.28125 18.015625 
L 9.28125 47.703125 
L 2.6875 47.703125 
L 2.6875 54.6875 
L 9.28125 54.6875 
L 9.28125 70.21875 
z
" id="DejaVuSans-116"/>
       <path d="M 18.109375 8.203125 
L 18.109375 -20.796875 
L 9.078125 -20.796875 
L 9.078125 54.6875 
L 18.109375 54.6875 
L 18.109375 46.390625 
Q 20.953125 51.265625 25.265625 53.625 
Q 29.59375 56 35.59375 56 
Q 45.5625 56 51.78125 48.09375 
Q 58.015625 40.1875 58.015625 27.296875 
Q 58.015625 14.40625 51.78125 6.484375 
Q 45.5625 -1.421875 35.59375 -1.421875 
Q 29.59375 -1.421875 25.265625 0.953125 
Q 20.953125 3.328125 18.109375 8.203125 
z
M 48.6875 27.296875 
Q 48.6875 37.203125 44.609375 42.84375 
Q 40.53125 48.484375 33.40625 48.484375 
Q 26.265625 48.484375 22.1875 42.84375 
Q 18.109375 37.203125 18.109375 27.296875 
Q 18.109375 17.390625 22.1875 11.75 
Q 26.265625 6.109375 33.40625 6.109375 
Q 40.53125 6.109375 44.609375 11.75 
Q 48.6875 17.390625 48.6875 27.296875 
z
" id="DejaVuSans-112"/>
      </defs>
      <use xlink:href="#DejaVuSans-99"/>
      <use x="54.980469" xlink:href="#DejaVuSans-108"/>
      <use x="82.763672" xlink:href="#DejaVuSans-101"/>
      <use x="144.287109" xlink:href="#DejaVuSans-32"/>
      <use x="176.074219" xlink:href="#DejaVuSans-115"/>
      <use x="228.173828" xlink:href="#DejaVuSans-116"/>
      <use x="267.382812" xlink:href="#DejaVuSans-101"/>
      <use x="328.90625" xlink:href="#DejaVuSans-112"/>
     </g>
    </g>
   </g>
   <g id="matplotlib.axis_2">
    <g id="ytick_1">
     <g id="line2d_7">
      <path clip-path="url(#p0b32af6342)" d="M 50.6 375.64 
L 568.8 375.64 
" style="fill:none;stroke:#000000;stroke-dasharray:0.8,1.32;stroke-dashoffset:0;stroke-width:0.8;"/>
     </g>
     <g id="line2d_8">
      <defs>
       <path d="M 0 0 
L -3.5 0 
" id="m09d77b8994" style="stroke:#666666;stroke-width:0.8;"/>
      </defs>
      <g>
       <use style="fill:#666666;stroke:#666666;stroke-width:0.8;" x="50.6" xlink:href="#m09d77b8994" y="375.64"/>
      </g>
     </g>
     <g id="text_8">
      <!-- 0 -->
      <g style="fill:#666666;" transform="translate(32.1475 382.478594)scale(0.18 -0.18)">
       <use xlink:href="#DejaVuSans-48"/>
      </g>
     </g>
    </g>
    <g id="ytick_2">
     <g id="line2d_9">
      <path clip-path="url(#p0b32af6342)" d="M 50.6 310.872921 
L 568.8 310.872921 
" style="fill:none;stroke:#000000;stroke-dasharray:0.8,1.32;stroke-dashoffset:0;stroke-width:0.8;"/>
     </g>
     <g id="line2d_10">
      <g>
       <use style="fill:#666666;stroke:#666666;stroke-width:0.8;" x="50.6" xlink:href="#m09d77b8994" y="310.872921"/>
      </g>
     </g>
     <g id="text_9">
      <!-- 1 -->
      <g style="fill:#666666;" transform="translate(32.1475 317.711515)scale(0.18 -0.18)">
       <use xlink:href="#DejaVuSans-49"/>
      </g>
     </g>
    </g>
    <g id="ytick_3">
     <g id="line2d_11">
      <path clip-path="url(#p0b32af6342)" d="M 50.6 246.105842 
L 568.8 246.105842 
" style="fill:none;stroke:#000000;stroke-dasharray:0.8,1.32;stroke-dashoffset:0;stroke-width:0.8;"/>
     </g>
     <g id="line2d_12">
      <g>
       <use style="fill:#666666;stroke:#666666;stroke-width:0.8;" x="50.6" xlink:href="#m09d77b8994" y="246.105842"/>
      </g>
     </g>
     <g id="text_10">
      <!-- 2 -->
      <g style="fill:#666666;" transform="translate(32.1475 252.944436)scale(0.18 -0.18)">
       <use xlink:href="#DejaVuSans-50"/>
      </g>
     </g>
    </g>
    <g id="ytick_4">
     <g id="line2d_13">
      <path clip-path="url(#p0b32af6342)" d="M 50.6 181.338763 
L 568.8 181.338763 
" style="fill:none;stroke:#000000;stroke-dasharray:0.8,1.32;stroke-dashoffset:0;stroke-width:0.8;"/>
     </g>
     <g id="line2d_14">
      <g>
       <use style="fill:#666666;stroke:#666666;stroke-width:0.8;" x="50.6" xlink:href="#m09d77b8994" y="181.338763"/>
      </g>
     </g>
     <g id="text_11">
      <!-- 3 -->
      <g style="fill:#666666;" transform="translate(32.1475 188.177357)scale(0.18 -0.18)">
       <use xlink:href="#DejaVuSans-51"/>
      </g>
     </g>
    </g>
    <g id="ytick_5">
     <g id="line2d_15">
      <path clip-path="url(#p0b32af6342)" d="M 50.6 116.571685 
L 568.8 116.571685 
" style="fill:none;stroke:#000000;stroke-dasharray:0.8,1.32;stroke-dashoffset:0;stroke-width:0.8;"/>
     </g>
     <g id="line2d_16">
      <g>
       <use style="fill:#666666;stroke:#666666;stroke-width:0.8;" x="50.6" xlink:href="#m09d77b8994" y="116.571685"/>
      </g>
     </g>
     <g id="text_12">
      <!-- 4 -->
      <g style="fill:#666666;" transform="translate(32.1475 123.410278)scale(0.18 -0.18)">
       <use xlink:href="#DejaVuSans-52"/>
      </g>
     </g>
    </g>
    <g id="text_13">
     <!-- time (s) -->
     <g style="fill:#666666;" transform="translate(23.572187 267.521094)rotate(-90)scale(0.22 -0.22)">
      <defs>
       <path d="M 9.421875 54.6875 
L 18.40625 54.6875 
L 18.40625 0 
L 9.421875 0 
z
M 9.421875 75.984375 
L 18.40625 75.984375 
L 18.40625 64.59375 
L 9.421875 64.59375 
z
" id="DejaVuSans-105"/>
       <path d="M 52 44.1875 
Q 55.375 50.25 60.0625 53.125 
Q 64.75 56 71.09375 56 
Q 79.640625 56 84.28125 50.015625 
Q 88.921875 44.046875 88.921875 33.015625 
L 88.921875 0 
L 79.890625 0 
L 79.890625 32.71875 
Q 79.890625 40.578125 77.09375 44.375 
Q 74.3125 48.1875 68.609375 48.1875 
Q 61.625 48.1875 57.5625 43.546875 
Q 53.515625 38.921875 53.515625 30.90625 
L 53.515625 0 
L 44.484375 0 
L 44.484375 32.71875 
Q 44.484375 40.625 41.703125 44.40625 
Q 38.921875 48.1875 33.109375 48.1875 
Q 26.21875 48.1875 22.15625 43.53125 
Q 18.109375 38.875 18.109375 30.90625 
L 18.109375 0 
L 9.078125 0 
L 9.078125 54.6875 
L 18.109375 54.6875 
L 18.109375 46.1875 
Q 21.1875 51.21875 25.484375 53.609375 
Q 29.78125 56 35.6875 56 
Q 41.65625 56 45.828125 52.96875 
Q 50 49.953125 52 44.1875 
z
" id="DejaVuSans-109"/>
       <path d="M 31 75.875 
Q 24.46875 64.65625 21.28125 53.65625 
Q 18.109375 42.671875 18.109375 31.390625 
Q 18.109375 20.125 21.3125 9.0625 
Q 24.515625 -2 31 -13.1875 
L 23.1875 -13.1875 
Q 15.875 -1.703125 12.234375 9.375 
Q 8.59375 20.453125 8.59375 31.390625 
Q 8.59375 42.28125 12.203125 53.3125 
Q 15.828125 64.359375 23.1875 75.875 
z
" id="DejaVuSans-40"/>
       <path d="M 8.015625 75.875 
L 15.828125 75.875 
Q 23.140625 64.359375 26.78125 53.3125 
Q 30.421875 42.28125 30.421875 31.390625 
Q 30.421875 20.453125 26.78125 9.375 
Q 23.140625 -1.703125 15.828125 -13.1875 
L 8.015625 -13.1875 
Q 14.5 -2 17.703125 9.0625 
Q 20.90625 20.125 20.90625 31.390625 
Q 20.90625 42.671875 17.703125 53.65625 
Q 14.5 64.65625 8.015625 75.875 
z
" id="DejaVuSans-41"/>
      </defs>
      <use xlink:href="#DejaVuSans-116"/>
      <use x="39.208984" xlink:href="#DejaVuSans-105"/>
      <use x="66.992188" xlink:href="#DejaVuSans-109"/>
      <use x="164.404297" xlink:href="#DejaVuSans-101"/>
      <use x="225.927734" xlink:href="#DejaVuSans-32"/>
      <use x="257.714844" xlink:href="#DejaVuSans-40"/>
      <use x="296.728516" xlink:href="#DejaVuSans-115"/>
      <use x="348.828125" xlink:href="#DejaVuSans-41"/>
     </g>
    </g>
   </g>
   <g id="line2d_17">
    <path clip-path="url(#p0b32af6342)" d="M 83.536967 -1 
L 83.768646 195.069485 
L 93.382746 195.469317 
L 102.996846 195.871742 
L 112.610946 195.295644 
L 122.225046 193.798821 
L 131.839147 193.038009 
L 141.453247 193.041314 
L 151.067347 192.993429 
L 160.681447 193.262392 
L 170.295547 193.16213 
L 179.909647 192.70694 
L 189.523748 191.996515 
L 199.137848 190.016784 
L 208.751948 189.10239 
L 218.366048 188.896583 
L 227.980148 189.336933 
L 237.594249 189.135281 
L 247.208349 188.334784 
L 256.822449 189.483274 
L 266.436549 188.957933 
L 276.050649 189.059755 
L 285.66475 189.21933 
L 295.27885 189.191303 
L 304.89295 189.073251 
L 314.50705 188.962426 
L 324.12115 188.722339 
L 333.73525 188.507962 
L 343.349351 188.339787 
L 352.963451 187.20731 
L 362.577551 187.995901 
L 372.191651 187.165 
L 381.805751 187.469788 
L 391.419852 187.968044 
L 401.033952 188.45543 
L 410.648052 188.58934 
L 420.262152 187.948541 
L 429.876252 189.253317 
L 439.490353 188.673389 
L 449.104453 189.051401 
L 458.718553 188.504164 
L 468.332653 189.001911 
L 477.946753 188.520177 
L 487.560853 189.038291 
L 497.174954 189.509015 
L 506.789054 187.849267 
L 516.403154 188.849115 
L 526.017254 188.763661 
L 535.631354 188.908658 
L 545.245455 188.820131 
" style="fill:none;stroke:#1f77b4;stroke-linecap:square;stroke-width:6;"/>
   </g>
   <g id="line2d_18">
    <path clip-path="url(#p0b32af6342)" d="M 83.412684 -1 
L 83.768646 280.921723 
L 93.382746 281.204599 
L 102.996846 280.818079 
L 112.610946 281.000924 
L 122.225046 279.810525 
L 131.839147 279.246533 
L 141.453247 280.046767 
L 151.067347 280.133194 
L 160.681447 280.043602 
L 170.295547 279.912363 
L 179.909647 279.870176 
L 189.523748 279.330968 
L 199.137848 278.129606 
L 208.751948 278.005579 
L 218.366048 278.131583 
L 227.980148 278.162543 
L 237.594249 277.910103 
L 247.208349 278.013809 
L 256.822449 263.052525 
L 266.436549 277.862573 
L 276.050649 277.064856 
L 285.66475 278.003139 
L 295.27885 277.855285 
L 304.89295 278.237312 
L 314.50705 278.392346 
L 324.12115 278.104359 
L 333.73525 278.222596 
L 343.349351 277.641294 
L 352.963451 277.917885 
L 362.577551 277.785905 
L 372.191651 277.757261 
L 381.805751 277.408248 
L 391.419852 277.594691 
L 401.033952 277.894337 
L 410.648052 277.63836 
L 420.262152 277.95984 
L 429.876252 277.82576 
L 439.490353 264.601525 
L 449.104453 276.502903 
L 458.718553 277.920155 
L 468.332653 277.813314 
L 477.946753 277.655485 
L 487.560853 277.829667 
L 497.174954 277.857153 
L 506.789054 277.795417 
L 516.403154 277.259715 
L 526.017254 277.783002 
L 535.631354 277.806412 
L 545.245455 277.744506 
" style="fill:none;stroke:#ff7f0e;stroke-linecap:square;stroke-width:6;"/>
   </g>
   <g id="line2d_19">
    <path clip-path="url(#p0b32af6342)" d="M 83.102895 -1 
L 83.768646 319.146601 
L 93.382746 320.266632 
L 102.996846 320.068439 
L 112.610946 319.390009 
L 122.225046 320.055406 
L 131.839147 319.716646 
L 141.453247 319.704942 
L 151.067347 319.956347 
L 160.681447 319.456083 
L 170.295547 319.364885 
L 179.909647 319.275601 
L 189.523748 318.888911 
L 199.137848 318.617261 
L 208.751948 319.128334 
L 218.366048 318.302405 
L 227.980148 319.329956 
L 237.594249 318.347757 
L 247.208349 307.411345 
L 256.822449 318.590068 
L 266.436549 318.877885 
L 276.050649 318.590964 
L 285.66475 318.36045 
L 295.27885 318.617307 
L 304.89295 318.502977 
L 314.50705 318.837475 
L 324.12115 318.46042 
L 333.73525 318.632394 
L 343.349351 318.706838 
L 352.963451 318.871724 
L 362.577551 318.062102 
L 372.191651 318.72265 
L 381.805751 318.052497 
L 391.419852 317.989171 
L 401.033952 318.869609 
L 410.648052 317.845424 
L 420.262152 318.379922 
L 429.876252 318.43088 
L 439.490353 318.028254 
L 449.104453 318.129875 
L 458.718553 318.235898 
L 468.332653 318.634988 
L 477.946753 319.063772 
L 487.560853 319.025091 
L 497.174954 318.618342 
L 506.789054 318.990486 
L 516.403154 318.997558 
L 526.017254 319.465348 
L 535.631354 318.264017 
L 545.245455 318.884216 
" style="fill:none;stroke:#2ca02c;stroke-linecap:square;stroke-width:6;"/>
   </g>
   <g id="line2d_20">
    <path clip-path="url(#p0b32af6342)" d="M 82.669312 -1 
L 83.768646 335.256453 
L 93.382746 338.540975 
L 102.996846 338.277292 
L 112.610946 338.913783 
L 122.225046 338.991732 
L 131.839147 339.792152 
L 141.453247 340.590718 
L 151.067347 339.929583 
L 160.681447 340.583522 
L 170.295547 338.928267 
L 179.909647 340.091396 
L 189.523748 339.265143 
L 199.137848 339.210665 
L 208.751948 339.637766 
L 218.366048 338.44556 
L 227.980148 339.460758 
L 237.594249 338.482204 
L 247.208349 338.779518 
L 256.822449 338.950503 
L 266.436549 339.77288 
L 276.050649 339.635697 
L 285.66475 338.864817 
L 295.27885 339.400057 
L 304.89295 338.657837 
L 314.50705 339.272972 
L 324.12115 339.13043 
L 333.73525 339.385387 
L 343.349351 339.145964 
L 352.963451 333.718663 
L 362.577551 338.270328 
L 372.191651 338.795299 
L 381.805751 338.886961 
L 391.419852 338.967474 
L 401.033952 338.332728 
L 410.648052 338.705907 
L 420.262152 337.809842 
L 429.876252 339.26803 
L 439.490353 338.464847 
L 449.104453 338.981695 
L 458.718553 337.823894 
L 468.332653 338.096903 
L 477.946753 339.308457 
L 487.560853 336.973629 
L 497.174954 338.369418 
L 506.789054 339.0453 
L 516.403154 338.863119 
L 526.017254 338.294031 
L 535.631354 339.359414 
L 545.245455 339.207236 
" style="fill:none;stroke:#d62728;stroke-linecap:square;stroke-width:6;"/>
   </g>
   <g id="line2d_21">
    <path clip-path="url(#p0b32af6342)" d="M 82.119305 -1 
L 83.768646 345.018387 
L 93.382746 345.296568 
L 102.996846 347.585503 
L 112.610946 347.105607 
L 122.225046 346.457612 
L 131.839147 347.620417 
L 141.453247 347.840044 
L 151.067347 348.961542 
L 160.681447 348.043071 
L 170.295547 348.525824 
L 179.909647 349.166098 
L 189.523748 342.222254 
L 199.137848 346.951252 
L 208.751948 347.791912 
L 218.366048 348.928898 
L 227.980148 348.698277 
L 237.594249 349.116545 
L 247.208349 346.681918 
L 256.822449 347.954158 
L 266.436549 349.100532 
L 276.050649 348.338733 
L 285.66475 347.060656 
L 295.27885 348.4881 
L 304.89295 348.245758 
L 314.50705 348.823648 
L 324.12115 347.712943 
L 333.73525 347.508496 
L 343.349351 348.810321 
L 352.963451 348.547535 
L 362.577551 348.462621 
L 372.191651 347.748212 
L 381.805751 346.958185 
L 391.419852 348.236679 
L 401.033952 348.318504 
L 410.648052 348.645621 
L 420.262152 347.810396 
L 429.876252 347.607183 
L 439.490353 348.092701 
L 449.104453 347.537094 
L 458.718553 348.276781 
L 468.332653 346.407257 
L 477.946753 348.904732 
L 487.560853 347.745819 
L 497.174954 347.19523 
L 506.789054 347.222639 
L 516.403154 348.0843 
L 526.017254 347.076715 
L 535.631354 348.362436 
L 545.245455 347.235981 
" style="fill:none;stroke:#9467bd;stroke-linecap:square;stroke-width:6;"/>
   </g>
   <g id="line2d_22">
    <path clip-path="url(#p0b32af6342)" d="M 81.440989 -1 
L 83.768646 350.496197 
L 93.382746 351.203225 
L 102.996846 351.493729 
L 112.610946 351.789638 
L 122.225046 352.472577 
L 131.839147 353.253725 
L 141.453247 352.461614 
L 151.067347 350.187286 
L 160.681447 349.107666 
L 170.295547 353.097486 
L 179.909647 351.313525 
L 189.523748 351.946279 
L 199.137848 348.618026 
L 208.751948 351.896 
L 218.366048 351.593591 
L 227.980148 352.77281 
L 237.594249 351.634372 
L 247.208349 351.948363 
L 256.822449 351.55843 
L 266.436549 351.194408 
L 276.050649 351.232811 
L 285.66475 351.49024 
L 295.27885 352.493948 
L 304.89295 353.056952 
L 314.50705 351.467062 
L 324.12115 352.926223 
L 333.73525 352.538976 
L 343.349351 351.343158 
L 352.963451 353.674187 
L 362.577551 352.222206 
L 372.191651 353.24761 
L 381.805751 352.086782 
L 391.419852 351.312336 
L 401.033952 352.669072 
L 410.648052 352.36115 
L 420.262152 352.845216 
L 429.876252 353.055902 
L 439.490353 352.85604 
L 449.104453 351.716136 
L 458.718553 351.9626 
L 468.332653 352.994475 
L 477.946753 352.362694 
L 487.560853 351.700077 
L 497.174954 351.19464 
L 506.789054 352.689594 
L 516.403154 351.489637 
L 526.017254 353.021436 
L 535.631354 351.738881 
L 545.245455 351.677424 
" style="fill:none;stroke:#8c564b;stroke-linecap:square;stroke-width:6;"/>
   </g>
   <g id="line2d_23">
    <path clip-path="url(#p0b32af6342)" d="M 80.056751 -1 
L 83.768646 349.553004 
L 93.382746 349.426259 
L 102.996846 349.151119 
L 112.610946 349.283454 
L 122.225046 346.10633 
L 131.839147 351.946804 
L 141.453247 353.152567 
L 151.067347 350.916211 
L 160.681447 350.830695 
L 170.295547 352.720895 
L 179.909647 353.109562 
L 189.523748 343.695313 
L 199.137848 353.104929 
L 208.751948 353.431552 
L 218.366048 352.248009 
L 227.980148 353.861787 
L 237.594249 353.000482 
L 247.208349 354.032603 
L 256.822449 354.446178 
L 266.436549 353.702244 
L 276.050649 352.021186 
L 285.66475 352.819613 
L 295.27885 352.740552 
L 304.89295 352.621435 
L 314.50705 353.13731 
L 324.12115 354.800085 
L 333.73525 350.744113 
L 343.349351 350.173312 
L 352.963451 352.808804 
L 362.577551 351.910253 
L 372.191651 354.04613 
L 381.805751 354.597491 
L 391.419852 353.114472 
L 401.033952 352.593053 
L 410.648052 296.294806 
L 420.262152 352.515443 
L 429.876252 354.109472 
L 439.490353 353.152706 
L 449.104453 352.429063 
L 458.718553 353.307586 
L 468.332653 352.465088 
L 477.946753 351.7315 
L 487.560853 352.234111 
L 497.174954 353.851642 
L 506.789054 352.774076 
L 516.403154 351.667325 
L 526.017254 353.938147 
L 535.631354 352.517219 
L 545.245455 352.795941 
" style="fill:none;stroke:#e377c2;stroke-linecap:square;stroke-width:6;"/>
   </g>
   <g id="line2d_24">
    <path clip-path="url(#p0b32af6342)" d="M 122.225046 375.64 
L 122.225046 74.08 
" style="fill:none;stroke:#000000;stroke-dasharray:5.55,2.4;stroke-dashoffset:0;stroke-width:1.5;"/>
   </g>
   <g id="line2d_25">
    <path clip-path="url(#p0b32af6342)" d="M 314.50705 375.64 
L 314.50705 74.08 
" style="fill:none;stroke:#000000;stroke-dasharray:5.55,2.4;stroke-dashoffset:0;stroke-width:1.5;"/>
   </g>
   <g id="text_14">
    <!-- brain_refresh -->
    <g style="fill:#666666;" transform="translate(227.389453 64.08)scale(0.25 -0.25)">
     <defs>
      <path d="M 48.6875 27.296875 
Q 48.6875 37.203125 44.609375 42.84375 
Q 40.53125 48.484375 33.40625 48.484375 
Q 26.265625 48.484375 22.1875 42.84375 
Q 18.109375 37.203125 18.109375 27.296875 
Q 18.109375 17.390625 22.1875 11.75 
Q 26.265625 6.109375 33.40625 6.109375 
Q 40.53125 6.109375 44.609375 11.75 
Q 48.6875 17.390625 48.6875 27.296875 
z
M 18.109375 46.390625 
Q 20.953125 51.265625 25.265625 53.625 
Q 29.59375 56 35.59375 56 
Q 45.5625 56 51.78125 48.09375 
Q 58.015625 40.1875 58.015625 27.296875 
Q 58.015625 14.40625 51.78125 6.484375 
Q 45.5625 -1.421875 35.59375 -1.421875 
Q 29.59375 -1.421875 25.265625 0.953125 
Q 20.953125 3.328125 18.109375 8.203125 
L 18.109375 0 
L 9.078125 0 
L 9.078125 75.984375 
L 18.109375 75.984375 
z
" id="DejaVuSans-98"/>
      <path d="M 41.109375 46.296875 
Q 39.59375 47.171875 37.8125 47.578125 
Q 36.03125 48 33.890625 48 
Q 26.265625 48 22.1875 43.046875 
Q 18.109375 38.09375 18.109375 28.8125 
L 18.109375 0 
L 9.078125 0 
L 9.078125 54.6875 
L 18.109375 54.6875 
L 18.109375 46.1875 
Q 20.953125 51.171875 25.484375 53.578125 
Q 30.03125 56 36.53125 56 
Q 37.453125 56 38.578125 55.875 
Q 39.703125 55.765625 41.0625 55.515625 
z
" id="DejaVuSans-114"/>
      <path d="M 34.28125 27.484375 
Q 23.390625 27.484375 19.1875 25 
Q 14.984375 22.515625 14.984375 16.5 
Q 14.984375 11.71875 18.140625 8.90625 
Q 21.296875 6.109375 26.703125 6.109375 
Q 34.1875 6.109375 38.703125 11.40625 
Q 43.21875 16.703125 43.21875 25.484375 
L 43.21875 27.484375 
z
M 52.203125 31.203125 
L 52.203125 0 
L 43.21875 0 
L 43.21875 8.296875 
Q 40.140625 3.328125 35.546875 0.953125 
Q 30.953125 -1.421875 24.3125 -1.421875 
Q 15.921875 -1.421875 10.953125 3.296875 
Q 6 8.015625 6 15.921875 
Q 6 25.140625 12.171875 29.828125 
Q 18.359375 34.515625 30.609375 34.515625 
L 43.21875 34.515625 
L 43.21875 35.40625 
Q 43.21875 41.609375 39.140625 45 
Q 35.0625 48.390625 27.6875 48.390625 
Q 23 48.390625 18.546875 47.265625 
Q 14.109375 46.140625 10.015625 43.890625 
L 10.015625 52.203125 
Q 14.9375 54.109375 19.578125 55.046875 
Q 24.21875 56 28.609375 56 
Q 40.484375 56 46.34375 49.84375 
Q 52.203125 43.703125 52.203125 31.203125 
z
" id="DejaVuSans-97"/>
      <path d="M 54.890625 33.015625 
L 54.890625 0 
L 45.90625 0 
L 45.90625 32.71875 
Q 45.90625 40.484375 42.875 44.328125 
Q 39.84375 48.1875 33.796875 48.1875 
Q 26.515625 48.1875 22.3125 43.546875 
Q 18.109375 38.921875 18.109375 30.90625 
L 18.109375 0 
L 9.078125 0 
L 9.078125 54.6875 
L 18.109375 54.6875 
L 18.109375 46.1875 
Q 21.34375 51.125 25.703125 53.5625 
Q 30.078125 56 35.796875 56 
Q 45.21875 56 50.046875 50.171875 
Q 54.890625 44.34375 54.890625 33.015625 
z
" id="DejaVuSans-110"/>
      <path d="M 50.984375 -16.609375 
L 50.984375 -23.578125 
L -0.984375 -23.578125 
L -0.984375 -16.609375 
z
" id="DejaVuSans-95"/>
      <path d="M 37.109375 75.984375 
L 37.109375 68.5 
L 28.515625 68.5 
Q 23.6875 68.5 21.796875 66.546875 
Q 19.921875 64.59375 19.921875 59.515625 
L 19.921875 54.6875 
L 34.71875 54.6875 
L 34.71875 47.703125 
L 19.921875 47.703125 
L 19.921875 0 
L 10.890625 0 
L 10.890625 47.703125 
L 2.296875 47.703125 
L 2.296875 54.6875 
L 10.890625 54.6875 
L 10.890625 58.5 
Q 10.890625 67.625 15.140625 71.796875 
Q 19.390625 75.984375 28.609375 75.984375 
z
" id="DejaVuSans-102"/>
      <path d="M 54.890625 33.015625 
L 54.890625 0 
L 45.90625 0 
L 45.90625 32.71875 
Q 45.90625 40.484375 42.875 44.328125 
Q 39.84375 48.1875 33.796875 48.1875 
Q 26.515625 48.1875 22.3125 43.546875 
Q 18.109375 38.921875 18.109375 30.90625 
L 18.109375 0 
L 9.078125 0 
L 9.078125 75.984375 
L 18.109375 75.984375 
L 18.109375 46.1875 
Q 21.34375 51.125 25.703125 53.5625 
Q 30.078125 56 35.796875 56 
Q 45.21875 56 50.046875 50.171875 
Q 54.890625 44.34375 54.890625 33.015625 
z
" id="DejaVuSans-104"/>
     </defs>
     <use xlink:href="#DejaVuSans-98"/>
     <use x="63.476562" xlink:href="#DejaVuSans-114"/>
     <use x="104.589844" xlink:href="#DejaVuSans-97"/>
     <use x="165.869141" xlink:href="#DejaVuSans-105"/>
     <use x="193.652344" xlink:href="#DejaVuSans-110"/>
     <use x="257.03125" xlink:href="#DejaVuSans-95"/>
     <use x="307.03125" xlink:href="#DejaVuSans-114"/>
     <use x="345.894531" xlink:href="#DejaVuSans-101"/>
     <use x="407.417969" xlink:href="#DejaVuSans-102"/>
     <use x="442.623047" xlink:href="#DejaVuSans-114"/>
     <use x="481.486328" xlink:href="#DejaVuSans-101"/>
     <use x="543.009766" xlink:href="#DejaVuSans-115"/>
     <use x="595.109375" xlink:href="#DejaVuSans-104"/>
    </g>
   </g>
  </g>
  <g id="text_15">
   <!-- CLE time profile -->
   <g transform="translate(168.892969 31.435313)scale(0.3 -0.3)">
    <defs>
     <path d="M 64.40625 67.28125 
L 64.40625 56.890625 
Q 59.421875 61.53125 53.78125 63.8125 
Q 48.140625 66.109375 41.796875 66.109375 
Q 29.296875 66.109375 22.65625 58.46875 
Q 16.015625 50.828125 16.015625 36.375 
Q 16.015625 21.96875 22.65625 14.328125 
Q 29.296875 6.6875 41.796875 6.6875 
Q 48.140625 6.6875 53.78125 8.984375 
Q 59.421875 11.28125 64.40625 15.921875 
L 64.40625 5.609375 
Q 59.234375 2.09375 53.4375 0.328125 
Q 47.65625 -1.421875 41.21875 -1.421875 
Q 24.65625 -1.421875 15.125 8.703125 
Q 5.609375 18.84375 5.609375 36.375 
Q 5.609375 53.953125 15.125 64.078125 
Q 24.65625 74.21875 41.21875 74.21875 
Q 47.75 74.21875 53.53125 72.484375 
Q 59.328125 70.75 64.40625 67.28125 
z
" id="DejaVuSans-67"/>
     <path d="M 9.8125 72.90625 
L 19.671875 72.90625 
L 19.671875 8.296875 
L 55.171875 8.296875 
L 55.171875 0 
L 9.8125 0 
z
" id="DejaVuSans-76"/>
     <path d="M 9.8125 72.90625 
L 55.90625 72.90625 
L 55.90625 64.59375 
L 19.671875 64.59375 
L 19.671875 43.015625 
L 54.390625 43.015625 
L 54.390625 34.71875 
L 19.671875 34.71875 
L 19.671875 8.296875 
L 56.78125 8.296875 
L 56.78125 0 
L 9.8125 0 
z
" id="DejaVuSans-69"/>
     <path d="M 30.609375 48.390625 
Q 23.390625 48.390625 19.1875 42.75 
Q 14.984375 37.109375 14.984375 27.296875 
Q 14.984375 17.484375 19.15625 11.84375 
Q 23.34375 6.203125 30.609375 6.203125 
Q 37.796875 6.203125 41.984375 11.859375 
Q 46.1875 17.53125 46.1875 27.296875 
Q 46.1875 37.015625 41.984375 42.703125 
Q 37.796875 48.390625 30.609375 48.390625 
z
M 30.609375 56 
Q 42.328125 56 49.015625 48.375 
Q 55.71875 40.765625 55.71875 27.296875 
Q 55.71875 13.875 49.015625 6.21875 
Q 42.328125 -1.421875 30.609375 -1.421875 
Q 18.84375 -1.421875 12.171875 6.21875 
Q 5.515625 13.875 5.515625 27.296875 
Q 5.515625 40.765625 12.171875 48.375 
Q 18.84375 56 30.609375 56 
z
" id="DejaVuSans-111"/>
    </defs>
    <use xlink:href="#DejaVuSans-67"/>
    <use x="69.824219" xlink:href="#DejaVuSans-76"/>
    <use x="125.537109" xlink:href="#DejaVuSans-69"/>
    <use x="188.720703" xlink:href="#DejaVuSans-32"/>
    <use x="220.507812" xlink:href="#DejaVuSans-116"/>
    <use x="259.716797" xlink:href="#DejaVuSans-105"/>
    <use x="287.5" xlink:href="#DejaVuSans-109"/>
    <use x="384.912109" xlink:href="#DejaVuSans-101"/>
    <use x="446.435547" xlink:href="#DejaVuSans-32"/>
    <use x="478.222656" xlink:href="#DejaVuSans-112"/>
    <use x="541.699219" xlink:href="#DejaVuSans-114"/>
    <use x="580.5625" xlink:href="#DejaVuSans-111"/>
    <use x="641.744141" xlink:href="#DejaVuSans-102"/>
    <use x="676.949219" xlink:href="#DejaVuSans-105"/>
    <use x="704.732422" xlink:href="#DejaVuSans-108"/>
    <use x="732.515625" xlink:href="#DejaVuSans-101"/>
   </g>
  </g>
 </g>
 <defs>
  <clipPath id="p0b32af6342">
   <rect height="301.56" width="518.2" x="50.6" y="74.08"/>
  </clipPath>
 </defs>
</svg>
