<?xml version="1.0" encoding="utf-8" standalone="no"?>
<!DOCTYPE svg PUBLIC "-//W3C//DTD SVG 1.1//EN"
  "http://www.w3.org/Graphics/SVG/1.1/DTD/svg11.dtd">
<!-- Created with matplotlib (https://matplotlib.org/) -->
<svg height="432pt" version="1.1" viewBox="0 0 576 432" width="576pt" xmlns="http://www.w3.org/2000/svg" xmlns:xlink="http://www.w3.org/1999/xlink">
 <metadata>
  <rdf:RDF xmlns:cc="http://creativecommons.org/ns#" xmlns:dc="http://purl.org/dc/elements/1.1/" xmlns:rdf="http://www.w3.org/1999/02/22-rdf-syntax-ns#">
   <cc:Work>
    <dc:type rdf:resource="http://purl.org/dc/dcmitype/StillImage"/>
    <dc:date>2022-04-11T20:23:54.533412</dc:date>
    <dc:format>image/svg+xml</dc:format>
    <dc:creator>
     <cc:Agent>
      <dc:title>Matplotlib v3.3.4, https://matplotlib.org/</dc:title>
     </cc:Agent>
    </dc:creator>
   </cc:Work>
  </rdf:RDF>
 </metadata>
 <defs>
  <style type="text/css">*{stroke-linecap:butt;stroke-linejoin:round;}</style>
 </defs>
 <g id="figure_1">
  <g id="patch_1">
   <path d="M 0 432 
L 576 432 
L 576 0 
L 0 0 
z
" style="fill:#ffffff;"/>
  </g>
  <g id="axes_1">
   <g id="patch_2">
    <path d="M 61.94 375.64 
L 568.8 375.64 
L 568.8 74.08 
L 61.94 74.08 
z
" style="fill:#ffffff;"/>
   </g>
   <g id="matplotlib.axis_1">
    <g id="xtick_1">
     <g id="line2d_1">
      <defs>
       <path d="M 0 0 
L 0 3.5 
" id="m96c56b1a35" style="stroke:#666666;stroke-width:0.8;"/>
      </defs>
      <g>
       <use style="fill:#666666;stroke:#666666;stroke-width:0.8;" x="84.979091" xlink:href="#m96c56b1a35" y="375.64"/>
      </g>
     </g>
     <g id="text_1">
      <!-- 0 -->
      <g style="fill:#666666;" transform="translate(79.252841 396.317187)scale(0.18 -0.18)">
       <defs>
        <path d="M 31.78125 66.40625 
Q 24.171875 66.40625 20.328125 58.90625 
Q 16.5 51.421875 16.5 36.375 
Q 16.5 21.390625 20.328125 13.890625 
Q 24.171875 6.390625 31.78125 6.390625 
Q 39.453125 6.390625 43.28125 13.890625 
Q 47.125 21.390625 47.125 36.375 
Q 47.125 51.421875 43.28125 58.90625 
Q 39.453125 66.40625 31.78125 66.40625 
z
M 31.78125 74.21875 
Q 44.046875 74.21875 50.515625 64.515625 
Q 56.984375 54.828125 56.984375 36.375 
Q 56.984375 17.96875 50.515625 8.265625 
Q 44.046875 -1.421875 31.78125 -1.421875 
Q 19.53125 -1.421875 13.0625 8.265625 
Q 6.59375 17.96875 6.59375 36.375 
Q 6.59375 54.828125 13.0625 64.515625 
Q 19.53125 74.21875 31.78125 74.21875 
z
" id="DejaVuSans-48"/>
       </defs>
       <use xlink:href="#DejaVuSans-48"/>
      </g>
     </g>
    </g>
    <g id="xtick_2">
     <g id="line2d_2">
      <g>
       <use style="fill:#666666;stroke:#666666;stroke-width:0.8;" x="179.016197" xlink:href="#m96c56b1a35" y="375.64"/>
      </g>
     </g>
     <g id="text_2">
      <!-- 10 -->
      <g style="fill:#666666;" transform="translate(167.563697 396.317187)scale(0.18 -0.18)">
       <defs>
        <path d="M 12.40625 8.296875 
L 28.515625 8.296875 
L 28.515625 63.921875 
L 10.984375 60.40625 
L 10.984375 69.390625 
L 28.421875 72.90625 
L 38.28125 72.90625 
L 38.28125 8.296875 
L 54.390625 8.296875 
L 54.390625 0 
L 12.40625 0 
z
" id="DejaVuSans-49"/>
       </defs>
       <use xlink:href="#DejaVuSans-49"/>
       <use x="63.623047" xlink:href="#DejaVuSans-48"/>
      </g>
     </g>
    </g>
    <g id="xtick_3">
     <g id="line2d_3">
      <g>
       <use style="fill:#666666;stroke:#666666;stroke-width:0.8;" x="273.053302" xlink:href="#m96c56b1a35" y="375.64"/>
      </g>
     </g>
     <g id="text_3">
      <!-- 20 -->
      <g style="fill:#666666;" transform="translate(261.600802 396.317187)scale(0.18 -0.18)">
       <defs>
        <path d="M 19.1875 8.296875 
L 53.609375 8.296875 
L 53.609375 0 
L 7.328125 0 
L 7.328125 8.296875 
Q 12.9375 14.109375 22.625 23.890625 
Q 32.328125 33.6875 34.8125 36.53125 
Q 39.546875 41.84375 41.421875 45.53125 
Q 43.3125 49.21875 43.3125 52.78125 
Q 43.3125 58.59375 39.234375 62.25 
Q 35.15625 65.921875 28.609375 65.921875 
Q 23.96875 65.921875 18.8125 64.3125 
Q 13.671875 62.703125 7.8125 59.421875 
L 7.8125 69.390625 
Q 13.765625 71.78125 18.9375 73 
Q 24.125 74.21875 28.421875 74.21875 
Q 39.75 74.21875 46.484375 68.546875 
Q 53.21875 62.890625 53.21875 53.421875 
Q 53.21875 48.921875 51.53125 44.890625 
Q 49.859375 40.875 45.40625 35.40625 
Q 44.1875 33.984375 37.640625 27.21875 
Q 31.109375 20.453125 19.1875 8.296875 
z
" id="DejaVuSans-50"/>
       </defs>
       <use xlink:href="#DejaVuSans-50"/>
       <use x="63.623047" xlink:href="#DejaVuSans-48"/>
      </g>
     </g>
    </g>
    <g id="xtick_4">
     <g id="line2d_4">
      <g>
       <use style="fill:#666666;stroke:#666666;stroke-width:0.8;" x="367.090408" xlink:href="#m96c56b1a35" y="375.64"/>
      </g>
     </g>
     <g id="text_4">
      <!-- 30 -->
      <g style="fill:#666666;" transform="translate(355.637908 396.317187)scale(0.18 -0.18)">
       <defs>
        <path d="M 40.578125 39.3125 
Q 47.65625 37.796875 51.625 33 
Q 55.609375 28.21875 55.609375 21.1875 
Q 55.609375 10.40625 48.1875 4.484375 
Q 40.765625 -1.421875 27.09375 -1.421875 
Q 22.515625 -1.421875 17.65625 -0.515625 
Q 12.796875 0.390625 7.625 2.203125 
L 7.625 11.71875 
Q 11.71875 9.328125 16.59375 8.109375 
Q 21.484375 6.890625 26.8125 6.890625 
Q 36.078125 6.890625 40.9375 10.546875 
Q 45.796875 14.203125 45.796875 21.1875 
Q 45.796875 27.640625 41.28125 31.265625 
Q 36.765625 34.90625 28.71875 34.90625 
L 20.21875 34.90625 
L 20.21875 43.015625 
L 29.109375 43.015625 
Q 36.375 43.015625 40.234375 45.921875 
Q 44.09375 48.828125 44.09375 54.296875 
Q 44.09375 59.90625 40.109375 62.90625 
Q 36.140625 65.921875 28.71875 65.921875 
Q 24.65625 65.921875 20.015625 65.03125 
Q 15.375 64.15625 9.8125 62.3125 
L 9.8125 71.09375 
Q 15.4375 72.65625 20.34375 73.4375 
Q 25.25 74.21875 29.59375 74.21875 
Q 40.828125 74.21875 47.359375 69.109375 
Q 53.90625 64.015625 53.90625 55.328125 
Q 53.90625 49.265625 50.4375 45.09375 
Q 46.96875 40.921875 40.578125 39.3125 
z
" id="DejaVuSans-51"/>
       </defs>
       <use xlink:href="#DejaVuSans-51"/>
       <use x="63.623047" xlink:href="#DejaVuSans-48"/>
      </g>
     </g>
    </g>
    <g id="xtick_5">
     <g id="line2d_5">
      <g>
       <use style="fill:#666666;stroke:#666666;stroke-width:0.8;" x="461.127514" xlink:href="#m96c56b1a35" y="375.64"/>
      </g>
     </g>
     <g id="text_5">
      <!-- 40 -->
      <g style="fill:#666666;" transform="translate(449.675014 396.317187)scale(0.18 -0.18)">
       <defs>
        <path d="M 37.796875 64.3125 
L 12.890625 25.390625 
L 37.796875 25.390625 
z
M 35.203125 72.90625 
L 47.609375 72.90625 
L 47.609375 25.390625 
L 58.015625 25.390625 
L 58.015625 17.1875 
L 47.609375 17.1875 
L 47.609375 0 
L 37.796875 0 
L 37.796875 17.1875 
L 4.890625 17.1875 
L 4.890625 26.703125 
z
" id="DejaVuSans-52"/>
       </defs>
       <use xlink:href="#DejaVuSans-52"/>
       <use x="63.623047" xlink:href="#DejaVuSans-48"/>
      </g>
     </g>
    </g>
    <g id="xtick_6">
     <g id="line2d_6">
      <g>
       <use style="fill:#666666;stroke:#666666;stroke-width:0.8;" x="555.16462" xlink:href="#m96c56b1a35" y="375.64"/>
      </g>
     </g>
     <g id="text_6">
      <!-- 50 -->
      <g style="fill:#666666;" transform="translate(543.71212 396.317187)scale(0.18 -0.18)">
       <defs>
        <path d="M 10.796875 72.90625 
L 49.515625 72.90625 
L 49.515625 64.59375 
L 19.828125 64.59375 
L 19.828125 46.734375 
Q 21.96875 47.46875 24.109375 47.828125 
Q 26.265625 48.1875 28.421875 48.1875 
Q 40.625 48.1875 47.75 41.5 
Q 54.890625 34.8125 54.890625 23.390625 
Q 54.890625 11.625 47.5625 5.09375 
Q 40.234375 -1.421875 26.90625 -1.421875 
Q 22.3125 -1.421875 17.546875 -0.640625 
Q 12.796875 0.140625 7.71875 1.703125 
L 7.71875 11.625 
Q 12.109375 9.234375 16.796875 8.0625 
Q 21.484375 6.890625 26.703125 6.890625 
Q 35.15625 6.890625 40.078125 11.328125 
Q 45.015625 15.765625 45.015625 23.390625 
Q 45.015625 31 40.078125 35.4375 
Q 35.15625 39.890625 26.703125 39.890625 
Q 22.75 39.890625 18.8125 39.015625 
Q 14.890625 38.140625 10.796875 36.28125 
z
" id="DejaVuSans-53"/>
       </defs>
       <use xlink:href="#DejaVuSans-53"/>
       <use x="63.623047" xlink:href="#DejaVuSans-48"/>
      </g>
     </g>
    </g>
    <g id="text_7">
     <!-- cle step -->
     <g style="fill:#666666;" transform="translate(272.207031 420.777187)scale(0.22 -0.22)">
      <defs>
       <path d="M 48.78125 52.59375 
L 48.78125 44.1875 
Q 44.96875 46.296875 41.140625 47.34375 
Q 37.3125 48.390625 33.40625 48.390625 
Q 24.65625 48.390625 19.8125 42.84375 
Q 14.984375 37.3125 14.984375 27.296875 
Q 14.984375 17.28125 19.8125 11.734375 
Q 24.65625 6.203125 33.40625 6.203125 
Q 37.3125 6.203125 41.140625 7.25 
Q 44.96875 8.296875 48.78125 10.40625 
L 48.78125 2.09375 
Q 45.015625 0.34375 40.984375 -0.53125 
Q 36.96875 -1.421875 32.421875 -1.421875 
Q 20.0625 -1.421875 12.78125 6.34375 
Q 5.515625 14.109375 5.515625 27.296875 
Q 5.515625 40.671875 12.859375 48.328125 
Q 20.21875 56 33.015625 56 
Q 37.15625 56 41.109375 55.140625 
Q 45.0625 54.296875 48.78125 52.59375 
z
" id="DejaVuSans-99"/>
       <path d="M 9.421875 75.984375 
L 18.40625 75.984375 
L 18.40625 0 
L 9.421875 0 
z
" id="DejaVuSans-108"/>
       <path d="M 56.203125 29.59375 
L 56.203125 25.203125 
L 14.890625 25.203125 
Q 15.484375 15.921875 20.484375 11.0625 
Q 25.484375 6.203125 34.421875 6.203125 
Q 39.59375 6.203125 44.453125 7.46875 
Q 49.3125 8.734375 54.109375 11.28125 
L 54.109375 2.78125 
Q 49.265625 0.734375 44.1875 -0.34375 
Q 39.109375 -1.421875 33.890625 -1.421875 
Q 20.796875 -1.421875 13.15625 6.1875 
Q 5.515625 13.8125 5.515625 26.8125 
Q 5.515625 40.234375 12.765625 48.109375 
Q 20.015625 56 32.328125 56 
Q 43.359375 56 49.78125 48.890625 
Q 56.203125 41.796875 56.203125 29.59375 
z
M 47.21875 32.234375 
Q 47.125 39.59375 43.09375 43.984375 
Q 39.0625 48.390625 32.421875 48.390625 
Q 24.90625 48.390625 20.390625 44.140625 
Q 15.875 39.890625 15.1875 32.171875 
z
" id="DejaVuSans-101"/>
       <path id="DejaVuSans-32"/>
       <path d="M 44.28125 53.078125 
L 44.28125 44.578125 
Q 40.484375 46.53125 36.375 47.5 
Q 32.28125 48.484375 27.875 48.484375 
Q 21.1875 48.484375 17.84375 46.4375 
Q 14.5 44.390625 14.5 40.28125 
Q 14.5 37.15625 16.890625 35.375 
Q 19.28125 33.59375 26.515625 31.984375 
L 29.59375 31.296875 
Q 39.15625 29.25 43.1875 25.515625 
Q 47.21875 21.78125 47.21875 15.09375 
Q 47.21875 7.46875 41.1875 3.015625 
Q 35.15625 -1.421875 24.609375 -1.421875 
Q 20.21875 -1.421875 15.453125 -0.5625 
Q 10.6875 0.296875 5.421875 2 
L 5.421875 11.28125 
Q 10.40625 8.6875 15.234375 7.390625 
Q 20.0625 6.109375 24.8125 6.109375 
Q 31.15625 6.109375 34.5625 8.28125 
Q 37.984375 10.453125 37.984375 14.40625 
Q 37.984375 18.0625 35.515625 20.015625 
Q 33.0625 21.96875 24.703125 23.78125 
L 21.578125 24.515625 
Q 13.234375 26.265625 9.515625 29.90625 
Q 5.8125 33.546875 5.8125 39.890625 
Q 5.8125 47.609375 11.28125 51.796875 
Q 16.75 56 26.8125 56 
Q 31.78125 56 36.171875 55.265625 
Q 40.578125 54.546875 44.28125 53.078125 
z
" id="DejaVuSans-115"/>
       <path d="M 18.3125 70.21875 
L 18.3125 54.6875 
L 36.8125 54.6875 
L 36.8125 47.703125 
L 18.3125 47.703125 
L 18.3125 18.015625 
Q 18.3125 11.328125 20.140625 9.421875 
Q 21.96875 7.515625 27.59375 7.515625 
L 36.8125 7.515625 
L 36.8125 0 
L 27.59375 0 
Q 17.1875 0 13.234375 3.875 
Q 9.28125 7.765625 9.28125 18.015625 
L 9.28125 47.703125 
L 2.6875 47.703125 
L 2.6875 54.6875 
L 9.28125 54.6875 
L 9.28125 70.21875 
z
" id="DejaVuSans-116"/>
       <path d="M 18.109375 8.203125 
L 18.109375 -20.796875 
L 9.078125 -20.796875 
L 9.078125 54.6875 
L 18.109375 54.6875 
L 18.109375 46.390625 
Q 20.953125 51.265625 25.265625 53.625 
Q 29.59375 56 35.59375 56 
Q 45.5625 56 51.78125 48.09375 
Q 58.015625 40.1875 58.015625 27.296875 
Q 58.015625 14.40625 51.78125 6.484375 
Q 45.5625 -1.421875 35.59375 -1.421875 
Q 29.59375 -1.421875 25.265625 0.953125 
Q 20.953125 3.328125 18.109375 8.203125 
z
M 48.6875 27.296875 
Q 48.6875 37.203125 44.609375 42.84375 
Q 40.53125 48.484375 33.40625 48.484375 
Q 26.265625 48.484375 22.1875 42.84375 
Q 18.109375 37.203125 18.109375 27.296875 
Q 18.109375 17.390625 22.1875 11.75 
Q 26.265625 6.109375 33.40625 6.109375 
Q 40.53125 6.109375 44.609375 11.75 
Q 48.6875 17.390625 48.6875 27.296875 
z
" id="DejaVuSans-112"/>
      </defs>
      <use xlink:href="#DejaVuSans-99"/>
      <use x="54.980469" xlink:href="#DejaVuSans-108"/>
      <use x="82.763672" xlink:href="#DejaVuSans-101"/>
      <use x="144.287109" xlink:href="#DejaVuSans-32"/>
      <use x="176.074219" xlink:href="#DejaVuSans-115"/>
      <use x="228.173828" xlink:href="#DejaVuSans-116"/>
      <use x="267.382812" xlink:href="#DejaVuSans-101"/>
      <use x="328.90625" xlink:href="#DejaVuSans-112"/>
     </g>
    </g>
   </g>
   <g id="matplotlib.axis_2">
    <g id="ytick_1">
     <g id="line2d_7">
      <path clip-path="url(#p50091eab71)" d="M 61.94 375.64 
L 568.8 375.64 
" style="fill:none;stroke:#000000;stroke-dasharray:0.8,1.32;stroke-dashoffset:0;stroke-width:0.8;"/>
     </g>
     <g id="line2d_8">
      <defs>
       <path d="M 0 0 
L -3.5 0 
" id="m0e87e93233" style="stroke:#666666;stroke-width:0.8;"/>
      </defs>
      <g>
       <use style="fill:#666666;stroke:#666666;stroke-width:0.8;" x="61.94" xlink:href="#m0e87e93233" y="375.64"/>
      </g>
     </g>
     <g id="text_8">
      <!-- 0 -->
      <g style="fill:#666666;" transform="translate(43.4875 382.478594)scale(0.18 -0.18)">
       <use xlink:href="#DejaVuSans-48"/>
      </g>
     </g>
    </g>
    <g id="ytick_2">
     <g id="line2d_9">
      <path clip-path="url(#p50091eab71)" d="M 61.94 322.994075 
L 568.8 322.994075 
" style="fill:none;stroke:#000000;stroke-dasharray:0.8,1.32;stroke-dashoffset:0;stroke-width:0.8;"/>
     </g>
     <g id="line2d_10">
      <g>
       <use style="fill:#666666;stroke:#666666;stroke-width:0.8;" x="61.94" xlink:href="#m0e87e93233" y="322.994075"/>
      </g>
     </g>
     <g id="text_9">
      <!-- 2 -->
      <g style="fill:#666666;" transform="translate(43.4875 329.832669)scale(0.18 -0.18)">
       <use xlink:href="#DejaVuSans-50"/>
      </g>
     </g>
    </g>
    <g id="ytick_3">
     <g id="line2d_11">
      <path clip-path="url(#p50091eab71)" d="M 61.94 270.34815 
L 568.8 270.34815 
" style="fill:none;stroke:#000000;stroke-dasharray:0.8,1.32;stroke-dashoffset:0;stroke-width:0.8;"/>
     </g>
     <g id="line2d_12">
      <g>
       <use style="fill:#666666;stroke:#666666;stroke-width:0.8;" x="61.94" xlink:href="#m0e87e93233" y="270.34815"/>
      </g>
     </g>
     <g id="text_10">
      <!-- 4 -->
      <g style="fill:#666666;" transform="translate(43.4875 277.186743)scale(0.18 -0.18)">
       <use xlink:href="#DejaVuSans-52"/>
      </g>
     </g>
    </g>
    <g id="ytick_4">
     <g id="line2d_13">
      <path clip-path="url(#p50091eab71)" d="M 61.94 217.702225 
L 568.8 217.702225 
" style="fill:none;stroke:#000000;stroke-dasharray:0.8,1.32;stroke-dashoffset:0;stroke-width:0.8;"/>
     </g>
     <g id="line2d_14">
      <g>
       <use style="fill:#666666;stroke:#666666;stroke-width:0.8;" x="61.94" xlink:href="#m0e87e93233" y="217.702225"/>
      </g>
     </g>
     <g id="text_11">
      <!-- 6 -->
      <g style="fill:#666666;" transform="translate(43.4875 224.540818)scale(0.18 -0.18)">
       <defs>
        <path d="M 33.015625 40.375 
Q 26.375 40.375 22.484375 35.828125 
Q 18.609375 31.296875 18.609375 23.390625 
Q 18.609375 15.53125 22.484375 10.953125 
Q 26.375 6.390625 33.015625 6.390625 
Q 39.65625 6.390625 43.53125 10.953125 
Q 47.40625 15.53125 47.40625 23.390625 
Q 47.40625 31.296875 43.53125 35.828125 
Q 39.65625 40.375 33.015625 40.375 
z
M 52.59375 71.296875 
L 52.59375 62.3125 
Q 48.875 64.0625 45.09375 64.984375 
Q 41.3125 65.921875 37.59375 65.921875 
Q 27.828125 65.921875 22.671875 59.328125 
Q 17.53125 52.734375 16.796875 39.40625 
Q 19.671875 43.65625 24.015625 45.921875 
Q 28.375 48.1875 33.59375 48.1875 
Q 44.578125 48.1875 50.953125 41.515625 
Q 57.328125 34.859375 57.328125 23.390625 
Q 57.328125 12.15625 50.6875 5.359375 
Q 44.046875 -1.421875 33.015625 -1.421875 
Q 20.359375 -1.421875 13.671875 8.265625 
Q 6.984375 17.96875 6.984375 36.375 
Q 6.984375 53.65625 15.1875 63.9375 
Q 23.390625 74.21875 37.203125 74.21875 
Q 40.921875 74.21875 44.703125 73.484375 
Q 48.484375 72.75 52.59375 71.296875 
z
" id="DejaVuSans-54"/>
       </defs>
       <use xlink:href="#DejaVuSans-54"/>
      </g>
     </g>
    </g>
    <g id="ytick_5">
     <g id="line2d_15">
      <path clip-path="url(#p50091eab71)" d="M 61.94 165.056299 
L 568.8 165.056299 
" style="fill:none;stroke:#000000;stroke-dasharray:0.8,1.32;stroke-dashoffset:0;stroke-width:0.8;"/>
     </g>
     <g id="line2d_16">
      <g>
       <use style="fill:#666666;stroke:#666666;stroke-width:0.8;" x="61.94" xlink:href="#m0e87e93233" y="165.056299"/>
      </g>
     </g>
     <g id="text_12">
      <!-- 8 -->
      <g style="fill:#666666;" transform="translate(43.4875 171.894893)scale(0.18 -0.18)">
       <defs>
        <path d="M 31.78125 34.625 
Q 24.75 34.625 20.71875 30.859375 
Q 16.703125 27.09375 16.703125 20.515625 
Q 16.703125 13.921875 20.71875 10.15625 
Q 24.75 6.390625 31.78125 6.390625 
Q 38.8125 6.390625 42.859375 10.171875 
Q 46.921875 13.96875 46.921875 20.515625 
Q 46.921875 27.09375 42.890625 30.859375 
Q 38.875 34.625 31.78125 34.625 
z
M 21.921875 38.8125 
Q 15.578125 40.375 12.03125 44.71875 
Q 8.5 49.078125 8.5 55.328125 
Q 8.5 64.0625 14.71875 69.140625 
Q 20.953125 74.21875 31.78125 74.21875 
Q 42.671875 74.21875 48.875 69.140625 
Q 55.078125 64.0625 55.078125 55.328125 
Q 55.078125 49.078125 51.53125 44.71875 
Q 48 40.375 41.703125 38.8125 
Q 48.828125 37.15625 52.796875 32.3125 
Q 56.78125 27.484375 56.78125 20.515625 
Q 56.78125 9.90625 50.3125 4.234375 
Q 43.84375 -1.421875 31.78125 -1.421875 
Q 19.734375 -1.421875 13.25 4.234375 
Q 6.78125 9.90625 6.78125 20.515625 
Q 6.78125 27.484375 10.78125 32.3125 
Q 14.796875 37.15625 21.921875 38.8125 
z
M 18.3125 54.390625 
Q 18.3125 48.734375 21.84375 45.5625 
Q 25.390625 42.390625 31.78125 42.390625 
Q 38.140625 42.390625 41.71875 45.5625 
Q 45.3125 48.734375 45.3125 54.390625 
Q 45.3125 60.0625 41.71875 63.234375 
Q 38.140625 66.40625 31.78125 66.40625 
Q 25.390625 66.40625 21.84375 63.234375 
Q 18.3125 60.0625 18.3125 54.390625 
z
" id="DejaVuSans-56"/>
       </defs>
       <use xlink:href="#DejaVuSans-56"/>
      </g>
     </g>
    </g>
    <g id="ytick_6">
     <g id="line2d_17">
      <path clip-path="url(#p50091eab71)" d="M 61.94 112.410374 
L 568.8 112.410374 
" style="fill:none;stroke:#000000;stroke-dasharray:0.8,1.32;stroke-dashoffset:0;stroke-width:0.8;"/>
     </g>
     <g id="line2d_18">
      <g>
       <use style="fill:#666666;stroke:#666666;stroke-width:0.8;" x="61.94" xlink:href="#m0e87e93233" y="112.410374"/>
      </g>
     </g>
     <g id="text_13">
      <!-- 10 -->
      <g style="fill:#666666;" transform="translate(32.035 119.248968)scale(0.18 -0.18)">
       <use xlink:href="#DejaVuSans-49"/>
       <use x="63.623047" xlink:href="#DejaVuSans-48"/>
      </g>
     </g>
    </g>
    <g id="text_14">
     <!-- time (s) -->
     <g style="fill:#666666;" transform="translate(23.459688 267.521094)rotate(-90)scale(0.22 -0.22)">
      <defs>
       <path d="M 9.421875 54.6875 
L 18.40625 54.6875 
L 18.40625 0 
L 9.421875 0 
z
M 9.421875 75.984375 
L 18.40625 75.984375 
L 18.40625 64.59375 
L 9.421875 64.59375 
z
" id="DejaVuSans-105"/>
       <path d="M 52 44.1875 
Q 55.375 50.25 60.0625 53.125 
Q 64.75 56 71.09375 56 
Q 79.640625 56 84.28125 50.015625 
Q 88.921875 44.046875 88.921875 33.015625 
L 88.921875 0 
L 79.890625 0 
L 79.890625 32.71875 
Q 79.890625 40.578125 77.09375 44.375 
Q 74.3125 48.1875 68.609375 48.1875 
Q 61.625 48.1875 57.5625 43.546875 
Q 53.515625 38.921875 53.515625 30.90625 
L 53.515625 0 
L 44.484375 0 
L 44.484375 32.71875 
Q 44.484375 40.625 41.703125 44.40625 
Q 38.921875 48.1875 33.109375 48.1875 
Q 26.21875 48.1875 22.15625 43.53125 
Q 18.109375 38.875 18.109375 30.90625 
L 18.109375 0 
L 9.078125 0 
L 9.078125 54.6875 
L 18.109375 54.6875 
L 18.109375 46.1875 
Q 21.1875 51.21875 25.484375 53.609375 
Q 29.78125 56 35.6875 56 
Q 41.65625 56 45.828125 52.96875 
Q 50 49.953125 52 44.1875 
z
" id="DejaVuSans-109"/>
       <path d="M 31 75.875 
Q 24.46875 64.65625 21.28125 53.65625 
Q 18.109375 42.671875 18.109375 31.390625 
Q 18.109375 20.125 21.3125 9.0625 
Q 24.515625 -2 31 -13.1875 
L 23.1875 -13.1875 
Q 15.875 -1.703125 12.234375 9.375 
Q 8.59375 20.453125 8.59375 31.390625 
Q 8.59375 42.28125 12.203125 53.3125 
Q 15.828125 64.359375 23.1875 75.875 
z
" id="DejaVuSans-40"/>
       <path d="M 8.015625 75.875 
L 15.828125 75.875 
Q 23.140625 64.359375 26.78125 53.3125 
Q 30.421875 42.28125 30.421875 31.390625 
Q 30.421875 20.453125 26.78125 9.375 
Q 23.140625 -1.703125 15.828125 -13.1875 
L 8.015625 -13.1875 
Q 14.5 -2 17.703125 9.0625 
Q 20.90625 20.125 20.90625 31.390625 
Q 20.90625 42.671875 17.703125 53.65625 
Q 14.5 64.65625 8.015625 75.875 
z
" id="DejaVuSans-41"/>
      </defs>
      <use xlink:href="#DejaVuSans-116"/>
      <use x="39.208984" xlink:href="#DejaVuSans-105"/>
      <use x="66.992188" xlink:href="#DejaVuSans-109"/>
      <use x="164.404297" xlink:href="#DejaVuSans-101"/>
      <use x="225.927734" xlink:href="#DejaVuSans-32"/>
      <use x="257.714844" xlink:href="#DejaVuSans-40"/>
      <use x="296.728516" xlink:href="#DejaVuSans-115"/>
      <use x="348.828125" xlink:href="#DejaVuSans-41"/>
     </g>
    </g>
   </g>
   <g id="line2d_19">
    <path clip-path="url(#p50091eab71)" d="M 93.710236 -1 
L 94.382801 274.155364 
L 103.786512 237.49557 
L 113.190223 262.524295 
L 122.593933 263.573409 
L 131.997644 232.896715 
L 141.401354 244.09537 
L 150.805065 224.288959 
L 160.208776 241.860283 
L 169.612486 232.494532 
L 179.016197 238.577683 
L 188.419907 228.479855 
L 197.823618 232.226388 
L 207.227328 240.945592 
L 216.631039 228.73834 
L 226.03475 221.499416 
L 235.43846 239.104675 
L 244.842171 213.4954 
L 254.245881 233.21597 
L 263.649592 237.802718 
L 273.053302 187.506621 
L 282.457013 244.148797 
L 291.860724 222.771626 
L 301.264434 227.033371 
L 310.668145 247.827381 
L 320.071855 207.418462 
L 329.475566 211.294202 
L 338.879276 226.08678 
L 348.282987 211.745081 
L 357.686698 230.399347 
L 367.090408 228.23642 
L 376.494119 222.802108 
L 385.897829 229.676641 
L 395.30154 224.85382 
L 404.70525 221.084135 
L 414.108961 211.274113 
L 423.512672 221.983262 
L 432.916382 214.638376 
L 442.320093 215.754328 
L 451.723803 222.561823 
L 461.127514 228.021371 
L 470.531224 219.259723 
L 479.934935 236.590901 
L 489.338646 222.428291 
L 498.742356 204.052592 
L 508.146067 213.674639 
L 517.549777 237.021684 
L 526.953488 187.165 
L 536.357199 236.554081 
L 545.760909 223.390553 
" style="fill:none;stroke:#1f77b4;stroke-linecap:square;stroke-width:6;"/>
   </g>
   <g id="line2d_20">
    <path clip-path="url(#p50091eab71)" d="M 93.577722 -1 
L 94.382801 335.363803 
L 103.786512 322.649723 
L 113.190223 327.006159 
L 122.593933 329.863186 
L 131.997644 318.109072 
L 141.401354 322.639638 
L 150.805065 317.590633 
L 160.208776 319.679881 
L 169.612486 318.818893 
L 179.016197 320.781198 
L 188.419907 318.799074 
L 197.823618 316.926268 
L 207.227328 325.326256 
L 216.631039 317.452583 
L 226.03475 319.749845 
L 235.43846 322.763549 
L 244.842171 314.029747 
L 254.245881 317.890627 
L 263.649592 317.271706 
L 273.053302 309.565837 
L 282.457013 314.800765 
L 291.860724 307.342141 
L 301.264434 318.175571 
L 310.668145 310.657213 
L 320.071855 309.94989 
L 329.475566 318.417224 
L 338.879276 311.233509 
L 348.282987 321.288189 
L 357.686698 309.518379 
L 367.090408 319.355669 
L 376.494119 312.698545 
L 385.897829 306.09811 
L 395.30154 310.205036 
L 404.70525 317.351999 
L 414.108961 313.870102 
L 423.512672 310.67697 
L 432.916382 317.006732 
L 442.320093 312.883125 
L 451.723803 313.782239 
L 461.127514 313.361673 
L 470.531224 308.84477 
L 479.934935 317.334728 
L 489.338646 316.531835 
L 498.742356 312.941246 
L 508.146067 317.368329 
L 517.549777 307.385263 
L 526.953488 308.470325 
L 536.357199 322.397653 
L 545.760909 307.041401 
" style="fill:none;stroke:#ff7f0e;stroke-linecap:square;stroke-width:6;"/>
   </g>
   <g id="line2d_21">
    <path clip-path="url(#p50091eab71)" d="M 93.009725 -1 
L 94.382801 356.027865 
L 103.786512 357.127029 
L 113.190223 357.068444 
L 122.593933 357.944626 
L 131.997644 355.718884 
L 141.401354 357.626313 
L 150.805065 357.462632 
L 160.208776 356.74902 
L 169.612486 355.42993 
L 179.016197 357.98038 
L 188.419907 352.71497 
L 197.823618 354.549361 
L 207.227328 355.822097 
L 216.631039 355.36879 
L 226.03475 357.201254 
L 235.43846 354.065095 
L 244.842171 351.778113 
L 254.245881 352.151371 
L 263.649592 355.879898 
L 273.053302 353.01465 
L 282.457013 353.398715 
L 291.860724 352.782179 
L 301.264434 352.807552 
L 310.668145 354.165854 
L 320.071855 351.621203 
L 329.475566 351.351403 
L 338.879276 357.137729 
L 348.282987 352.038405 
L 357.686698 353.58551 
L 367.090408 354.048062 
L 376.494119 354.306622 
L 385.897829 349.814928 
L 395.30154 352.568372 
L 404.70525 353.977678 
L 414.108961 351.466308 
L 423.512672 351.925489 
L 432.916382 354.414718 
L 442.320093 350.005678 
L 451.723803 353.755348 
L 461.127514 351.485192 
L 470.531224 352.217305 
L 479.934935 354.994051 
L 489.338646 355.186287 
L 498.742356 350.797543 
L 508.146067 353.370379 
L 517.549777 352.05808 
L 526.953488 353.534086 
L 536.357199 355.745105 
L 545.760909 349.856312 
" style="fill:none;stroke:#2ca02c;stroke-linecap:square;stroke-width:6;"/>
   </g>
   <g id="line2d_22">
    <path clip-path="url(#p50091eab71)" d="M 92.279533 -1 
L 94.382801 368.066584 
L 103.786512 367.393025 
L 113.190223 367.059211 
L 122.593933 367.441682 
L 131.997644 367.310095 
L 141.401354 368.003229 
L 150.805065 366.561916 
L 160.208776 365.52809 
L 169.612486 366.401555 
L 179.016197 366.801736 
L 188.419907 366.588695 
L 197.823618 367.285902 
L 207.227328 364.78751 
L 216.631039 365.243604 
L 226.03475 366.906719 
L 235.43846 365.814075 
L 244.842171 365.275335 
L 254.245881 365.827048 
L 263.649592 366.586047 
L 273.053302 366.233857 
L 282.457013 365.863724 
L 291.860724 365.989486 
L 301.264434 364.556382 
L 310.668145 366.073596 
L 320.071855 365.475667 
L 329.475566 365.481353 
L 338.879276 365.085772 
L 348.282987 365.95158 
L 357.686698 362.425927 
L 367.090408 366.230712 
L 376.494119 365.283644 
L 385.897829 366.753801 
L 395.30154 365.491156 
L 404.70525 367.134904 
L 414.108961 365.130299 
L 423.512672 366.469874 
L 432.916382 365.597934 
L 442.320093 366.250513 
L 451.723803 364.691809 
L 461.127514 366.186863 
L 470.531224 365.600055 
L 479.934935 365.627631 
L 489.338646 366.3005 
L 498.742356 365.644093 
L 508.146067 365.950902 
L 517.549777 366.009324 
L 526.953488 361.61876 
L 536.357199 363.766631 
L 545.760909 366.448128 
" style="fill:none;stroke:#d62728;stroke-linecap:square;stroke-width:6;"/>
   </g>
   <g id="line2d_23">
    <path clip-path="url(#p50091eab71)" d="M 91.26834 -1 
L 94.382801 371.707312 
L 103.786512 370.618057 
L 113.190223 370.759465 
L 122.593933 371.511498 
L 131.997644 370.73509 
L 141.401354 370.675933 
L 150.805065 371.146505 
L 160.208776 370.350792 
L 169.612486 370.653428 
L 179.016197 369.848314 
L 188.419907 370.515522 
L 197.823618 370.448539 
L 207.227328 370.680471 
L 216.631039 370.24741 
L 226.03475 370.18701 
L 235.43846 370.295979 
L 244.842171 370.224063 
L 254.245881 370.156466 
L 263.649592 370.526517 
L 273.053302 368.077391 
L 282.457013 371.153032 
L 291.860724 370.037538 
L 301.264434 370.119287 
L 310.668145 370.267179 
L 320.071855 370.509955 
L 329.475566 369.883936 
L 338.879276 370.097366 
L 348.282987 369.529248 
L 357.686698 370.75157 
L 367.090408 369.702983 
L 376.494119 370.177917 
L 385.897829 370.212145 
L 395.30154 369.88563 
L 404.70525 369.847096 
L 414.108961 369.961261 
L 423.512672 370.353472 
L 432.916382 370.164744 
L 442.320093 369.671836 
L 451.723803 370.45115 
L 461.127514 370.345709 
L 470.531224 370.403635 
L 479.934935 370.405731 
L 489.338646 369.823951 
L 498.742356 369.840073 
L 508.146067 370.2679 
L 517.549777 369.855035 
L 526.953488 369.399732 
L 536.357199 370.476216 
L 545.760909 370.100843 
" style="fill:none;stroke:#9467bd;stroke-linecap:square;stroke-width:6;"/>
   </g>
   <g id="line2d_24">
    <path clip-path="url(#p50091eab71)" d="M 90.464576 -1 
L 94.382801 371.484072 
L 103.786512 371.579202 
L 113.190223 372.25787 
L 122.593933 372.095362 
L 131.997644 371.649712 
L 141.401354 372.547916 
L 150.805065 372.052335 
L 160.208776 371.877125 
L 169.612486 372.351889 
L 179.016197 372.008918 
L 188.419907 371.391999 
L 197.823618 371.904764 
L 207.227328 372.443661 
L 216.631039 371.800283 
L 226.03475 371.964692 
L 235.43846 371.851751 
L 244.842171 371.730884 
L 254.245881 371.759515 
L 263.649592 371.860174 
L 273.053302 371.368609 
L 282.457013 371.764818 
L 291.860724 370.927471 
L 301.264434 371.053421 
L 310.668145 371.846875 
L 320.071855 371.91874 
L 329.475566 371.799919 
L 338.879276 371.505034 
L 348.282987 371.910061 
L 357.686698 371.624753 
L 367.090408 371.786231 
L 376.494119 371.975738 
L 385.897829 371.831392 
L 395.30154 371.803546 
L 404.70525 372.017083 
L 414.108961 371.855818 
L 423.512672 371.657205 
L 432.916382 371.755404 
L 442.320093 371.738729 
L 451.723803 371.63089 
L 461.127514 371.65182 
L 470.531224 372.305165 
L 479.934935 371.723755 
L 489.338646 371.440254 
L 498.742356 371.506371 
L 508.146067 372.036476 
L 517.549777 371.842262 
L 526.953488 371.912188 
L 536.357199 371.794534 
L 545.760909 371.544729 
" style="fill:none;stroke:#8c564b;stroke-linecap:square;stroke-width:6;"/>
   </g>
   <g id="line2d_25">
    <path clip-path="url(#p50091eab71)" d="M 87.90197 -1 
L 94.382801 371.667328 
L 103.786512 371.537976 
L 113.190223 371.618452 
L 122.593933 371.860883 
L 131.997644 371.910481 
L 141.401354 372.429754 
L 150.805065 372.169261 
L 160.208776 371.770234 
L 169.612486 372.19417 
L 179.016197 372.424708 
L 188.419907 372.230149 
L 197.823618 372.108441 
L 207.227328 372.252423 
L 216.631039 371.980959 
L 226.03475 372.353408 
L 235.43846 371.716173 
L 244.842171 372.662131 
L 254.245881 372.190354 
L 263.649592 372.260995 
L 273.053302 371.975286 
L 282.457013 371.885472 
L 291.860724 372.438201 
L 301.264434 372.57034 
L 310.668145 372.007199 
L 320.071855 372.772154 
L 329.475566 372.136432 
L 338.879276 372.272449 
L 348.282987 372.376547 
L 357.686698 372.504506 
L 367.090408 372.28822 
L 376.494119 372.069418 
L 385.897829 371.638064 
L 395.30154 372.181668 
L 404.70525 371.87725 
L 414.108961 372.220993 
L 423.512672 372.589789 
L 432.916382 372.179516 
L 442.320093 372.195613 
L 451.723803 371.853188 
L 461.127514 372.707719 
L 470.531224 372.060337 
L 479.934935 372.189695 
L 489.338646 372.677344 
L 498.742356 372.295996 
L 508.146067 372.225191 
L 517.549777 372.567773 
L 526.953488 371.765182 
L 536.357199 372.763493 
L 545.760909 372.47083 
" style="fill:none;stroke:#e377c2;stroke-linecap:square;stroke-width:6;"/>
   </g>
   <g id="text_15">
    <!-- cle_step -->
    <g style="fill:#666666;" transform="translate(264.043828 64.08)scale(0.25 -0.25)">
     <defs>
      <path d="M 50.984375 -16.609375 
L 50.984375 -23.578125 
L -0.984375 -23.578125 
L -0.984375 -16.609375 
z
" id="DejaVuSans-95"/>
     </defs>
     <use xlink:href="#DejaVuSans-99"/>
     <use x="54.980469" xlink:href="#DejaVuSans-108"/>
     <use x="82.763672" xlink:href="#DejaVuSans-101"/>
     <use x="144.287109" xlink:href="#DejaVuSans-95"/>
     <use x="194.287109" xlink:href="#DejaVuSans-115"/>
     <use x="246.386719" xlink:href="#DejaVuSans-116"/>
     <use x="285.595703" xlink:href="#DejaVuSans-101"/>
     <use x="347.119141" xlink:href="#DejaVuSans-112"/>
    </g>
   </g>
  </g>
  <g id="text_16">
   <!-- CLE time profile -->
   <g transform="translate(168.892969 31.435313)scale(0.3 -0.3)">
    <defs>
     <path d="M 64.40625 67.28125 
L 64.40625 56.890625 
Q 59.421875 61.53125 53.78125 63.8125 
Q 48.140625 66.109375 41.796875 66.109375 
Q 29.296875 66.109375 22.65625 58.46875 
Q 16.015625 50.828125 16.015625 36.375 
Q 16.015625 21.96875 22.65625 14.328125 
Q 29.296875 6.6875 41.796875 6.6875 
Q 48.140625 6.6875 53.78125 8.984375 
Q 59.421875 11.28125 64.40625 15.921875 
L 64.40625 5.609375 
Q 59.234375 2.09375 53.4375 0.328125 
Q 47.65625 -1.421875 41.21875 -1.421875 
Q 24.65625 -1.421875 15.125 8.703125 
Q 5.609375 18.84375 5.609375 36.375 
Q 5.609375 53.953125 15.125 64.078125 
Q 24.65625 74.21875 41.21875 74.21875 
Q 47.75 74.21875 53.53125 72.484375 
Q 59.328125 70.75 64.40625 67.28125 
z
" id="DejaVuSans-67"/>
     <path d="M 9.8125 72.90625 
L 19.671875 72.90625 
L 19.671875 8.296875 
L 55.171875 8.296875 
L 55.171875 0 
L 9.8125 0 
z
" id="DejaVuSans-76"/>
     <path d="M 9.8125 72.90625 
L 55.90625 72.90625 
L 55.90625 64.59375 
L 19.671875 64.59375 
L 19.671875 43.015625 
L 54.390625 43.015625 
L 54.390625 34.71875 
L 19.671875 34.71875 
L 19.671875 8.296875 
L 56.78125 8.296875 
L 56.78125 0 
L 9.8125 0 
z
" id="DejaVuSans-69"/>
     <path d="M 41.109375 46.296875 
Q 39.59375 47.171875 37.8125 47.578125 
Q 36.03125 48 33.890625 48 
Q 26.265625 48 22.1875 43.046875 
Q 18.109375 38.09375 18.109375 28.8125 
L 18.109375 0 
L 9.078125 0 
L 9.078125 54.6875 
L 18.109375 54.6875 
L 18.109375 46.1875 
Q 20.953125 51.171875 25.484375 53.578125 
Q 30.03125 56 36.53125 56 
Q 37.453125 56 38.578125 55.875 
Q 39.703125 55.765625 41.0625 55.515625 
z
" id="DejaVuSans-114"/>
     <path d="M 30.609375 48.390625 
Q 23.390625 48.390625 19.1875 42.75 
Q 14.984375 37.109375 14.984375 27.296875 
Q 14.984375 17.484375 19.15625 11.84375 
Q 23.34375 6.203125 30.609375 6.203125 
Q 37.796875 6.203125 41.984375 11.859375 
Q 46.1875 17.53125 46.1875 27.296875 
Q 46.1875 37.015625 41.984375 42.703125 
Q 37.796875 48.390625 30.609375 48.390625 
z
M 30.609375 56 
Q 42.328125 56 49.015625 48.375 
Q 55.71875 40.765625 55.71875 27.296875 
Q 55.71875 13.875 49.015625 6.21875 
Q 42.328125 -1.421875 30.609375 -1.421875 
Q 18.84375 -1.421875 12.171875 6.21875 
Q 5.515625 13.875 5.515625 27.296875 
Q 5.515625 40.765625 12.171875 48.375 
Q 18.84375 56 30.609375 56 
z
" id="DejaVuSans-111"/>
     <path d="M 37.109375 75.984375 
L 37.109375 68.5 
L 28.515625 68.5 
Q 23.6875 68.5 21.796875 66.546875 
Q 19.921875 64.59375 19.921875 59.515625 
L 19.921875 54.6875 
L 34.71875 54.6875 
L 34.71875 47.703125 
L 19.921875 47.703125 
L 19.921875 0 
L 10.890625 0 
L 10.890625 47.703125 
L 2.296875 47.703125 
L 2.296875 54.6875 
L 10.890625 54.6875 
L 10.890625 58.5 
Q 10.890625 67.625 15.140625 71.796875 
Q 19.390625 75.984375 28.609375 75.984375 
z
" id="DejaVuSans-102"/>
    </defs>
    <use xlink:href="#DejaVuSans-67"/>
    <use x="69.824219" xlink:href="#DejaVuSans-76"/>
    <use x="125.537109" xlink:href="#DejaVuSans-69"/>
    <use x="188.720703" xlink:href="#DejaVuSans-32"/>
    <use x="220.507812" xlink:href="#DejaVuSans-116"/>
    <use x="259.716797" xlink:href="#DejaVuSans-105"/>
    <use x="287.5" xlink:href="#DejaVuSans-109"/>
    <use x="384.912109" xlink:href="#DejaVuSans-101"/>
    <use x="446.435547" xlink:href="#DejaVuSans-32"/>
    <use x="478.222656" xlink:href="#DejaVuSans-112"/>
    <use x="541.699219" xlink:href="#DejaVuSans-114"/>
    <use x="580.5625" xlink:href="#DejaVuSans-111"/>
    <use x="641.744141" xlink:href="#DejaVuSans-102"/>
    <use x="676.949219" xlink:href="#DejaVuSans-105"/>
    <use x="704.732422" xlink:href="#DejaVuSans-108"/>
    <use x="732.515625" xlink:href="#DejaVuSans-101"/>
   </g>
  </g>
 </g>
 <defs>
  <clipPath id="p50091eab71">
   <rect height="301.56" width="506.86" x="61.94" y="74.08"/>
  </clipPath>
 </defs>
</svg>
