<?xml version="1.0" encoding="utf-8" standalone="no"?>
<!DOCTYPE svg PUBLIC "-//W3C//DTD SVG 1.1//EN"
  "http://www.w3.org/Graphics/SVG/1.1/DTD/svg11.dtd">
<!-- Created with matplotlib (https://matplotlib.org/) -->
<svg height="432pt" version="1.1" viewBox="0 0 576 432" width="576pt" xmlns="http://www.w3.org/2000/svg" xmlns:xlink="http://www.w3.org/1999/xlink">
 <metadata>
  <rdf:RDF xmlns:cc="http://creativecommons.org/ns#" xmlns:dc="http://purl.org/dc/elements/1.1/" xmlns:rdf="http://www.w3.org/1999/02/22-rdf-syntax-ns#">
   <cc:Work>
    <dc:type rdf:resource="http://purl.org/dc/dcmitype/StillImage"/>
    <dc:date>2022-04-11T20:24:35.479310</dc:date>
    <dc:format>image/svg+xml</dc:format>
    <dc:creator>
     <cc:Agent>
      <dc:title>Matplotlib v3.3.4, https://matplotlib.org/</dc:title>
     </cc:Agent>
    </dc:creator>
   </cc:Work>
  </rdf:RDF>
 </metadata>
 <defs>
  <style type="text/css">*{stroke-linecap:butt;stroke-linejoin:round;}</style>
 </defs>
 <g id="figure_1">
  <g id="patch_1">
   <path d="M 0 432 
L 576 432 
L 576 0 
L 0 0 
z
" style="fill:#ffffff;"/>
  </g>
  <g id="axes_1">
   <g id="patch_2">
    <path d="M 50.6 375.64 
L 568.8 375.64 
L 568.8 74.08 
L 50.6 74.08 
z
" style="fill:#ffffff;"/>
   </g>
   <g id="matplotlib.axis_1">
    <g id="xtick_1">
     <g id="line2d_1">
      <defs>
       <path d="M 0 0 
L 0 3.5 
" id="m756d4d0bf9" style="stroke:#666666;stroke-width:0.8;"/>
      </defs>
      <g>
       <use style="fill:#666666;stroke:#666666;stroke-width:0.8;" x="74.154545" xlink:href="#m756d4d0bf9" y="375.64"/>
      </g>
     </g>
     <g id="text_1">
      <!-- 0 -->
      <g style="fill:#666666;" transform="translate(68.428295 396.317187)scale(0.18 -0.18)">
       <defs>
        <path d="M 31.78125 66.40625 
Q 24.171875 66.40625 20.328125 58.90625 
Q 16.5 51.421875 16.5 36.375 
Q 16.5 21.390625 20.328125 13.890625 
Q 24.171875 6.390625 31.78125 6.390625 
Q 39.453125 6.390625 43.28125 13.890625 
Q 47.125 21.390625 47.125 36.375 
Q 47.125 51.421875 43.28125 58.90625 
Q 39.453125 66.40625 31.78125 66.40625 
z
M 31.78125 74.21875 
Q 44.046875 74.21875 50.515625 64.515625 
Q 56.984375 54.828125 56.984375 36.375 
Q 56.984375 17.96875 50.515625 8.265625 
Q 44.046875 -1.421875 31.78125 -1.421875 
Q 19.53125 -1.421875 13.0625 8.265625 
Q 6.59375 17.96875 6.59375 36.375 
Q 6.59375 54.828125 13.0625 64.515625 
Q 19.53125 74.21875 31.78125 74.21875 
z
" id="DejaVuSans-48"/>
       </defs>
       <use xlink:href="#DejaVuSans-48"/>
      </g>
     </g>
    </g>
    <g id="xtick_2">
     <g id="line2d_2">
      <g>
       <use style="fill:#666666;stroke:#666666;stroke-width:0.8;" x="170.295547" xlink:href="#m756d4d0bf9" y="375.64"/>
      </g>
     </g>
     <g id="text_2">
      <!-- 10 -->
      <g style="fill:#666666;" transform="translate(158.843047 396.317187)scale(0.18 -0.18)">
       <defs>
        <path d="M 12.40625 8.296875 
L 28.515625 8.296875 
L 28.515625 63.921875 
L 10.984375 60.40625 
L 10.984375 69.390625 
L 28.421875 72.90625 
L 38.28125 72.90625 
L 38.28125 8.296875 
L 54.390625 8.296875 
L 54.390625 0 
L 12.40625 0 
z
" id="DejaVuSans-49"/>
       </defs>
       <use xlink:href="#DejaVuSans-49"/>
       <use x="63.623047" xlink:href="#DejaVuSans-48"/>
      </g>
     </g>
    </g>
    <g id="xtick_3">
     <g id="line2d_3">
      <g>
       <use style="fill:#666666;stroke:#666666;stroke-width:0.8;" x="266.436549" xlink:href="#m756d4d0bf9" y="375.64"/>
      </g>
     </g>
     <g id="text_3">
      <!-- 20 -->
      <g style="fill:#666666;" transform="translate(254.984049 396.317187)scale(0.18 -0.18)">
       <defs>
        <path d="M 19.1875 8.296875 
L 53.609375 8.296875 
L 53.609375 0 
L 7.328125 0 
L 7.328125 8.296875 
Q 12.9375 14.109375 22.625 23.890625 
Q 32.328125 33.6875 34.8125 36.53125 
Q 39.546875 41.84375 41.421875 45.53125 
Q 43.3125 49.21875 43.3125 52.78125 
Q 43.3125 58.59375 39.234375 62.25 
Q 35.15625 65.921875 28.609375 65.921875 
Q 23.96875 65.921875 18.8125 64.3125 
Q 13.671875 62.703125 7.8125 59.421875 
L 7.8125 69.390625 
Q 13.765625 71.78125 18.9375 73 
Q 24.125 74.21875 28.421875 74.21875 
Q 39.75 74.21875 46.484375 68.546875 
Q 53.21875 62.890625 53.21875 53.421875 
Q 53.21875 48.921875 51.53125 44.890625 
Q 49.859375 40.875 45.40625 35.40625 
Q 44.1875 33.984375 37.640625 27.21875 
Q 31.109375 20.453125 19.1875 8.296875 
z
" id="DejaVuSans-50"/>
       </defs>
       <use xlink:href="#DejaVuSans-50"/>
       <use x="63.623047" xlink:href="#DejaVuSans-48"/>
      </g>
     </g>
    </g>
    <g id="xtick_4">
     <g id="line2d_4">
      <g>
       <use style="fill:#666666;stroke:#666666;stroke-width:0.8;" x="362.577551" xlink:href="#m756d4d0bf9" y="375.64"/>
      </g>
     </g>
     <g id="text_4">
      <!-- 30 -->
      <g style="fill:#666666;" transform="translate(351.125051 396.317187)scale(0.18 -0.18)">
       <defs>
        <path d="M 40.578125 39.3125 
Q 47.65625 37.796875 51.625 33 
Q 55.609375 28.21875 55.609375 21.1875 
Q 55.609375 10.40625 48.1875 4.484375 
Q 40.765625 -1.421875 27.09375 -1.421875 
Q 22.515625 -1.421875 17.65625 -0.515625 
Q 12.796875 0.390625 7.625 2.203125 
L 7.625 11.71875 
Q 11.71875 9.328125 16.59375 8.109375 
Q 21.484375 6.890625 26.8125 6.890625 
Q 36.078125 6.890625 40.9375 10.546875 
Q 45.796875 14.203125 45.796875 21.1875 
Q 45.796875 27.640625 41.28125 31.265625 
Q 36.765625 34.90625 28.71875 34.90625 
L 20.21875 34.90625 
L 20.21875 43.015625 
L 29.109375 43.015625 
Q 36.375 43.015625 40.234375 45.921875 
Q 44.09375 48.828125 44.09375 54.296875 
Q 44.09375 59.90625 40.109375 62.90625 
Q 36.140625 65.921875 28.71875 65.921875 
Q 24.65625 65.921875 20.015625 65.03125 
Q 15.375 64.15625 9.8125 62.3125 
L 9.8125 71.09375 
Q 15.4375 72.65625 20.34375 73.4375 
Q 25.25 74.21875 29.59375 74.21875 
Q 40.828125 74.21875 47.359375 69.109375 
Q 53.90625 64.015625 53.90625 55.328125 
Q 53.90625 49.265625 50.4375 45.09375 
Q 46.96875 40.921875 40.578125 39.3125 
z
" id="DejaVuSans-51"/>
       </defs>
       <use xlink:href="#DejaVuSans-51"/>
       <use x="63.623047" xlink:href="#DejaVuSans-48"/>
      </g>
     </g>
    </g>
    <g id="xtick_5">
     <g id="line2d_5">
      <g>
       <use style="fill:#666666;stroke:#666666;stroke-width:0.8;" x="458.718553" xlink:href="#m756d4d0bf9" y="375.64"/>
      </g>
     </g>
     <g id="text_5">
      <!-- 40 -->
      <g style="fill:#666666;" transform="translate(447.266053 396.317187)scale(0.18 -0.18)">
       <defs>
        <path d="M 37.796875 64.3125 
L 12.890625 25.390625 
L 37.796875 25.390625 
z
M 35.203125 72.90625 
L 47.609375 72.90625 
L 47.609375 25.390625 
L 58.015625 25.390625 
L 58.015625 17.1875 
L 47.609375 17.1875 
L 47.609375 0 
L 37.796875 0 
L 37.796875 17.1875 
L 4.890625 17.1875 
L 4.890625 26.703125 
z
" id="DejaVuSans-52"/>
       </defs>
       <use xlink:href="#DejaVuSans-52"/>
       <use x="63.623047" xlink:href="#DejaVuSans-48"/>
      </g>
     </g>
    </g>
    <g id="xtick_6">
     <g id="line2d_6">
      <g>
       <use style="fill:#666666;stroke:#666666;stroke-width:0.8;" x="554.859555" xlink:href="#m756d4d0bf9" y="375.64"/>
      </g>
     </g>
     <g id="text_6">
      <!-- 50 -->
      <g style="fill:#666666;" transform="translate(543.407055 396.317187)scale(0.18 -0.18)">
       <defs>
        <path d="M 10.796875 72.90625 
L 49.515625 72.90625 
L 49.515625 64.59375 
L 19.828125 64.59375 
L 19.828125 46.734375 
Q 21.96875 47.46875 24.109375 47.828125 
Q 26.265625 48.1875 28.421875 48.1875 
Q 40.625 48.1875 47.75 41.5 
Q 54.890625 34.8125 54.890625 23.390625 
Q 54.890625 11.625 47.5625 5.09375 
Q 40.234375 -1.421875 26.90625 -1.421875 
Q 22.3125 -1.421875 17.546875 -0.640625 
Q 12.796875 0.140625 7.71875 1.703125 
L 7.71875 11.625 
Q 12.109375 9.234375 16.796875 8.0625 
Q 21.484375 6.890625 26.703125 6.890625 
Q 35.15625 6.890625 40.078125 11.328125 
Q 45.015625 15.765625 45.015625 23.390625 
Q 45.015625 31 40.078125 35.4375 
Q 35.15625 39.890625 26.703125 39.890625 
Q 22.75 39.890625 18.8125 39.015625 
Q 14.890625 38.140625 10.796875 36.28125 
z
" id="DejaVuSans-53"/>
       </defs>
       <use xlink:href="#DejaVuSans-53"/>
       <use x="63.623047" xlink:href="#DejaVuSans-48"/>
      </g>
     </g>
    </g>
    <g id="text_7">
     <!-- cle step -->
     <g style="fill:#666666;" transform="translate(266.537031 420.777187)scale(0.22 -0.22)">
      <defs>
       <path d="M 48.78125 52.59375 
L 48.78125 44.1875 
Q 44.96875 46.296875 41.140625 47.34375 
Q 37.3125 48.390625 33.40625 48.390625 
Q 24.65625 48.390625 19.8125 42.84375 
Q 14.984375 37.3125 14.984375 27.296875 
Q 14.984375 17.28125 19.8125 11.734375 
Q 24.65625 6.203125 33.40625 6.203125 
Q 37.3125 6.203125 41.140625 7.25 
Q 44.96875 8.296875 48.78125 10.40625 
L 48.78125 2.09375 
Q 45.015625 0.34375 40.984375 -0.53125 
Q 36.96875 -1.421875 32.421875 -1.421875 
Q 20.0625 -1.421875 12.78125 6.34375 
Q 5.515625 14.109375 5.515625 27.296875 
Q 5.515625 40.671875 12.859375 48.328125 
Q 20.21875 56 33.015625 56 
Q 37.15625 56 41.109375 55.140625 
Q 45.0625 54.296875 48.78125 52.59375 
z
" id="DejaVuSans-99"/>
       <path d="M 9.421875 75.984375 
L 18.40625 75.984375 
L 18.40625 0 
L 9.421875 0 
z
" id="DejaVuSans-108"/>
       <path d="M 56.203125 29.59375 
L 56.203125 25.203125 
L 14.890625 25.203125 
Q 15.484375 15.921875 20.484375 11.0625 
Q 25.484375 6.203125 34.421875 6.203125 
Q 39.59375 6.203125 44.453125 7.46875 
Q 49.3125 8.734375 54.109375 11.28125 
L 54.109375 2.78125 
Q 49.265625 0.734375 44.1875 -0.34375 
Q 39.109375 -1.421875 33.890625 -1.421875 
Q 20.796875 -1.421875 13.15625 6.1875 
Q 5.515625 13.8125 5.515625 26.8125 
Q 5.515625 40.234375 12.765625 48.109375 
Q 20.015625 56 32.328125 56 
Q 43.359375 56 49.78125 48.890625 
Q 56.203125 41.796875 56.203125 29.59375 
z
M 47.21875 32.234375 
Q 47.125 39.59375 43.09375 43.984375 
Q 39.0625 48.390625 32.421875 48.390625 
Q 24.90625 48.390625 20.390625 44.140625 
Q 15.875 39.890625 15.1875 32.171875 
z
" id="DejaVuSans-101"/>
       <path id="DejaVuSans-32"/>
       <path d="M 44.28125 53.078125 
L 44.28125 44.578125 
Q 40.484375 46.53125 36.375 47.5 
Q 32.28125 48.484375 27.875 48.484375 
Q 21.1875 48.484375 17.84375 46.4375 
Q 14.5 44.390625 14.5 40.28125 
Q 14.5 37.15625 16.890625 35.375 
Q 19.28125 33.59375 26.515625 31.984375 
L 29.59375 31.296875 
Q 39.15625 29.25 43.1875 25.515625 
Q 47.21875 21.78125 47.21875 15.09375 
Q 47.21875 7.46875 41.1875 3.015625 
Q 35.15625 -1.421875 24.609375 -1.421875 
Q 20.21875 -1.421875 15.453125 -0.5625 
Q 10.6875 0.296875 5.421875 2 
L 5.421875 11.28125 
Q 10.40625 8.6875 15.234375 7.390625 
Q 20.0625 6.109375 24.8125 6.109375 
Q 31.15625 6.109375 34.5625 8.28125 
Q 37.984375 10.453125 37.984375 14.40625 
Q 37.984375 18.0625 35.515625 20.015625 
Q 33.0625 21.96875 24.703125 23.78125 
L 21.578125 24.515625 
Q 13.234375 26.265625 9.515625 29.90625 
Q 5.8125 33.546875 5.8125 39.890625 
Q 5.8125 47.609375 11.28125 51.796875 
Q 16.75 56 26.8125 56 
Q 31.78125 56 36.171875 55.265625 
Q 40.578125 54.546875 44.28125 53.078125 
z
" id="DejaVuSans-115"/>
       <path d="M 18.3125 70.21875 
L 18.3125 54.6875 
L 36.8125 54.6875 
L 36.8125 47.703125 
L 18.3125 47.703125 
L 18.3125 18.015625 
Q 18.3125 11.328125 20.140625 9.421875 
Q 21.96875 7.515625 27.59375 7.515625 
L 36.8125 7.515625 
L 36.8125 0 
L 27.59375 0 
Q 17.1875 0 13.234375 3.875 
Q 9.28125 7.765625 9.28125 18.015625 
L 9.28125 47.703125 
L 2.6875 47.703125 
L 2.6875 54.6875 
L 9.28125 54.6875 
L 9.28125 70.21875 
z
" id="DejaVuSans-116"/>
       <path d="M 18.109375 8.203125 
L 18.109375 -20.796875 
L 9.078125 -20.796875 
L 9.078125 54.6875 
L 18.109375 54.6875 
L 18.109375 46.390625 
Q 20.953125 51.265625 25.265625 53.625 
Q 29.59375 56 35.59375 56 
Q 45.5625 56 51.78125 48.09375 
Q 58.015625 40.1875 58.015625 27.296875 
Q 58.015625 14.40625 51.78125 6.484375 
Q 45.5625 -1.421875 35.59375 -1.421875 
Q 29.59375 -1.421875 25.265625 0.953125 
Q 20.953125 3.328125 18.109375 8.203125 
z
M 48.6875 27.296875 
Q 48.6875 37.203125 44.609375 42.84375 
Q 40.53125 48.484375 33.40625 48.484375 
Q 26.265625 48.484375 22.1875 42.84375 
Q 18.109375 37.203125 18.109375 27.296875 
Q 18.109375 17.390625 22.1875 11.75 
Q 26.265625 6.109375 33.40625 6.109375 
Q 40.53125 6.109375 44.609375 11.75 
Q 48.6875 17.390625 48.6875 27.296875 
z
" id="DejaVuSans-112"/>
      </defs>
      <use xlink:href="#DejaVuSans-99"/>
      <use x="54.980469" xlink:href="#DejaVuSans-108"/>
      <use x="82.763672" xlink:href="#DejaVuSans-101"/>
      <use x="144.287109" xlink:href="#DejaVuSans-32"/>
      <use x="176.074219" xlink:href="#DejaVuSans-115"/>
      <use x="228.173828" xlink:href="#DejaVuSans-116"/>
      <use x="267.382812" xlink:href="#DejaVuSans-101"/>
      <use x="328.90625" xlink:href="#DejaVuSans-112"/>
     </g>
    </g>
   </g>
   <g id="matplotlib.axis_2">
    <g id="ytick_1">
     <g id="line2d_7">
      <path clip-path="url(#p35f02f74c7)" d="M 50.6 375.64 
L 568.8 375.64 
" style="fill:none;stroke:#000000;stroke-dasharray:0.8,1.32;stroke-dashoffset:0;stroke-width:0.8;"/>
     </g>
     <g id="line2d_8">
      <defs>
       <path d="M 0 0 
L -3.5 0 
" id="mdda1b482c7" style="stroke:#666666;stroke-width:0.8;"/>
      </defs>
      <g>
       <use style="fill:#666666;stroke:#666666;stroke-width:0.8;" x="50.6" xlink:href="#mdda1b482c7" y="375.64"/>
      </g>
     </g>
     <g id="text_8">
      <!-- 0 -->
      <g style="fill:#666666;" transform="translate(32.1475 382.478594)scale(0.18 -0.18)">
       <use xlink:href="#DejaVuSans-48"/>
      </g>
     </g>
    </g>
    <g id="ytick_2">
     <g id="line2d_9">
      <path clip-path="url(#p35f02f74c7)" d="M 50.6 311.64051 
L 568.8 311.64051 
" style="fill:none;stroke:#000000;stroke-dasharray:0.8,1.32;stroke-dashoffset:0;stroke-width:0.8;"/>
     </g>
     <g id="line2d_10">
      <g>
       <use style="fill:#666666;stroke:#666666;stroke-width:0.8;" x="50.6" xlink:href="#mdda1b482c7" y="311.64051"/>
      </g>
     </g>
     <g id="text_9">
      <!-- 1 -->
      <g style="fill:#666666;" transform="translate(32.1475 318.479104)scale(0.18 -0.18)">
       <use xlink:href="#DejaVuSans-49"/>
      </g>
     </g>
    </g>
    <g id="ytick_3">
     <g id="line2d_11">
      <path clip-path="url(#p35f02f74c7)" d="M 50.6 247.64102 
L 568.8 247.64102 
" style="fill:none;stroke:#000000;stroke-dasharray:0.8,1.32;stroke-dashoffset:0;stroke-width:0.8;"/>
     </g>
     <g id="line2d_12">
      <g>
       <use style="fill:#666666;stroke:#666666;stroke-width:0.8;" x="50.6" xlink:href="#mdda1b482c7" y="247.64102"/>
      </g>
     </g>
     <g id="text_10">
      <!-- 2 -->
      <g style="fill:#666666;" transform="translate(32.1475 254.479613)scale(0.18 -0.18)">
       <use xlink:href="#DejaVuSans-50"/>
      </g>
     </g>
    </g>
    <g id="ytick_4">
     <g id="line2d_13">
      <path clip-path="url(#p35f02f74c7)" d="M 50.6 183.64153 
L 568.8 183.64153 
" style="fill:none;stroke:#000000;stroke-dasharray:0.8,1.32;stroke-dashoffset:0;stroke-width:0.8;"/>
     </g>
     <g id="line2d_14">
      <g>
       <use style="fill:#666666;stroke:#666666;stroke-width:0.8;" x="50.6" xlink:href="#mdda1b482c7" y="183.64153"/>
      </g>
     </g>
     <g id="text_11">
      <!-- 3 -->
      <g style="fill:#666666;" transform="translate(32.1475 190.480123)scale(0.18 -0.18)">
       <use xlink:href="#DejaVuSans-51"/>
      </g>
     </g>
    </g>
    <g id="ytick_5">
     <g id="line2d_15">
      <path clip-path="url(#p35f02f74c7)" d="M 50.6 119.642039 
L 568.8 119.642039 
" style="fill:none;stroke:#000000;stroke-dasharray:0.8,1.32;stroke-dashoffset:0;stroke-width:0.8;"/>
     </g>
     <g id="line2d_16">
      <g>
       <use style="fill:#666666;stroke:#666666;stroke-width:0.8;" x="50.6" xlink:href="#mdda1b482c7" y="119.642039"/>
      </g>
     </g>
     <g id="text_12">
      <!-- 4 -->
      <g style="fill:#666666;" transform="translate(32.1475 126.480633)scale(0.18 -0.18)">
       <use xlink:href="#DejaVuSans-52"/>
      </g>
     </g>
    </g>
    <g id="text_13">
     <!-- time (s) -->
     <g style="fill:#666666;" transform="translate(23.572187 267.521094)rotate(-90)scale(0.22 -0.22)">
      <defs>
       <path d="M 9.421875 54.6875 
L 18.40625 54.6875 
L 18.40625 0 
L 9.421875 0 
z
M 9.421875 75.984375 
L 18.40625 75.984375 
L 18.40625 64.59375 
L 9.421875 64.59375 
z
" id="DejaVuSans-105"/>
       <path d="M 52 44.1875 
Q 55.375 50.25 60.0625 53.125 
Q 64.75 56 71.09375 56 
Q 79.640625 56 84.28125 50.015625 
Q 88.921875 44.046875 88.921875 33.015625 
L 88.921875 0 
L 79.890625 0 
L 79.890625 32.71875 
Q 79.890625 40.578125 77.09375 44.375 
Q 74.3125 48.1875 68.609375 48.1875 
Q 61.625 48.1875 57.5625 43.546875 
Q 53.515625 38.921875 53.515625 30.90625 
L 53.515625 0 
L 44.484375 0 
L 44.484375 32.71875 
Q 44.484375 40.625 41.703125 44.40625 
Q 38.921875 48.1875 33.109375 48.1875 
Q 26.21875 48.1875 22.15625 43.53125 
Q 18.109375 38.875 18.109375 30.90625 
L 18.109375 0 
L 9.078125 0 
L 9.078125 54.6875 
L 18.109375 54.6875 
L 18.109375 46.1875 
Q 21.1875 51.21875 25.484375 53.609375 
Q 29.78125 56 35.6875 56 
Q 41.65625 56 45.828125 52.96875 
Q 50 49.953125 52 44.1875 
z
" id="DejaVuSans-109"/>
       <path d="M 31 75.875 
Q 24.46875 64.65625 21.28125 53.65625 
Q 18.109375 42.671875 18.109375 31.390625 
Q 18.109375 20.125 21.3125 9.0625 
Q 24.515625 -2 31 -13.1875 
L 23.1875 -13.1875 
Q 15.875 -1.703125 12.234375 9.375 
Q 8.59375 20.453125 8.59375 31.390625 
Q 8.59375 42.28125 12.203125 53.3125 
Q 15.828125 64.359375 23.1875 75.875 
z
" id="DejaVuSans-40"/>
       <path d="M 8.015625 75.875 
L 15.828125 75.875 
Q 23.140625 64.359375 26.78125 53.3125 
Q 30.421875 42.28125 30.421875 31.390625 
Q 30.421875 20.453125 26.78125 9.375 
Q 23.140625 -1.703125 15.828125 -13.1875 
L 8.015625 -13.1875 
Q 14.5 -2 17.703125 9.0625 
Q 20.90625 20.125 20.90625 31.390625 
Q 20.90625 42.671875 17.703125 53.65625 
Q 14.5 64.65625 8.015625 75.875 
z
" id="DejaVuSans-41"/>
      </defs>
      <use xlink:href="#DejaVuSans-116"/>
      <use x="39.208984" xlink:href="#DejaVuSans-105"/>
      <use x="66.992188" xlink:href="#DejaVuSans-109"/>
      <use x="164.404297" xlink:href="#DejaVuSans-101"/>
      <use x="225.927734" xlink:href="#DejaVuSans-32"/>
      <use x="257.714844" xlink:href="#DejaVuSans-40"/>
      <use x="296.728516" xlink:href="#DejaVuSans-115"/>
      <use x="348.828125" xlink:href="#DejaVuSans-41"/>
     </g>
    </g>
   </g>
   <g id="line2d_17">
    <path clip-path="url(#p35f02f74c7)" d="M 83.525055 -1 
L 83.768646 196.465249 
L 93.382746 196.268306 
L 102.996846 196.764411 
L 112.610946 196.058499 
L 122.225046 193.8264 
L 131.839147 192.173841 
L 141.453247 193.411395 
L 151.067347 193.157277 
L 160.681447 193.658234 
L 170.295547 192.981375 
L 179.909647 192.827034 
L 189.523748 192.006056 
L 199.137848 190.081267 
L 208.751948 189.279882 
L 218.366048 189.70421 
L 227.980148 189.470585 
L 237.594249 189.126135 
L 247.208349 188.485271 
L 256.822449 188.837884 
L 266.436549 187.908616 
L 276.050649 189.123984 
L 285.66475 188.634684 
L 295.27885 188.873742 
L 304.89295 189.26708 
L 314.50705 189.816926 
L 324.12115 189.294927 
L 333.73525 188.976524 
L 343.349351 189.164923 
L 352.963451 189.115271 
L 362.577551 188.504696 
L 372.191651 188.481701 
L 381.805751 188.653224 
L 391.419852 187.999481 
L 401.033952 187.165 
L 410.648052 188.792825 
L 420.262152 188.633891 
L 429.876252 189.127448 
L 439.490353 188.917366 
L 449.104453 189.155966 
L 458.718553 189.033897 
L 468.332653 189.143408 
L 477.946753 188.278745 
L 487.560853 187.484654 
L 497.174954 189.202856 
L 506.789054 188.94503 
L 516.403154 188.693278 
L 526.017254 188.34683 
L 535.631354 187.988861 
L 545.245455 187.778963 
" style="fill:none;stroke:#1f77b4;stroke-linecap:square;stroke-width:6;"/>
   </g>
   <g id="line2d_18">
    <path clip-path="url(#p35f02f74c7)" d="M 83.434978 -1 
L 83.768646 265.115703 
L 93.382746 280.720743 
L 102.996846 280.664103 
L 112.610946 280.17877 
L 122.225046 279.805528 
L 131.839147 278.505657 
L 141.453247 278.33502 
L 151.067347 278.641414 
L 160.681447 278.858468 
L 170.295547 278.053375 
L 179.909647 278.3793 
L 189.523748 278.289121 
L 199.137848 277.742892 
L 208.751948 277.199546 
L 218.366048 276.665538 
L 227.980148 276.96618 
L 237.594249 277.344442 
L 247.208349 277.358404 
L 256.822449 276.802622 
L 266.436549 276.964303 
L 276.050649 263.587441 
L 285.66475 277.35848 
L 295.27885 277.320974 
L 304.89295 276.902749 
L 314.50705 277.326757 
L 324.12115 276.260375 
L 333.73525 276.359419 
L 343.349351 276.541211 
L 352.963451 277.117042 
L 362.577551 276.698329 
L 372.191651 276.349669 
L 381.805751 276.599316 
L 391.419852 276.464032 
L 401.033952 276.389845 
L 410.648052 276.863748 
L 420.262152 276.47186 
L 429.876252 276.562634 
L 439.490353 275.228477 
L 449.104453 276.512585 
L 458.718553 262.702454 
L 468.332653 276.928796 
L 477.946753 277.103416 
L 487.560853 276.424756 
L 497.174954 277.184348 
L 506.789054 276.871988 
L 516.403154 276.827082 
L 526.017254 277.100319 
L 535.631354 276.453656 
L 545.245455 276.828638 
" style="fill:none;stroke:#ff7f0e;stroke-linecap:square;stroke-width:6;"/>
   </g>
   <g id="line2d_19">
    <path clip-path="url(#p35f02f74c7)" d="M 83.101007 -1 
L 83.768646 318.067384 
L 93.382746 315.775349 
L 102.996846 310.611114 
L 112.610946 317.311211 
L 122.225046 317.698613 
L 131.839147 316.857296 
L 141.453247 316.37207 
L 151.067347 316.391479 
L 160.681447 316.614713 
L 170.295547 316.797207 
L 179.909647 317.011546 
L 189.523748 316.945659 
L 199.137848 315.005458 
L 208.751948 315.882465 
L 218.366048 315.64504 
L 227.980148 316.740338 
L 237.594249 316.377044 
L 247.208349 316.41365 
L 256.822449 316.182145 
L 266.436549 316.924281 
L 276.050649 315.978122 
L 285.66475 316.820995 
L 295.27885 317.268166 
L 304.89295 315.615408 
L 314.50705 316.488692 
L 324.12115 316.707044 
L 333.73525 316.037066 
L 343.349351 316.655759 
L 352.963451 315.725972 
L 362.577551 315.951556 
L 372.191651 316.673658 
L 381.805751 315.475974 
L 391.419852 316.139711 
L 401.033952 316.223664 
L 410.648052 306.015631 
L 420.262152 316.287247 
L 429.876252 316.121248 
L 439.490353 315.793675 
L 449.104453 315.497703 
L 458.718553 315.292336 
L 468.332653 315.898548 
L 477.946753 315.932102 
L 487.560853 316.058611 
L 497.174954 316.490248 
L 506.789054 316.585493 
L 516.403154 316.351425 
L 526.017254 315.908924 
L 535.631354 316.489684 
L 545.245455 316.080553 
" style="fill:none;stroke:#2ca02c;stroke-linecap:square;stroke-width:6;"/>
   </g>
   <g id="line2d_20">
    <path clip-path="url(#p35f02f74c7)" d="M 82.682989 -1 
L 83.768646 336.186136 
L 93.382746 335.496262 
L 102.996846 334.956639 
L 112.610946 329.940428 
L 122.225046 336.585532 
L 131.839147 336.683844 
L 141.453247 336.4533 
L 151.067347 335.872434 
L 160.681447 337.007297 
L 170.295547 336.994113 
L 179.909647 335.995296 
L 189.523748 336.654883 
L 199.137848 336.925358 
L 208.751948 336.573539 
L 218.366048 336.585456 
L 227.980148 336.499137 
L 237.594249 336.430016 
L 247.208349 335.593505 
L 256.822449 335.806104 
L 266.436549 334.665854 
L 276.050649 336.548957 
L 285.66475 336.983142 
L 295.27885 336.322457 
L 304.89295 335.92445 
L 314.50705 336.65087 
L 324.12115 336.354089 
L 333.73525 336.196329 
L 343.349351 336.563758 
L 352.963451 335.723204 
L 362.577551 336.612265 
L 372.191651 337.316453 
L 381.805751 337.322449 
L 391.419852 336.017727 
L 401.033952 335.898114 
L 410.648052 337.050082 
L 420.262152 336.74497 
L 429.876252 337.304627 
L 439.490353 336.881886 
L 449.104453 335.818448 
L 458.718553 336.973774 
L 468.332653 337.374222 
L 477.946753 337.087619 
L 487.560853 338.118143 
L 497.174954 335.792539 
L 506.789054 335.249895 
L 516.403154 336.387749 
L 526.017254 337.161379 
L 535.631354 334.644202 
L 545.245455 337.118655 
" style="fill:none;stroke:#d62728;stroke-linecap:square;stroke-width:6;"/>
   </g>
   <g id="line2d_21">
    <path clip-path="url(#p35f02f74c7)" d="M 82.196294 -1 
L 83.768646 342.16668 
L 93.382746 343.671611 
L 102.996846 345.02533 
L 112.610946 346.166892 
L 122.225046 345.417661 
L 131.839147 344.783465 
L 141.453247 345.823786 
L 151.067347 345.14334 
L 160.681447 344.034234 
L 170.295547 345.363935 
L 179.909647 345.925225 
L 189.523748 345.579525 
L 199.137848 343.71548 
L 208.751948 345.106888 
L 218.366048 346.134467 
L 227.980148 344.179832 
L 237.594249 345.270094 
L 247.208349 345.512753 
L 256.822449 346.410924 
L 266.436549 343.282058 
L 276.050649 346.714159 
L 285.66475 346.070594 
L 295.27885 345.587795 
L 304.89295 345.446683 
L 314.50705 345.404248 
L 324.12115 345.900964 
L 333.73525 345.469723 
L 343.349351 345.992638 
L 352.963451 346.268744 
L 362.577551 346.264242 
L 372.191651 345.822794 
L 381.805751 345.657664 
L 391.419852 345.189086 
L 401.033952 345.360822 
L 410.648052 345.420346 
L 420.262152 344.829821 
L 429.876252 345.676249 
L 439.490353 344.882478 
L 449.104453 345.344145 
L 458.718553 344.578465 
L 468.332653 345.807581 
L 477.946753 345.391233 
L 487.560853 345.126312 
L 497.174954 344.472997 
L 506.789054 345.675837 
L 516.403154 345.495114 
L 526.017254 345.434979 
L 535.631354 345.06192 
L 545.245455 344.422948 
" style="fill:none;stroke:#9467bd;stroke-linecap:square;stroke-width:6;"/>
   </g>
   <g id="line2d_22">
    <path clip-path="url(#p35f02f74c7)" d="M 81.435552 -1 
L 83.768646 346.720995 
L 93.382746 348.089911 
L 102.996846 348.052802 
L 112.610946 347.392148 
L 122.225046 349.528727 
L 131.839147 348.770051 
L 141.453247 349.545207 
L 151.067347 349.30647 
L 160.681447 349.183271 
L 170.295547 349.678415 
L 179.909647 349.253614 
L 189.523748 349.17465 
L 199.137848 348.55347 
L 208.751948 349.41975 
L 218.366048 348.923782 
L 227.980148 349.439907 
L 237.594249 349.318432 
L 247.208349 349.644251 
L 256.822449 349.17938 
L 266.436549 347.0177 
L 276.050649 349.683771 
L 285.66475 349.099028 
L 295.27885 350.269047 
L 304.89295 349.790642 
L 314.50705 349.293545 
L 324.12115 349.566004 
L 333.73525 349.029906 
L 343.349351 348.547442 
L 352.963451 349.887153 
L 362.577551 347.892418 
L 372.191651 349.523356 
L 381.805751 349.265943 
L 391.419852 349.637049 
L 401.033952 349.084441 
L 410.648052 348.575991 
L 420.262152 348.763459 
L 429.876252 348.310079 
L 439.490353 350.249272 
L 449.104453 349.133894 
L 458.718553 349.36459 
L 468.332653 349.662637 
L 477.946753 348.433903 
L 487.560853 348.871521 
L 497.174954 348.637545 
L 506.789054 349.305234 
L 516.403154 348.729829 
L 526.017254 349.533519 
L 535.631354 349.26695 
L 545.245455 346.950531 
" style="fill:none;stroke:#8c564b;stroke-linecap:square;stroke-width:6;"/>
   </g>
   <g id="line2d_23">
    <path clip-path="url(#p35f02f74c7)" d="M 80.064492 -1 
L 83.768646 345.850229 
L 93.382746 346.548908 
L 102.996846 347.490032 
L 112.610946 348.345128 
L 122.225046 348.803498 
L 131.839147 348.689424 
L 141.453247 350.161825 
L 151.067347 347.848046 
L 160.681447 334.408044 
L 170.295547 349.40147 
L 179.909647 348.136496 
L 189.523748 348.527301 
L 199.137848 346.984024 
L 208.751948 349.160978 
L 218.366048 346.827989 
L 227.980148 349.574641 
L 237.594249 348.543994 
L 247.208349 348.550647 
L 256.822449 349.734628 
L 266.436549 349.991218 
L 276.050649 350.590776 
L 285.66475 347.886254 
L 295.27885 348.270376 
L 304.89295 349.903389 
L 314.50705 349.278012 
L 324.12115 349.556284 
L 333.73525 345.978554 
L 343.349351 349.0363 
L 352.963451 346.681994 
L 362.577551 347.657435 
L 372.191651 347.783182 
L 381.805751 347.855553 
L 391.419852 347.868889 
L 401.033952 343.946603 
L 410.648052 348.431431 
L 420.262152 349.2422 
L 429.876252 348.227682 
L 439.490353 348.601626 
L 449.104453 347.897484 
L 458.718553 348.332921 
L 468.332653 349.753304 
L 477.946753 347.639994 
L 487.560853 348.517993 
L 497.174954 348.751024 
L 506.789054 346.167624 
L 516.403154 347.812295 
L 526.017254 349.367291 
L 535.631354 348.135519 
L 545.245455 349.702569 
" style="fill:none;stroke:#e377c2;stroke-linecap:square;stroke-width:6;"/>
   </g>
   <g id="line2d_24">
    <path clip-path="url(#p35f02f74c7)" d="M 122.225046 375.64 
L 122.225046 74.08 
" style="fill:none;stroke:#000000;stroke-dasharray:5.55,2.4;stroke-dashoffset:0;stroke-width:1.5;"/>
   </g>
   <g id="line2d_25">
    <path clip-path="url(#p35f02f74c7)" d="M 314.50705 375.64 
L 314.50705 74.08 
" style="fill:none;stroke:#000000;stroke-dasharray:5.55,2.4;stroke-dashoffset:0;stroke-width:1.5;"/>
   </g>
   <g id="text_14">
    <!-- cle_step -->
    <g style="fill:#666666;" transform="translate(258.373828 64.08)scale(0.25 -0.25)">
     <defs>
      <path d="M 50.984375 -16.609375 
L 50.984375 -23.578125 
L -0.984375 -23.578125 
L -0.984375 -16.609375 
z
" id="DejaVuSans-95"/>
     </defs>
     <use xlink:href="#DejaVuSans-99"/>
     <use x="54.980469" xlink:href="#DejaVuSans-108"/>
     <use x="82.763672" xlink:href="#DejaVuSans-101"/>
     <use x="144.287109" xlink:href="#DejaVuSans-95"/>
     <use x="194.287109" xlink:href="#DejaVuSans-115"/>
     <use x="246.386719" xlink:href="#DejaVuSans-116"/>
     <use x="285.595703" xlink:href="#DejaVuSans-101"/>
     <use x="347.119141" xlink:href="#DejaVuSans-112"/>
    </g>
   </g>
  </g>
  <g id="text_15">
   <!-- CLE time profile -->
   <g transform="translate(168.892969 31.435313)scale(0.3 -0.3)">
    <defs>
     <path d="M 64.40625 67.28125 
L 64.40625 56.890625 
Q 59.421875 61.53125 53.78125 63.8125 
Q 48.140625 66.109375 41.796875 66.109375 
Q 29.296875 66.109375 22.65625 58.46875 
Q 16.015625 50.828125 16.015625 36.375 
Q 16.015625 21.96875 22.65625 14.328125 
Q 29.296875 6.6875 41.796875 6.6875 
Q 48.140625 6.6875 53.78125 8.984375 
Q 59.421875 11.28125 64.40625 15.921875 
L 64.40625 5.609375 
Q 59.234375 2.09375 53.4375 0.328125 
Q 47.65625 -1.421875 41.21875 -1.421875 
Q 24.65625 -1.421875 15.125 8.703125 
Q 5.609375 18.84375 5.609375 36.375 
Q 5.609375 53.953125 15.125 64.078125 
Q 24.65625 74.21875 41.21875 74.21875 
Q 47.75 74.21875 53.53125 72.484375 
Q 59.328125 70.75 64.40625 67.28125 
z
" id="DejaVuSans-67"/>
     <path d="M 9.8125 72.90625 
L 19.671875 72.90625 
L 19.671875 8.296875 
L 55.171875 8.296875 
L 55.171875 0 
L 9.8125 0 
z
" id="DejaVuSans-76"/>
     <path d="M 9.8125 72.90625 
L 55.90625 72.90625 
L 55.90625 64.59375 
L 19.671875 64.59375 
L 19.671875 43.015625 
L 54.390625 43.015625 
L 54.390625 34.71875 
L 19.671875 34.71875 
L 19.671875 8.296875 
L 56.78125 8.296875 
L 56.78125 0 
L 9.8125 0 
z
" id="DejaVuSans-69"/>
     <path d="M 41.109375 46.296875 
Q 39.59375 47.171875 37.8125 47.578125 
Q 36.03125 48 33.890625 48 
Q 26.265625 48 22.1875 43.046875 
Q 18.109375 38.09375 18.109375 28.8125 
L 18.109375 0 
L 9.078125 0 
L 9.078125 54.6875 
L 18.109375 54.6875 
L 18.109375 46.1875 
Q 20.953125 51.171875 25.484375 53.578125 
Q 30.03125 56 36.53125 56 
Q 37.453125 56 38.578125 55.875 
Q 39.703125 55.765625 41.0625 55.515625 
z
" id="DejaVuSans-114"/>
     <path d="M 30.609375 48.390625 
Q 23.390625 48.390625 19.1875 42.75 
Q 14.984375 37.109375 14.984375 27.296875 
Q 14.984375 17.484375 19.15625 11.84375 
Q 23.34375 6.203125 30.609375 6.203125 
Q 37.796875 6.203125 41.984375 11.859375 
Q 46.1875 17.53125 46.1875 27.296875 
Q 46.1875 37.015625 41.984375 42.703125 
Q 37.796875 48.390625 30.609375 48.390625 
z
M 30.609375 56 
Q 42.328125 56 49.015625 48.375 
Q 55.71875 40.765625 55.71875 27.296875 
Q 55.71875 13.875 49.015625 6.21875 
Q 42.328125 -1.421875 30.609375 -1.421875 
Q 18.84375 -1.421875 12.171875 6.21875 
Q 5.515625 13.875 5.515625 27.296875 
Q 5.515625 40.765625 12.171875 48.375 
Q 18.84375 56 30.609375 56 
z
" id="DejaVuSans-111"/>
     <path d="M 37.109375 75.984375 
L 37.109375 68.5 
L 28.515625 68.5 
Q 23.6875 68.5 21.796875 66.546875 
Q 19.921875 64.59375 19.921875 59.515625 
L 19.921875 54.6875 
L 34.71875 54.6875 
L 34.71875 47.703125 
L 19.921875 47.703125 
L 19.921875 0 
L 10.890625 0 
L 10.890625 47.703125 
L 2.296875 47.703125 
L 2.296875 54.6875 
L 10.890625 54.6875 
L 10.890625 58.5 
Q 10.890625 67.625 15.140625 71.796875 
Q 19.390625 75.984375 28.609375 75.984375 
z
" id="DejaVuSans-102"/>
    </defs>
    <use xlink:href="#DejaVuSans-67"/>
    <use x="69.824219" xlink:href="#DejaVuSans-76"/>
    <use x="125.537109" xlink:href="#DejaVuSans-69"/>
    <use x="188.720703" xlink:href="#DejaVuSans-32"/>
    <use x="220.507812" xlink:href="#DejaVuSans-116"/>
    <use x="259.716797" xlink:href="#DejaVuSans-105"/>
    <use x="287.5" xlink:href="#DejaVuSans-109"/>
    <use x="384.912109" xlink:href="#DejaVuSans-101"/>
    <use x="446.435547" xlink:href="#DejaVuSans-32"/>
    <use x="478.222656" xlink:href="#DejaVuSans-112"/>
    <use x="541.699219" xlink:href="#DejaVuSans-114"/>
    <use x="580.5625" xlink:href="#DejaVuSans-111"/>
    <use x="641.744141" xlink:href="#DejaVuSans-102"/>
    <use x="676.949219" xlink:href="#DejaVuSans-105"/>
    <use x="704.732422" xlink:href="#DejaVuSans-108"/>
    <use x="732.515625" xlink:href="#DejaVuSans-101"/>
   </g>
  </g>
 </g>
 <defs>
  <clipPath id="p35f02f74c7">
   <rect height="301.56" width="518.2" x="50.6" y="74.08"/>
  </clipPath>
 </defs>
</svg>
