<?xml version="1.0" encoding="utf-8" standalone="no"?>
<!DOCTYPE svg PUBLIC "-//W3C//DTD SVG 1.1//EN"
  "http://www.w3.org/Graphics/SVG/1.1/DTD/svg11.dtd">
<!-- Created with matplotlib (https://matplotlib.org/) -->
<svg height="432pt" version="1.1" viewBox="0 0 576 432" width="576pt" xmlns="http://www.w3.org/2000/svg" xmlns:xlink="http://www.w3.org/1999/xlink">
 <metadata>
  <rdf:RDF xmlns:cc="http://creativecommons.org/ns#" xmlns:dc="http://purl.org/dc/elements/1.1/" xmlns:rdf="http://www.w3.org/1999/02/22-rdf-syntax-ns#">
   <cc:Work>
    <dc:type rdf:resource="http://purl.org/dc/dcmitype/StillImage"/>
    <dc:date>2022-04-11T20:24:00.217231</dc:date>
    <dc:format>image/svg+xml</dc:format>
    <dc:creator>
     <cc:Agent>
      <dc:title>Matplotlib v3.3.4, https://matplotlib.org/</dc:title>
     </cc:Agent>
    </dc:creator>
   </cc:Work>
  </rdf:RDF>
 </metadata>
 <defs>
  <style type="text/css">*{stroke-linecap:butt;stroke-linejoin:round;}</style>
 </defs>
 <g id="figure_1">
  <g id="patch_1">
   <path d="M 0 432 
L 576 432 
L 576 0 
L 0 0 
z
" style="fill:#ffffff;"/>
  </g>
  <g id="axes_1">
   <g id="patch_2">
    <path d="M 102.08 375.64 
L 568.8 375.64 
L 568.8 74.08 
L 102.08 74.08 
z
" style="fill:#ffffff;"/>
   </g>
   <g id="matplotlib.axis_1">
    <g id="xtick_1">
     <g id="line2d_1">
      <defs>
       <path d="M 0 0 
L 0 3.5 
" id="m1d75b6464a" style="stroke:#666666;stroke-width:0.8;"/>
      </defs>
      <g>
       <use style="fill:#666666;stroke:#666666;stroke-width:0.8;" x="123.294545" xlink:href="#m1d75b6464a" y="375.64"/>
      </g>
     </g>
     <g id="text_1">
      <!-- 0 -->
      <g style="fill:#666666;" transform="translate(117.568295 396.317187)scale(0.18 -0.18)">
       <defs>
        <path d="M 31.78125 66.40625 
Q 24.171875 66.40625 20.328125 58.90625 
Q 16.5 51.421875 16.5 36.375 
Q 16.5 21.390625 20.328125 13.890625 
Q 24.171875 6.390625 31.78125 6.390625 
Q 39.453125 6.390625 43.28125 13.890625 
Q 47.125 21.390625 47.125 36.375 
Q 47.125 51.421875 43.28125 58.90625 
Q 39.453125 66.40625 31.78125 66.40625 
z
M 31.78125 74.21875 
Q 44.046875 74.21875 50.515625 64.515625 
Q 56.984375 54.828125 56.984375 36.375 
Q 56.984375 17.96875 50.515625 8.265625 
Q 44.046875 -1.421875 31.78125 -1.421875 
Q 19.53125 -1.421875 13.0625 8.265625 
Q 6.59375 17.96875 6.59375 36.375 
Q 6.59375 54.828125 13.0625 64.515625 
Q 19.53125 74.21875 31.78125 74.21875 
z
" id="DejaVuSans-48"/>
       </defs>
       <use xlink:href="#DejaVuSans-48"/>
      </g>
     </g>
    </g>
    <g id="xtick_2">
     <g id="line2d_2">
      <g>
       <use style="fill:#666666;stroke:#666666;stroke-width:0.8;" x="209.884527" xlink:href="#m1d75b6464a" y="375.64"/>
      </g>
     </g>
     <g id="text_2">
      <!-- 10 -->
      <g style="fill:#666666;" transform="translate(198.432027 396.317187)scale(0.18 -0.18)">
       <defs>
        <path d="M 12.40625 8.296875 
L 28.515625 8.296875 
L 28.515625 63.921875 
L 10.984375 60.40625 
L 10.984375 69.390625 
L 28.421875 72.90625 
L 38.28125 72.90625 
L 38.28125 8.296875 
L 54.390625 8.296875 
L 54.390625 0 
L 12.40625 0 
z
" id="DejaVuSans-49"/>
       </defs>
       <use xlink:href="#DejaVuSans-49"/>
       <use x="63.623047" xlink:href="#DejaVuSans-48"/>
      </g>
     </g>
    </g>
    <g id="xtick_3">
     <g id="line2d_3">
      <g>
       <use style="fill:#666666;stroke:#666666;stroke-width:0.8;" x="296.474508" xlink:href="#m1d75b6464a" y="375.64"/>
      </g>
     </g>
     <g id="text_3">
      <!-- 20 -->
      <g style="fill:#666666;" transform="translate(285.022008 396.317187)scale(0.18 -0.18)">
       <defs>
        <path d="M 19.1875 8.296875 
L 53.609375 8.296875 
L 53.609375 0 
L 7.328125 0 
L 7.328125 8.296875 
Q 12.9375 14.109375 22.625 23.890625 
Q 32.328125 33.6875 34.8125 36.53125 
Q 39.546875 41.84375 41.421875 45.53125 
Q 43.3125 49.21875 43.3125 52.78125 
Q 43.3125 58.59375 39.234375 62.25 
Q 35.15625 65.921875 28.609375 65.921875 
Q 23.96875 65.921875 18.8125 64.3125 
Q 13.671875 62.703125 7.8125 59.421875 
L 7.8125 69.390625 
Q 13.765625 71.78125 18.9375 73 
Q 24.125 74.21875 28.421875 74.21875 
Q 39.75 74.21875 46.484375 68.546875 
Q 53.21875 62.890625 53.21875 53.421875 
Q 53.21875 48.921875 51.53125 44.890625 
Q 49.859375 40.875 45.40625 35.40625 
Q 44.1875 33.984375 37.640625 27.21875 
Q 31.109375 20.453125 19.1875 8.296875 
z
" id="DejaVuSans-50"/>
       </defs>
       <use xlink:href="#DejaVuSans-50"/>
       <use x="63.623047" xlink:href="#DejaVuSans-48"/>
      </g>
     </g>
    </g>
    <g id="xtick_4">
     <g id="line2d_4">
      <g>
       <use style="fill:#666666;stroke:#666666;stroke-width:0.8;" x="383.06449" xlink:href="#m1d75b6464a" y="375.64"/>
      </g>
     </g>
     <g id="text_4">
      <!-- 30 -->
      <g style="fill:#666666;" transform="translate(371.61199 396.317187)scale(0.18 -0.18)">
       <defs>
        <path d="M 40.578125 39.3125 
Q 47.65625 37.796875 51.625 33 
Q 55.609375 28.21875 55.609375 21.1875 
Q 55.609375 10.40625 48.1875 4.484375 
Q 40.765625 -1.421875 27.09375 -1.421875 
Q 22.515625 -1.421875 17.65625 -0.515625 
Q 12.796875 0.390625 7.625 2.203125 
L 7.625 11.71875 
Q 11.71875 9.328125 16.59375 8.109375 
Q 21.484375 6.890625 26.8125 6.890625 
Q 36.078125 6.890625 40.9375 10.546875 
Q 45.796875 14.203125 45.796875 21.1875 
Q 45.796875 27.640625 41.28125 31.265625 
Q 36.765625 34.90625 28.71875 34.90625 
L 20.21875 34.90625 
L 20.21875 43.015625 
L 29.109375 43.015625 
Q 36.375 43.015625 40.234375 45.921875 
Q 44.09375 48.828125 44.09375 54.296875 
Q 44.09375 59.90625 40.109375 62.90625 
Q 36.140625 65.921875 28.71875 65.921875 
Q 24.65625 65.921875 20.015625 65.03125 
Q 15.375 64.15625 9.8125 62.3125 
L 9.8125 71.09375 
Q 15.4375 72.65625 20.34375 73.4375 
Q 25.25 74.21875 29.59375 74.21875 
Q 40.828125 74.21875 47.359375 69.109375 
Q 53.90625 64.015625 53.90625 55.328125 
Q 53.90625 49.265625 50.4375 45.09375 
Q 46.96875 40.921875 40.578125 39.3125 
z
" id="DejaVuSans-51"/>
       </defs>
       <use xlink:href="#DejaVuSans-51"/>
       <use x="63.623047" xlink:href="#DejaVuSans-48"/>
      </g>
     </g>
    </g>
    <g id="xtick_5">
     <g id="line2d_5">
      <g>
       <use style="fill:#666666;stroke:#666666;stroke-width:0.8;" x="469.654471" xlink:href="#m1d75b6464a" y="375.64"/>
      </g>
     </g>
     <g id="text_5">
      <!-- 40 -->
      <g style="fill:#666666;" transform="translate(458.201971 396.317187)scale(0.18 -0.18)">
       <defs>
        <path d="M 37.796875 64.3125 
L 12.890625 25.390625 
L 37.796875 25.390625 
z
M 35.203125 72.90625 
L 47.609375 72.90625 
L 47.609375 25.390625 
L 58.015625 25.390625 
L 58.015625 17.1875 
L 47.609375 17.1875 
L 47.609375 0 
L 37.796875 0 
L 37.796875 17.1875 
L 4.890625 17.1875 
L 4.890625 26.703125 
z
" id="DejaVuSans-52"/>
       </defs>
       <use xlink:href="#DejaVuSans-52"/>
       <use x="63.623047" xlink:href="#DejaVuSans-48"/>
      </g>
     </g>
    </g>
    <g id="xtick_6">
     <g id="line2d_6">
      <g>
       <use style="fill:#666666;stroke:#666666;stroke-width:0.8;" x="556.244453" xlink:href="#m1d75b6464a" y="375.64"/>
      </g>
     </g>
     <g id="text_6">
      <!-- 50 -->
      <g style="fill:#666666;" transform="translate(544.791953 396.317187)scale(0.18 -0.18)">
       <defs>
        <path d="M 10.796875 72.90625 
L 49.515625 72.90625 
L 49.515625 64.59375 
L 19.828125 64.59375 
L 19.828125 46.734375 
Q 21.96875 47.46875 24.109375 47.828125 
Q 26.265625 48.1875 28.421875 48.1875 
Q 40.625 48.1875 47.75 41.5 
Q 54.890625 34.8125 54.890625 23.390625 
Q 54.890625 11.625 47.5625 5.09375 
Q 40.234375 -1.421875 26.90625 -1.421875 
Q 22.3125 -1.421875 17.546875 -0.640625 
Q 12.796875 0.140625 7.71875 1.703125 
L 7.71875 11.625 
Q 12.109375 9.234375 16.796875 8.0625 
Q 21.484375 6.890625 26.703125 6.890625 
Q 35.15625 6.890625 40.078125 11.328125 
Q 45.015625 15.765625 45.015625 23.390625 
Q 45.015625 31 40.078125 35.4375 
Q 35.15625 39.890625 26.703125 39.890625 
Q 22.75 39.890625 18.8125 39.015625 
Q 14.890625 38.140625 10.796875 36.28125 
z
" id="DejaVuSans-53"/>
       </defs>
       <use xlink:href="#DejaVuSans-53"/>
       <use x="63.623047" xlink:href="#DejaVuSans-48"/>
      </g>
     </g>
    </g>
    <g id="text_7">
     <!-- cle step -->
     <g style="fill:#666666;" transform="translate(292.277031 420.777187)scale(0.22 -0.22)">
      <defs>
       <path d="M 48.78125 52.59375 
L 48.78125 44.1875 
Q 44.96875 46.296875 41.140625 47.34375 
Q 37.3125 48.390625 33.40625 48.390625 
Q 24.65625 48.390625 19.8125 42.84375 
Q 14.984375 37.3125 14.984375 27.296875 
Q 14.984375 17.28125 19.8125 11.734375 
Q 24.65625 6.203125 33.40625 6.203125 
Q 37.3125 6.203125 41.140625 7.25 
Q 44.96875 8.296875 48.78125 10.40625 
L 48.78125 2.09375 
Q 45.015625 0.34375 40.984375 -0.53125 
Q 36.96875 -1.421875 32.421875 -1.421875 
Q 20.0625 -1.421875 12.78125 6.34375 
Q 5.515625 14.109375 5.515625 27.296875 
Q 5.515625 40.671875 12.859375 48.328125 
Q 20.21875 56 33.015625 56 
Q 37.15625 56 41.109375 55.140625 
Q 45.0625 54.296875 48.78125 52.59375 
z
" id="DejaVuSans-99"/>
       <path d="M 9.421875 75.984375 
L 18.40625 75.984375 
L 18.40625 0 
L 9.421875 0 
z
" id="DejaVuSans-108"/>
       <path d="M 56.203125 29.59375 
L 56.203125 25.203125 
L 14.890625 25.203125 
Q 15.484375 15.921875 20.484375 11.0625 
Q 25.484375 6.203125 34.421875 6.203125 
Q 39.59375 6.203125 44.453125 7.46875 
Q 49.3125 8.734375 54.109375 11.28125 
L 54.109375 2.78125 
Q 49.265625 0.734375 44.1875 -0.34375 
Q 39.109375 -1.421875 33.890625 -1.421875 
Q 20.796875 -1.421875 13.15625 6.1875 
Q 5.515625 13.8125 5.515625 26.8125 
Q 5.515625 40.234375 12.765625 48.109375 
Q 20.015625 56 32.328125 56 
Q 43.359375 56 49.78125 48.890625 
Q 56.203125 41.796875 56.203125 29.59375 
z
M 47.21875 32.234375 
Q 47.125 39.59375 43.09375 43.984375 
Q 39.0625 48.390625 32.421875 48.390625 
Q 24.90625 48.390625 20.390625 44.140625 
Q 15.875 39.890625 15.1875 32.171875 
z
" id="DejaVuSans-101"/>
       <path id="DejaVuSans-32"/>
       <path d="M 44.28125 53.078125 
L 44.28125 44.578125 
Q 40.484375 46.53125 36.375 47.5 
Q 32.28125 48.484375 27.875 48.484375 
Q 21.1875 48.484375 17.84375 46.4375 
Q 14.5 44.390625 14.5 40.28125 
Q 14.5 37.15625 16.890625 35.375 
Q 19.28125 33.59375 26.515625 31.984375 
L 29.59375 31.296875 
Q 39.15625 29.25 43.1875 25.515625 
Q 47.21875 21.78125 47.21875 15.09375 
Q 47.21875 7.46875 41.1875 3.015625 
Q 35.15625 -1.421875 24.609375 -1.421875 
Q 20.21875 -1.421875 15.453125 -0.5625 
Q 10.6875 0.296875 5.421875 2 
L 5.421875 11.28125 
Q 10.40625 8.6875 15.234375 7.390625 
Q 20.0625 6.109375 24.8125 6.109375 
Q 31.15625 6.109375 34.5625 8.28125 
Q 37.984375 10.453125 37.984375 14.40625 
Q 37.984375 18.0625 35.515625 20.015625 
Q 33.0625 21.96875 24.703125 23.78125 
L 21.578125 24.515625 
Q 13.234375 26.265625 9.515625 29.90625 
Q 5.8125 33.546875 5.8125 39.890625 
Q 5.8125 47.609375 11.28125 51.796875 
Q 16.75 56 26.8125 56 
Q 31.78125 56 36.171875 55.265625 
Q 40.578125 54.546875 44.28125 53.078125 
z
" id="DejaVuSans-115"/>
       <path d="M 18.3125 70.21875 
L 18.3125 54.6875 
L 36.8125 54.6875 
L 36.8125 47.703125 
L 18.3125 47.703125 
L 18.3125 18.015625 
Q 18.3125 11.328125 20.140625 9.421875 
Q 21.96875 7.515625 27.59375 7.515625 
L 36.8125 7.515625 
L 36.8125 0 
L 27.59375 0 
Q 17.1875 0 13.234375 3.875 
Q 9.28125 7.765625 9.28125 18.015625 
L 9.28125 47.703125 
L 2.6875 47.703125 
L 2.6875 54.6875 
L 9.28125 54.6875 
L 9.28125 70.21875 
z
" id="DejaVuSans-116"/>
       <path d="M 18.109375 8.203125 
L 18.109375 -20.796875 
L 9.078125 -20.796875 
L 9.078125 54.6875 
L 18.109375 54.6875 
L 18.109375 46.390625 
Q 20.953125 51.265625 25.265625 53.625 
Q 29.59375 56 35.59375 56 
Q 45.5625 56 51.78125 48.09375 
Q 58.015625 40.1875 58.015625 27.296875 
Q 58.015625 14.40625 51.78125 6.484375 
Q 45.5625 -1.421875 35.59375 -1.421875 
Q 29.59375 -1.421875 25.265625 0.953125 
Q 20.953125 3.328125 18.109375 8.203125 
z
M 48.6875 27.296875 
Q 48.6875 37.203125 44.609375 42.84375 
Q 40.53125 48.484375 33.40625 48.484375 
Q 26.265625 48.484375 22.1875 42.84375 
Q 18.109375 37.203125 18.109375 27.296875 
Q 18.109375 17.390625 22.1875 11.75 
Q 26.265625 6.109375 33.40625 6.109375 
Q 40.53125 6.109375 44.609375 11.75 
Q 48.6875 17.390625 48.6875 27.296875 
z
" id="DejaVuSans-112"/>
      </defs>
      <use xlink:href="#DejaVuSans-99"/>
      <use x="54.980469" xlink:href="#DejaVuSans-108"/>
      <use x="82.763672" xlink:href="#DejaVuSans-101"/>
      <use x="144.287109" xlink:href="#DejaVuSans-32"/>
      <use x="176.074219" xlink:href="#DejaVuSans-115"/>
      <use x="228.173828" xlink:href="#DejaVuSans-116"/>
      <use x="267.382812" xlink:href="#DejaVuSans-101"/>
      <use x="328.90625" xlink:href="#DejaVuSans-112"/>
     </g>
    </g>
   </g>
   <g id="matplotlib.axis_2">
    <g id="ytick_1">
     <g id="line2d_7">
      <path clip-path="url(#p3523d8ad52)" d="M 102.08 350.701282 
L 568.8 350.701282 
" style="fill:none;stroke:#000000;stroke-dasharray:0.8,1.32;stroke-dashoffset:0;stroke-width:0.8;"/>
     </g>
     <g id="line2d_8">
      <defs>
       <path d="M 0 0 
L -3.5 0 
" id="m6c3de7a4fe" style="stroke:#666666;stroke-width:0.8;"/>
      </defs>
      <g>
       <use style="fill:#666666;stroke:#666666;stroke-width:0.8;" x="102.08" xlink:href="#m6c3de7a4fe" y="350.701282"/>
      </g>
     </g>
     <g id="text_8">
      <!-- 0.0001 -->
      <g style="fill:#666666;" transform="translate(32.096875 357.539876)scale(0.18 -0.18)">
       <defs>
        <path d="M 10.6875 12.40625 
L 21 12.40625 
L 21 0 
L 10.6875 0 
z
" id="DejaVuSans-46"/>
       </defs>
       <use xlink:href="#DejaVuSans-48"/>
       <use x="63.623047" xlink:href="#DejaVuSans-46"/>
       <use x="95.410156" xlink:href="#DejaVuSans-48"/>
       <use x="159.033203" xlink:href="#DejaVuSans-48"/>
       <use x="222.65625" xlink:href="#DejaVuSans-48"/>
       <use x="286.279297" xlink:href="#DejaVuSans-49"/>
      </g>
     </g>
    </g>
    <g id="ytick_2">
     <g id="line2d_9">
      <path clip-path="url(#p3523d8ad52)" d="M 102.08 300.823846 
L 568.8 300.823846 
" style="fill:none;stroke:#000000;stroke-dasharray:0.8,1.32;stroke-dashoffset:0;stroke-width:0.8;"/>
     </g>
     <g id="line2d_10">
      <g>
       <use style="fill:#666666;stroke:#666666;stroke-width:0.8;" x="102.08" xlink:href="#m6c3de7a4fe" y="300.823846"/>
      </g>
     </g>
     <g id="text_9">
      <!-- 0.0002 -->
      <g style="fill:#666666;" transform="translate(32.096875 307.66244)scale(0.18 -0.18)">
       <use xlink:href="#DejaVuSans-48"/>
       <use x="63.623047" xlink:href="#DejaVuSans-46"/>
       <use x="95.410156" xlink:href="#DejaVuSans-48"/>
       <use x="159.033203" xlink:href="#DejaVuSans-48"/>
       <use x="222.65625" xlink:href="#DejaVuSans-48"/>
       <use x="286.279297" xlink:href="#DejaVuSans-50"/>
      </g>
     </g>
    </g>
    <g id="ytick_3">
     <g id="line2d_11">
      <path clip-path="url(#p3523d8ad52)" d="M 102.08 250.94641 
L 568.8 250.94641 
" style="fill:none;stroke:#000000;stroke-dasharray:0.8,1.32;stroke-dashoffset:0;stroke-width:0.8;"/>
     </g>
     <g id="line2d_12">
      <g>
       <use style="fill:#666666;stroke:#666666;stroke-width:0.8;" x="102.08" xlink:href="#m6c3de7a4fe" y="250.94641"/>
      </g>
     </g>
     <g id="text_10">
      <!-- 0.0003 -->
      <g style="fill:#666666;" transform="translate(32.096875 257.785004)scale(0.18 -0.18)">
       <use xlink:href="#DejaVuSans-48"/>
       <use x="63.623047" xlink:href="#DejaVuSans-46"/>
       <use x="95.410156" xlink:href="#DejaVuSans-48"/>
       <use x="159.033203" xlink:href="#DejaVuSans-48"/>
       <use x="222.65625" xlink:href="#DejaVuSans-48"/>
       <use x="286.279297" xlink:href="#DejaVuSans-51"/>
      </g>
     </g>
    </g>
    <g id="ytick_4">
     <g id="line2d_13">
      <path clip-path="url(#p3523d8ad52)" d="M 102.08 201.068975 
L 568.8 201.068975 
" style="fill:none;stroke:#000000;stroke-dasharray:0.8,1.32;stroke-dashoffset:0;stroke-width:0.8;"/>
     </g>
     <g id="line2d_14">
      <g>
       <use style="fill:#666666;stroke:#666666;stroke-width:0.8;" x="102.08" xlink:href="#m6c3de7a4fe" y="201.068975"/>
      </g>
     </g>
     <g id="text_11">
      <!-- 0.0004 -->
      <g style="fill:#666666;" transform="translate(32.096875 207.907568)scale(0.18 -0.18)">
       <use xlink:href="#DejaVuSans-48"/>
       <use x="63.623047" xlink:href="#DejaVuSans-46"/>
       <use x="95.410156" xlink:href="#DejaVuSans-48"/>
       <use x="159.033203" xlink:href="#DejaVuSans-48"/>
       <use x="222.65625" xlink:href="#DejaVuSans-48"/>
       <use x="286.279297" xlink:href="#DejaVuSans-52"/>
      </g>
     </g>
    </g>
    <g id="ytick_5">
     <g id="line2d_15">
      <path clip-path="url(#p3523d8ad52)" d="M 102.08 151.191539 
L 568.8 151.191539 
" style="fill:none;stroke:#000000;stroke-dasharray:0.8,1.32;stroke-dashoffset:0;stroke-width:0.8;"/>
     </g>
     <g id="line2d_16">
      <g>
       <use style="fill:#666666;stroke:#666666;stroke-width:0.8;" x="102.08" xlink:href="#m6c3de7a4fe" y="151.191539"/>
      </g>
     </g>
     <g id="text_12">
      <!-- 0.0005 -->
      <g style="fill:#666666;" transform="translate(32.096875 158.030132)scale(0.18 -0.18)">
       <use xlink:href="#DejaVuSans-48"/>
       <use x="63.623047" xlink:href="#DejaVuSans-46"/>
       <use x="95.410156" xlink:href="#DejaVuSans-48"/>
       <use x="159.033203" xlink:href="#DejaVuSans-48"/>
       <use x="222.65625" xlink:href="#DejaVuSans-48"/>
       <use x="286.279297" xlink:href="#DejaVuSans-53"/>
      </g>
     </g>
    </g>
    <g id="ytick_6">
     <g id="line2d_17">
      <path clip-path="url(#p3523d8ad52)" d="M 102.08 101.314103 
L 568.8 101.314103 
" style="fill:none;stroke:#000000;stroke-dasharray:0.8,1.32;stroke-dashoffset:0;stroke-width:0.8;"/>
     </g>
     <g id="line2d_18">
      <g>
       <use style="fill:#666666;stroke:#666666;stroke-width:0.8;" x="102.08" xlink:href="#m6c3de7a4fe" y="101.314103"/>
      </g>
     </g>
     <g id="text_13">
      <!-- 0.0006 -->
      <g style="fill:#666666;" transform="translate(32.096875 108.152697)scale(0.18 -0.18)">
       <defs>
        <path d="M 33.015625 40.375 
Q 26.375 40.375 22.484375 35.828125 
Q 18.609375 31.296875 18.609375 23.390625 
Q 18.609375 15.53125 22.484375 10.953125 
Q 26.375 6.390625 33.015625 6.390625 
Q 39.65625 6.390625 43.53125 10.953125 
Q 47.40625 15.53125 47.40625 23.390625 
Q 47.40625 31.296875 43.53125 35.828125 
Q 39.65625 40.375 33.015625 40.375 
z
M 52.59375 71.296875 
L 52.59375 62.3125 
Q 48.875 64.0625 45.09375 64.984375 
Q 41.3125 65.921875 37.59375 65.921875 
Q 27.828125 65.921875 22.671875 59.328125 
Q 17.53125 52.734375 16.796875 39.40625 
Q 19.671875 43.65625 24.015625 45.921875 
Q 28.375 48.1875 33.59375 48.1875 
Q 44.578125 48.1875 50.953125 41.515625 
Q 57.328125 34.859375 57.328125 23.390625 
Q 57.328125 12.15625 50.6875 5.359375 
Q 44.046875 -1.421875 33.015625 -1.421875 
Q 20.359375 -1.421875 13.671875 8.265625 
Q 6.984375 17.96875 6.984375 36.375 
Q 6.984375 53.65625 15.1875 63.9375 
Q 23.390625 74.21875 37.203125 74.21875 
Q 40.921875 74.21875 44.703125 73.484375 
Q 48.484375 72.75 52.59375 71.296875 
z
" id="DejaVuSans-54"/>
       </defs>
       <use xlink:href="#DejaVuSans-48"/>
       <use x="63.623047" xlink:href="#DejaVuSans-46"/>
       <use x="95.410156" xlink:href="#DejaVuSans-48"/>
       <use x="159.033203" xlink:href="#DejaVuSans-48"/>
       <use x="222.65625" xlink:href="#DejaVuSans-48"/>
       <use x="286.279297" xlink:href="#DejaVuSans-54"/>
      </g>
     </g>
    </g>
    <g id="text_14">
     <!-- time (s) -->
     <g style="fill:#666666;" transform="translate(23.521563 267.521094)rotate(-90)scale(0.22 -0.22)">
      <defs>
       <path d="M 9.421875 54.6875 
L 18.40625 54.6875 
L 18.40625 0 
L 9.421875 0 
z
M 9.421875 75.984375 
L 18.40625 75.984375 
L 18.40625 64.59375 
L 9.421875 64.59375 
z
" id="DejaVuSans-105"/>
       <path d="M 52 44.1875 
Q 55.375 50.25 60.0625 53.125 
Q 64.75 56 71.09375 56 
Q 79.640625 56 84.28125 50.015625 
Q 88.921875 44.046875 88.921875 33.015625 
L 88.921875 0 
L 79.890625 0 
L 79.890625 32.71875 
Q 79.890625 40.578125 77.09375 44.375 
Q 74.3125 48.1875 68.609375 48.1875 
Q 61.625 48.1875 57.5625 43.546875 
Q 53.515625 38.921875 53.515625 30.90625 
L 53.515625 0 
L 44.484375 0 
L 44.484375 32.71875 
Q 44.484375 40.625 41.703125 44.40625 
Q 38.921875 48.1875 33.109375 48.1875 
Q 26.21875 48.1875 22.15625 43.53125 
Q 18.109375 38.875 18.109375 30.90625 
L 18.109375 0 
L 9.078125 0 
L 9.078125 54.6875 
L 18.109375 54.6875 
L 18.109375 46.1875 
Q 21.1875 51.21875 25.484375 53.609375 
Q 29.78125 56 35.6875 56 
Q 41.65625 56 45.828125 52.96875 
Q 50 49.953125 52 44.1875 
z
" id="DejaVuSans-109"/>
       <path d="M 31 75.875 
Q 24.46875 64.65625 21.28125 53.65625 
Q 18.109375 42.671875 18.109375 31.390625 
Q 18.109375 20.125 21.3125 9.0625 
Q 24.515625 -2 31 -13.1875 
L 23.1875 -13.1875 
Q 15.875 -1.703125 12.234375 9.375 
Q 8.59375 20.453125 8.59375 31.390625 
Q 8.59375 42.28125 12.203125 53.3125 
Q 15.828125 64.359375 23.1875 75.875 
z
" id="DejaVuSans-40"/>
       <path d="M 8.015625 75.875 
L 15.828125 75.875 
Q 23.140625 64.359375 26.78125 53.3125 
Q 30.421875 42.28125 30.421875 31.390625 
Q 30.421875 20.453125 26.78125 9.375 
Q 23.140625 -1.703125 15.828125 -13.1875 
L 8.015625 -13.1875 
Q 14.5 -2 17.703125 9.0625 
Q 20.90625 20.125 20.90625 31.390625 
Q 20.90625 42.671875 17.703125 53.65625 
Q 14.5 64.65625 8.015625 75.875 
z
" id="DejaVuSans-41"/>
      </defs>
      <use xlink:href="#DejaVuSans-116"/>
      <use x="39.208984" xlink:href="#DejaVuSans-105"/>
      <use x="66.992188" xlink:href="#DejaVuSans-109"/>
      <use x="164.404297" xlink:href="#DejaVuSans-101"/>
      <use x="225.927734" xlink:href="#DejaVuSans-32"/>
      <use x="257.714844" xlink:href="#DejaVuSans-40"/>
      <use x="296.728516" xlink:href="#DejaVuSans-115"/>
      <use x="348.828125" xlink:href="#DejaVuSans-41"/>
     </g>
    </g>
   </g>
   <g id="line2d_19">
    <path clip-path="url(#p3523d8ad52)" d="M 131.792071 -1 
L 131.953544 244.321683 
L 140.612542 359.671245 
L 149.27154 360.146913 
L 157.930538 359.076659 
L 166.589536 341.714766 
L 175.248534 343.61744 
L 183.907532 358.006405 
L 192.566531 358.838825 
L 201.225529 360.027996 
L 209.884527 341.714766 
L 218.543525 358.600991 
L 227.202523 352.774054 
L 235.861521 350.633547 
L 244.520519 358.600991 
L 253.179518 358.363157 
L 261.838516 360.860415 
L 270.497514 359.314493 
L 279.156512 343.855274 
L 287.81551 360.384747 
L 296.474508 349.801127 
L 305.133506 317.455683 
L 313.792505 336.125664 
L 322.451503 350.51463 
L 331.110501 359.790162 
L 339.769499 353.844308 
L 348.428497 343.379605 
L 357.087495 359.909079 
L 365.746494 353.844308 
L 374.405492 360.979332 
L 383.06449 353.606474 
L 391.723488 358.838825 
L 400.382486 353.606474 
L 409.041484 331.487898 
L 417.700482 345.401196 
L 426.359481 359.43341 
L 435.018479 357.887488 
L 443.677477 358.719908 
L 452.336475 351.347049 
L 460.995473 357.887488 
L 469.654471 352.060552 
L 478.313469 360.860415 
L 486.972468 346.709283 
L 495.631466 360.027996 
L 504.290464 326.13663 
L 512.949462 349.325459 
L 521.60846 358.482074 
L 530.267458 361.098249 
L 538.926456 345.520113 
L 547.585455 360.384747 
" style="fill:none;stroke:#1f77b4;stroke-linecap:square;stroke-width:6;"/>
   </g>
   <g id="line2d_20">
    <path clip-path="url(#p3523d8ad52)" d="M 131.764567 -1 
L 131.953544 276.072542 
L 140.612542 357.41182 
L 149.27154 357.41182 
L 157.930538 356.698318 
L 166.589536 349.325459 
L 175.248534 338.979674 
L 183.907532 349.087625 
L 192.566531 348.968708 
L 201.225529 357.649654 
L 209.884527 356.460484 
L 218.543525 355.984815 
L 227.202523 356.460484 
L 235.861521 354.914562 
L 244.520519 347.66062 
L 253.179518 348.255205 
L 261.838516 347.422786 
L 270.497514 347.184952 
L 279.156512 355.033479 
L 287.81551 358.363157 
L 296.474508 356.936152 
L 305.133506 358.006405 
L 313.792505 358.600991 
L 322.451503 357.292903 
L 331.110501 357.292903 
L 339.769499 357.887488 
L 348.428497 350.157879 
L 357.087495 350.038962 
L 365.746494 358.125323 
L 374.405492 355.628064 
L 383.06449 351.465966 
L 391.723488 349.68221 
L 400.382486 357.173986 
L 409.041484 358.24424 
L 417.700482 324.115039 
L 426.359481 357.887488 
L 435.018479 340.049927 
L 443.677477 357.41182 
L 452.336475 356.817235 
L 460.995473 356.698318 
L 469.654471 355.984815 
L 478.313469 339.455342 
L 486.972468 347.422786 
L 495.631466 332.439235 
L 504.290464 356.698318 
L 512.949462 357.41182 
L 521.60846 330.417644 
L 530.267458 358.719908 
L 538.926456 357.173986 
L 547.585455 355.865898 
" style="fill:none;stroke:#ff7f0e;stroke-linecap:square;stroke-width:6;"/>
   </g>
   <g id="line2d_21">
    <path clip-path="url(#p3523d8ad52)" d="M 131.818217 -1 
L 131.953544 196.517019 
L 140.612542 355.509147 
L 149.27154 357.530737 
L 157.930538 353.249723 
L 166.589536 357.292903 
L 175.248534 354.676727 
L 183.907532 357.887488 
L 192.566531 357.055069 
L 201.225529 356.817235 
L 209.884527 357.649654 
L 218.543525 357.292903 
L 227.202523 348.374123 
L 235.861521 343.498522 
L 244.520519 348.730874 
L 253.179518 350.633547 
L 261.838516 356.698318 
L 270.497514 349.325459 
L 279.156512 349.68221 
L 287.81551 358.363157 
L 296.474508 357.768571 
L 305.133506 327.206883 
L 313.792505 356.698318 
L 322.451503 358.006405 
L 331.110501 357.292903 
L 339.769499 358.24424 
L 348.428497 339.812093 
L 357.087495 356.936152 
L 365.746494 357.055069 
L 374.405492 358.125323 
L 383.06449 347.184952 
L 391.723488 355.271313 
L 400.382486 339.812093 
L 409.041484 332.082483 
L 417.700482 346.709283 
L 426.359481 340.168844 
L 435.018479 332.677069 
L 443.677477 358.719908 
L 452.336475 356.817235 
L 460.995473 356.341566 
L 469.654471 355.984815 
L 478.313469 348.136288 
L 486.972468 358.600991 
L 495.631466 357.41182 
L 504.290464 357.055069 
L 512.949462 357.530737 
L 521.60846 357.055069 
L 530.267458 356.460484 
L 538.926456 357.768571 
L 547.585455 349.563293 
" style="fill:none;stroke:#2ca02c;stroke-linecap:square;stroke-width:6;"/>
   </g>
   <g id="line2d_22">
    <path clip-path="url(#p3523d8ad52)" d="M 131.757563 -1 
L 131.953544 286.061576 
L 140.612542 352.417303 
L 149.27154 358.24424 
L 157.930538 359.909079 
L 166.589536 353.487557 
L 175.248534 353.36864 
L 183.907532 344.568776 
L 192.566531 352.179469 
L 201.225529 354.914562 
L 209.884527 356.103732 
L 218.543525 357.41182 
L 227.202523 351.228132 
L 235.861521 349.563293 
L 244.520519 340.049927 
L 253.179518 344.330942 
L 261.838516 347.779537 
L 270.497514 354.319976 
L 279.156512 351.822718 
L 287.81551 342.666103 
L 296.474508 357.055069 
L 305.133506 344.330942 
L 313.792505 357.649654 
L 322.451503 356.936152 
L 331.110501 343.260688 
L 339.769499 348.136288 
L 348.428497 349.206542 
L 357.087495 357.41182 
L 365.746494 333.390571 
L 374.405492 354.676727 
L 383.06449 355.984815 
L 391.723488 327.444718 
L 400.382486 355.984815 
L 409.041484 350.038962 
L 417.700482 357.41182 
L 426.359481 357.530737 
L 435.018479 356.103732 
L 443.677477 348.374123 
L 452.336475 349.563293 
L 460.995473 347.422786 
L 469.654471 345.401196 
L 478.313469 349.325459 
L 486.972468 349.087625 
L 495.631466 339.812093 
L 504.290464 336.958083 
L 512.949462 357.292903 
L 521.60846 358.24424 
L 530.267458 339.217508 
L 538.926456 348.374123 
L 547.585455 357.41182 
" style="fill:none;stroke:#d62728;stroke-linecap:square;stroke-width:6;"/>
   </g>
   <g id="line2d_23">
    <path clip-path="url(#p3523d8ad52)" d="M 131.757064 -1 
L 131.953544 286.180493 
L 140.612542 359.314493 
L 149.27154 348.730874 
L 157.930538 357.173986 
L 166.589536 360.146913 
L 175.248534 360.622581 
L 183.907532 359.076659 
L 192.566531 358.482074 
L 201.225529 358.24424 
L 209.884527 344.687693 
L 218.543525 358.957742 
L 227.202523 359.909079 
L 235.861521 359.552327 
L 244.520519 343.260688 
L 253.179518 361.336084 
L 261.838516 340.882347 
L 270.497514 359.552327 
L 279.156512 360.384747 
L 287.81551 359.43341 
L 296.474508 360.146913 
L 305.133506 358.482074 
L 313.792505 334.222991 
L 322.451503 350.276796 
L 331.110501 343.260688 
L 339.769499 351.822718 
L 348.428497 351.584884 
L 357.087495 326.374464 
L 365.746494 351.703801 
L 374.405492 351.703801 
L 383.06449 343.022854 
L 391.723488 342.071518 
L 400.382486 351.584884 
L 409.041484 342.071518 
L 417.700482 350.395713 
L 426.359481 349.68221 
L 435.018479 349.563293 
L 443.677477 350.51463 
L 452.336475 343.141771 
L 460.995473 350.395713 
L 469.654471 349.563293 
L 478.313469 342.190435 
L 486.972468 350.157879 
L 495.631466 350.990298 
L 504.290464 351.228132 
L 512.949462 351.109215 
L 521.60846 348.49304 
L 530.267458 340.76343 
L 538.926456 348.849791 
L 547.585455 349.444376 
" style="fill:none;stroke:#9467bd;stroke-linecap:square;stroke-width:6;"/>
   </g>
   <g id="line2d_24">
    <path clip-path="url(#p3523d8ad52)" d="M 131.776094 -1 
L 131.953544 255.499888 
L 140.612542 341.358015 
L 149.27154 343.141771 
L 157.930538 348.136288 
L 166.589536 333.86624 
L 175.248534 343.022854 
L 183.907532 352.298386 
L 192.566531 342.78502 
L 201.225529 342.547186 
L 209.884527 351.347049 
L 218.543525 352.298386 
L 227.202523 351.822718 
L 235.861521 343.141771 
L 244.520519 352.655137 
L 253.179518 343.260688 
L 261.838516 351.584884 
L 270.497514 334.222991 
L 279.156512 340.76343 
L 287.81551 351.941635 
L 296.474508 352.298386 
L 305.133506 352.060552 
L 313.792505 343.141771 
L 322.451503 350.752464 
L 331.110501 350.871381 
L 339.769499 350.752464 
L 348.428497 361.217166 
L 357.087495 359.43341 
L 365.746494 360.503664 
L 374.405492 350.752464 
L 383.06449 348.017371 
L 391.723488 352.179469 
L 400.382486 342.547186 
L 409.041484 358.838825 
L 417.700482 352.060552 
L 426.359481 352.417303 
L 435.018479 360.979332 
L 443.677477 350.871381 
L 452.336475 351.703801 
L 460.995473 351.941635 
L 469.654471 351.703801 
L 478.313469 352.417303 
L 486.972468 351.941635 
L 495.631466 351.822718 
L 504.290464 347.898454 
L 512.949462 343.61744 
L 521.60846 350.990298 
L 530.267458 352.060552 
L 538.926456 343.141771 
L 547.585455 349.920044 
" style="fill:none;stroke:#8c564b;stroke-linecap:square;stroke-width:6;"/>
   </g>
   <g id="line2d_25">
    <path clip-path="url(#p3523d8ad52)" d="M 131.77405 -1 
L 131.953544 262.515995 
L 140.612542 337.552669 
L 149.27154 329.228474 
L 157.930538 344.212025 
L 166.589536 347.066035 
L 175.248534 346.828201 
L 183.907532 346.471449 
L 192.566531 346.590366 
L 201.225529 347.066035 
L 209.884527 348.017371 
L 218.543525 346.471449 
L 227.202523 324.709625 
L 235.861521 341.239098 
L 244.520519 346.947118 
L 253.179518 358.006405 
L 261.838516 352.298386 
L 270.497514 357.768571 
L 279.156512 356.936152 
L 287.81551 356.698318 
L 296.474508 355.746981 
L 305.133506 346.471449 
L 313.792505 358.719908 
L 322.451503 358.482074 
L 331.110501 357.173986 
L 339.769499 358.24424 
L 348.428497 358.24424 
L 357.087495 346.709283 
L 365.746494 358.482074 
L 374.405492 358.125323 
L 383.06449 350.633547 
L 391.723488 346.709283 
L 400.382486 355.152396 
L 409.041484 358.125323 
L 417.700482 357.292903 
L 426.359481 358.363157 
L 435.018479 355.865898 
L 443.677477 356.579401 
L 452.336475 357.41182 
L 460.995473 357.292903 
L 469.654471 357.173986 
L 478.313469 349.325459 
L 486.972468 356.698318 
L 495.631466 356.817235 
L 504.290464 354.319976 
L 512.949462 355.271313 
L 521.60846 357.173986 
L 530.267458 356.817235 
L 538.926456 354.676727 
L 547.585455 356.698318 
" style="fill:none;stroke:#e377c2;stroke-linecap:square;stroke-width:6;"/>
   </g>
   <g id="text_15">
    <!-- transfer_function -->
    <g style="fill:#666666;" transform="translate(228.766172 64.08)scale(0.25 -0.25)">
     <defs>
      <path d="M 41.109375 46.296875 
Q 39.59375 47.171875 37.8125 47.578125 
Q 36.03125 48 33.890625 48 
Q 26.265625 48 22.1875 43.046875 
Q 18.109375 38.09375 18.109375 28.8125 
L 18.109375 0 
L 9.078125 0 
L 9.078125 54.6875 
L 18.109375 54.6875 
L 18.109375 46.1875 
Q 20.953125 51.171875 25.484375 53.578125 
Q 30.03125 56 36.53125 56 
Q 37.453125 56 38.578125 55.875 
Q 39.703125 55.765625 41.0625 55.515625 
z
" id="DejaVuSans-114"/>
      <path d="M 34.28125 27.484375 
Q 23.390625 27.484375 19.1875 25 
Q 14.984375 22.515625 14.984375 16.5 
Q 14.984375 11.71875 18.140625 8.90625 
Q 21.296875 6.109375 26.703125 6.109375 
Q 34.1875 6.109375 38.703125 11.40625 
Q 43.21875 16.703125 43.21875 25.484375 
L 43.21875 27.484375 
z
M 52.203125 31.203125 
L 52.203125 0 
L 43.21875 0 
L 43.21875 8.296875 
Q 40.140625 3.328125 35.546875 0.953125 
Q 30.953125 -1.421875 24.3125 -1.421875 
Q 15.921875 -1.421875 10.953125 3.296875 
Q 6 8.015625 6 15.921875 
Q 6 25.140625 12.171875 29.828125 
Q 18.359375 34.515625 30.609375 34.515625 
L 43.21875 34.515625 
L 43.21875 35.40625 
Q 43.21875 41.609375 39.140625 45 
Q 35.0625 48.390625 27.6875 48.390625 
Q 23 48.390625 18.546875 47.265625 
Q 14.109375 46.140625 10.015625 43.890625 
L 10.015625 52.203125 
Q 14.9375 54.109375 19.578125 55.046875 
Q 24.21875 56 28.609375 56 
Q 40.484375 56 46.34375 49.84375 
Q 52.203125 43.703125 52.203125 31.203125 
z
" id="DejaVuSans-97"/>
      <path d="M 54.890625 33.015625 
L 54.890625 0 
L 45.90625 0 
L 45.90625 32.71875 
Q 45.90625 40.484375 42.875 44.328125 
Q 39.84375 48.1875 33.796875 48.1875 
Q 26.515625 48.1875 22.3125 43.546875 
Q 18.109375 38.921875 18.109375 30.90625 
L 18.109375 0 
L 9.078125 0 
L 9.078125 54.6875 
L 18.109375 54.6875 
L 18.109375 46.1875 
Q 21.34375 51.125 25.703125 53.5625 
Q 30.078125 56 35.796875 56 
Q 45.21875 56 50.046875 50.171875 
Q 54.890625 44.34375 54.890625 33.015625 
z
" id="DejaVuSans-110"/>
      <path d="M 37.109375 75.984375 
L 37.109375 68.5 
L 28.515625 68.5 
Q 23.6875 68.5 21.796875 66.546875 
Q 19.921875 64.59375 19.921875 59.515625 
L 19.921875 54.6875 
L 34.71875 54.6875 
L 34.71875 47.703125 
L 19.921875 47.703125 
L 19.921875 0 
L 10.890625 0 
L 10.890625 47.703125 
L 2.296875 47.703125 
L 2.296875 54.6875 
L 10.890625 54.6875 
L 10.890625 58.5 
Q 10.890625 67.625 15.140625 71.796875 
Q 19.390625 75.984375 28.609375 75.984375 
z
" id="DejaVuSans-102"/>
      <path d="M 50.984375 -16.609375 
L 50.984375 -23.578125 
L -0.984375 -23.578125 
L -0.984375 -16.609375 
z
" id="DejaVuSans-95"/>
      <path d="M 8.5 21.578125 
L 8.5 54.6875 
L 17.484375 54.6875 
L 17.484375 21.921875 
Q 17.484375 14.15625 20.5 10.265625 
Q 23.53125 6.390625 29.59375 6.390625 
Q 36.859375 6.390625 41.078125 11.03125 
Q 45.3125 15.671875 45.3125 23.6875 
L 45.3125 54.6875 
L 54.296875 54.6875 
L 54.296875 0 
L 45.3125 0 
L 45.3125 8.40625 
Q 42.046875 3.421875 37.71875 1 
Q 33.40625 -1.421875 27.6875 -1.421875 
Q 18.265625 -1.421875 13.375 4.4375 
Q 8.5 10.296875 8.5 21.578125 
z
M 31.109375 56 
z
" id="DejaVuSans-117"/>
      <path d="M 30.609375 48.390625 
Q 23.390625 48.390625 19.1875 42.75 
Q 14.984375 37.109375 14.984375 27.296875 
Q 14.984375 17.484375 19.15625 11.84375 
Q 23.34375 6.203125 30.609375 6.203125 
Q 37.796875 6.203125 41.984375 11.859375 
Q 46.1875 17.53125 46.1875 27.296875 
Q 46.1875 37.015625 41.984375 42.703125 
Q 37.796875 48.390625 30.609375 48.390625 
z
M 30.609375 56 
Q 42.328125 56 49.015625 48.375 
Q 55.71875 40.765625 55.71875 27.296875 
Q 55.71875 13.875 49.015625 6.21875 
Q 42.328125 -1.421875 30.609375 -1.421875 
Q 18.84375 -1.421875 12.171875 6.21875 
Q 5.515625 13.875 5.515625 27.296875 
Q 5.515625 40.765625 12.171875 48.375 
Q 18.84375 56 30.609375 56 
z
" id="DejaVuSans-111"/>
     </defs>
     <use xlink:href="#DejaVuSans-116"/>
     <use x="39.208984" xlink:href="#DejaVuSans-114"/>
     <use x="80.322266" xlink:href="#DejaVuSans-97"/>
     <use x="141.601562" xlink:href="#DejaVuSans-110"/>
     <use x="204.980469" xlink:href="#DejaVuSans-115"/>
     <use x="257.080078" xlink:href="#DejaVuSans-102"/>
     <use x="292.285156" xlink:href="#DejaVuSans-101"/>
     <use x="353.808594" xlink:href="#DejaVuSans-114"/>
     <use x="394.921875" xlink:href="#DejaVuSans-95"/>
     <use x="444.921875" xlink:href="#DejaVuSans-102"/>
     <use x="480.126953" xlink:href="#DejaVuSans-117"/>
     <use x="543.505859" xlink:href="#DejaVuSans-110"/>
     <use x="606.884766" xlink:href="#DejaVuSans-99"/>
     <use x="661.865234" xlink:href="#DejaVuSans-116"/>
     <use x="701.074219" xlink:href="#DejaVuSans-105"/>
     <use x="728.857422" xlink:href="#DejaVuSans-111"/>
     <use x="790.039062" xlink:href="#DejaVuSans-110"/>
    </g>
   </g>
   <g id="legend_1">
    <g id="patch_3">
     <path d="M 371.939063 273.424375 
L 556.2 273.424375 
Q 559.8 273.424375 559.8 269.824375 
L 559.8 86.68 
Q 559.8 83.08 556.2 83.08 
L 371.939063 83.08 
Q 368.339063 83.08 368.339063 86.68 
L 368.339063 269.824375 
Q 368.339063 273.424375 371.939063 273.424375 
z
" style="fill:#ffffff;opacity:0.8;stroke:#cccccc;stroke-linejoin:miter;"/>
    </g>
    <g id="line2d_26">
     <path d="M 375.539063 97.657188 
L 411.539063 97.657188 
" style="fill:none;stroke:#1f77b4;stroke-linecap:square;stroke-width:6;"/>
    </g>
    <g id="line2d_27"/>
    <g id="text_16">
     <!-- 01 NEST proc. -->
     <g transform="translate(425.939063 103.957188)scale(0.18 -0.18)">
      <defs>
       <path d="M 9.8125 72.90625 
L 23.09375 72.90625 
L 55.421875 11.921875 
L 55.421875 72.90625 
L 64.984375 72.90625 
L 64.984375 0 
L 51.703125 0 
L 19.390625 60.984375 
L 19.390625 0 
L 9.8125 0 
z
" id="DejaVuSans-78"/>
       <path d="M 9.8125 72.90625 
L 55.90625 72.90625 
L 55.90625 64.59375 
L 19.671875 64.59375 
L 19.671875 43.015625 
L 54.390625 43.015625 
L 54.390625 34.71875 
L 19.671875 34.71875 
L 19.671875 8.296875 
L 56.78125 8.296875 
L 56.78125 0 
L 9.8125 0 
z
" id="DejaVuSans-69"/>
       <path d="M 53.515625 70.515625 
L 53.515625 60.890625 
Q 47.90625 63.578125 42.921875 64.890625 
Q 37.9375 66.21875 33.296875 66.21875 
Q 25.25 66.21875 20.875 63.09375 
Q 16.5 59.96875 16.5 54.203125 
Q 16.5 49.359375 19.40625 46.890625 
Q 22.3125 44.4375 30.421875 42.921875 
L 36.375 41.703125 
Q 47.40625 39.59375 52.65625 34.296875 
Q 57.90625 29 57.90625 20.125 
Q 57.90625 9.515625 50.796875 4.046875 
Q 43.703125 -1.421875 29.984375 -1.421875 
Q 24.8125 -1.421875 18.96875 -0.25 
Q 13.140625 0.921875 6.890625 3.21875 
L 6.890625 13.375 
Q 12.890625 10.015625 18.65625 8.296875 
Q 24.421875 6.59375 29.984375 6.59375 
Q 38.421875 6.59375 43.015625 9.90625 
Q 47.609375 13.234375 47.609375 19.390625 
Q 47.609375 24.75 44.3125 27.78125 
Q 41.015625 30.8125 33.5 32.328125 
L 27.484375 33.5 
Q 16.453125 35.6875 11.515625 40.375 
Q 6.59375 45.0625 6.59375 53.421875 
Q 6.59375 63.09375 13.40625 68.65625 
Q 20.21875 74.21875 32.171875 74.21875 
Q 37.3125 74.21875 42.625 73.28125 
Q 47.953125 72.359375 53.515625 70.515625 
z
" id="DejaVuSans-83"/>
       <path d="M -0.296875 72.90625 
L 61.375 72.90625 
L 61.375 64.59375 
L 35.5 64.59375 
L 35.5 0 
L 25.59375 0 
L 25.59375 64.59375 
L -0.296875 64.59375 
z
" id="DejaVuSans-84"/>
      </defs>
      <use xlink:href="#DejaVuSans-48"/>
      <use x="63.623047" xlink:href="#DejaVuSans-49"/>
      <use x="127.246094" xlink:href="#DejaVuSans-32"/>
      <use x="159.033203" xlink:href="#DejaVuSans-78"/>
      <use x="233.837891" xlink:href="#DejaVuSans-69"/>
      <use x="297.021484" xlink:href="#DejaVuSans-83"/>
      <use x="360.498047" xlink:href="#DejaVuSans-84"/>
      <use x="421.582031" xlink:href="#DejaVuSans-32"/>
      <use x="453.369141" xlink:href="#DejaVuSans-112"/>
      <use x="516.845703" xlink:href="#DejaVuSans-114"/>
      <use x="555.708984" xlink:href="#DejaVuSans-111"/>
      <use x="616.890625" xlink:href="#DejaVuSans-99"/>
      <use x="671.871094" xlink:href="#DejaVuSans-46"/>
     </g>
    </g>
    <g id="line2d_28">
     <path d="M 375.539063 124.077813 
L 411.539063 124.077813 
" style="fill:none;stroke:#ff7f0e;stroke-linecap:square;stroke-width:6;"/>
    </g>
    <g id="line2d_29"/>
    <g id="text_17">
     <!-- 02 NEST proc. -->
     <g transform="translate(425.939063 130.377813)scale(0.18 -0.18)">
      <use xlink:href="#DejaVuSans-48"/>
      <use x="63.623047" xlink:href="#DejaVuSans-50"/>
      <use x="127.246094" xlink:href="#DejaVuSans-32"/>
      <use x="159.033203" xlink:href="#DejaVuSans-78"/>
      <use x="233.837891" xlink:href="#DejaVuSans-69"/>
      <use x="297.021484" xlink:href="#DejaVuSans-83"/>
      <use x="360.498047" xlink:href="#DejaVuSans-84"/>
      <use x="421.582031" xlink:href="#DejaVuSans-32"/>
      <use x="453.369141" xlink:href="#DejaVuSans-112"/>
      <use x="516.845703" xlink:href="#DejaVuSans-114"/>
      <use x="555.708984" xlink:href="#DejaVuSans-111"/>
      <use x="616.890625" xlink:href="#DejaVuSans-99"/>
      <use x="671.871094" xlink:href="#DejaVuSans-46"/>
     </g>
    </g>
    <g id="line2d_30">
     <path d="M 375.539063 150.498438 
L 411.539063 150.498438 
" style="fill:none;stroke:#2ca02c;stroke-linecap:square;stroke-width:6;"/>
    </g>
    <g id="line2d_31"/>
    <g id="text_18">
     <!-- 04 NEST proc. -->
     <g transform="translate(425.939063 156.798438)scale(0.18 -0.18)">
      <use xlink:href="#DejaVuSans-48"/>
      <use x="63.623047" xlink:href="#DejaVuSans-52"/>
      <use x="127.246094" xlink:href="#DejaVuSans-32"/>
      <use x="159.033203" xlink:href="#DejaVuSans-78"/>
      <use x="233.837891" xlink:href="#DejaVuSans-69"/>
      <use x="297.021484" xlink:href="#DejaVuSans-83"/>
      <use x="360.498047" xlink:href="#DejaVuSans-84"/>
      <use x="421.582031" xlink:href="#DejaVuSans-32"/>
      <use x="453.369141" xlink:href="#DejaVuSans-112"/>
      <use x="516.845703" xlink:href="#DejaVuSans-114"/>
      <use x="555.708984" xlink:href="#DejaVuSans-111"/>
      <use x="616.890625" xlink:href="#DejaVuSans-99"/>
      <use x="671.871094" xlink:href="#DejaVuSans-46"/>
     </g>
    </g>
    <g id="line2d_32">
     <path d="M 375.539063 176.919063 
L 411.539063 176.919063 
" style="fill:none;stroke:#d62728;stroke-linecap:square;stroke-width:6;"/>
    </g>
    <g id="line2d_33"/>
    <g id="text_19">
     <!-- 08 NEST proc. -->
     <g transform="translate(425.939063 183.219063)scale(0.18 -0.18)">
      <defs>
       <path d="M 31.78125 34.625 
Q 24.75 34.625 20.71875 30.859375 
Q 16.703125 27.09375 16.703125 20.515625 
Q 16.703125 13.921875 20.71875 10.15625 
Q 24.75 6.390625 31.78125 6.390625 
Q 38.8125 6.390625 42.859375 10.171875 
Q 46.921875 13.96875 46.921875 20.515625 
Q 46.921875 27.09375 42.890625 30.859375 
Q 38.875 34.625 31.78125 34.625 
z
M 21.921875 38.8125 
Q 15.578125 40.375 12.03125 44.71875 
Q 8.5 49.078125 8.5 55.328125 
Q 8.5 64.0625 14.71875 69.140625 
Q 20.953125 74.21875 31.78125 74.21875 
Q 42.671875 74.21875 48.875 69.140625 
Q 55.078125 64.0625 55.078125 55.328125 
Q 55.078125 49.078125 51.53125 44.71875 
Q 48 40.375 41.703125 38.8125 
Q 48.828125 37.15625 52.796875 32.3125 
Q 56.78125 27.484375 56.78125 20.515625 
Q 56.78125 9.90625 50.3125 4.234375 
Q 43.84375 -1.421875 31.78125 -1.421875 
Q 19.734375 -1.421875 13.25 4.234375 
Q 6.78125 9.90625 6.78125 20.515625 
Q 6.78125 27.484375 10.78125 32.3125 
Q 14.796875 37.15625 21.921875 38.8125 
z
M 18.3125 54.390625 
Q 18.3125 48.734375 21.84375 45.5625 
Q 25.390625 42.390625 31.78125 42.390625 
Q 38.140625 42.390625 41.71875 45.5625 
Q 45.3125 48.734375 45.3125 54.390625 
Q 45.3125 60.0625 41.71875 63.234375 
Q 38.140625 66.40625 31.78125 66.40625 
Q 25.390625 66.40625 21.84375 63.234375 
Q 18.3125 60.0625 18.3125 54.390625 
z
" id="DejaVuSans-56"/>
      </defs>
      <use xlink:href="#DejaVuSans-48"/>
      <use x="63.623047" xlink:href="#DejaVuSans-56"/>
      <use x="127.246094" xlink:href="#DejaVuSans-32"/>
      <use x="159.033203" xlink:href="#DejaVuSans-78"/>
      <use x="233.837891" xlink:href="#DejaVuSans-69"/>
      <use x="297.021484" xlink:href="#DejaVuSans-83"/>
      <use x="360.498047" xlink:href="#DejaVuSans-84"/>
      <use x="421.582031" xlink:href="#DejaVuSans-32"/>
      <use x="453.369141" xlink:href="#DejaVuSans-112"/>
      <use x="516.845703" xlink:href="#DejaVuSans-114"/>
      <use x="555.708984" xlink:href="#DejaVuSans-111"/>
      <use x="616.890625" xlink:href="#DejaVuSans-99"/>
      <use x="671.871094" xlink:href="#DejaVuSans-46"/>
     </g>
    </g>
    <g id="line2d_34">
     <path d="M 375.539063 203.339688 
L 411.539063 203.339688 
" style="fill:none;stroke:#9467bd;stroke-linecap:square;stroke-width:6;"/>
    </g>
    <g id="line2d_35"/>
    <g id="text_20">
     <!-- 16 NEST proc. -->
     <g transform="translate(425.939063 209.639688)scale(0.18 -0.18)">
      <use xlink:href="#DejaVuSans-49"/>
      <use x="63.623047" xlink:href="#DejaVuSans-54"/>
      <use x="127.246094" xlink:href="#DejaVuSans-32"/>
      <use x="159.033203" xlink:href="#DejaVuSans-78"/>
      <use x="233.837891" xlink:href="#DejaVuSans-69"/>
      <use x="297.021484" xlink:href="#DejaVuSans-83"/>
      <use x="360.498047" xlink:href="#DejaVuSans-84"/>
      <use x="421.582031" xlink:href="#DejaVuSans-32"/>
      <use x="453.369141" xlink:href="#DejaVuSans-112"/>
      <use x="516.845703" xlink:href="#DejaVuSans-114"/>
      <use x="555.708984" xlink:href="#DejaVuSans-111"/>
      <use x="616.890625" xlink:href="#DejaVuSans-99"/>
      <use x="671.871094" xlink:href="#DejaVuSans-46"/>
     </g>
    </g>
    <g id="line2d_36">
     <path d="M 375.539063 229.760313 
L 411.539063 229.760313 
" style="fill:none;stroke:#8c564b;stroke-linecap:square;stroke-width:6;"/>
    </g>
    <g id="line2d_37"/>
    <g id="text_21">
     <!-- 32 NEST proc. -->
     <g transform="translate(425.939063 236.060313)scale(0.18 -0.18)">
      <use xlink:href="#DejaVuSans-51"/>
      <use x="63.623047" xlink:href="#DejaVuSans-50"/>
      <use x="127.246094" xlink:href="#DejaVuSans-32"/>
      <use x="159.033203" xlink:href="#DejaVuSans-78"/>
      <use x="233.837891" xlink:href="#DejaVuSans-69"/>
      <use x="297.021484" xlink:href="#DejaVuSans-83"/>
      <use x="360.498047" xlink:href="#DejaVuSans-84"/>
      <use x="421.582031" xlink:href="#DejaVuSans-32"/>
      <use x="453.369141" xlink:href="#DejaVuSans-112"/>
      <use x="516.845703" xlink:href="#DejaVuSans-114"/>
      <use x="555.708984" xlink:href="#DejaVuSans-111"/>
      <use x="616.890625" xlink:href="#DejaVuSans-99"/>
      <use x="671.871094" xlink:href="#DejaVuSans-46"/>
     </g>
    </g>
    <g id="line2d_38">
     <path d="M 375.539063 256.180938 
L 411.539063 256.180938 
" style="fill:none;stroke:#e377c2;stroke-linecap:square;stroke-width:6;"/>
    </g>
    <g id="line2d_39"/>
    <g id="text_22">
     <!-- 64 NEST proc. -->
     <g transform="translate(425.939063 262.480938)scale(0.18 -0.18)">
      <use xlink:href="#DejaVuSans-54"/>
      <use x="63.623047" xlink:href="#DejaVuSans-52"/>
      <use x="127.246094" xlink:href="#DejaVuSans-32"/>
      <use x="159.033203" xlink:href="#DejaVuSans-78"/>
      <use x="233.837891" xlink:href="#DejaVuSans-69"/>
      <use x="297.021484" xlink:href="#DejaVuSans-83"/>
      <use x="360.498047" xlink:href="#DejaVuSans-84"/>
      <use x="421.582031" xlink:href="#DejaVuSans-32"/>
      <use x="453.369141" xlink:href="#DejaVuSans-112"/>
      <use x="516.845703" xlink:href="#DejaVuSans-114"/>
      <use x="555.708984" xlink:href="#DejaVuSans-111"/>
      <use x="616.890625" xlink:href="#DejaVuSans-99"/>
      <use x="671.871094" xlink:href="#DejaVuSans-46"/>
     </g>
    </g>
   </g>
  </g>
  <g id="text_23">
   <!-- CLE time profile -->
   <g transform="translate(168.892969 31.435313)scale(0.3 -0.3)">
    <defs>
     <path d="M 64.40625 67.28125 
L 64.40625 56.890625 
Q 59.421875 61.53125 53.78125 63.8125 
Q 48.140625 66.109375 41.796875 66.109375 
Q 29.296875 66.109375 22.65625 58.46875 
Q 16.015625 50.828125 16.015625 36.375 
Q 16.015625 21.96875 22.65625 14.328125 
Q 29.296875 6.6875 41.796875 6.6875 
Q 48.140625 6.6875 53.78125 8.984375 
Q 59.421875 11.28125 64.40625 15.921875 
L 64.40625 5.609375 
Q 59.234375 2.09375 53.4375 0.328125 
Q 47.65625 -1.421875 41.21875 -1.421875 
Q 24.65625 -1.421875 15.125 8.703125 
Q 5.609375 18.84375 5.609375 36.375 
Q 5.609375 53.953125 15.125 64.078125 
Q 24.65625 74.21875 41.21875 74.21875 
Q 47.75 74.21875 53.53125 72.484375 
Q 59.328125 70.75 64.40625 67.28125 
z
" id="DejaVuSans-67"/>
     <path d="M 9.8125 72.90625 
L 19.671875 72.90625 
L 19.671875 8.296875 
L 55.171875 8.296875 
L 55.171875 0 
L 9.8125 0 
z
" id="DejaVuSans-76"/>
    </defs>
    <use xlink:href="#DejaVuSans-67"/>
    <use x="69.824219" xlink:href="#DejaVuSans-76"/>
    <use x="125.537109" xlink:href="#DejaVuSans-69"/>
    <use x="188.720703" xlink:href="#DejaVuSans-32"/>
    <use x="220.507812" xlink:href="#DejaVuSans-116"/>
    <use x="259.716797" xlink:href="#DejaVuSans-105"/>
    <use x="287.5" xlink:href="#DejaVuSans-109"/>
    <use x="384.912109" xlink:href="#DejaVuSans-101"/>
    <use x="446.435547" xlink:href="#DejaVuSans-32"/>
    <use x="478.222656" xlink:href="#DejaVuSans-112"/>
    <use x="541.699219" xlink:href="#DejaVuSans-114"/>
    <use x="580.5625" xlink:href="#DejaVuSans-111"/>
    <use x="641.744141" xlink:href="#DejaVuSans-102"/>
    <use x="676.949219" xlink:href="#DejaVuSans-105"/>
    <use x="704.732422" xlink:href="#DejaVuSans-108"/>
    <use x="732.515625" xlink:href="#DejaVuSans-101"/>
   </g>
  </g>
 </g>
 <defs>
  <clipPath id="p3523d8ad52">
   <rect height="301.56" width="466.72" x="102.08" y="74.08"/>
  </clipPath>
 </defs>
</svg>
