<?xml version="1.0" encoding="utf-8" standalone="no"?>
<!DOCTYPE svg PUBLIC "-//W3C//DTD SVG 1.1//EN"
  "http://www.w3.org/Graphics/SVG/1.1/DTD/svg11.dtd">
<!-- Created with matplotlib (https://matplotlib.org/) -->
<svg height="432pt" version="1.1" viewBox="0 0 576 432" width="576pt" xmlns="http://www.w3.org/2000/svg" xmlns:xlink="http://www.w3.org/1999/xlink">
 <metadata>
  <rdf:RDF xmlns:cc="http://creativecommons.org/ns#" xmlns:dc="http://purl.org/dc/elements/1.1/" xmlns:rdf="http://www.w3.org/1999/02/22-rdf-syntax-ns#">
   <cc:Work>
    <dc:type rdf:resource="http://purl.org/dc/dcmitype/StillImage"/>
    <dc:date>2022-04-11T20:25:01.928668</dc:date>
    <dc:format>image/svg+xml</dc:format>
    <dc:creator>
     <cc:Agent>
      <dc:title>Matplotlib v3.3.4, https://matplotlib.org/</dc:title>
     </cc:Agent>
    </dc:creator>
   </cc:Work>
  </rdf:RDF>
 </metadata>
 <defs>
  <style type="text/css">*{stroke-linecap:butt;stroke-linejoin:round;}</style>
 </defs>
 <g id="figure_1">
  <g id="patch_1">
   <path d="M 0 432 
L 576 432 
L 576 0 
L 0 0 
z
" style="fill:#ffffff;"/>
  </g>
  <g id="axes_1">
   <g id="patch_2">
    <path d="M 67.79 375.64 
L 568.8 375.64 
L 568.8 74.08 
L 67.79 74.08 
z
" style="fill:#ffffff;"/>
   </g>
   <g id="matplotlib.axis_1">
    <g id="xtick_1">
     <g id="line2d_1">
      <defs>
       <path d="M 0 0 
L 0 3.5 
" id="m83323def57" style="stroke:#666666;stroke-width:0.8;"/>
      </defs>
      <g>
       <use style="fill:#666666;stroke:#666666;stroke-width:0.8;" x="90.563182" xlink:href="#m83323def57" y="375.64"/>
      </g>
     </g>
     <g id="text_1">
      <!-- 0 -->
      <g style="fill:#666666;" transform="translate(84.836932 396.317187)scale(0.18 -0.18)">
       <defs>
        <path d="M 31.78125 66.40625 
Q 24.171875 66.40625 20.328125 58.90625 
Q 16.5 51.421875 16.5 36.375 
Q 16.5 21.390625 20.328125 13.890625 
Q 24.171875 6.390625 31.78125 6.390625 
Q 39.453125 6.390625 43.28125 13.890625 
Q 47.125 21.390625 47.125 36.375 
Q 47.125 51.421875 43.28125 58.90625 
Q 39.453125 66.40625 31.78125 66.40625 
z
M 31.78125 74.21875 
Q 44.046875 74.21875 50.515625 64.515625 
Q 56.984375 54.828125 56.984375 36.375 
Q 56.984375 17.96875 50.515625 8.265625 
Q 44.046875 -1.421875 31.78125 -1.421875 
Q 19.53125 -1.421875 13.0625 8.265625 
Q 6.59375 17.96875 6.59375 36.375 
Q 6.59375 54.828125 13.0625 64.515625 
Q 19.53125 74.21875 31.78125 74.21875 
z
" id="DejaVuSans-48"/>
       </defs>
       <use xlink:href="#DejaVuSans-48"/>
      </g>
     </g>
    </g>
    <g id="xtick_2">
     <g id="line2d_2">
      <g>
       <use style="fill:#666666;stroke:#666666;stroke-width:0.8;" x="183.514944" xlink:href="#m83323def57" y="375.64"/>
      </g>
     </g>
     <g id="text_2">
      <!-- 10 -->
      <g style="fill:#666666;" transform="translate(172.062444 396.317187)scale(0.18 -0.18)">
       <defs>
        <path d="M 12.40625 8.296875 
L 28.515625 8.296875 
L 28.515625 63.921875 
L 10.984375 60.40625 
L 10.984375 69.390625 
L 28.421875 72.90625 
L 38.28125 72.90625 
L 38.28125 8.296875 
L 54.390625 8.296875 
L 54.390625 0 
L 12.40625 0 
z
" id="DejaVuSans-49"/>
       </defs>
       <use xlink:href="#DejaVuSans-49"/>
       <use x="63.623047" xlink:href="#DejaVuSans-48"/>
      </g>
     </g>
    </g>
    <g id="xtick_3">
     <g id="line2d_3">
      <g>
       <use style="fill:#666666;stroke:#666666;stroke-width:0.8;" x="276.466707" xlink:href="#m83323def57" y="375.64"/>
      </g>
     </g>
     <g id="text_3">
      <!-- 20 -->
      <g style="fill:#666666;" transform="translate(265.014207 396.317187)scale(0.18 -0.18)">
       <defs>
        <path d="M 19.1875 8.296875 
L 53.609375 8.296875 
L 53.609375 0 
L 7.328125 0 
L 7.328125 8.296875 
Q 12.9375 14.109375 22.625 23.890625 
Q 32.328125 33.6875 34.8125 36.53125 
Q 39.546875 41.84375 41.421875 45.53125 
Q 43.3125 49.21875 43.3125 52.78125 
Q 43.3125 58.59375 39.234375 62.25 
Q 35.15625 65.921875 28.609375 65.921875 
Q 23.96875 65.921875 18.8125 64.3125 
Q 13.671875 62.703125 7.8125 59.421875 
L 7.8125 69.390625 
Q 13.765625 71.78125 18.9375 73 
Q 24.125 74.21875 28.421875 74.21875 
Q 39.75 74.21875 46.484375 68.546875 
Q 53.21875 62.890625 53.21875 53.421875 
Q 53.21875 48.921875 51.53125 44.890625 
Q 49.859375 40.875 45.40625 35.40625 
Q 44.1875 33.984375 37.640625 27.21875 
Q 31.109375 20.453125 19.1875 8.296875 
z
" id="DejaVuSans-50"/>
       </defs>
       <use xlink:href="#DejaVuSans-50"/>
       <use x="63.623047" xlink:href="#DejaVuSans-48"/>
      </g>
     </g>
    </g>
    <g id="xtick_4">
     <g id="line2d_4">
      <g>
       <use style="fill:#666666;stroke:#666666;stroke-width:0.8;" x="369.418469" xlink:href="#m83323def57" y="375.64"/>
      </g>
     </g>
     <g id="text_4">
      <!-- 30 -->
      <g style="fill:#666666;" transform="translate(357.965969 396.317187)scale(0.18 -0.18)">
       <defs>
        <path d="M 40.578125 39.3125 
Q 47.65625 37.796875 51.625 33 
Q 55.609375 28.21875 55.609375 21.1875 
Q 55.609375 10.40625 48.1875 4.484375 
Q 40.765625 -1.421875 27.09375 -1.421875 
Q 22.515625 -1.421875 17.65625 -0.515625 
Q 12.796875 0.390625 7.625 2.203125 
L 7.625 11.71875 
Q 11.71875 9.328125 16.59375 8.109375 
Q 21.484375 6.890625 26.8125 6.890625 
Q 36.078125 6.890625 40.9375 10.546875 
Q 45.796875 14.203125 45.796875 21.1875 
Q 45.796875 27.640625 41.28125 31.265625 
Q 36.765625 34.90625 28.71875 34.90625 
L 20.21875 34.90625 
L 20.21875 43.015625 
L 29.109375 43.015625 
Q 36.375 43.015625 40.234375 45.921875 
Q 44.09375 48.828125 44.09375 54.296875 
Q 44.09375 59.90625 40.109375 62.90625 
Q 36.140625 65.921875 28.71875 65.921875 
Q 24.65625 65.921875 20.015625 65.03125 
Q 15.375 64.15625 9.8125 62.3125 
L 9.8125 71.09375 
Q 15.4375 72.65625 20.34375 73.4375 
Q 25.25 74.21875 29.59375 74.21875 
Q 40.828125 74.21875 47.359375 69.109375 
Q 53.90625 64.015625 53.90625 55.328125 
Q 53.90625 49.265625 50.4375 45.09375 
Q 46.96875 40.921875 40.578125 39.3125 
z
" id="DejaVuSans-51"/>
       </defs>
       <use xlink:href="#DejaVuSans-51"/>
       <use x="63.623047" xlink:href="#DejaVuSans-48"/>
      </g>
     </g>
    </g>
    <g id="xtick_5">
     <g id="line2d_5">
      <g>
       <use style="fill:#666666;stroke:#666666;stroke-width:0.8;" x="462.370232" xlink:href="#m83323def57" y="375.64"/>
      </g>
     </g>
     <g id="text_5">
      <!-- 40 -->
      <g style="fill:#666666;" transform="translate(450.917732 396.317187)scale(0.18 -0.18)">
       <defs>
        <path d="M 37.796875 64.3125 
L 12.890625 25.390625 
L 37.796875 25.390625 
z
M 35.203125 72.90625 
L 47.609375 72.90625 
L 47.609375 25.390625 
L 58.015625 25.390625 
L 58.015625 17.1875 
L 47.609375 17.1875 
L 47.609375 0 
L 37.796875 0 
L 37.796875 17.1875 
L 4.890625 17.1875 
L 4.890625 26.703125 
z
" id="DejaVuSans-52"/>
       </defs>
       <use xlink:href="#DejaVuSans-52"/>
       <use x="63.623047" xlink:href="#DejaVuSans-48"/>
      </g>
     </g>
    </g>
    <g id="xtick_6">
     <g id="line2d_6">
      <g>
       <use style="fill:#666666;stroke:#666666;stroke-width:0.8;" x="555.321994" xlink:href="#m83323def57" y="375.64"/>
      </g>
     </g>
     <g id="text_6">
      <!-- 50 -->
      <g style="fill:#666666;" transform="translate(543.869494 396.317187)scale(0.18 -0.18)">
       <defs>
        <path d="M 10.796875 72.90625 
L 49.515625 72.90625 
L 49.515625 64.59375 
L 19.828125 64.59375 
L 19.828125 46.734375 
Q 21.96875 47.46875 24.109375 47.828125 
Q 26.265625 48.1875 28.421875 48.1875 
Q 40.625 48.1875 47.75 41.5 
Q 54.890625 34.8125 54.890625 23.390625 
Q 54.890625 11.625 47.5625 5.09375 
Q 40.234375 -1.421875 26.90625 -1.421875 
Q 22.3125 -1.421875 17.546875 -0.640625 
Q 12.796875 0.140625 7.71875 1.703125 
L 7.71875 11.625 
Q 12.109375 9.234375 16.796875 8.0625 
Q 21.484375 6.890625 26.703125 6.890625 
Q 35.15625 6.890625 40.078125 11.328125 
Q 45.015625 15.765625 45.015625 23.390625 
Q 45.015625 31 40.078125 35.4375 
Q 35.15625 39.890625 26.703125 39.890625 
Q 22.75 39.890625 18.8125 39.015625 
Q 14.890625 38.140625 10.796875 36.28125 
z
" id="DejaVuSans-53"/>
       </defs>
       <use xlink:href="#DejaVuSans-53"/>
       <use x="63.623047" xlink:href="#DejaVuSans-48"/>
      </g>
     </g>
    </g>
    <g id="text_7">
     <!-- cle step -->
     <g style="fill:#666666;" transform="translate(275.132031 420.777187)scale(0.22 -0.22)">
      <defs>
       <path d="M 48.78125 52.59375 
L 48.78125 44.1875 
Q 44.96875 46.296875 41.140625 47.34375 
Q 37.3125 48.390625 33.40625 48.390625 
Q 24.65625 48.390625 19.8125 42.84375 
Q 14.984375 37.3125 14.984375 27.296875 
Q 14.984375 17.28125 19.8125 11.734375 
Q 24.65625 6.203125 33.40625 6.203125 
Q 37.3125 6.203125 41.140625 7.25 
Q 44.96875 8.296875 48.78125 10.40625 
L 48.78125 2.09375 
Q 45.015625 0.34375 40.984375 -0.53125 
Q 36.96875 -1.421875 32.421875 -1.421875 
Q 20.0625 -1.421875 12.78125 6.34375 
Q 5.515625 14.109375 5.515625 27.296875 
Q 5.515625 40.671875 12.859375 48.328125 
Q 20.21875 56 33.015625 56 
Q 37.15625 56 41.109375 55.140625 
Q 45.0625 54.296875 48.78125 52.59375 
z
" id="DejaVuSans-99"/>
       <path d="M 9.421875 75.984375 
L 18.40625 75.984375 
L 18.40625 0 
L 9.421875 0 
z
" id="DejaVuSans-108"/>
       <path d="M 56.203125 29.59375 
L 56.203125 25.203125 
L 14.890625 25.203125 
Q 15.484375 15.921875 20.484375 11.0625 
Q 25.484375 6.203125 34.421875 6.203125 
Q 39.59375 6.203125 44.453125 7.46875 
Q 49.3125 8.734375 54.109375 11.28125 
L 54.109375 2.78125 
Q 49.265625 0.734375 44.1875 -0.34375 
Q 39.109375 -1.421875 33.890625 -1.421875 
Q 20.796875 -1.421875 13.15625 6.1875 
Q 5.515625 13.8125 5.515625 26.8125 
Q 5.515625 40.234375 12.765625 48.109375 
Q 20.015625 56 32.328125 56 
Q 43.359375 56 49.78125 48.890625 
Q 56.203125 41.796875 56.203125 29.59375 
z
M 47.21875 32.234375 
Q 47.125 39.59375 43.09375 43.984375 
Q 39.0625 48.390625 32.421875 48.390625 
Q 24.90625 48.390625 20.390625 44.140625 
Q 15.875 39.890625 15.1875 32.171875 
z
" id="DejaVuSans-101"/>
       <path id="DejaVuSans-32"/>
       <path d="M 44.28125 53.078125 
L 44.28125 44.578125 
Q 40.484375 46.53125 36.375 47.5 
Q 32.28125 48.484375 27.875 48.484375 
Q 21.1875 48.484375 17.84375 46.4375 
Q 14.5 44.390625 14.5 40.28125 
Q 14.5 37.15625 16.890625 35.375 
Q 19.28125 33.59375 26.515625 31.984375 
L 29.59375 31.296875 
Q 39.15625 29.25 43.1875 25.515625 
Q 47.21875 21.78125 47.21875 15.09375 
Q 47.21875 7.46875 41.1875 3.015625 
Q 35.15625 -1.421875 24.609375 -1.421875 
Q 20.21875 -1.421875 15.453125 -0.5625 
Q 10.6875 0.296875 5.421875 2 
L 5.421875 11.28125 
Q 10.40625 8.6875 15.234375 7.390625 
Q 20.0625 6.109375 24.8125 6.109375 
Q 31.15625 6.109375 34.5625 8.28125 
Q 37.984375 10.453125 37.984375 14.40625 
Q 37.984375 18.0625 35.515625 20.015625 
Q 33.0625 21.96875 24.703125 23.78125 
L 21.578125 24.515625 
Q 13.234375 26.265625 9.515625 29.90625 
Q 5.8125 33.546875 5.8125 39.890625 
Q 5.8125 47.609375 11.28125 51.796875 
Q 16.75 56 26.8125 56 
Q 31.78125 56 36.171875 55.265625 
Q 40.578125 54.546875 44.28125 53.078125 
z
" id="DejaVuSans-115"/>
       <path d="M 18.3125 70.21875 
L 18.3125 54.6875 
L 36.8125 54.6875 
L 36.8125 47.703125 
L 18.3125 47.703125 
L 18.3125 18.015625 
Q 18.3125 11.328125 20.140625 9.421875 
Q 21.96875 7.515625 27.59375 7.515625 
L 36.8125 7.515625 
L 36.8125 0 
L 27.59375 0 
Q 17.1875 0 13.234375 3.875 
Q 9.28125 7.765625 9.28125 18.015625 
L 9.28125 47.703125 
L 2.6875 47.703125 
L 2.6875 54.6875 
L 9.28125 54.6875 
L 9.28125 70.21875 
z
" id="DejaVuSans-116"/>
       <path d="M 18.109375 8.203125 
L 18.109375 -20.796875 
L 9.078125 -20.796875 
L 9.078125 54.6875 
L 18.109375 54.6875 
L 18.109375 46.390625 
Q 20.953125 51.265625 25.265625 53.625 
Q 29.59375 56 35.59375 56 
Q 45.5625 56 51.78125 48.09375 
Q 58.015625 40.1875 58.015625 27.296875 
Q 58.015625 14.40625 51.78125 6.484375 
Q 45.5625 -1.421875 35.59375 -1.421875 
Q 29.59375 -1.421875 25.265625 0.953125 
Q 20.953125 3.328125 18.109375 8.203125 
z
M 48.6875 27.296875 
Q 48.6875 37.203125 44.609375 42.84375 
Q 40.53125 48.484375 33.40625 48.484375 
Q 26.265625 48.484375 22.1875 42.84375 
Q 18.109375 37.203125 18.109375 27.296875 
Q 18.109375 17.390625 22.1875 11.75 
Q 26.265625 6.109375 33.40625 6.109375 
Q 40.53125 6.109375 44.609375 11.75 
Q 48.6875 17.390625 48.6875 27.296875 
z
" id="DejaVuSans-112"/>
      </defs>
      <use xlink:href="#DejaVuSans-99"/>
      <use x="54.980469" xlink:href="#DejaVuSans-108"/>
      <use x="82.763672" xlink:href="#DejaVuSans-101"/>
      <use x="144.287109" xlink:href="#DejaVuSans-32"/>
      <use x="176.074219" xlink:href="#DejaVuSans-115"/>
      <use x="228.173828" xlink:href="#DejaVuSans-116"/>
      <use x="267.382812" xlink:href="#DejaVuSans-101"/>
      <use x="328.90625" xlink:href="#DejaVuSans-112"/>
     </g>
    </g>
   </g>
   <g id="matplotlib.axis_2">
    <g id="ytick_1">
     <g id="line2d_7">
      <path clip-path="url(#pb697152006)" d="M 67.79 375.64 
L 568.8 375.64 
" style="fill:none;stroke:#000000;stroke-dasharray:0.8,1.32;stroke-dashoffset:0;stroke-width:0.8;"/>
     </g>
     <g id="line2d_8">
      <defs>
       <path d="M 0 0 
L -3.5 0 
" id="me52f279937" style="stroke:#666666;stroke-width:0.8;"/>
      </defs>
      <g>
       <use style="fill:#666666;stroke:#666666;stroke-width:0.8;" x="67.79" xlink:href="#me52f279937" y="375.64"/>
      </g>
     </g>
     <g id="text_8">
      <!-- 0.0 -->
      <g style="fill:#666666;" transform="translate(32.164375 382.478594)scale(0.18 -0.18)">
       <defs>
        <path d="M 10.6875 12.40625 
L 21 12.40625 
L 21 0 
L 10.6875 0 
z
" id="DejaVuSans-46"/>
       </defs>
       <use xlink:href="#DejaVuSans-48"/>
       <use x="63.623047" xlink:href="#DejaVuSans-46"/>
       <use x="95.410156" xlink:href="#DejaVuSans-48"/>
      </g>
     </g>
    </g>
    <g id="ytick_2">
     <g id="line2d_9">
      <path clip-path="url(#pb697152006)" d="M 67.79 334.600728 
L 568.8 334.600728 
" style="fill:none;stroke:#000000;stroke-dasharray:0.8,1.32;stroke-dashoffset:0;stroke-width:0.8;"/>
     </g>
     <g id="line2d_10">
      <g>
       <use style="fill:#666666;stroke:#666666;stroke-width:0.8;" x="67.79" xlink:href="#me52f279937" y="334.600728"/>
      </g>
     </g>
     <g id="text_9">
      <!-- 0.1 -->
      <g style="fill:#666666;" transform="translate(32.164375 341.439321)scale(0.18 -0.18)">
       <use xlink:href="#DejaVuSans-48"/>
       <use x="63.623047" xlink:href="#DejaVuSans-46"/>
       <use x="95.410156" xlink:href="#DejaVuSans-49"/>
      </g>
     </g>
    </g>
    <g id="ytick_3">
     <g id="line2d_11">
      <path clip-path="url(#pb697152006)" d="M 67.79 293.561455 
L 568.8 293.561455 
" style="fill:none;stroke:#000000;stroke-dasharray:0.8,1.32;stroke-dashoffset:0;stroke-width:0.8;"/>
     </g>
     <g id="line2d_12">
      <g>
       <use style="fill:#666666;stroke:#666666;stroke-width:0.8;" x="67.79" xlink:href="#me52f279937" y="293.561455"/>
      </g>
     </g>
     <g id="text_10">
      <!-- 0.2 -->
      <g style="fill:#666666;" transform="translate(32.164375 300.400049)scale(0.18 -0.18)">
       <use xlink:href="#DejaVuSans-48"/>
       <use x="63.623047" xlink:href="#DejaVuSans-46"/>
       <use x="95.410156" xlink:href="#DejaVuSans-50"/>
      </g>
     </g>
    </g>
    <g id="ytick_4">
     <g id="line2d_13">
      <path clip-path="url(#pb697152006)" d="M 67.79 252.522183 
L 568.8 252.522183 
" style="fill:none;stroke:#000000;stroke-dasharray:0.8,1.32;stroke-dashoffset:0;stroke-width:0.8;"/>
     </g>
     <g id="line2d_14">
      <g>
       <use style="fill:#666666;stroke:#666666;stroke-width:0.8;" x="67.79" xlink:href="#me52f279937" y="252.522183"/>
      </g>
     </g>
     <g id="text_11">
      <!-- 0.3 -->
      <g style="fill:#666666;" transform="translate(32.164375 259.360777)scale(0.18 -0.18)">
       <use xlink:href="#DejaVuSans-48"/>
       <use x="63.623047" xlink:href="#DejaVuSans-46"/>
       <use x="95.410156" xlink:href="#DejaVuSans-51"/>
      </g>
     </g>
    </g>
    <g id="ytick_5">
     <g id="line2d_15">
      <path clip-path="url(#pb697152006)" d="M 67.79 211.482911 
L 568.8 211.482911 
" style="fill:none;stroke:#000000;stroke-dasharray:0.8,1.32;stroke-dashoffset:0;stroke-width:0.8;"/>
     </g>
     <g id="line2d_16">
      <g>
       <use style="fill:#666666;stroke:#666666;stroke-width:0.8;" x="67.79" xlink:href="#me52f279937" y="211.482911"/>
      </g>
     </g>
     <g id="text_12">
      <!-- 0.4 -->
      <g style="fill:#666666;" transform="translate(32.164375 218.321504)scale(0.18 -0.18)">
       <use xlink:href="#DejaVuSans-48"/>
       <use x="63.623047" xlink:href="#DejaVuSans-46"/>
       <use x="95.410156" xlink:href="#DejaVuSans-52"/>
      </g>
     </g>
    </g>
    <g id="ytick_6">
     <g id="line2d_17">
      <path clip-path="url(#pb697152006)" d="M 67.79 170.443638 
L 568.8 170.443638 
" style="fill:none;stroke:#000000;stroke-dasharray:0.8,1.32;stroke-dashoffset:0;stroke-width:0.8;"/>
     </g>
     <g id="line2d_18">
      <g>
       <use style="fill:#666666;stroke:#666666;stroke-width:0.8;" x="67.79" xlink:href="#me52f279937" y="170.443638"/>
      </g>
     </g>
     <g id="text_13">
      <!-- 0.5 -->
      <g style="fill:#666666;" transform="translate(32.164375 177.282232)scale(0.18 -0.18)">
       <use xlink:href="#DejaVuSans-48"/>
       <use x="63.623047" xlink:href="#DejaVuSans-46"/>
       <use x="95.410156" xlink:href="#DejaVuSans-53"/>
      </g>
     </g>
    </g>
    <g id="ytick_7">
     <g id="line2d_19">
      <path clip-path="url(#pb697152006)" d="M 67.79 129.404366 
L 568.8 129.404366 
" style="fill:none;stroke:#000000;stroke-dasharray:0.8,1.32;stroke-dashoffset:0;stroke-width:0.8;"/>
     </g>
     <g id="line2d_20">
      <g>
       <use style="fill:#666666;stroke:#666666;stroke-width:0.8;" x="67.79" xlink:href="#me52f279937" y="129.404366"/>
      </g>
     </g>
     <g id="text_14">
      <!-- 0.6 -->
      <g style="fill:#666666;" transform="translate(32.164375 136.24296)scale(0.18 -0.18)">
       <defs>
        <path d="M 33.015625 40.375 
Q 26.375 40.375 22.484375 35.828125 
Q 18.609375 31.296875 18.609375 23.390625 
Q 18.609375 15.53125 22.484375 10.953125 
Q 26.375 6.390625 33.015625 6.390625 
Q 39.65625 6.390625 43.53125 10.953125 
Q 47.40625 15.53125 47.40625 23.390625 
Q 47.40625 31.296875 43.53125 35.828125 
Q 39.65625 40.375 33.015625 40.375 
z
M 52.59375 71.296875 
L 52.59375 62.3125 
Q 48.875 64.0625 45.09375 64.984375 
Q 41.3125 65.921875 37.59375 65.921875 
Q 27.828125 65.921875 22.671875 59.328125 
Q 17.53125 52.734375 16.796875 39.40625 
Q 19.671875 43.65625 24.015625 45.921875 
Q 28.375 48.1875 33.59375 48.1875 
Q 44.578125 48.1875 50.953125 41.515625 
Q 57.328125 34.859375 57.328125 23.390625 
Q 57.328125 12.15625 50.6875 5.359375 
Q 44.046875 -1.421875 33.015625 -1.421875 
Q 20.359375 -1.421875 13.671875 8.265625 
Q 6.984375 17.96875 6.984375 36.375 
Q 6.984375 53.65625 15.1875 63.9375 
Q 23.390625 74.21875 37.203125 74.21875 
Q 40.921875 74.21875 44.703125 73.484375 
Q 48.484375 72.75 52.59375 71.296875 
z
" id="DejaVuSans-54"/>
       </defs>
       <use xlink:href="#DejaVuSans-48"/>
       <use x="63.623047" xlink:href="#DejaVuSans-46"/>
       <use x="95.410156" xlink:href="#DejaVuSans-54"/>
      </g>
     </g>
    </g>
    <g id="ytick_8">
     <g id="line2d_21">
      <path clip-path="url(#pb697152006)" d="M 67.79 88.365093 
L 568.8 88.365093 
" style="fill:none;stroke:#000000;stroke-dasharray:0.8,1.32;stroke-dashoffset:0;stroke-width:0.8;"/>
     </g>
     <g id="line2d_22">
      <g>
       <use style="fill:#666666;stroke:#666666;stroke-width:0.8;" x="67.79" xlink:href="#me52f279937" y="88.365093"/>
      </g>
     </g>
     <g id="text_15">
      <!-- 0.7 -->
      <g style="fill:#666666;" transform="translate(32.164375 95.203687)scale(0.18 -0.18)">
       <defs>
        <path d="M 8.203125 72.90625 
L 55.078125 72.90625 
L 55.078125 68.703125 
L 28.609375 0 
L 18.3125 0 
L 43.21875 64.59375 
L 8.203125 64.59375 
z
" id="DejaVuSans-55"/>
       </defs>
       <use xlink:href="#DejaVuSans-48"/>
       <use x="63.623047" xlink:href="#DejaVuSans-46"/>
       <use x="95.410156" xlink:href="#DejaVuSans-55"/>
      </g>
     </g>
    </g>
    <g id="text_16">
     <!-- time (s) -->
     <g style="fill:#666666;" transform="translate(23.589063 267.521094)rotate(-90)scale(0.22 -0.22)">
      <defs>
       <path d="M 9.421875 54.6875 
L 18.40625 54.6875 
L 18.40625 0 
L 9.421875 0 
z
M 9.421875 75.984375 
L 18.40625 75.984375 
L 18.40625 64.59375 
L 9.421875 64.59375 
z
" id="DejaVuSans-105"/>
       <path d="M 52 44.1875 
Q 55.375 50.25 60.0625 53.125 
Q 64.75 56 71.09375 56 
Q 79.640625 56 84.28125 50.015625 
Q 88.921875 44.046875 88.921875 33.015625 
L 88.921875 0 
L 79.890625 0 
L 79.890625 32.71875 
Q 79.890625 40.578125 77.09375 44.375 
Q 74.3125 48.1875 68.609375 48.1875 
Q 61.625 48.1875 57.5625 43.546875 
Q 53.515625 38.921875 53.515625 30.90625 
L 53.515625 0 
L 44.484375 0 
L 44.484375 32.71875 
Q 44.484375 40.625 41.703125 44.40625 
Q 38.921875 48.1875 33.109375 48.1875 
Q 26.21875 48.1875 22.15625 43.53125 
Q 18.109375 38.875 18.109375 30.90625 
L 18.109375 0 
L 9.078125 0 
L 9.078125 54.6875 
L 18.109375 54.6875 
L 18.109375 46.1875 
Q 21.1875 51.21875 25.484375 53.609375 
Q 29.78125 56 35.6875 56 
Q 41.65625 56 45.828125 52.96875 
Q 50 49.953125 52 44.1875 
z
" id="DejaVuSans-109"/>
       <path d="M 31 75.875 
Q 24.46875 64.65625 21.28125 53.65625 
Q 18.109375 42.671875 18.109375 31.390625 
Q 18.109375 20.125 21.3125 9.0625 
Q 24.515625 -2 31 -13.1875 
L 23.1875 -13.1875 
Q 15.875 -1.703125 12.234375 9.375 
Q 8.59375 20.453125 8.59375 31.390625 
Q 8.59375 42.28125 12.203125 53.3125 
Q 15.828125 64.359375 23.1875 75.875 
z
" id="DejaVuSans-40"/>
       <path d="M 8.015625 75.875 
L 15.828125 75.875 
Q 23.140625 64.359375 26.78125 53.3125 
Q 30.421875 42.28125 30.421875 31.390625 
Q 30.421875 20.453125 26.78125 9.375 
Q 23.140625 -1.703125 15.828125 -13.1875 
L 8.015625 -13.1875 
Q 14.5 -2 17.703125 9.0625 
Q 20.90625 20.125 20.90625 31.390625 
Q 20.90625 42.671875 17.703125 53.65625 
Q 14.5 64.65625 8.015625 75.875 
z
" id="DejaVuSans-41"/>
      </defs>
      <use xlink:href="#DejaVuSans-116"/>
      <use x="39.208984" xlink:href="#DejaVuSans-105"/>
      <use x="66.992188" xlink:href="#DejaVuSans-109"/>
      <use x="164.404297" xlink:href="#DejaVuSans-101"/>
      <use x="225.927734" xlink:href="#DejaVuSans-32"/>
      <use x="257.714844" xlink:href="#DejaVuSans-40"/>
      <use x="296.728516" xlink:href="#DejaVuSans-115"/>
      <use x="348.828125" xlink:href="#DejaVuSans-41"/>
     </g>
    </g>
   </g>
   <g id="line2d_23">
    <path clip-path="url(#pb697152006)" d="M 99.682907 -1 
L 99.858358 208.644283 
L 109.153534 214.695033 
L 118.448711 212.993993 
L 127.743887 211.03337 
L 137.039063 211.633847 
L 146.334239 203.556819 
L 155.629416 206.445994 
L 164.924592 205.13291 
L 174.219768 204.20387 
L 183.514944 202.123973 
L 192.810121 202.944308 
L 202.105297 199.424129 
L 211.400473 198.563189 
L 220.695649 194.582551 
L 229.990826 198.106349 
L 239.286002 192.381424 
L 248.581178 197.341884 
L 257.876354 196.607164 
L 267.171531 197.044044 
L 276.466707 187.165 
L 285.761883 196.453939 
L 295.057059 196.281438 
L 304.352236 195.973225 
L 313.647412 195.488598 
L 322.942588 193.733547 
L 332.237764 193.758204 
L 341.532941 191.816759 
L 350.828117 192.828577 
L 360.123293 190.923725 
L 369.418469 191.586725 
L 378.713646 191.65052 
L 388.008822 191.669991 
L 397.303998 192.857441 
L 406.599174 189.602423 
L 415.894351 187.8325 
L 425.189527 193.111349 
L 434.484703 195.882914 
L 443.779879 192.505394 
L 453.075056 196.633876 
L 462.370232 193.50185 
L 471.665408 192.626233 
L 480.960584 191.414419 
L 490.255761 196.700998 
L 499.550937 196.490337 
L 508.846113 196.943459 
L 518.141289 196.378989 
L 527.436466 193.780122 
L 536.731642 197.392666 
L 546.026818 195.814129 
" style="fill:none;stroke:#1f77b4;stroke-linecap:square;stroke-width:6;"/>
   </g>
   <g id="line2d_24">
    <path clip-path="url(#pb697152006)" d="M 99.629281 -1 
L 99.858358 235.00986 
L 109.153534 238.065273 
L 118.448711 237.188188 
L 127.743887 237.152475 
L 137.039063 238.801754 
L 146.334239 230.380018 
L 155.629416 229.723183 
L 164.924592 233.463807 
L 174.219768 232.616467 
L 183.514944 230.440095 
L 192.810121 230.562597 
L 202.105297 229.456457 
L 211.400473 228.203548 
L 220.695649 228.772029 
L 229.990826 228.413622 
L 239.286002 227.172455 
L 248.581178 226.823735 
L 257.876354 224.436702 
L 267.171531 228.19259 
L 276.466707 226.168563 
L 285.761883 228.160594 
L 295.057059 229.905566 
L 304.352236 229.223683 
L 313.647412 228.104529 
L 322.942588 228.966154 
L 332.237764 228.100419 
L 341.532941 227.476754 
L 350.828117 228.425951 
L 360.123293 222.612866 
L 369.418469 227.145645 
L 378.713646 228.17351 
L 388.008822 225.830507 
L 397.303998 227.941714 
L 406.599174 228.486028 
L 415.894351 226.255352 
L 425.189527 227.933985 
L 434.484703 227.873321 
L 443.779879 226.756613 
L 453.075056 228.852752 
L 462.370232 226.779313 
L 471.665408 225.405076 
L 480.960584 228.351001 
L 490.255761 224.934245 
L 499.550937 231.17413 
L 508.846113 231.475396 
L 518.141289 229.313994 
L 527.436466 229.506456 
L 536.731642 229.676804 
L 546.026818 231.567272 
" style="fill:none;stroke:#ff7f0e;stroke-linecap:square;stroke-width:6;"/>
   </g>
   <g id="line2d_25">
    <path clip-path="url(#pb697152006)" d="M 99.531803 -1 
L 99.858358 252.361932 
L 109.153534 249.41317 
L 118.448711 256.484544 
L 127.743887 244.374433 
L 137.039063 243.264868 
L 146.334239 240.709932 
L 155.629416 243.682569 
L 164.924592 240.970788 
L 174.219768 244.459069 
L 183.514944 234.0181 
L 192.810121 241.348862 
L 202.105297 241.076167 
L 211.400473 248.312802 
L 220.695649 248.022691 
L 229.990826 249.503579 
L 239.286002 239.597823 
L 248.581178 244.514841 
L 257.876354 239.363288 
L 267.171531 242.605293 
L 276.466707 242.066361 
L 285.761883 245.150737 
L 295.057059 246.433195 
L 304.352236 248.363192 
L 313.647412 246.28672 
L 322.942588 244.410636 
L 332.237764 248.671405 
L 341.532941 245.941424 
L 350.828117 247.132299 
L 360.123293 246.424878 
L 369.418469 246.417246 
L 378.713646 250.367748 
L 388.008822 242.914288 
L 397.303998 248.85144 
L 406.599174 244.723642 
L 415.894351 243.781393 
L 425.189527 242.007752 
L 434.484703 242.494336 
L 443.779879 240.478431 
L 453.075056 238.530625 
L 462.370232 244.039998 
L 471.665408 242.096302 
L 480.960584 242.974756 
L 490.255761 247.270946 
L 499.550937 241.390838 
L 508.846113 238.336207 
L 518.141289 241.988085 
L 527.436466 249.484205 
L 536.731642 236.532625 
L 546.026818 241.104151 
" style="fill:none;stroke:#2ca02c;stroke-linecap:square;stroke-width:6;"/>
   </g>
   <g id="line2d_26">
    <path clip-path="url(#pb697152006)" d="M 99.348603 -1 
L 99.858358 257.096664 
L 109.153534 252.182679 
L 118.448711 251.357844 
L 127.743887 256.979836 
L 137.039063 250.704531 
L 146.334239 228.0332 
L 155.629416 252.33796 
L 164.924592 244.898101 
L 174.219768 248.492739 
L 183.514944 252.748127 
L 192.810121 250.272936 
L 202.105297 245.523234 
L 211.400473 249.463853 
L 220.695649 245.123145 
L 229.990826 248.688528 
L 239.286002 250.983097 
L 248.581178 249.87725 
L 257.876354 249.977737 
L 267.171531 246.283883 
L 276.466707 249.597706 
L 285.761883 244.303691 
L 295.057059 247.719958 
L 304.352236 247.555382 
L 313.647412 244.349091 
L 322.942588 252.002253 
L 332.237764 251.216066 
L 341.532941 237.669685 
L 350.828117 247.797353 
L 360.123293 241.313344 
L 369.418469 245.456112 
L 378.713646 246.127428 
L 388.008822 247.09776 
L 397.303998 243.944403 
L 406.599174 248.587845 
L 415.894351 251.004427 
L 425.189527 247.099521 
L 434.484703 249.839677 
L 443.779879 242.984932 
L 453.075056 242.393066 
L 462.370232 246.201301 
L 471.665408 252.67807 
L 480.960584 247.145508 
L 490.255761 245.066297 
L 499.550937 243.490499 
L 508.846113 248.779426 
L 518.141289 245.9516 
L 527.436466 248.000676 
L 536.731642 243.038845 
L 546.026818 243.400481 
" style="fill:none;stroke:#d62728;stroke-linecap:square;stroke-width:6;"/>
   </g>
   <g id="line2d_27">
    <path clip-path="url(#pb697152006)" d="M 99.116289 -1 
L 99.858358 255.705206 
L 109.153534 258.965899 
L 118.448711 246.27449 
L 127.743887 257.30253 
L 137.039063 254.242028 
L 146.334239 252.778068 
L 155.629416 252.332383 
L 164.924592 254.290462 
L 174.219768 248.231786 
L 183.514944 251.681125 
L 192.810121 253.508874 
L 202.105297 246.682407 
L 211.400473 250.800517 
L 220.695649 246.891893 
L 229.990826 254.971954 
L 239.286002 251.121548 
L 248.581178 252.273284 
L 257.876354 250.053371 
L 267.171531 244.344394 
L 276.466707 247.023299 
L 285.761883 244.918942 
L 295.057059 255.27772 
L 304.352236 253.594489 
L 313.647412 255.286331 
L 322.942588 243.978062 
L 332.237764 247.203922 
L 341.532941 241.057185 
L 350.828117 240.17511 
L 360.123293 251.632985 
L 369.418469 244.33187 
L 378.713646 247.664871 
L 388.008822 247.15451 
L 397.303998 249.198986 
L 406.599174 246.302669 
L 415.894351 254.481064 
L 425.189527 244.4849 
L 434.484703 252.096478 
L 443.779879 247.621232 
L 453.075056 250.509232 
L 462.370232 248.286677 
L 471.665408 242.307452 
L 480.960584 241.920083 
L 490.255761 253.376196 
L 499.550937 252.599598 
L 508.846113 247.345112 
L 518.141289 244.926867 
L 527.436466 244.101836 
L 536.731642 247.227796 
L 546.026818 251.358822 
" style="fill:none;stroke:#9467bd;stroke-linecap:square;stroke-width:6;"/>
   </g>
   <g id="line2d_28">
    <path clip-path="url(#pb697152006)" d="M 98.907503 -1 
L 99.858358 253.363867 
L 109.153534 255.804813 
L 118.448711 252.060177 
L 127.743887 247.373488 
L 137.039063 255.008255 
L 146.334239 246.884359 
L 155.629416 250.135561 
L 164.924592 252.051175 
L 174.219768 248.597238 
L 183.514944 249.629114 
L 192.810121 247.558415 
L 202.105297 247.855375 
L 211.400473 240.923529 
L 220.695649 247.63356 
L 229.990826 248.217403 
L 239.286002 248.309475 
L 248.581178 222.105637 
L 257.876354 248.676199 
L 267.171531 238.053043 
L 276.466707 250.214327 
L 285.761883 243.732666 
L 295.057059 248.700073 
L 304.352236 246.172241 
L 313.647412 244.88313 
L 322.942588 248.998012 
L 332.237764 252.672786 
L 341.532941 247.205389 
L 350.828117 244.111523 
L 360.123293 240.431661 
L 369.418469 244.720316 
L 378.713646 248.272588 
L 388.008822 246.066666 
L 397.303998 246.513428 
L 406.599174 244.481475 
L 415.894351 245.727437 
L 425.189527 246.594639 
L 434.484703 243.148138 
L 443.779879 250.145443 
L 453.075056 248.973062 
L 462.370232 246.694442 
L 471.665408 245.743386 
L 480.960584 242.946088 
L 490.255761 249.412093 
L 499.550937 244.315628 
L 508.846113 247.266445 
L 518.141289 243.548815 
L 527.436466 248.026213 
L 536.731642 246.23633 
L 546.026818 242.374574 
" style="fill:none;stroke:#8c564b;stroke-linecap:square;stroke-width:6;"/>
   </g>
   <g id="line2d_29">
    <path clip-path="url(#pb697152006)" d="M 98.435815 -1 
L 99.858358 238.412428 
L 109.153534 242.838556 
L 118.448711 235.052227 
L 127.743887 240.750832 
L 137.039063 247.70802 
L 146.334239 196.654815 
L 155.629416 237.247972 
L 164.924592 236.847198 
L 174.219768 235.367778 
L 183.514944 234.858982 
L 192.810121 236.042518 
L 202.105297 232.059043 
L 211.400473 241.849438 
L 220.695649 229.828954 
L 229.990826 235.401338 
L 239.286002 241.241037 
L 248.581178 239.685101 
L 257.876354 245.791428 
L 267.171531 245.8517 
L 276.466707 236.589571 
L 285.761883 242.329271 
L 295.057059 240.949653 
L 304.352236 243.544607 
L 313.647412 249.4345 
L 322.942588 245.752192 
L 332.237764 245.671959 
L 341.532941 240.909732 
L 350.828117 251.037988 
L 360.123293 244.516602 
L 369.418469 242.560088 
L 378.713646 242.505882 
L 388.008822 241.268727 
L 397.303998 241.589463 
L 406.599174 243.451654 
L 415.894351 233.133481 
L 425.189527 233.602649 
L 434.484703 238.427301 
L 443.779879 229.882377 
L 453.075056 240.110043 
L 462.370232 236.676458 
L 471.665408 231.092625 
L 480.960584 239.342936 
L 490.255761 238.391 
L 499.550937 238.651073 
L 508.846113 244.191756 
L 518.141289 230.729717 
L 527.436466 243.85419 
L 536.731642 238.645789 
L 546.026818 234.629144 
" style="fill:none;stroke:#e377c2;stroke-linecap:square;stroke-width:6;"/>
   </g>
   <g id="line2d_30">
    <path clip-path="url(#pb697152006)" d="M 137.039063 375.64 
L 137.039063 74.08 
" style="fill:none;stroke:#000000;stroke-dasharray:5.55,2.4;stroke-dashoffset:0;stroke-width:1.5;"/>
   </g>
   <g id="line2d_31">
    <path clip-path="url(#pb697152006)" d="M 322.942588 375.64 
L 322.942588 74.08 
" style="fill:none;stroke:#000000;stroke-dasharray:5.55,2.4;stroke-dashoffset:0;stroke-width:1.5;"/>
   </g>
   <g id="text_17">
    <!-- cle_step -->
    <g style="fill:#666666;" transform="translate(266.968828 64.08)scale(0.25 -0.25)">
     <defs>
      <path d="M 50.984375 -16.609375 
L 50.984375 -23.578125 
L -0.984375 -23.578125 
L -0.984375 -16.609375 
z
" id="DejaVuSans-95"/>
     </defs>
     <use xlink:href="#DejaVuSans-99"/>
     <use x="54.980469" xlink:href="#DejaVuSans-108"/>
     <use x="82.763672" xlink:href="#DejaVuSans-101"/>
     <use x="144.287109" xlink:href="#DejaVuSans-95"/>
     <use x="194.287109" xlink:href="#DejaVuSans-115"/>
     <use x="246.386719" xlink:href="#DejaVuSans-116"/>
     <use x="285.595703" xlink:href="#DejaVuSans-101"/>
     <use x="347.119141" xlink:href="#DejaVuSans-112"/>
    </g>
   </g>
  </g>
  <g id="text_18">
   <!-- CLE time profile -->
   <g transform="translate(168.892969 31.435313)scale(0.3 -0.3)">
    <defs>
     <path d="M 64.40625 67.28125 
L 64.40625 56.890625 
Q 59.421875 61.53125 53.78125 63.8125 
Q 48.140625 66.109375 41.796875 66.109375 
Q 29.296875 66.109375 22.65625 58.46875 
Q 16.015625 50.828125 16.015625 36.375 
Q 16.015625 21.96875 22.65625 14.328125 
Q 29.296875 6.6875 41.796875 6.6875 
Q 48.140625 6.6875 53.78125 8.984375 
Q 59.421875 11.28125 64.40625 15.921875 
L 64.40625 5.609375 
Q 59.234375 2.09375 53.4375 0.328125 
Q 47.65625 -1.421875 41.21875 -1.421875 
Q 24.65625 -1.421875 15.125 8.703125 
Q 5.609375 18.84375 5.609375 36.375 
Q 5.609375 53.953125 15.125 64.078125 
Q 24.65625 74.21875 41.21875 74.21875 
Q 47.75 74.21875 53.53125 72.484375 
Q 59.328125 70.75 64.40625 67.28125 
z
" id="DejaVuSans-67"/>
     <path d="M 9.8125 72.90625 
L 19.671875 72.90625 
L 19.671875 8.296875 
L 55.171875 8.296875 
L 55.171875 0 
L 9.8125 0 
z
" id="DejaVuSans-76"/>
     <path d="M 9.8125 72.90625 
L 55.90625 72.90625 
L 55.90625 64.59375 
L 19.671875 64.59375 
L 19.671875 43.015625 
L 54.390625 43.015625 
L 54.390625 34.71875 
L 19.671875 34.71875 
L 19.671875 8.296875 
L 56.78125 8.296875 
L 56.78125 0 
L 9.8125 0 
z
" id="DejaVuSans-69"/>
     <path d="M 41.109375 46.296875 
Q 39.59375 47.171875 37.8125 47.578125 
Q 36.03125 48 33.890625 48 
Q 26.265625 48 22.1875 43.046875 
Q 18.109375 38.09375 18.109375 28.8125 
L 18.109375 0 
L 9.078125 0 
L 9.078125 54.6875 
L 18.109375 54.6875 
L 18.109375 46.1875 
Q 20.953125 51.171875 25.484375 53.578125 
Q 30.03125 56 36.53125 56 
Q 37.453125 56 38.578125 55.875 
Q 39.703125 55.765625 41.0625 55.515625 
z
" id="DejaVuSans-114"/>
     <path d="M 30.609375 48.390625 
Q 23.390625 48.390625 19.1875 42.75 
Q 14.984375 37.109375 14.984375 27.296875 
Q 14.984375 17.484375 19.15625 11.84375 
Q 23.34375 6.203125 30.609375 6.203125 
Q 37.796875 6.203125 41.984375 11.859375 
Q 46.1875 17.53125 46.1875 27.296875 
Q 46.1875 37.015625 41.984375 42.703125 
Q 37.796875 48.390625 30.609375 48.390625 
z
M 30.609375 56 
Q 42.328125 56 49.015625 48.375 
Q 55.71875 40.765625 55.71875 27.296875 
Q 55.71875 13.875 49.015625 6.21875 
Q 42.328125 -1.421875 30.609375 -1.421875 
Q 18.84375 -1.421875 12.171875 6.21875 
Q 5.515625 13.875 5.515625 27.296875 
Q 5.515625 40.765625 12.171875 48.375 
Q 18.84375 56 30.609375 56 
z
" id="DejaVuSans-111"/>
     <path d="M 37.109375 75.984375 
L 37.109375 68.5 
L 28.515625 68.5 
Q 23.6875 68.5 21.796875 66.546875 
Q 19.921875 64.59375 19.921875 59.515625 
L 19.921875 54.6875 
L 34.71875 54.6875 
L 34.71875 47.703125 
L 19.921875 47.703125 
L 19.921875 0 
L 10.890625 0 
L 10.890625 47.703125 
L 2.296875 47.703125 
L 2.296875 54.6875 
L 10.890625 54.6875 
L 10.890625 58.5 
Q 10.890625 67.625 15.140625 71.796875 
Q 19.390625 75.984375 28.609375 75.984375 
z
" id="DejaVuSans-102"/>
    </defs>
    <use xlink:href="#DejaVuSans-67"/>
    <use x="69.824219" xlink:href="#DejaVuSans-76"/>
    <use x="125.537109" xlink:href="#DejaVuSans-69"/>
    <use x="188.720703" xlink:href="#DejaVuSans-32"/>
    <use x="220.507812" xlink:href="#DejaVuSans-116"/>
    <use x="259.716797" xlink:href="#DejaVuSans-105"/>
    <use x="287.5" xlink:href="#DejaVuSans-109"/>
    <use x="384.912109" xlink:href="#DejaVuSans-101"/>
    <use x="446.435547" xlink:href="#DejaVuSans-32"/>
    <use x="478.222656" xlink:href="#DejaVuSans-112"/>
    <use x="541.699219" xlink:href="#DejaVuSans-114"/>
    <use x="580.5625" xlink:href="#DejaVuSans-111"/>
    <use x="641.744141" xlink:href="#DejaVuSans-102"/>
    <use x="676.949219" xlink:href="#DejaVuSans-105"/>
    <use x="704.732422" xlink:href="#DejaVuSans-108"/>
    <use x="732.515625" xlink:href="#DejaVuSans-101"/>
   </g>
  </g>
 </g>
 <defs>
  <clipPath id="pb697152006">
   <rect height="301.56" width="501.01" x="67.79" y="74.08"/>
  </clipPath>
 </defs>
</svg>
