<?xml version="1.0" encoding="utf-8" standalone="no"?>
<!DOCTYPE svg PUBLIC "-//W3C//DTD SVG 1.1//EN"
  "http://www.w3.org/Graphics/SVG/1.1/DTD/svg11.dtd">
<!-- Created with matplotlib (https://matplotlib.org/) -->
<svg height="432pt" version="1.1" viewBox="0 0 576 432" width="576pt" xmlns="http://www.w3.org/2000/svg" xmlns:xlink="http://www.w3.org/1999/xlink">
 <metadata>
  <rdf:RDF xmlns:cc="http://creativecommons.org/ns#" xmlns:dc="http://purl.org/dc/elements/1.1/" xmlns:rdf="http://www.w3.org/1999/02/22-rdf-syntax-ns#">
   <cc:Work>
    <dc:type rdf:resource="http://purl.org/dc/dcmitype/StillImage"/>
    <dc:date>2022-04-11T20:25:02.085826</dc:date>
    <dc:format>image/svg+xml</dc:format>
    <dc:creator>
     <cc:Agent>
      <dc:title>Matplotlib v3.3.4, https://matplotlib.org/</dc:title>
     </cc:Agent>
    </dc:creator>
   </cc:Work>
  </rdf:RDF>
 </metadata>
 <defs>
  <style type="text/css">*{stroke-linecap:butt;stroke-linejoin:round;}</style>
 </defs>
 <g id="figure_1">
  <g id="patch_1">
   <path d="M 0 432 
L 576 432 
L 576 0 
L 0 0 
z
" style="fill:#ffffff;"/>
  </g>
  <g id="axes_1">
   <g id="patch_2">
    <path d="M 90.65 375.64 
L 568.8 375.64 
L 568.8 74.08 
L 90.65 74.08 
z
" style="fill:#ffffff;"/>
   </g>
   <g id="matplotlib.axis_1">
    <g id="xtick_1">
     <g id="line2d_1">
      <defs>
       <path d="M 0 0 
L 0 3.5 
" id="md743360ebd" style="stroke:#666666;stroke-width:0.8;"/>
      </defs>
      <g>
       <use style="fill:#666666;stroke:#666666;stroke-width:0.8;" x="112.384091" xlink:href="#md743360ebd" y="375.64"/>
      </g>
     </g>
     <g id="text_1">
      <!-- 0 -->
      <g style="fill:#666666;" transform="translate(106.657841 396.317187)scale(0.18 -0.18)">
       <defs>
        <path d="M 31.78125 66.40625 
Q 24.171875 66.40625 20.328125 58.90625 
Q 16.5 51.421875 16.5 36.375 
Q 16.5 21.390625 20.328125 13.890625 
Q 24.171875 6.390625 31.78125 6.390625 
Q 39.453125 6.390625 43.28125 13.890625 
Q 47.125 21.390625 47.125 36.375 
Q 47.125 51.421875 43.28125 58.90625 
Q 39.453125 66.40625 31.78125 66.40625 
z
M 31.78125 74.21875 
Q 44.046875 74.21875 50.515625 64.515625 
Q 56.984375 54.828125 56.984375 36.375 
Q 56.984375 17.96875 50.515625 8.265625 
Q 44.046875 -1.421875 31.78125 -1.421875 
Q 19.53125 -1.421875 13.0625 8.265625 
Q 6.59375 17.96875 6.59375 36.375 
Q 6.59375 54.828125 13.0625 64.515625 
Q 19.53125 74.21875 31.78125 74.21875 
z
" id="DejaVuSans-48"/>
       </defs>
       <use xlink:href="#DejaVuSans-48"/>
      </g>
     </g>
    </g>
    <g id="xtick_2">
     <g id="line2d_2">
      <g>
       <use style="fill:#666666;stroke:#666666;stroke-width:0.8;" x="201.094666" xlink:href="#md743360ebd" y="375.64"/>
      </g>
     </g>
     <g id="text_2">
      <!-- 10 -->
      <g style="fill:#666666;" transform="translate(189.642166 396.317187)scale(0.18 -0.18)">
       <defs>
        <path d="M 12.40625 8.296875 
L 28.515625 8.296875 
L 28.515625 63.921875 
L 10.984375 60.40625 
L 10.984375 69.390625 
L 28.421875 72.90625 
L 38.28125 72.90625 
L 38.28125 8.296875 
L 54.390625 8.296875 
L 54.390625 0 
L 12.40625 0 
z
" id="DejaVuSans-49"/>
       </defs>
       <use xlink:href="#DejaVuSans-49"/>
       <use x="63.623047" xlink:href="#DejaVuSans-48"/>
      </g>
     </g>
    </g>
    <g id="xtick_3">
     <g id="line2d_3">
      <g>
       <use style="fill:#666666;stroke:#666666;stroke-width:0.8;" x="289.805241" xlink:href="#md743360ebd" y="375.64"/>
      </g>
     </g>
     <g id="text_3">
      <!-- 20 -->
      <g style="fill:#666666;" transform="translate(278.352741 396.317187)scale(0.18 -0.18)">
       <defs>
        <path d="M 19.1875 8.296875 
L 53.609375 8.296875 
L 53.609375 0 
L 7.328125 0 
L 7.328125 8.296875 
Q 12.9375 14.109375 22.625 23.890625 
Q 32.328125 33.6875 34.8125 36.53125 
Q 39.546875 41.84375 41.421875 45.53125 
Q 43.3125 49.21875 43.3125 52.78125 
Q 43.3125 58.59375 39.234375 62.25 
Q 35.15625 65.921875 28.609375 65.921875 
Q 23.96875 65.921875 18.8125 64.3125 
Q 13.671875 62.703125 7.8125 59.421875 
L 7.8125 69.390625 
Q 13.765625 71.78125 18.9375 73 
Q 24.125 74.21875 28.421875 74.21875 
Q 39.75 74.21875 46.484375 68.546875 
Q 53.21875 62.890625 53.21875 53.421875 
Q 53.21875 48.921875 51.53125 44.890625 
Q 49.859375 40.875 45.40625 35.40625 
Q 44.1875 33.984375 37.640625 27.21875 
Q 31.109375 20.453125 19.1875 8.296875 
z
" id="DejaVuSans-50"/>
       </defs>
       <use xlink:href="#DejaVuSans-50"/>
       <use x="63.623047" xlink:href="#DejaVuSans-48"/>
      </g>
     </g>
    </g>
    <g id="xtick_4">
     <g id="line2d_4">
      <g>
       <use style="fill:#666666;stroke:#666666;stroke-width:0.8;" x="378.515816" xlink:href="#md743360ebd" y="375.64"/>
      </g>
     </g>
     <g id="text_4">
      <!-- 30 -->
      <g style="fill:#666666;" transform="translate(367.063316 396.317187)scale(0.18 -0.18)">
       <defs>
        <path d="M 40.578125 39.3125 
Q 47.65625 37.796875 51.625 33 
Q 55.609375 28.21875 55.609375 21.1875 
Q 55.609375 10.40625 48.1875 4.484375 
Q 40.765625 -1.421875 27.09375 -1.421875 
Q 22.515625 -1.421875 17.65625 -0.515625 
Q 12.796875 0.390625 7.625 2.203125 
L 7.625 11.71875 
Q 11.71875 9.328125 16.59375 8.109375 
Q 21.484375 6.890625 26.8125 6.890625 
Q 36.078125 6.890625 40.9375 10.546875 
Q 45.796875 14.203125 45.796875 21.1875 
Q 45.796875 27.640625 41.28125 31.265625 
Q 36.765625 34.90625 28.71875 34.90625 
L 20.21875 34.90625 
L 20.21875 43.015625 
L 29.109375 43.015625 
Q 36.375 43.015625 40.234375 45.921875 
Q 44.09375 48.828125 44.09375 54.296875 
Q 44.09375 59.90625 40.109375 62.90625 
Q 36.140625 65.921875 28.71875 65.921875 
Q 24.65625 65.921875 20.015625 65.03125 
Q 15.375 64.15625 9.8125 62.3125 
L 9.8125 71.09375 
Q 15.4375 72.65625 20.34375 73.4375 
Q 25.25 74.21875 29.59375 74.21875 
Q 40.828125 74.21875 47.359375 69.109375 
Q 53.90625 64.015625 53.90625 55.328125 
Q 53.90625 49.265625 50.4375 45.09375 
Q 46.96875 40.921875 40.578125 39.3125 
z
" id="DejaVuSans-51"/>
       </defs>
       <use xlink:href="#DejaVuSans-51"/>
       <use x="63.623047" xlink:href="#DejaVuSans-48"/>
      </g>
     </g>
    </g>
    <g id="xtick_5">
     <g id="line2d_5">
      <g>
       <use style="fill:#666666;stroke:#666666;stroke-width:0.8;" x="467.226391" xlink:href="#md743360ebd" y="375.64"/>
      </g>
     </g>
     <g id="text_5">
      <!-- 40 -->
      <g style="fill:#666666;" transform="translate(455.773891 396.317187)scale(0.18 -0.18)">
       <defs>
        <path d="M 37.796875 64.3125 
L 12.890625 25.390625 
L 37.796875 25.390625 
z
M 35.203125 72.90625 
L 47.609375 72.90625 
L 47.609375 25.390625 
L 58.015625 25.390625 
L 58.015625 17.1875 
L 47.609375 17.1875 
L 47.609375 0 
L 37.796875 0 
L 37.796875 17.1875 
L 4.890625 17.1875 
L 4.890625 26.703125 
z
" id="DejaVuSans-52"/>
       </defs>
       <use xlink:href="#DejaVuSans-52"/>
       <use x="63.623047" xlink:href="#DejaVuSans-48"/>
      </g>
     </g>
    </g>
    <g id="xtick_6">
     <g id="line2d_6">
      <g>
       <use style="fill:#666666;stroke:#666666;stroke-width:0.8;" x="555.936967" xlink:href="#md743360ebd" y="375.64"/>
      </g>
     </g>
     <g id="text_6">
      <!-- 50 -->
      <g style="fill:#666666;" transform="translate(544.484467 396.317187)scale(0.18 -0.18)">
       <defs>
        <path d="M 10.796875 72.90625 
L 49.515625 72.90625 
L 49.515625 64.59375 
L 19.828125 64.59375 
L 19.828125 46.734375 
Q 21.96875 47.46875 24.109375 47.828125 
Q 26.265625 48.1875 28.421875 48.1875 
Q 40.625 48.1875 47.75 41.5 
Q 54.890625 34.8125 54.890625 23.390625 
Q 54.890625 11.625 47.5625 5.09375 
Q 40.234375 -1.421875 26.90625 -1.421875 
Q 22.3125 -1.421875 17.546875 -0.640625 
Q 12.796875 0.140625 7.71875 1.703125 
L 7.71875 11.625 
Q 12.109375 9.234375 16.796875 8.0625 
Q 21.484375 6.890625 26.703125 6.890625 
Q 35.15625 6.890625 40.078125 11.328125 
Q 45.015625 15.765625 45.015625 23.390625 
Q 45.015625 31 40.078125 35.4375 
Q 35.15625 39.890625 26.703125 39.890625 
Q 22.75 39.890625 18.8125 39.015625 
Q 14.890625 38.140625 10.796875 36.28125 
z
" id="DejaVuSans-53"/>
       </defs>
       <use xlink:href="#DejaVuSans-53"/>
       <use x="63.623047" xlink:href="#DejaVuSans-48"/>
      </g>
     </g>
    </g>
    <g id="text_7">
     <!-- cle step -->
     <g style="fill:#666666;" transform="translate(286.562031 420.777187)scale(0.22 -0.22)">
      <defs>
       <path d="M 48.78125 52.59375 
L 48.78125 44.1875 
Q 44.96875 46.296875 41.140625 47.34375 
Q 37.3125 48.390625 33.40625 48.390625 
Q 24.65625 48.390625 19.8125 42.84375 
Q 14.984375 37.3125 14.984375 27.296875 
Q 14.984375 17.28125 19.8125 11.734375 
Q 24.65625 6.203125 33.40625 6.203125 
Q 37.3125 6.203125 41.140625 7.25 
Q 44.96875 8.296875 48.78125 10.40625 
L 48.78125 2.09375 
Q 45.015625 0.34375 40.984375 -0.53125 
Q 36.96875 -1.421875 32.421875 -1.421875 
Q 20.0625 -1.421875 12.78125 6.34375 
Q 5.515625 14.109375 5.515625 27.296875 
Q 5.515625 40.671875 12.859375 48.328125 
Q 20.21875 56 33.015625 56 
Q 37.15625 56 41.109375 55.140625 
Q 45.0625 54.296875 48.78125 52.59375 
z
" id="DejaVuSans-99"/>
       <path d="M 9.421875 75.984375 
L 18.40625 75.984375 
L 18.40625 0 
L 9.421875 0 
z
" id="DejaVuSans-108"/>
       <path d="M 56.203125 29.59375 
L 56.203125 25.203125 
L 14.890625 25.203125 
Q 15.484375 15.921875 20.484375 11.0625 
Q 25.484375 6.203125 34.421875 6.203125 
Q 39.59375 6.203125 44.453125 7.46875 
Q 49.3125 8.734375 54.109375 11.28125 
L 54.109375 2.78125 
Q 49.265625 0.734375 44.1875 -0.34375 
Q 39.109375 -1.421875 33.890625 -1.421875 
Q 20.796875 -1.421875 13.15625 6.1875 
Q 5.515625 13.8125 5.515625 26.8125 
Q 5.515625 40.234375 12.765625 48.109375 
Q 20.015625 56 32.328125 56 
Q 43.359375 56 49.78125 48.890625 
Q 56.203125 41.796875 56.203125 29.59375 
z
M 47.21875 32.234375 
Q 47.125 39.59375 43.09375 43.984375 
Q 39.0625 48.390625 32.421875 48.390625 
Q 24.90625 48.390625 20.390625 44.140625 
Q 15.875 39.890625 15.1875 32.171875 
z
" id="DejaVuSans-101"/>
       <path id="DejaVuSans-32"/>
       <path d="M 44.28125 53.078125 
L 44.28125 44.578125 
Q 40.484375 46.53125 36.375 47.5 
Q 32.28125 48.484375 27.875 48.484375 
Q 21.1875 48.484375 17.84375 46.4375 
Q 14.5 44.390625 14.5 40.28125 
Q 14.5 37.15625 16.890625 35.375 
Q 19.28125 33.59375 26.515625 31.984375 
L 29.59375 31.296875 
Q 39.15625 29.25 43.1875 25.515625 
Q 47.21875 21.78125 47.21875 15.09375 
Q 47.21875 7.46875 41.1875 3.015625 
Q 35.15625 -1.421875 24.609375 -1.421875 
Q 20.21875 -1.421875 15.453125 -0.5625 
Q 10.6875 0.296875 5.421875 2 
L 5.421875 11.28125 
Q 10.40625 8.6875 15.234375 7.390625 
Q 20.0625 6.109375 24.8125 6.109375 
Q 31.15625 6.109375 34.5625 8.28125 
Q 37.984375 10.453125 37.984375 14.40625 
Q 37.984375 18.0625 35.515625 20.015625 
Q 33.0625 21.96875 24.703125 23.78125 
L 21.578125 24.515625 
Q 13.234375 26.265625 9.515625 29.90625 
Q 5.8125 33.546875 5.8125 39.890625 
Q 5.8125 47.609375 11.28125 51.796875 
Q 16.75 56 26.8125 56 
Q 31.78125 56 36.171875 55.265625 
Q 40.578125 54.546875 44.28125 53.078125 
z
" id="DejaVuSans-115"/>
       <path d="M 18.3125 70.21875 
L 18.3125 54.6875 
L 36.8125 54.6875 
L 36.8125 47.703125 
L 18.3125 47.703125 
L 18.3125 18.015625 
Q 18.3125 11.328125 20.140625 9.421875 
Q 21.96875 7.515625 27.59375 7.515625 
L 36.8125 7.515625 
L 36.8125 0 
L 27.59375 0 
Q 17.1875 0 13.234375 3.875 
Q 9.28125 7.765625 9.28125 18.015625 
L 9.28125 47.703125 
L 2.6875 47.703125 
L 2.6875 54.6875 
L 9.28125 54.6875 
L 9.28125 70.21875 
z
" id="DejaVuSans-116"/>
       <path d="M 18.109375 8.203125 
L 18.109375 -20.796875 
L 9.078125 -20.796875 
L 9.078125 54.6875 
L 18.109375 54.6875 
L 18.109375 46.390625 
Q 20.953125 51.265625 25.265625 53.625 
Q 29.59375 56 35.59375 56 
Q 45.5625 56 51.78125 48.09375 
Q 58.015625 40.1875 58.015625 27.296875 
Q 58.015625 14.40625 51.78125 6.484375 
Q 45.5625 -1.421875 35.59375 -1.421875 
Q 29.59375 -1.421875 25.265625 0.953125 
Q 20.953125 3.328125 18.109375 8.203125 
z
M 48.6875 27.296875 
Q 48.6875 37.203125 44.609375 42.84375 
Q 40.53125 48.484375 33.40625 48.484375 
Q 26.265625 48.484375 22.1875 42.84375 
Q 18.109375 37.203125 18.109375 27.296875 
Q 18.109375 17.390625 22.1875 11.75 
Q 26.265625 6.109375 33.40625 6.109375 
Q 40.53125 6.109375 44.609375 11.75 
Q 48.6875 17.390625 48.6875 27.296875 
z
" id="DejaVuSans-112"/>
      </defs>
      <use xlink:href="#DejaVuSans-99"/>
      <use x="54.980469" xlink:href="#DejaVuSans-108"/>
      <use x="82.763672" xlink:href="#DejaVuSans-101"/>
      <use x="144.287109" xlink:href="#DejaVuSans-32"/>
      <use x="176.074219" xlink:href="#DejaVuSans-115"/>
      <use x="228.173828" xlink:href="#DejaVuSans-116"/>
      <use x="267.382812" xlink:href="#DejaVuSans-101"/>
      <use x="328.90625" xlink:href="#DejaVuSans-112"/>
     </g>
    </g>
   </g>
   <g id="matplotlib.axis_2">
    <g id="ytick_1">
     <g id="line2d_7">
      <path clip-path="url(#p959c13a485)" d="M 90.65 339.449837 
L 568.8 339.449837 
" style="fill:none;stroke:#000000;stroke-dasharray:0.8,1.32;stroke-dashoffset:0;stroke-width:0.8;"/>
     </g>
     <g id="line2d_8">
      <defs>
       <path d="M 0 0 
L -3.5 0 
" id="mabce0d32c5" style="stroke:#666666;stroke-width:0.8;"/>
      </defs>
      <g>
       <use style="fill:#666666;stroke:#666666;stroke-width:0.8;" x="90.65" xlink:href="#mabce0d32c5" y="339.449837"/>
      </g>
     </g>
     <g id="text_8">
      <!-- 0.04 -->
      <g style="fill:#666666;" transform="translate(43.571875 346.288431)scale(0.18 -0.18)">
       <defs>
        <path d="M 10.6875 12.40625 
L 21 12.40625 
L 21 0 
L 10.6875 0 
z
" id="DejaVuSans-46"/>
       </defs>
       <use xlink:href="#DejaVuSans-48"/>
       <use x="63.623047" xlink:href="#DejaVuSans-46"/>
       <use x="95.410156" xlink:href="#DejaVuSans-48"/>
       <use x="159.033203" xlink:href="#DejaVuSans-52"/>
      </g>
     </g>
    </g>
    <g id="ytick_2">
     <g id="line2d_9">
      <path clip-path="url(#p959c13a485)" d="M 90.65 267.069512 
L 568.8 267.069512 
" style="fill:none;stroke:#000000;stroke-dasharray:0.8,1.32;stroke-dashoffset:0;stroke-width:0.8;"/>
     </g>
     <g id="line2d_10">
      <g>
       <use style="fill:#666666;stroke:#666666;stroke-width:0.8;" x="90.65" xlink:href="#mabce0d32c5" y="267.069512"/>
      </g>
     </g>
     <g id="text_9">
      <!-- 0.05 -->
      <g style="fill:#666666;" transform="translate(43.571875 273.908106)scale(0.18 -0.18)">
       <use xlink:href="#DejaVuSans-48"/>
       <use x="63.623047" xlink:href="#DejaVuSans-46"/>
       <use x="95.410156" xlink:href="#DejaVuSans-48"/>
       <use x="159.033203" xlink:href="#DejaVuSans-53"/>
      </g>
     </g>
    </g>
    <g id="ytick_3">
     <g id="line2d_11">
      <path clip-path="url(#p959c13a485)" d="M 90.65 194.689187 
L 568.8 194.689187 
" style="fill:none;stroke:#000000;stroke-dasharray:0.8,1.32;stroke-dashoffset:0;stroke-width:0.8;"/>
     </g>
     <g id="line2d_12">
      <g>
       <use style="fill:#666666;stroke:#666666;stroke-width:0.8;" x="90.65" xlink:href="#mabce0d32c5" y="194.689187"/>
      </g>
     </g>
     <g id="text_10">
      <!-- 0.06 -->
      <g style="fill:#666666;" transform="translate(43.571875 201.527781)scale(0.18 -0.18)">
       <defs>
        <path d="M 33.015625 40.375 
Q 26.375 40.375 22.484375 35.828125 
Q 18.609375 31.296875 18.609375 23.390625 
Q 18.609375 15.53125 22.484375 10.953125 
Q 26.375 6.390625 33.015625 6.390625 
Q 39.65625 6.390625 43.53125 10.953125 
Q 47.40625 15.53125 47.40625 23.390625 
Q 47.40625 31.296875 43.53125 35.828125 
Q 39.65625 40.375 33.015625 40.375 
z
M 52.59375 71.296875 
L 52.59375 62.3125 
Q 48.875 64.0625 45.09375 64.984375 
Q 41.3125 65.921875 37.59375 65.921875 
Q 27.828125 65.921875 22.671875 59.328125 
Q 17.53125 52.734375 16.796875 39.40625 
Q 19.671875 43.65625 24.015625 45.921875 
Q 28.375 48.1875 33.59375 48.1875 
Q 44.578125 48.1875 50.953125 41.515625 
Q 57.328125 34.859375 57.328125 23.390625 
Q 57.328125 12.15625 50.6875 5.359375 
Q 44.046875 -1.421875 33.015625 -1.421875 
Q 20.359375 -1.421875 13.671875 8.265625 
Q 6.984375 17.96875 6.984375 36.375 
Q 6.984375 53.65625 15.1875 63.9375 
Q 23.390625 74.21875 37.203125 74.21875 
Q 40.921875 74.21875 44.703125 73.484375 
Q 48.484375 72.75 52.59375 71.296875 
z
" id="DejaVuSans-54"/>
       </defs>
       <use xlink:href="#DejaVuSans-48"/>
       <use x="63.623047" xlink:href="#DejaVuSans-46"/>
       <use x="95.410156" xlink:href="#DejaVuSans-48"/>
       <use x="159.033203" xlink:href="#DejaVuSans-54"/>
      </g>
     </g>
    </g>
    <g id="ytick_4">
     <g id="line2d_13">
      <path clip-path="url(#p959c13a485)" d="M 90.65 122.308861 
L 568.8 122.308861 
" style="fill:none;stroke:#000000;stroke-dasharray:0.8,1.32;stroke-dashoffset:0;stroke-width:0.8;"/>
     </g>
     <g id="line2d_14">
      <g>
       <use style="fill:#666666;stroke:#666666;stroke-width:0.8;" x="90.65" xlink:href="#mabce0d32c5" y="122.308861"/>
      </g>
     </g>
     <g id="text_11">
      <!-- 0.07 -->
      <g style="fill:#666666;" transform="translate(43.571875 129.147455)scale(0.18 -0.18)">
       <defs>
        <path d="M 8.203125 72.90625 
L 55.078125 72.90625 
L 55.078125 68.703125 
L 28.609375 0 
L 18.3125 0 
L 43.21875 64.59375 
L 8.203125 64.59375 
z
" id="DejaVuSans-55"/>
       </defs>
       <use xlink:href="#DejaVuSans-48"/>
       <use x="63.623047" xlink:href="#DejaVuSans-46"/>
       <use x="95.410156" xlink:href="#DejaVuSans-48"/>
       <use x="159.033203" xlink:href="#DejaVuSans-55"/>
      </g>
     </g>
    </g>
    <g id="text_12">
     <!-- time (s) -->
     <g style="fill:#666666;" transform="translate(34.996563 267.521094)rotate(-90)scale(0.22 -0.22)">
      <defs>
       <path d="M 9.421875 54.6875 
L 18.40625 54.6875 
L 18.40625 0 
L 9.421875 0 
z
M 9.421875 75.984375 
L 18.40625 75.984375 
L 18.40625 64.59375 
L 9.421875 64.59375 
z
" id="DejaVuSans-105"/>
       <path d="M 52 44.1875 
Q 55.375 50.25 60.0625 53.125 
Q 64.75 56 71.09375 56 
Q 79.640625 56 84.28125 50.015625 
Q 88.921875 44.046875 88.921875 33.015625 
L 88.921875 0 
L 79.890625 0 
L 79.890625 32.71875 
Q 79.890625 40.578125 77.09375 44.375 
Q 74.3125 48.1875 68.609375 48.1875 
Q 61.625 48.1875 57.5625 43.546875 
Q 53.515625 38.921875 53.515625 30.90625 
L 53.515625 0 
L 44.484375 0 
L 44.484375 32.71875 
Q 44.484375 40.625 41.703125 44.40625 
Q 38.921875 48.1875 33.109375 48.1875 
Q 26.21875 48.1875 22.15625 43.53125 
Q 18.109375 38.875 18.109375 30.90625 
L 18.109375 0 
L 9.078125 0 
L 9.078125 54.6875 
L 18.109375 54.6875 
L 18.109375 46.1875 
Q 21.1875 51.21875 25.484375 53.609375 
Q 29.78125 56 35.6875 56 
Q 41.65625 56 45.828125 52.96875 
Q 50 49.953125 52 44.1875 
z
" id="DejaVuSans-109"/>
       <path d="M 31 75.875 
Q 24.46875 64.65625 21.28125 53.65625 
Q 18.109375 42.671875 18.109375 31.390625 
Q 18.109375 20.125 21.3125 9.0625 
Q 24.515625 -2 31 -13.1875 
L 23.1875 -13.1875 
Q 15.875 -1.703125 12.234375 9.375 
Q 8.59375 20.453125 8.59375 31.390625 
Q 8.59375 42.28125 12.203125 53.3125 
Q 15.828125 64.359375 23.1875 75.875 
z
" id="DejaVuSans-40"/>
       <path d="M 8.015625 75.875 
L 15.828125 75.875 
Q 23.140625 64.359375 26.78125 53.3125 
Q 30.421875 42.28125 30.421875 31.390625 
Q 30.421875 20.453125 26.78125 9.375 
Q 23.140625 -1.703125 15.828125 -13.1875 
L 8.015625 -13.1875 
Q 14.5 -2 17.703125 9.0625 
Q 20.90625 20.125 20.90625 31.390625 
Q 20.90625 42.671875 17.703125 53.65625 
Q 14.5 64.65625 8.015625 75.875 
z
" id="DejaVuSans-41"/>
      </defs>
      <use xlink:href="#DejaVuSans-116"/>
      <use x="39.208984" xlink:href="#DejaVuSans-105"/>
      <use x="66.992188" xlink:href="#DejaVuSans-109"/>
      <use x="164.404297" xlink:href="#DejaVuSans-101"/>
      <use x="225.927734" xlink:href="#DejaVuSans-32"/>
      <use x="257.714844" xlink:href="#DejaVuSans-40"/>
      <use x="296.728516" xlink:href="#DejaVuSans-115"/>
      <use x="348.828125" xlink:href="#DejaVuSans-41"/>
     </g>
    </g>
   </g>
   <g id="line2d_15">
    <path clip-path="url(#p959c13a485)" d="M 112.384091 108.403804 
L 121.255148 354.620579 
L 130.126206 367.325046 
L 138.997263 357.828621 
L 147.868321 371.706551 
L 156.739378 370.798842 
L 165.610436 298.929388 
L 174.481494 304.16338 
L 183.352551 298.175265 
L 192.223609 296.798171 
L 201.094666 296.425424 
L 209.965724 289.029153 
L 218.836781 293.817919 
L 227.707839 258.667514 
L 236.578896 285.572613 
L 245.449954 292.789413 
L 254.321011 292.708306 
L 263.192069 286.891034 
L 272.063126 297.780084 
L 280.934184 299.826742 
L 289.805241 287.106744 
L 298.676299 293.591855 
L 307.547356 300.756884 
L 316.418414 291.888608 
L 325.289471 285.548454 
L 334.160529 274.650776 
L 343.031586 286.563155 
L 351.902644 289.947216 
L 360.773701 292.549544 
L 369.644759 298.751643 
L 378.515816 294.242437 
L 387.386874 293.885221 
L 396.257931 288.801363 
L 405.128989 292.464985 
L 414.000046 259.207653 
L 422.871104 300.311659 
L 431.742161 295.205367 
L 440.613219 302.206457 
L 449.484276 297.006979 
L 458.355334 298.446197 
L 467.226391 286.19731 
L 476.097449 297.414239 
L 484.968506 302.570576 
L 493.839564 300.020018 
L 502.710622 306.144462 
L 511.581679 303.428239 
L 520.452737 306.094417 
L 529.323794 305.927026 
L 538.194852 306.289419 
L 547.065909 297.076006 
" style="fill:none;stroke:#1f77b4;stroke-linecap:square;stroke-width:6;"/>
   </g>
   <g id="line2d_16">
    <path clip-path="url(#p959c13a485)" d="M 112.384091 107.144056 
L 121.255148 334.923651 
L 130.126206 343.206922 
L 138.997263 349.759334 
L 147.868321 340.240476 
L 156.739378 354.258186 
L 165.610436 265.882588 
L 174.481494 278.338557 
L 183.352551 267.936149 
L 192.223609 278.996042 
L 201.094666 266.705738 
L 209.965724 282.552671 
L 218.836781 261.356126 
L 227.707839 272.607569 
L 236.578896 272.11575 
L 245.449954 267.459861 
L 254.321011 270.35728 
L 263.192069 264.465804 
L 272.063126 273.517003 
L 280.934184 280.348976 
L 289.805241 264.61939 
L 298.676299 276.485175 
L 307.547356 274.866486 
L 316.418414 268.657484 
L 325.289471 274.723254 
L 334.160529 272.509205 
L 343.031586 267.72389 
L 351.902644 273.406559 
L 360.773701 267.349418 
L 369.644759 272.148538 
L 378.515816 252.834711 
L 387.386874 273.951875 
L 396.257931 268.567749 
L 405.128989 270.809409 
L 414.000046 274.526527 
L 422.871104 271.201139 
L 431.742161 275.04078 
L 440.613219 276.357475 
L 449.484276 269.929311 
L 458.355334 282.200632 
L 467.226391 261.209443 
L 476.097449 277.177173 
L 484.968506 271.946633 
L 493.839564 224.074504 
L 502.710622 291.094794 
L 511.581679 274.422986 
L 520.452737 291.320858 
L 529.323794 277.039119 
L 538.194852 284.264547 
L 547.065909 282.141959 
" style="fill:none;stroke:#ff7f0e;stroke-linecap:square;stroke-width:6;"/>
   </g>
   <g id="line2d_17">
    <path clip-path="url(#p959c13a485)" d="M 112.384091 87.167568 
L 121.255148 347.831748 
L 130.126206 347.771349 
L 138.997263 347.35546 
L 147.868321 329.648243 
L 156.739378 341.60549 
L 165.610436 248.049396 
L 174.481494 267.347692 
L 183.352551 242.739475 
L 192.223609 286.516561 
L 201.094666 222.34192 
L 209.965724 241.830041 
L 218.836781 280.721723 
L 227.707839 276.521414 
L 236.578896 275.718973 
L 245.449954 292.634102 
L 254.321011 249.121045 
L 263.192069 264.764347 
L 272.063126 274.473031 
L 280.934184 279.386046 
L 289.805241 265.88604 
L 298.676299 290.554656 
L 307.547356 268.745494 
L 316.418414 284.939288 
L 325.289471 288.321624 
L 334.160529 261.157673 
L 343.031586 281.936603 
L 351.902644 250.834646 
L 360.773701 296.644586 
L 369.644759 279.196221 
L 378.515816 290.326866 
L 387.386874 292.680695 
L 396.257931 220.995889 
L 405.128989 300.377234 
L 414.000046 276.110702 
L 422.871104 269.577272 
L 431.742161 264.200049 
L 440.613219 252.37568 
L 449.484276 233.569204 
L 458.355334 272.39531 
L 467.226391 267.180301 
L 476.097449 272.681773 
L 484.968506 254.988361 
L 493.839564 284.481983 
L 502.710622 294.903373 
L 511.581679 235.508869 
L 520.452737 254.834776 
L 529.323794 284.923757 
L 538.194852 263.780708 
L 547.065909 262.058478 
" style="fill:none;stroke:#2ca02c;stroke-linecap:square;stroke-width:6;"/>
   </g>
   <g id="line2d_18">
    <path clip-path="url(#p959c13a485)" d="M 112.384091 101.318156 
L 121.255148 335.249805 
L 130.126206 349.897389 
L 138.997263 339.584717 
L 147.868321 337.24987 
L 156.739378 309.402548 
L 165.610436 271.718843 
L 174.481494 257.792594 
L 183.352551 246.617081 
L 192.223609 260.501914 
L 201.094666 257.739098 
L 209.965724 268.983638 
L 218.836781 254.127246 
L 227.707839 275.165029 
L 236.578896 225.981382 
L 245.449954 267.516809 
L 254.321011 271.551452 
L 263.192069 276.621504 
L 272.063126 264.678063 
L 280.934184 258.515654 
L 289.805241 227.96419 
L 298.676299 287.617546 
L 307.547356 259.538983 
L 316.418414 272.402213 
L 325.289471 265.775596 
L 334.160529 267.192381 
L 343.031586 278.067625 
L 351.902644 260.465674 
L 360.773701 249.133124 
L 369.644759 233.983367 
L 378.515816 257.894409 
L 387.386874 248.889803 
L 396.257931 250.515395 
L 405.128989 226.064215 
L 414.000046 280.18331 
L 422.871104 287.041168 
L 431.742161 273.270231 
L 440.613219 254.569021 
L 449.484276 273.708554 
L 458.355334 246.132164 
L 467.226391 280.445614 
L 476.097449 266.422727 
L 484.968506 239.398555 
L 493.839564 267.283842 
L 502.710622 269.960374 
L 511.581679 266.926626 
L 520.452737 258.258528 
L 529.323794 245.667956 
L 538.194852 251.6043 
L 547.065909 252.905464 
" style="fill:none;stroke:#d62728;stroke-linecap:square;stroke-width:6;"/>
   </g>
   <g id="line2d_19">
    <path clip-path="url(#p959c13a485)" d="M 112.384091 86.090743 
L 121.255148 335.836537 
L 130.126206 352.125244 
L 138.997263 314.070517 
L 147.868321 324.983726 
L 156.739378 340.483797 
L 165.610436 257.563078 
L 174.481494 266.296752 
L 183.352551 281.927974 
L 192.223609 241.871457 
L 201.094666 225.498192 
L 209.965724 277.318679 
L 218.836781 211.09738 
L 227.707839 262.778087 
L 236.578896 249.303967 
L 245.449954 273.104565 
L 254.321011 221.327219 
L 263.192069 278.207405 
L 272.063126 277.344564 
L 280.934184 248.898432 
L 289.805241 265.782499 
L 298.676299 247.793996 
L 307.547356 277.161642 
L 316.418414 244.663609 
L 325.289471 274.483385 
L 334.160529 228.619949 
L 343.031586 236.190514 
L 351.902644 226.497361 
L 360.773701 246.159775 
L 369.644759 271.325388 
L 378.515816 221.429035 
L 387.386874 221.786251 
L 396.257931 255.569916 
L 405.128989 241.424505 
L 414.000046 251.462794 
L 422.871104 289.094729 
L 431.742161 257.958259 
L 440.613219 260.236159 
L 449.484276 272.616197 
L 458.355334 254.505171 
L 467.226391 257.526839 
L 476.097449 278.695773 
L 484.968506 266.270867 
L 493.839564 256.593245 
L 502.710622 271.52039 
L 511.581679 231.610555 
L 520.452737 219.617069 
L 529.323794 245.685213 
L 538.194852 227.38091 
L 547.065909 264.313944 
" style="fill:none;stroke:#9467bd;stroke-linecap:square;stroke-width:6;"/>
   </g>
   <g id="line2d_20">
    <path clip-path="url(#p959c13a485)" d="M 112.384091 81.376181 
L 121.255148 333.710497 
L 130.126206 330.989097 
L 138.997263 313.908303 
L 147.868321 338.204171 
L 156.739378 340.199059 
L 165.610436 235.362187 
L 174.481494 258.9488 
L 183.352551 258.843534 
L 192.223609 249.155558 
L 201.094666 252.405016 
L 209.965724 264.679788 
L 218.836781 259.673587 
L 227.707839 218.512633 
L 236.578896 259.450974 
L 245.449954 271.604948 
L 254.321011 252.461964 
L 263.192069 226.933958 
L 272.063126 265.701392 
L 280.934184 249.333303 
L 289.805241 280.121186 
L 298.676299 237.679777 
L 307.547356 228.761455 
L 316.418414 242.955185 
L 325.289471 248.960556 
L 334.160529 263.606415 
L 343.031586 268.783459 
L 351.902644 245.25897 
L 360.773701 244.403032 
L 369.644759 245.314191 
L 378.515816 258.484592 
L 387.386874 237.869602 
L 396.257931 240.238962 
L 405.128989 247.51271 
L 414.000046 239.065499 
L 422.871104 243.962983 
L 431.742161 240.763569 
L 440.613219 239.263952 
L 449.484276 256.59152 
L 458.355334 255.897796 
L 467.226391 250.270348 
L 476.097449 271.881057 
L 484.968506 235.748739 
L 493.839564 250.199596 
L 502.710622 236.621934 
L 511.581679 261.325064 
L 520.452737 260.669305 
L 529.323794 248.422144 
L 538.194852 261.344046 
L 547.065909 239.628071 
" style="fill:none;stroke:#8c564b;stroke-linecap:square;stroke-width:6;"/>
   </g>
   <g id="line2d_21">
    <path clip-path="url(#p959c13a485)" d="M 112.384091 74.08 
L 121.255148 300.875956 
L 130.126206 300.91047 
L 138.997263 312.025584 
L 147.868321 309.343875 
L 156.739378 333.303236 
L 165.610436 228.136758 
L 174.481494 223.149539 
L 183.352551 234.954926 
L 192.223609 245.956145 
L 201.094666 243.459084 
L 209.965724 224.364419 
L 218.836781 238.176773 
L 227.707839 253.026262 
L 236.578896 197.140069 
L 245.449954 225.953771 
L 254.321011 247.864749 
L 263.192069 241.916325 
L 272.063126 247.48855 
L 280.934184 248.268558 
L 289.805241 252.270413 
L 298.676299 223.953707 
L 307.547356 266.919723 
L 316.418414 248.320328 
L 325.289471 264.540008 
L 334.160529 233.778011 
L 343.031586 258.004853 
L 351.902644 230.633819 
L 360.773701 251.811382 
L 369.644759 242.732572 
L 378.515816 237.66252 
L 387.386874 228.207511 
L 396.257931 225.812266 
L 405.128989 258.356892 
L 414.000046 249.935566 
L 422.871104 210.472683 
L 431.742161 240.449495 
L 440.613219 240.573744 
L 449.484276 230.067796 
L 458.355334 251.442086 
L 467.226391 223.149539 
L 476.097449 229.02721 
L 484.968506 232.240429 
L 493.839564 235.179264 
L 502.710622 228.795969 
L 511.581679 241.812784 
L 520.452737 243.887053 
L 529.323794 255.361109 
L 538.194852 239.165588 
L 547.065909 213.361474 
" style="fill:none;stroke:#e377c2;stroke-linecap:square;stroke-width:6;"/>
   </g>
   <g id="line2d_22">
    <path clip-path="url(#p959c13a485)" d="M 156.739378 375.64 
L 156.739378 74.08 
" style="fill:none;stroke:#000000;stroke-dasharray:5.55,2.4;stroke-dashoffset:0;stroke-width:1.5;"/>
   </g>
   <g id="line2d_23">
    <path clip-path="url(#p959c13a485)" d="M 334.160529 375.64 
L 334.160529 74.08 
" style="fill:none;stroke:#000000;stroke-dasharray:5.55,2.4;stroke-dashoffset:0;stroke-width:1.5;"/>
   </g>
   <g id="text_13">
    <!-- transfer_function -->
    <g style="fill:#666666;" transform="translate(223.051172 64.08)scale(0.25 -0.25)">
     <defs>
      <path d="M 41.109375 46.296875 
Q 39.59375 47.171875 37.8125 47.578125 
Q 36.03125 48 33.890625 48 
Q 26.265625 48 22.1875 43.046875 
Q 18.109375 38.09375 18.109375 28.8125 
L 18.109375 0 
L 9.078125 0 
L 9.078125 54.6875 
L 18.109375 54.6875 
L 18.109375 46.1875 
Q 20.953125 51.171875 25.484375 53.578125 
Q 30.03125 56 36.53125 56 
Q 37.453125 56 38.578125 55.875 
Q 39.703125 55.765625 41.0625 55.515625 
z
" id="DejaVuSans-114"/>
      <path d="M 34.28125 27.484375 
Q 23.390625 27.484375 19.1875 25 
Q 14.984375 22.515625 14.984375 16.5 
Q 14.984375 11.71875 18.140625 8.90625 
Q 21.296875 6.109375 26.703125 6.109375 
Q 34.1875 6.109375 38.703125 11.40625 
Q 43.21875 16.703125 43.21875 25.484375 
L 43.21875 27.484375 
z
M 52.203125 31.203125 
L 52.203125 0 
L 43.21875 0 
L 43.21875 8.296875 
Q 40.140625 3.328125 35.546875 0.953125 
Q 30.953125 -1.421875 24.3125 -1.421875 
Q 15.921875 -1.421875 10.953125 3.296875 
Q 6 8.015625 6 15.921875 
Q 6 25.140625 12.171875 29.828125 
Q 18.359375 34.515625 30.609375 34.515625 
L 43.21875 34.515625 
L 43.21875 35.40625 
Q 43.21875 41.609375 39.140625 45 
Q 35.0625 48.390625 27.6875 48.390625 
Q 23 48.390625 18.546875 47.265625 
Q 14.109375 46.140625 10.015625 43.890625 
L 10.015625 52.203125 
Q 14.9375 54.109375 19.578125 55.046875 
Q 24.21875 56 28.609375 56 
Q 40.484375 56 46.34375 49.84375 
Q 52.203125 43.703125 52.203125 31.203125 
z
" id="DejaVuSans-97"/>
      <path d="M 54.890625 33.015625 
L 54.890625 0 
L 45.90625 0 
L 45.90625 32.71875 
Q 45.90625 40.484375 42.875 44.328125 
Q 39.84375 48.1875 33.796875 48.1875 
Q 26.515625 48.1875 22.3125 43.546875 
Q 18.109375 38.921875 18.109375 30.90625 
L 18.109375 0 
L 9.078125 0 
L 9.078125 54.6875 
L 18.109375 54.6875 
L 18.109375 46.1875 
Q 21.34375 51.125 25.703125 53.5625 
Q 30.078125 56 35.796875 56 
Q 45.21875 56 50.046875 50.171875 
Q 54.890625 44.34375 54.890625 33.015625 
z
" id="DejaVuSans-110"/>
      <path d="M 37.109375 75.984375 
L 37.109375 68.5 
L 28.515625 68.5 
Q 23.6875 68.5 21.796875 66.546875 
Q 19.921875 64.59375 19.921875 59.515625 
L 19.921875 54.6875 
L 34.71875 54.6875 
L 34.71875 47.703125 
L 19.921875 47.703125 
L 19.921875 0 
L 10.890625 0 
L 10.890625 47.703125 
L 2.296875 47.703125 
L 2.296875 54.6875 
L 10.890625 54.6875 
L 10.890625 58.5 
Q 10.890625 67.625 15.140625 71.796875 
Q 19.390625 75.984375 28.609375 75.984375 
z
" id="DejaVuSans-102"/>
      <path d="M 50.984375 -16.609375 
L 50.984375 -23.578125 
L -0.984375 -23.578125 
L -0.984375 -16.609375 
z
" id="DejaVuSans-95"/>
      <path d="M 8.5 21.578125 
L 8.5 54.6875 
L 17.484375 54.6875 
L 17.484375 21.921875 
Q 17.484375 14.15625 20.5 10.265625 
Q 23.53125 6.390625 29.59375 6.390625 
Q 36.859375 6.390625 41.078125 11.03125 
Q 45.3125 15.671875 45.3125 23.6875 
L 45.3125 54.6875 
L 54.296875 54.6875 
L 54.296875 0 
L 45.3125 0 
L 45.3125 8.40625 
Q 42.046875 3.421875 37.71875 1 
Q 33.40625 -1.421875 27.6875 -1.421875 
Q 18.265625 -1.421875 13.375 4.4375 
Q 8.5 10.296875 8.5 21.578125 
z
M 31.109375 56 
z
" id="DejaVuSans-117"/>
      <path d="M 30.609375 48.390625 
Q 23.390625 48.390625 19.1875 42.75 
Q 14.984375 37.109375 14.984375 27.296875 
Q 14.984375 17.484375 19.15625 11.84375 
Q 23.34375 6.203125 30.609375 6.203125 
Q 37.796875 6.203125 41.984375 11.859375 
Q 46.1875 17.53125 46.1875 27.296875 
Q 46.1875 37.015625 41.984375 42.703125 
Q 37.796875 48.390625 30.609375 48.390625 
z
M 30.609375 56 
Q 42.328125 56 49.015625 48.375 
Q 55.71875 40.765625 55.71875 27.296875 
Q 55.71875 13.875 49.015625 6.21875 
Q 42.328125 -1.421875 30.609375 -1.421875 
Q 18.84375 -1.421875 12.171875 6.21875 
Q 5.515625 13.875 5.515625 27.296875 
Q 5.515625 40.765625 12.171875 48.375 
Q 18.84375 56 30.609375 56 
z
" id="DejaVuSans-111"/>
     </defs>
     <use xlink:href="#DejaVuSans-116"/>
     <use x="39.208984" xlink:href="#DejaVuSans-114"/>
     <use x="80.322266" xlink:href="#DejaVuSans-97"/>
     <use x="141.601562" xlink:href="#DejaVuSans-110"/>
     <use x="204.980469" xlink:href="#DejaVuSans-115"/>
     <use x="257.080078" xlink:href="#DejaVuSans-102"/>
     <use x="292.285156" xlink:href="#DejaVuSans-101"/>
     <use x="353.808594" xlink:href="#DejaVuSans-114"/>
     <use x="394.921875" xlink:href="#DejaVuSans-95"/>
     <use x="444.921875" xlink:href="#DejaVuSans-102"/>
     <use x="480.126953" xlink:href="#DejaVuSans-117"/>
     <use x="543.505859" xlink:href="#DejaVuSans-110"/>
     <use x="606.884766" xlink:href="#DejaVuSans-99"/>
     <use x="661.865234" xlink:href="#DejaVuSans-116"/>
     <use x="701.074219" xlink:href="#DejaVuSans-105"/>
     <use x="728.857422" xlink:href="#DejaVuSans-111"/>
     <use x="790.039062" xlink:href="#DejaVuSans-110"/>
    </g>
   </g>
   <g id="legend_1">
    <g id="patch_3">
     <path d="M 371.939063 273.424375 
L 556.2 273.424375 
Q 559.8 273.424375 559.8 269.824375 
L 559.8 86.68 
Q 559.8 83.08 556.2 83.08 
L 371.939063 83.08 
Q 368.339063 83.08 368.339063 86.68 
L 368.339063 269.824375 
Q 368.339063 273.424375 371.939063 273.424375 
z
" style="fill:#ffffff;opacity:0.8;stroke:#cccccc;stroke-linejoin:miter;"/>
    </g>
    <g id="line2d_24">
     <path d="M 375.539063 97.657188 
L 411.539063 97.657188 
" style="fill:none;stroke:#1f77b4;stroke-linecap:square;stroke-width:6;"/>
    </g>
    <g id="line2d_25"/>
    <g id="text_14">
     <!-- 01 NEST proc. -->
     <g transform="translate(425.939063 103.957188)scale(0.18 -0.18)">
      <defs>
       <path d="M 9.8125 72.90625 
L 23.09375 72.90625 
L 55.421875 11.921875 
L 55.421875 72.90625 
L 64.984375 72.90625 
L 64.984375 0 
L 51.703125 0 
L 19.390625 60.984375 
L 19.390625 0 
L 9.8125 0 
z
" id="DejaVuSans-78"/>
       <path d="M 9.8125 72.90625 
L 55.90625 72.90625 
L 55.90625 64.59375 
L 19.671875 64.59375 
L 19.671875 43.015625 
L 54.390625 43.015625 
L 54.390625 34.71875 
L 19.671875 34.71875 
L 19.671875 8.296875 
L 56.78125 8.296875 
L 56.78125 0 
L 9.8125 0 
z
" id="DejaVuSans-69"/>
       <path d="M 53.515625 70.515625 
L 53.515625 60.890625 
Q 47.90625 63.578125 42.921875 64.890625 
Q 37.9375 66.21875 33.296875 66.21875 
Q 25.25 66.21875 20.875 63.09375 
Q 16.5 59.96875 16.5 54.203125 
Q 16.5 49.359375 19.40625 46.890625 
Q 22.3125 44.4375 30.421875 42.921875 
L 36.375 41.703125 
Q 47.40625 39.59375 52.65625 34.296875 
Q 57.90625 29 57.90625 20.125 
Q 57.90625 9.515625 50.796875 4.046875 
Q 43.703125 -1.421875 29.984375 -1.421875 
Q 24.8125 -1.421875 18.96875 -0.25 
Q 13.140625 0.921875 6.890625 3.21875 
L 6.890625 13.375 
Q 12.890625 10.015625 18.65625 8.296875 
Q 24.421875 6.59375 29.984375 6.59375 
Q 38.421875 6.59375 43.015625 9.90625 
Q 47.609375 13.234375 47.609375 19.390625 
Q 47.609375 24.75 44.3125 27.78125 
Q 41.015625 30.8125 33.5 32.328125 
L 27.484375 33.5 
Q 16.453125 35.6875 11.515625 40.375 
Q 6.59375 45.0625 6.59375 53.421875 
Q 6.59375 63.09375 13.40625 68.65625 
Q 20.21875 74.21875 32.171875 74.21875 
Q 37.3125 74.21875 42.625 73.28125 
Q 47.953125 72.359375 53.515625 70.515625 
z
" id="DejaVuSans-83"/>
       <path d="M -0.296875 72.90625 
L 61.375 72.90625 
L 61.375 64.59375 
L 35.5 64.59375 
L 35.5 0 
L 25.59375 0 
L 25.59375 64.59375 
L -0.296875 64.59375 
z
" id="DejaVuSans-84"/>
      </defs>
      <use xlink:href="#DejaVuSans-48"/>
      <use x="63.623047" xlink:href="#DejaVuSans-49"/>
      <use x="127.246094" xlink:href="#DejaVuSans-32"/>
      <use x="159.033203" xlink:href="#DejaVuSans-78"/>
      <use x="233.837891" xlink:href="#DejaVuSans-69"/>
      <use x="297.021484" xlink:href="#DejaVuSans-83"/>
      <use x="360.498047" xlink:href="#DejaVuSans-84"/>
      <use x="421.582031" xlink:href="#DejaVuSans-32"/>
      <use x="453.369141" xlink:href="#DejaVuSans-112"/>
      <use x="516.845703" xlink:href="#DejaVuSans-114"/>
      <use x="555.708984" xlink:href="#DejaVuSans-111"/>
      <use x="616.890625" xlink:href="#DejaVuSans-99"/>
      <use x="671.871094" xlink:href="#DejaVuSans-46"/>
     </g>
    </g>
    <g id="line2d_26">
     <path d="M 375.539063 124.077813 
L 411.539063 124.077813 
" style="fill:none;stroke:#ff7f0e;stroke-linecap:square;stroke-width:6;"/>
    </g>
    <g id="line2d_27"/>
    <g id="text_15">
     <!-- 02 NEST proc. -->
     <g transform="translate(425.939063 130.377813)scale(0.18 -0.18)">
      <use xlink:href="#DejaVuSans-48"/>
      <use x="63.623047" xlink:href="#DejaVuSans-50"/>
      <use x="127.246094" xlink:href="#DejaVuSans-32"/>
      <use x="159.033203" xlink:href="#DejaVuSans-78"/>
      <use x="233.837891" xlink:href="#DejaVuSans-69"/>
      <use x="297.021484" xlink:href="#DejaVuSans-83"/>
      <use x="360.498047" xlink:href="#DejaVuSans-84"/>
      <use x="421.582031" xlink:href="#DejaVuSans-32"/>
      <use x="453.369141" xlink:href="#DejaVuSans-112"/>
      <use x="516.845703" xlink:href="#DejaVuSans-114"/>
      <use x="555.708984" xlink:href="#DejaVuSans-111"/>
      <use x="616.890625" xlink:href="#DejaVuSans-99"/>
      <use x="671.871094" xlink:href="#DejaVuSans-46"/>
     </g>
    </g>
    <g id="line2d_28">
     <path d="M 375.539063 150.498438 
L 411.539063 150.498438 
" style="fill:none;stroke:#2ca02c;stroke-linecap:square;stroke-width:6;"/>
    </g>
    <g id="line2d_29"/>
    <g id="text_16">
     <!-- 04 NEST proc. -->
     <g transform="translate(425.939063 156.798438)scale(0.18 -0.18)">
      <use xlink:href="#DejaVuSans-48"/>
      <use x="63.623047" xlink:href="#DejaVuSans-52"/>
      <use x="127.246094" xlink:href="#DejaVuSans-32"/>
      <use x="159.033203" xlink:href="#DejaVuSans-78"/>
      <use x="233.837891" xlink:href="#DejaVuSans-69"/>
      <use x="297.021484" xlink:href="#DejaVuSans-83"/>
      <use x="360.498047" xlink:href="#DejaVuSans-84"/>
      <use x="421.582031" xlink:href="#DejaVuSans-32"/>
      <use x="453.369141" xlink:href="#DejaVuSans-112"/>
      <use x="516.845703" xlink:href="#DejaVuSans-114"/>
      <use x="555.708984" xlink:href="#DejaVuSans-111"/>
      <use x="616.890625" xlink:href="#DejaVuSans-99"/>
      <use x="671.871094" xlink:href="#DejaVuSans-46"/>
     </g>
    </g>
    <g id="line2d_30">
     <path d="M 375.539063 176.919063 
L 411.539063 176.919063 
" style="fill:none;stroke:#d62728;stroke-linecap:square;stroke-width:6;"/>
    </g>
    <g id="line2d_31"/>
    <g id="text_17">
     <!-- 08 NEST proc. -->
     <g transform="translate(425.939063 183.219063)scale(0.18 -0.18)">
      <defs>
       <path d="M 31.78125 34.625 
Q 24.75 34.625 20.71875 30.859375 
Q 16.703125 27.09375 16.703125 20.515625 
Q 16.703125 13.921875 20.71875 10.15625 
Q 24.75 6.390625 31.78125 6.390625 
Q 38.8125 6.390625 42.859375 10.171875 
Q 46.921875 13.96875 46.921875 20.515625 
Q 46.921875 27.09375 42.890625 30.859375 
Q 38.875 34.625 31.78125 34.625 
z
M 21.921875 38.8125 
Q 15.578125 40.375 12.03125 44.71875 
Q 8.5 49.078125 8.5 55.328125 
Q 8.5 64.0625 14.71875 69.140625 
Q 20.953125 74.21875 31.78125 74.21875 
Q 42.671875 74.21875 48.875 69.140625 
Q 55.078125 64.0625 55.078125 55.328125 
Q 55.078125 49.078125 51.53125 44.71875 
Q 48 40.375 41.703125 38.8125 
Q 48.828125 37.15625 52.796875 32.3125 
Q 56.78125 27.484375 56.78125 20.515625 
Q 56.78125 9.90625 50.3125 4.234375 
Q 43.84375 -1.421875 31.78125 -1.421875 
Q 19.734375 -1.421875 13.25 4.234375 
Q 6.78125 9.90625 6.78125 20.515625 
Q 6.78125 27.484375 10.78125 32.3125 
Q 14.796875 37.15625 21.921875 38.8125 
z
M 18.3125 54.390625 
Q 18.3125 48.734375 21.84375 45.5625 
Q 25.390625 42.390625 31.78125 42.390625 
Q 38.140625 42.390625 41.71875 45.5625 
Q 45.3125 48.734375 45.3125 54.390625 
Q 45.3125 60.0625 41.71875 63.234375 
Q 38.140625 66.40625 31.78125 66.40625 
Q 25.390625 66.40625 21.84375 63.234375 
Q 18.3125 60.0625 18.3125 54.390625 
z
" id="DejaVuSans-56"/>
      </defs>
      <use xlink:href="#DejaVuSans-48"/>
      <use x="63.623047" xlink:href="#DejaVuSans-56"/>
      <use x="127.246094" xlink:href="#DejaVuSans-32"/>
      <use x="159.033203" xlink:href="#DejaVuSans-78"/>
      <use x="233.837891" xlink:href="#DejaVuSans-69"/>
      <use x="297.021484" xlink:href="#DejaVuSans-83"/>
      <use x="360.498047" xlink:href="#DejaVuSans-84"/>
      <use x="421.582031" xlink:href="#DejaVuSans-32"/>
      <use x="453.369141" xlink:href="#DejaVuSans-112"/>
      <use x="516.845703" xlink:href="#DejaVuSans-114"/>
      <use x="555.708984" xlink:href="#DejaVuSans-111"/>
      <use x="616.890625" xlink:href="#DejaVuSans-99"/>
      <use x="671.871094" xlink:href="#DejaVuSans-46"/>
     </g>
    </g>
    <g id="line2d_32">
     <path d="M 375.539063 203.339688 
L 411.539063 203.339688 
" style="fill:none;stroke:#9467bd;stroke-linecap:square;stroke-width:6;"/>
    </g>
    <g id="line2d_33"/>
    <g id="text_18">
     <!-- 16 NEST proc. -->
     <g transform="translate(425.939063 209.639688)scale(0.18 -0.18)">
      <use xlink:href="#DejaVuSans-49"/>
      <use x="63.623047" xlink:href="#DejaVuSans-54"/>
      <use x="127.246094" xlink:href="#DejaVuSans-32"/>
      <use x="159.033203" xlink:href="#DejaVuSans-78"/>
      <use x="233.837891" xlink:href="#DejaVuSans-69"/>
      <use x="297.021484" xlink:href="#DejaVuSans-83"/>
      <use x="360.498047" xlink:href="#DejaVuSans-84"/>
      <use x="421.582031" xlink:href="#DejaVuSans-32"/>
      <use x="453.369141" xlink:href="#DejaVuSans-112"/>
      <use x="516.845703" xlink:href="#DejaVuSans-114"/>
      <use x="555.708984" xlink:href="#DejaVuSans-111"/>
      <use x="616.890625" xlink:href="#DejaVuSans-99"/>
      <use x="671.871094" xlink:href="#DejaVuSans-46"/>
     </g>
    </g>
    <g id="line2d_34">
     <path d="M 375.539063 229.760313 
L 411.539063 229.760313 
" style="fill:none;stroke:#8c564b;stroke-linecap:square;stroke-width:6;"/>
    </g>
    <g id="line2d_35"/>
    <g id="text_19">
     <!-- 32 NEST proc. -->
     <g transform="translate(425.939063 236.060313)scale(0.18 -0.18)">
      <use xlink:href="#DejaVuSans-51"/>
      <use x="63.623047" xlink:href="#DejaVuSans-50"/>
      <use x="127.246094" xlink:href="#DejaVuSans-32"/>
      <use x="159.033203" xlink:href="#DejaVuSans-78"/>
      <use x="233.837891" xlink:href="#DejaVuSans-69"/>
      <use x="297.021484" xlink:href="#DejaVuSans-83"/>
      <use x="360.498047" xlink:href="#DejaVuSans-84"/>
      <use x="421.582031" xlink:href="#DejaVuSans-32"/>
      <use x="453.369141" xlink:href="#DejaVuSans-112"/>
      <use x="516.845703" xlink:href="#DejaVuSans-114"/>
      <use x="555.708984" xlink:href="#DejaVuSans-111"/>
      <use x="616.890625" xlink:href="#DejaVuSans-99"/>
      <use x="671.871094" xlink:href="#DejaVuSans-46"/>
     </g>
    </g>
    <g id="line2d_36">
     <path d="M 375.539063 256.180938 
L 411.539063 256.180938 
" style="fill:none;stroke:#e377c2;stroke-linecap:square;stroke-width:6;"/>
    </g>
    <g id="line2d_37"/>
    <g id="text_20">
     <!-- 64 NEST proc. -->
     <g transform="translate(425.939063 262.480938)scale(0.18 -0.18)">
      <use xlink:href="#DejaVuSans-54"/>
      <use x="63.623047" xlink:href="#DejaVuSans-52"/>
      <use x="127.246094" xlink:href="#DejaVuSans-32"/>
      <use x="159.033203" xlink:href="#DejaVuSans-78"/>
      <use x="233.837891" xlink:href="#DejaVuSans-69"/>
      <use x="297.021484" xlink:href="#DejaVuSans-83"/>
      <use x="360.498047" xlink:href="#DejaVuSans-84"/>
      <use x="421.582031" xlink:href="#DejaVuSans-32"/>
      <use x="453.369141" xlink:href="#DejaVuSans-112"/>
      <use x="516.845703" xlink:href="#DejaVuSans-114"/>
      <use x="555.708984" xlink:href="#DejaVuSans-111"/>
      <use x="616.890625" xlink:href="#DejaVuSans-99"/>
      <use x="671.871094" xlink:href="#DejaVuSans-46"/>
     </g>
    </g>
   </g>
  </g>
  <g id="text_21">
   <!-- CLE time profile -->
   <g transform="translate(168.892969 31.435313)scale(0.3 -0.3)">
    <defs>
     <path d="M 64.40625 67.28125 
L 64.40625 56.890625 
Q 59.421875 61.53125 53.78125 63.8125 
Q 48.140625 66.109375 41.796875 66.109375 
Q 29.296875 66.109375 22.65625 58.46875 
Q 16.015625 50.828125 16.015625 36.375 
Q 16.015625 21.96875 22.65625 14.328125 
Q 29.296875 6.6875 41.796875 6.6875 
Q 48.140625 6.6875 53.78125 8.984375 
Q 59.421875 11.28125 64.40625 15.921875 
L 64.40625 5.609375 
Q 59.234375 2.09375 53.4375 0.328125 
Q 47.65625 -1.421875 41.21875 -1.421875 
Q 24.65625 -1.421875 15.125 8.703125 
Q 5.609375 18.84375 5.609375 36.375 
Q 5.609375 53.953125 15.125 64.078125 
Q 24.65625 74.21875 41.21875 74.21875 
Q 47.75 74.21875 53.53125 72.484375 
Q 59.328125 70.75 64.40625 67.28125 
z
" id="DejaVuSans-67"/>
     <path d="M 9.8125 72.90625 
L 19.671875 72.90625 
L 19.671875 8.296875 
L 55.171875 8.296875 
L 55.171875 0 
L 9.8125 0 
z
" id="DejaVuSans-76"/>
    </defs>
    <use xlink:href="#DejaVuSans-67"/>
    <use x="69.824219" xlink:href="#DejaVuSans-76"/>
    <use x="125.537109" xlink:href="#DejaVuSans-69"/>
    <use x="188.720703" xlink:href="#DejaVuSans-32"/>
    <use x="220.507812" xlink:href="#DejaVuSans-116"/>
    <use x="259.716797" xlink:href="#DejaVuSans-105"/>
    <use x="287.5" xlink:href="#DejaVuSans-109"/>
    <use x="384.912109" xlink:href="#DejaVuSans-101"/>
    <use x="446.435547" xlink:href="#DejaVuSans-32"/>
    <use x="478.222656" xlink:href="#DejaVuSans-112"/>
    <use x="541.699219" xlink:href="#DejaVuSans-114"/>
    <use x="580.5625" xlink:href="#DejaVuSans-111"/>
    <use x="641.744141" xlink:href="#DejaVuSans-102"/>
    <use x="676.949219" xlink:href="#DejaVuSans-105"/>
    <use x="704.732422" xlink:href="#DejaVuSans-108"/>
    <use x="732.515625" xlink:href="#DejaVuSans-101"/>
   </g>
  </g>
 </g>
 <defs>
  <clipPath id="p959c13a485">
   <rect height="301.56" width="478.15" x="90.65" y="74.08"/>
  </clipPath>
 </defs>
</svg>
