<?xml version="1.0" encoding="utf-8" standalone="no"?>
<!DOCTYPE svg PUBLIC "-//W3C//DTD SVG 1.1//EN"
  "http://www.w3.org/Graphics/SVG/1.1/DTD/svg11.dtd">
<!-- Created with matplotlib (https://matplotlib.org/) -->
<svg height="432pt" version="1.1" viewBox="0 0 576 432" width="576pt" xmlns="http://www.w3.org/2000/svg" xmlns:xlink="http://www.w3.org/1999/xlink">
 <metadata>
  <rdf:RDF xmlns:cc="http://creativecommons.org/ns#" xmlns:dc="http://purl.org/dc/elements/1.1/" xmlns:rdf="http://www.w3.org/1999/02/22-rdf-syntax-ns#">
   <cc:Work>
    <dc:type rdf:resource="http://purl.org/dc/dcmitype/StillImage"/>
    <dc:date>2022-04-11T20:24:40.262091</dc:date>
    <dc:format>image/svg+xml</dc:format>
    <dc:creator>
     <cc:Agent>
      <dc:title>Matplotlib v3.3.4, https://matplotlib.org/</dc:title>
     </cc:Agent>
    </dc:creator>
   </cc:Work>
  </rdf:RDF>
 </metadata>
 <defs>
  <style type="text/css">*{stroke-linecap:butt;stroke-linejoin:round;}</style>
 </defs>
 <g id="figure_1">
  <g id="patch_1">
   <path d="M 0 432 
L 576 432 
L 576 0 
L 0 0 
z
" style="fill:#ffffff;"/>
  </g>
  <g id="axes_1">
   <g id="patch_2">
    <path d="M 50.6 375.64 
L 568.8 375.64 
L 568.8 74.08 
L 50.6 74.08 
z
" style="fill:#ffffff;"/>
   </g>
   <g id="matplotlib.axis_1">
    <g id="xtick_1">
     <g id="line2d_1">
      <defs>
       <path d="M 0 0 
L 0 3.5 
" id="macf45e5169" style="stroke:#666666;stroke-width:0.8;"/>
      </defs>
      <g>
       <use style="fill:#666666;stroke:#666666;stroke-width:0.8;" x="74.154545" xlink:href="#macf45e5169" y="375.64"/>
      </g>
     </g>
     <g id="text_1">
      <!-- 0 -->
      <g style="fill:#666666;" transform="translate(68.428295 396.317187)scale(0.18 -0.18)">
       <defs>
        <path d="M 31.78125 66.40625 
Q 24.171875 66.40625 20.328125 58.90625 
Q 16.5 51.421875 16.5 36.375 
Q 16.5 21.390625 20.328125 13.890625 
Q 24.171875 6.390625 31.78125 6.390625 
Q 39.453125 6.390625 43.28125 13.890625 
Q 47.125 21.390625 47.125 36.375 
Q 47.125 51.421875 43.28125 58.90625 
Q 39.453125 66.40625 31.78125 66.40625 
z
M 31.78125 74.21875 
Q 44.046875 74.21875 50.515625 64.515625 
Q 56.984375 54.828125 56.984375 36.375 
Q 56.984375 17.96875 50.515625 8.265625 
Q 44.046875 -1.421875 31.78125 -1.421875 
Q 19.53125 -1.421875 13.0625 8.265625 
Q 6.59375 17.96875 6.59375 36.375 
Q 6.59375 54.828125 13.0625 64.515625 
Q 19.53125 74.21875 31.78125 74.21875 
z
" id="DejaVuSans-48"/>
       </defs>
       <use xlink:href="#DejaVuSans-48"/>
      </g>
     </g>
    </g>
    <g id="xtick_2">
     <g id="line2d_2">
      <g>
       <use style="fill:#666666;stroke:#666666;stroke-width:0.8;" x="170.295547" xlink:href="#macf45e5169" y="375.64"/>
      </g>
     </g>
     <g id="text_2">
      <!-- 10 -->
      <g style="fill:#666666;" transform="translate(158.843047 396.317187)scale(0.18 -0.18)">
       <defs>
        <path d="M 12.40625 8.296875 
L 28.515625 8.296875 
L 28.515625 63.921875 
L 10.984375 60.40625 
L 10.984375 69.390625 
L 28.421875 72.90625 
L 38.28125 72.90625 
L 38.28125 8.296875 
L 54.390625 8.296875 
L 54.390625 0 
L 12.40625 0 
z
" id="DejaVuSans-49"/>
       </defs>
       <use xlink:href="#DejaVuSans-49"/>
       <use x="63.623047" xlink:href="#DejaVuSans-48"/>
      </g>
     </g>
    </g>
    <g id="xtick_3">
     <g id="line2d_3">
      <g>
       <use style="fill:#666666;stroke:#666666;stroke-width:0.8;" x="266.436549" xlink:href="#macf45e5169" y="375.64"/>
      </g>
     </g>
     <g id="text_3">
      <!-- 20 -->
      <g style="fill:#666666;" transform="translate(254.984049 396.317187)scale(0.18 -0.18)">
       <defs>
        <path d="M 19.1875 8.296875 
L 53.609375 8.296875 
L 53.609375 0 
L 7.328125 0 
L 7.328125 8.296875 
Q 12.9375 14.109375 22.625 23.890625 
Q 32.328125 33.6875 34.8125 36.53125 
Q 39.546875 41.84375 41.421875 45.53125 
Q 43.3125 49.21875 43.3125 52.78125 
Q 43.3125 58.59375 39.234375 62.25 
Q 35.15625 65.921875 28.609375 65.921875 
Q 23.96875 65.921875 18.8125 64.3125 
Q 13.671875 62.703125 7.8125 59.421875 
L 7.8125 69.390625 
Q 13.765625 71.78125 18.9375 73 
Q 24.125 74.21875 28.421875 74.21875 
Q 39.75 74.21875 46.484375 68.546875 
Q 53.21875 62.890625 53.21875 53.421875 
Q 53.21875 48.921875 51.53125 44.890625 
Q 49.859375 40.875 45.40625 35.40625 
Q 44.1875 33.984375 37.640625 27.21875 
Q 31.109375 20.453125 19.1875 8.296875 
z
" id="DejaVuSans-50"/>
       </defs>
       <use xlink:href="#DejaVuSans-50"/>
       <use x="63.623047" xlink:href="#DejaVuSans-48"/>
      </g>
     </g>
    </g>
    <g id="xtick_4">
     <g id="line2d_4">
      <g>
       <use style="fill:#666666;stroke:#666666;stroke-width:0.8;" x="362.577551" xlink:href="#macf45e5169" y="375.64"/>
      </g>
     </g>
     <g id="text_4">
      <!-- 30 -->
      <g style="fill:#666666;" transform="translate(351.125051 396.317187)scale(0.18 -0.18)">
       <defs>
        <path d="M 40.578125 39.3125 
Q 47.65625 37.796875 51.625 33 
Q 55.609375 28.21875 55.609375 21.1875 
Q 55.609375 10.40625 48.1875 4.484375 
Q 40.765625 -1.421875 27.09375 -1.421875 
Q 22.515625 -1.421875 17.65625 -0.515625 
Q 12.796875 0.390625 7.625 2.203125 
L 7.625 11.71875 
Q 11.71875 9.328125 16.59375 8.109375 
Q 21.484375 6.890625 26.8125 6.890625 
Q 36.078125 6.890625 40.9375 10.546875 
Q 45.796875 14.203125 45.796875 21.1875 
Q 45.796875 27.640625 41.28125 31.265625 
Q 36.765625 34.90625 28.71875 34.90625 
L 20.21875 34.90625 
L 20.21875 43.015625 
L 29.109375 43.015625 
Q 36.375 43.015625 40.234375 45.921875 
Q 44.09375 48.828125 44.09375 54.296875 
Q 44.09375 59.90625 40.109375 62.90625 
Q 36.140625 65.921875 28.71875 65.921875 
Q 24.65625 65.921875 20.015625 65.03125 
Q 15.375 64.15625 9.8125 62.3125 
L 9.8125 71.09375 
Q 15.4375 72.65625 20.34375 73.4375 
Q 25.25 74.21875 29.59375 74.21875 
Q 40.828125 74.21875 47.359375 69.109375 
Q 53.90625 64.015625 53.90625 55.328125 
Q 53.90625 49.265625 50.4375 45.09375 
Q 46.96875 40.921875 40.578125 39.3125 
z
" id="DejaVuSans-51"/>
       </defs>
       <use xlink:href="#DejaVuSans-51"/>
       <use x="63.623047" xlink:href="#DejaVuSans-48"/>
      </g>
     </g>
    </g>
    <g id="xtick_5">
     <g id="line2d_5">
      <g>
       <use style="fill:#666666;stroke:#666666;stroke-width:0.8;" x="458.718553" xlink:href="#macf45e5169" y="375.64"/>
      </g>
     </g>
     <g id="text_5">
      <!-- 40 -->
      <g style="fill:#666666;" transform="translate(447.266053 396.317187)scale(0.18 -0.18)">
       <defs>
        <path d="M 37.796875 64.3125 
L 12.890625 25.390625 
L 37.796875 25.390625 
z
M 35.203125 72.90625 
L 47.609375 72.90625 
L 47.609375 25.390625 
L 58.015625 25.390625 
L 58.015625 17.1875 
L 47.609375 17.1875 
L 47.609375 0 
L 37.796875 0 
L 37.796875 17.1875 
L 4.890625 17.1875 
L 4.890625 26.703125 
z
" id="DejaVuSans-52"/>
       </defs>
       <use xlink:href="#DejaVuSans-52"/>
       <use x="63.623047" xlink:href="#DejaVuSans-48"/>
      </g>
     </g>
    </g>
    <g id="xtick_6">
     <g id="line2d_6">
      <g>
       <use style="fill:#666666;stroke:#666666;stroke-width:0.8;" x="554.859555" xlink:href="#macf45e5169" y="375.64"/>
      </g>
     </g>
     <g id="text_6">
      <!-- 50 -->
      <g style="fill:#666666;" transform="translate(543.407055 396.317187)scale(0.18 -0.18)">
       <defs>
        <path d="M 10.796875 72.90625 
L 49.515625 72.90625 
L 49.515625 64.59375 
L 19.828125 64.59375 
L 19.828125 46.734375 
Q 21.96875 47.46875 24.109375 47.828125 
Q 26.265625 48.1875 28.421875 48.1875 
Q 40.625 48.1875 47.75 41.5 
Q 54.890625 34.8125 54.890625 23.390625 
Q 54.890625 11.625 47.5625 5.09375 
Q 40.234375 -1.421875 26.90625 -1.421875 
Q 22.3125 -1.421875 17.546875 -0.640625 
Q 12.796875 0.140625 7.71875 1.703125 
L 7.71875 11.625 
Q 12.109375 9.234375 16.796875 8.0625 
Q 21.484375 6.890625 26.703125 6.890625 
Q 35.15625 6.890625 40.078125 11.328125 
Q 45.015625 15.765625 45.015625 23.390625 
Q 45.015625 31 40.078125 35.4375 
Q 35.15625 39.890625 26.703125 39.890625 
Q 22.75 39.890625 18.8125 39.015625 
Q 14.890625 38.140625 10.796875 36.28125 
z
" id="DejaVuSans-53"/>
       </defs>
       <use xlink:href="#DejaVuSans-53"/>
       <use x="63.623047" xlink:href="#DejaVuSans-48"/>
      </g>
     </g>
    </g>
    <g id="text_7">
     <!-- cle step -->
     <g style="fill:#666666;" transform="translate(266.537031 420.777187)scale(0.22 -0.22)">
      <defs>
       <path d="M 48.78125 52.59375 
L 48.78125 44.1875 
Q 44.96875 46.296875 41.140625 47.34375 
Q 37.3125 48.390625 33.40625 48.390625 
Q 24.65625 48.390625 19.8125 42.84375 
Q 14.984375 37.3125 14.984375 27.296875 
Q 14.984375 17.28125 19.8125 11.734375 
Q 24.65625 6.203125 33.40625 6.203125 
Q 37.3125 6.203125 41.140625 7.25 
Q 44.96875 8.296875 48.78125 10.40625 
L 48.78125 2.09375 
Q 45.015625 0.34375 40.984375 -0.53125 
Q 36.96875 -1.421875 32.421875 -1.421875 
Q 20.0625 -1.421875 12.78125 6.34375 
Q 5.515625 14.109375 5.515625 27.296875 
Q 5.515625 40.671875 12.859375 48.328125 
Q 20.21875 56 33.015625 56 
Q 37.15625 56 41.109375 55.140625 
Q 45.0625 54.296875 48.78125 52.59375 
z
" id="DejaVuSans-99"/>
       <path d="M 9.421875 75.984375 
L 18.40625 75.984375 
L 18.40625 0 
L 9.421875 0 
z
" id="DejaVuSans-108"/>
       <path d="M 56.203125 29.59375 
L 56.203125 25.203125 
L 14.890625 25.203125 
Q 15.484375 15.921875 20.484375 11.0625 
Q 25.484375 6.203125 34.421875 6.203125 
Q 39.59375 6.203125 44.453125 7.46875 
Q 49.3125 8.734375 54.109375 11.28125 
L 54.109375 2.78125 
Q 49.265625 0.734375 44.1875 -0.34375 
Q 39.109375 -1.421875 33.890625 -1.421875 
Q 20.796875 -1.421875 13.15625 6.1875 
Q 5.515625 13.8125 5.515625 26.8125 
Q 5.515625 40.234375 12.765625 48.109375 
Q 20.015625 56 32.328125 56 
Q 43.359375 56 49.78125 48.890625 
Q 56.203125 41.796875 56.203125 29.59375 
z
M 47.21875 32.234375 
Q 47.125 39.59375 43.09375 43.984375 
Q 39.0625 48.390625 32.421875 48.390625 
Q 24.90625 48.390625 20.390625 44.140625 
Q 15.875 39.890625 15.1875 32.171875 
z
" id="DejaVuSans-101"/>
       <path id="DejaVuSans-32"/>
       <path d="M 44.28125 53.078125 
L 44.28125 44.578125 
Q 40.484375 46.53125 36.375 47.5 
Q 32.28125 48.484375 27.875 48.484375 
Q 21.1875 48.484375 17.84375 46.4375 
Q 14.5 44.390625 14.5 40.28125 
Q 14.5 37.15625 16.890625 35.375 
Q 19.28125 33.59375 26.515625 31.984375 
L 29.59375 31.296875 
Q 39.15625 29.25 43.1875 25.515625 
Q 47.21875 21.78125 47.21875 15.09375 
Q 47.21875 7.46875 41.1875 3.015625 
Q 35.15625 -1.421875 24.609375 -1.421875 
Q 20.21875 -1.421875 15.453125 -0.5625 
Q 10.6875 0.296875 5.421875 2 
L 5.421875 11.28125 
Q 10.40625 8.6875 15.234375 7.390625 
Q 20.0625 6.109375 24.8125 6.109375 
Q 31.15625 6.109375 34.5625 8.28125 
Q 37.984375 10.453125 37.984375 14.40625 
Q 37.984375 18.0625 35.515625 20.015625 
Q 33.0625 21.96875 24.703125 23.78125 
L 21.578125 24.515625 
Q 13.234375 26.265625 9.515625 29.90625 
Q 5.8125 33.546875 5.8125 39.890625 
Q 5.8125 47.609375 11.28125 51.796875 
Q 16.75 56 26.8125 56 
Q 31.78125 56 36.171875 55.265625 
Q 40.578125 54.546875 44.28125 53.078125 
z
" id="DejaVuSans-115"/>
       <path d="M 18.3125 70.21875 
L 18.3125 54.6875 
L 36.8125 54.6875 
L 36.8125 47.703125 
L 18.3125 47.703125 
L 18.3125 18.015625 
Q 18.3125 11.328125 20.140625 9.421875 
Q 21.96875 7.515625 27.59375 7.515625 
L 36.8125 7.515625 
L 36.8125 0 
L 27.59375 0 
Q 17.1875 0 13.234375 3.875 
Q 9.28125 7.765625 9.28125 18.015625 
L 9.28125 47.703125 
L 2.6875 47.703125 
L 2.6875 54.6875 
L 9.28125 54.6875 
L 9.28125 70.21875 
z
" id="DejaVuSans-116"/>
       <path d="M 18.109375 8.203125 
L 18.109375 -20.796875 
L 9.078125 -20.796875 
L 9.078125 54.6875 
L 18.109375 54.6875 
L 18.109375 46.390625 
Q 20.953125 51.265625 25.265625 53.625 
Q 29.59375 56 35.59375 56 
Q 45.5625 56 51.78125 48.09375 
Q 58.015625 40.1875 58.015625 27.296875 
Q 58.015625 14.40625 51.78125 6.484375 
Q 45.5625 -1.421875 35.59375 -1.421875 
Q 29.59375 -1.421875 25.265625 0.953125 
Q 20.953125 3.328125 18.109375 8.203125 
z
M 48.6875 27.296875 
Q 48.6875 37.203125 44.609375 42.84375 
Q 40.53125 48.484375 33.40625 48.484375 
Q 26.265625 48.484375 22.1875 42.84375 
Q 18.109375 37.203125 18.109375 27.296875 
Q 18.109375 17.390625 22.1875 11.75 
Q 26.265625 6.109375 33.40625 6.109375 
Q 40.53125 6.109375 44.609375 11.75 
Q 48.6875 17.390625 48.6875 27.296875 
z
" id="DejaVuSans-112"/>
      </defs>
      <use xlink:href="#DejaVuSans-99"/>
      <use x="54.980469" xlink:href="#DejaVuSans-108"/>
      <use x="82.763672" xlink:href="#DejaVuSans-101"/>
      <use x="144.287109" xlink:href="#DejaVuSans-32"/>
      <use x="176.074219" xlink:href="#DejaVuSans-115"/>
      <use x="228.173828" xlink:href="#DejaVuSans-116"/>
      <use x="267.382812" xlink:href="#DejaVuSans-101"/>
      <use x="328.90625" xlink:href="#DejaVuSans-112"/>
     </g>
    </g>
   </g>
   <g id="matplotlib.axis_2">
    <g id="ytick_1">
     <g id="line2d_7">
      <path clip-path="url(#pfe3710634b)" d="M 50.6 375.64 
L 568.8 375.64 
" style="fill:none;stroke:#000000;stroke-dasharray:0.8,1.32;stroke-dashoffset:0;stroke-width:0.8;"/>
     </g>
     <g id="line2d_8">
      <defs>
       <path d="M 0 0 
L -3.5 0 
" id="m759f6e7df6" style="stroke:#666666;stroke-width:0.8;"/>
      </defs>
      <g>
       <use style="fill:#666666;stroke:#666666;stroke-width:0.8;" x="50.6" xlink:href="#m759f6e7df6" y="375.64"/>
      </g>
     </g>
     <g id="text_8">
      <!-- 0 -->
      <g style="fill:#666666;" transform="translate(32.1475 382.478594)scale(0.18 -0.18)">
       <use xlink:href="#DejaVuSans-48"/>
      </g>
     </g>
    </g>
    <g id="ytick_2">
     <g id="line2d_9">
      <path clip-path="url(#pfe3710634b)" d="M 50.6 310.620687 
L 568.8 310.620687 
" style="fill:none;stroke:#000000;stroke-dasharray:0.8,1.32;stroke-dashoffset:0;stroke-width:0.8;"/>
     </g>
     <g id="line2d_10">
      <g>
       <use style="fill:#666666;stroke:#666666;stroke-width:0.8;" x="50.6" xlink:href="#m759f6e7df6" y="310.620687"/>
      </g>
     </g>
     <g id="text_9">
      <!-- 1 -->
      <g style="fill:#666666;" transform="translate(32.1475 317.459281)scale(0.18 -0.18)">
       <use xlink:href="#DejaVuSans-49"/>
      </g>
     </g>
    </g>
    <g id="ytick_3">
     <g id="line2d_11">
      <path clip-path="url(#pfe3710634b)" d="M 50.6 245.601375 
L 568.8 245.601375 
" style="fill:none;stroke:#000000;stroke-dasharray:0.8,1.32;stroke-dashoffset:0;stroke-width:0.8;"/>
     </g>
     <g id="line2d_12">
      <g>
       <use style="fill:#666666;stroke:#666666;stroke-width:0.8;" x="50.6" xlink:href="#m759f6e7df6" y="245.601375"/>
      </g>
     </g>
     <g id="text_10">
      <!-- 2 -->
      <g style="fill:#666666;" transform="translate(32.1475 252.439969)scale(0.18 -0.18)">
       <use xlink:href="#DejaVuSans-50"/>
      </g>
     </g>
    </g>
    <g id="ytick_4">
     <g id="line2d_13">
      <path clip-path="url(#pfe3710634b)" d="M 50.6 180.582062 
L 568.8 180.582062 
" style="fill:none;stroke:#000000;stroke-dasharray:0.8,1.32;stroke-dashoffset:0;stroke-width:0.8;"/>
     </g>
     <g id="line2d_14">
      <g>
       <use style="fill:#666666;stroke:#666666;stroke-width:0.8;" x="50.6" xlink:href="#m759f6e7df6" y="180.582062"/>
      </g>
     </g>
     <g id="text_11">
      <!-- 3 -->
      <g style="fill:#666666;" transform="translate(32.1475 187.420656)scale(0.18 -0.18)">
       <use xlink:href="#DejaVuSans-51"/>
      </g>
     </g>
    </g>
    <g id="ytick_5">
     <g id="line2d_15">
      <path clip-path="url(#pfe3710634b)" d="M 50.6 115.56275 
L 568.8 115.56275 
" style="fill:none;stroke:#000000;stroke-dasharray:0.8,1.32;stroke-dashoffset:0;stroke-width:0.8;"/>
     </g>
     <g id="line2d_16">
      <g>
       <use style="fill:#666666;stroke:#666666;stroke-width:0.8;" x="50.6" xlink:href="#m759f6e7df6" y="115.56275"/>
      </g>
     </g>
     <g id="text_12">
      <!-- 4 -->
      <g style="fill:#666666;" transform="translate(32.1475 122.401344)scale(0.18 -0.18)">
       <use xlink:href="#DejaVuSans-52"/>
      </g>
     </g>
    </g>
    <g id="text_13">
     <!-- time (s) -->
     <g style="fill:#666666;" transform="translate(23.572187 267.521094)rotate(-90)scale(0.22 -0.22)">
      <defs>
       <path d="M 9.421875 54.6875 
L 18.40625 54.6875 
L 18.40625 0 
L 9.421875 0 
z
M 9.421875 75.984375 
L 18.40625 75.984375 
L 18.40625 64.59375 
L 9.421875 64.59375 
z
" id="DejaVuSans-105"/>
       <path d="M 52 44.1875 
Q 55.375 50.25 60.0625 53.125 
Q 64.75 56 71.09375 56 
Q 79.640625 56 84.28125 50.015625 
Q 88.921875 44.046875 88.921875 33.015625 
L 88.921875 0 
L 79.890625 0 
L 79.890625 32.71875 
Q 79.890625 40.578125 77.09375 44.375 
Q 74.3125 48.1875 68.609375 48.1875 
Q 61.625 48.1875 57.5625 43.546875 
Q 53.515625 38.921875 53.515625 30.90625 
L 53.515625 0 
L 44.484375 0 
L 44.484375 32.71875 
Q 44.484375 40.625 41.703125 44.40625 
Q 38.921875 48.1875 33.109375 48.1875 
Q 26.21875 48.1875 22.15625 43.53125 
Q 18.109375 38.875 18.109375 30.90625 
L 18.109375 0 
L 9.078125 0 
L 9.078125 54.6875 
L 18.109375 54.6875 
L 18.109375 46.1875 
Q 21.1875 51.21875 25.484375 53.609375 
Q 29.78125 56 35.6875 56 
Q 41.65625 56 45.828125 52.96875 
Q 50 49.953125 52 44.1875 
z
" id="DejaVuSans-109"/>
       <path d="M 31 75.875 
Q 24.46875 64.65625 21.28125 53.65625 
Q 18.109375 42.671875 18.109375 31.390625 
Q 18.109375 20.125 21.3125 9.0625 
Q 24.515625 -2 31 -13.1875 
L 23.1875 -13.1875 
Q 15.875 -1.703125 12.234375 9.375 
Q 8.59375 20.453125 8.59375 31.390625 
Q 8.59375 42.28125 12.203125 53.3125 
Q 15.828125 64.359375 23.1875 75.875 
z
" id="DejaVuSans-40"/>
       <path d="M 8.015625 75.875 
L 15.828125 75.875 
Q 23.140625 64.359375 26.78125 53.3125 
Q 30.421875 42.28125 30.421875 31.390625 
Q 30.421875 20.453125 26.78125 9.375 
Q 23.140625 -1.703125 15.828125 -13.1875 
L 8.015625 -13.1875 
Q 14.5 -2 17.703125 9.0625 
Q 20.90625 20.125 20.90625 31.390625 
Q 20.90625 42.671875 17.703125 53.65625 
Q 14.5 64.65625 8.015625 75.875 
z
" id="DejaVuSans-41"/>
      </defs>
      <use xlink:href="#DejaVuSans-116"/>
      <use x="39.208984" xlink:href="#DejaVuSans-105"/>
      <use x="66.992188" xlink:href="#DejaVuSans-109"/>
      <use x="164.404297" xlink:href="#DejaVuSans-101"/>
      <use x="225.927734" xlink:href="#DejaVuSans-32"/>
      <use x="257.714844" xlink:href="#DejaVuSans-40"/>
      <use x="296.728516" xlink:href="#DejaVuSans-115"/>
      <use x="348.828125" xlink:href="#DejaVuSans-41"/>
     </g>
    </g>
   </g>
   <g id="line2d_17">
    <path clip-path="url(#pfe3710634b)" d="M 83.530507 -1 
L 83.768646 196.664712 
L 93.382746 195.770211 
L 102.996846 193.945307 
L 112.610946 195.372186 
L 122.225046 193.969598 
L 131.839147 193.444273 
L 141.453247 193.237137 
L 151.067347 193.255135 
L 160.681447 193.616157 
L 170.295547 193.190198 
L 179.909647 192.282427 
L 189.523748 191.690956 
L 199.137848 189.860347 
L 208.751948 189.366443 
L 218.366048 188.35388 
L 227.980148 189.50258 
L 237.594249 189.353809 
L 247.208349 188.064477 
L 256.822449 188.884585 
L 266.436549 188.232641 
L 276.050649 188.529485 
L 285.66475 188.433761 
L 295.27885 188.492002 
L 304.89295 188.126624 
L 314.50705 187.754193 
L 324.12115 188.31663 
L 333.73525 187.712446 
L 343.349351 187.934541 
L 352.963451 188.015119 
L 362.577551 187.796358 
L 372.191651 188.808068 
L 381.805751 188.935663 
L 391.419852 188.672272 
L 401.033952 188.421546 
L 410.648052 187.900483 
L 420.262152 187.165 
L 429.876252 188.124268 
L 439.490353 187.710602 
L 449.104453 188.131941 
L 458.718553 187.514845 
L 468.332653 187.645618 
L 477.946753 187.921085 
L 487.560853 188.731288 
L 497.174954 188.278588 
L 506.789054 188.568658 
L 516.403154 188.895405 
L 526.017254 188.374792 
L 535.631354 189.085752 
L 545.245455 188.525393 
" style="fill:none;stroke:#1f77b4;stroke-linecap:square;stroke-width:6;"/>
   </g>
   <g id="line2d_18">
    <path clip-path="url(#pfe3710634b)" d="M 83.360452 -1 
L 83.768646 281.599373 
L 93.382746 281.903999 
L 102.996846 281.485838 
L 112.610946 281.08448 
L 122.225046 280.32576 
L 131.839147 280.092085 
L 141.453247 280.319869 
L 151.067347 279.793071 
L 160.681447 265.030122 
L 170.295547 279.781181 
L 179.909647 279.618644 
L 189.523748 279.400534 
L 199.137848 278.301518 
L 208.751948 277.682453 
L 218.366048 277.378416 
L 227.980148 277.979173 
L 237.594249 278.906104 
L 247.208349 278.276079 
L 256.822449 278.591479 
L 266.436549 278.797002 
L 276.050649 278.293038 
L 285.66475 278.694147 
L 295.27885 278.503398 
L 304.89295 278.270886 
L 314.50705 278.272111 
L 324.12115 278.491539 
L 333.73525 277.965299 
L 343.349351 277.769247 
L 352.963451 268.055967 
L 362.577551 277.896021 
L 372.191651 277.903726 
L 381.805751 277.43678 
L 391.419852 277.736213 
L 401.033952 278.159257 
L 410.648052 277.703287 
L 420.262152 278.058713 
L 429.876252 278.285256 
L 439.490353 276.85771 
L 449.104453 278.29944 
L 458.718553 278.378437 
L 468.332653 278.361556 
L 477.946753 277.065915 
L 487.560853 278.015122 
L 497.174954 278.558476 
L 506.789054 278.437081 
L 516.403154 278.306354 
L 526.017254 278.55198 
L 535.631354 263.535359 
L 545.245455 278.523891 
" style="fill:none;stroke:#ff7f0e;stroke-linecap:square;stroke-width:6;"/>
   </g>
   <g id="line2d_19">
    <path clip-path="url(#pfe3710634b)" d="M 83.156114 -1 
L 83.768646 319.72067 
L 93.382746 320.192731 
L 102.996846 320.244631 
L 112.610946 318.190579 
L 122.225046 320.420437 
L 131.839147 320.237283 
L 141.453247 320.258877 
L 151.067347 319.016872 
L 160.681447 318.591456 
L 170.295547 318.847639 
L 179.909647 319.332287 
L 189.523748 319.624683 
L 199.137848 318.846585 
L 208.751948 319.250655 
L 218.366048 318.909863 
L 227.980148 317.884139 
L 237.594249 319.008951 
L 247.208349 318.5383 
L 256.822449 319.608824 
L 266.436549 319.10562 
L 276.050649 319.024995 
L 285.66475 319.032963 
L 295.27885 318.576295 
L 304.89295 319.218365 
L 314.50705 318.814651 
L 324.12115 318.831517 
L 333.73525 318.816666 
L 343.349351 308.066113 
L 352.963451 318.488105 
L 362.577551 318.848181 
L 372.191651 318.614197 
L 381.805751 318.883401 
L 391.419852 318.854568 
L 401.033952 318.575783 
L 410.648052 318.704681 
L 420.262152 318.440437 
L 429.876252 318.710339 
L 439.490353 318.863869 
L 449.104453 318.580961 
L 458.718553 319.236517 
L 468.332653 318.71192 
L 477.946753 319.139693 
L 487.560853 318.835718 
L 497.174954 318.739111 
L 506.789054 318.574342 
L 516.403154 318.760022 
L 526.017254 318.416688 
L 535.631354 317.982421 
L 545.245455 318.103056 
" style="fill:none;stroke:#2ca02c;stroke-linecap:square;stroke-width:6;"/>
   </g>
   <g id="line2d_20">
    <path clip-path="url(#pfe3710634b)" d="M 82.679055 -1 
L 83.768646 337.331302 
L 93.382746 338.231198 
L 102.996846 338.676735 
L 112.610946 340.556857 
L 122.225046 331.352098 
L 131.839147 338.205372 
L 141.453247 339.734532 
L 151.067347 339.649753 
L 160.681447 339.617959 
L 170.295547 340.069619 
L 179.909647 339.561346 
L 189.523748 339.217237 
L 199.137848 339.527893 
L 208.751948 339.13038 
L 218.366048 338.054942 
L 227.980148 339.777581 
L 237.594249 339.889194 
L 247.208349 339.584351 
L 256.822449 339.366101 
L 266.436549 340.390584 
L 276.050649 338.984043 
L 285.66475 339.781828 
L 295.27885 339.327966 
L 304.89295 339.716488 
L 314.50705 339.54817 
L 324.12115 339.269819 
L 333.73525 339.489821 
L 343.349351 339.019449 
L 352.963451 339.223624 
L 362.577551 339.383556 
L 372.191651 339.811669 
L 381.805751 339.493588 
L 391.419852 339.547611 
L 401.033952 338.974695 
L 410.648052 338.793572 
L 420.262152 338.311652 
L 429.876252 338.860928 
L 439.490353 337.843544 
L 449.104453 339.351002 
L 458.718553 339.055599 
L 468.332653 339.314387 
L 477.946753 339.167631 
L 487.560853 339.397228 
L 497.174954 339.000273 
L 506.789054 338.806919 
L 516.403154 339.103965 
L 526.017254 339.19293 
L 535.631354 339.193581 
L 545.245455 340.357426 
" style="fill:none;stroke:#d62728;stroke-linecap:square;stroke-width:6;"/>
   </g>
   <g id="line2d_21">
    <path clip-path="url(#pfe3710634b)" d="M 82.105061 -1 
L 83.768646 346.202632 
L 93.382746 344.061011 
L 102.996846 347.463813 
L 112.610946 347.729483 
L 122.225046 347.947299 
L 131.839147 347.218652 
L 141.453247 347.810403 
L 151.067347 348.075887 
L 160.681447 348.202924 
L 170.295547 348.01729 
L 179.909647 347.17441 
L 189.523748 347.774609 
L 199.137848 348.536942 
L 208.751948 348.293749 
L 218.366048 347.923163 
L 227.980148 347.096296 
L 237.594249 347.054876 
L 247.208349 348.068725 
L 256.822449 346.84633 
L 266.436549 347.833609 
L 276.050649 348.670443 
L 285.66475 348.329605 
L 295.27885 347.73866 
L 304.89295 348.422678 
L 314.50705 349.068995 
L 324.12115 348.078166 
L 333.73525 347.86052 
L 343.349351 348.177718 
L 352.963451 348.680783 
L 362.577551 348.437064 
L 372.191651 348.923836 
L 381.805751 346.867877 
L 391.419852 347.978768 
L 401.033952 349.154053 
L 410.648052 346.939775 
L 420.262152 348.297299 
L 429.876252 348.089218 
L 439.490353 348.060463 
L 449.104453 347.719314 
L 458.718553 347.734987 
L 468.332653 347.620506 
L 477.946753 347.328234 
L 487.560853 347.779384 
L 497.174954 348.592717 
L 506.789054 347.514411 
L 516.403154 348.011709 
L 526.017254 347.680327 
L 535.631354 347.675274 
L 545.245455 347.794141 
" style="fill:none;stroke:#9467bd;stroke-linecap:square;stroke-width:6;"/>
   </g>
   <g id="line2d_22">
    <path clip-path="url(#pfe3710634b)" d="M 81.340872 -1 
L 83.768646 350.32506 
L 93.382746 351.694335 
L 102.996846 352.324484 
L 112.610946 346.866218 
L 122.225046 350.93425 
L 131.839147 351.397801 
L 141.453247 352.949455 
L 151.067347 353.687868 
L 160.681447 352.846725 
L 170.295547 353.489941 
L 179.909647 352.465581 
L 189.523748 352.51404 
L 199.137848 353.268188 
L 208.751948 353.574008 
L 218.366048 353.818735 
L 227.980148 353.005634 
L 237.594249 352.252354 
L 247.208349 351.81914 
L 256.822449 353.48712 
L 266.436549 352.920234 
L 276.050649 352.755946 
L 285.66475 352.777307 
L 295.27885 351.882837 
L 304.89295 352.492245 
L 314.50705 351.389182 
L 324.12115 351.942225 
L 333.73525 350.782255 
L 343.349351 352.243084 
L 352.963451 352.498507 
L 362.577551 352.024446 
L 372.191651 351.161848 
L 381.805751 351.698505 
L 391.419852 352.222777 
L 401.033952 351.094555 
L 410.648052 350.631888 
L 420.262152 352.954772 
L 429.876252 351.984684 
L 439.490353 350.525406 
L 449.104453 352.746769 
L 458.718553 352.294007 
L 468.332653 351.993675 
L 477.946753 351.905455 
L 487.560853 353.018764 
L 497.174954 352.196114 
L 506.789054 353.569233 
L 516.403154 352.027035 
L 526.017254 352.42723 
L 535.631354 352.086655 
L 545.245455 353.075051 
" style="fill:none;stroke:#8c564b;stroke-linecap:square;stroke-width:6;"/>
   </g>
   <g id="line2d_23">
    <path clip-path="url(#pfe3710634b)" d="M 80.028095 -1 
L 83.768646 348.775453 
L 93.382746 348.922565 
L 102.996846 350.734138 
L 112.610946 350.24783 
L 122.225046 351.512019 
L 131.839147 351.739461 
L 141.453247 351.354861 
L 151.067347 353.41423 
L 160.681447 350.125164 
L 170.295547 352.729949 
L 179.909647 352.685134 
L 189.523748 351.079828 
L 199.137848 352.823673 
L 208.751948 351.913826 
L 218.366048 353.052449 
L 227.980148 352.294814 
L 237.594249 351.104724 
L 247.208349 352.917847 
L 256.822449 353.468595 
L 266.436549 352.627544 
L 276.050649 352.982598 
L 285.66475 353.062711 
L 295.27885 352.16032 
L 304.89295 351.78902 
L 314.50705 353.370655 
L 324.12115 343.094628 
L 333.73525 352.402381 
L 343.349351 351.397259 
L 352.963451 349.692679 
L 362.577551 352.788608 
L 372.191651 351.515274 
L 381.805751 350.387316 
L 391.419852 353.184168 
L 401.033952 349.459238 
L 410.648052 351.292745 
L 420.262152 353.286588 
L 429.876252 350.753856 
L 439.490353 350.071947 
L 449.104453 351.587636 
L 458.718553 351.109809 
L 468.332653 351.600596 
L 477.946753 351.190805 
L 487.560853 351.308433 
L 497.174954 351.057443 
L 506.789054 351.086773 
L 516.403154 351.570879 
L 526.017254 351.531985 
L 535.631354 351.899827 
L 545.245455 350.422892 
" style="fill:none;stroke:#e377c2;stroke-linecap:square;stroke-width:6;"/>
   </g>
   <g id="line2d_24">
    <path clip-path="url(#pfe3710634b)" d="M 122.225046 375.64 
L 122.225046 74.08 
" style="fill:none;stroke:#000000;stroke-dasharray:5.55,2.4;stroke-dashoffset:0;stroke-width:1.5;"/>
   </g>
   <g id="line2d_25">
    <path clip-path="url(#pfe3710634b)" d="M 314.50705 375.64 
L 314.50705 74.08 
" style="fill:none;stroke:#000000;stroke-dasharray:5.55,2.4;stroke-dashoffset:0;stroke-width:1.5;"/>
   </g>
   <g id="text_14">
    <!-- brain_refresh -->
    <g style="fill:#666666;" transform="translate(227.389453 64.08)scale(0.25 -0.25)">
     <defs>
      <path d="M 48.6875 27.296875 
Q 48.6875 37.203125 44.609375 42.84375 
Q 40.53125 48.484375 33.40625 48.484375 
Q 26.265625 48.484375 22.1875 42.84375 
Q 18.109375 37.203125 18.109375 27.296875 
Q 18.109375 17.390625 22.1875 11.75 
Q 26.265625 6.109375 33.40625 6.109375 
Q 40.53125 6.109375 44.609375 11.75 
Q 48.6875 17.390625 48.6875 27.296875 
z
M 18.109375 46.390625 
Q 20.953125 51.265625 25.265625 53.625 
Q 29.59375 56 35.59375 56 
Q 45.5625 56 51.78125 48.09375 
Q 58.015625 40.1875 58.015625 27.296875 
Q 58.015625 14.40625 51.78125 6.484375 
Q 45.5625 -1.421875 35.59375 -1.421875 
Q 29.59375 -1.421875 25.265625 0.953125 
Q 20.953125 3.328125 18.109375 8.203125 
L 18.109375 0 
L 9.078125 0 
L 9.078125 75.984375 
L 18.109375 75.984375 
z
" id="DejaVuSans-98"/>
      <path d="M 41.109375 46.296875 
Q 39.59375 47.171875 37.8125 47.578125 
Q 36.03125 48 33.890625 48 
Q 26.265625 48 22.1875 43.046875 
Q 18.109375 38.09375 18.109375 28.8125 
L 18.109375 0 
L 9.078125 0 
L 9.078125 54.6875 
L 18.109375 54.6875 
L 18.109375 46.1875 
Q 20.953125 51.171875 25.484375 53.578125 
Q 30.03125 56 36.53125 56 
Q 37.453125 56 38.578125 55.875 
Q 39.703125 55.765625 41.0625 55.515625 
z
" id="DejaVuSans-114"/>
      <path d="M 34.28125 27.484375 
Q 23.390625 27.484375 19.1875 25 
Q 14.984375 22.515625 14.984375 16.5 
Q 14.984375 11.71875 18.140625 8.90625 
Q 21.296875 6.109375 26.703125 6.109375 
Q 34.1875 6.109375 38.703125 11.40625 
Q 43.21875 16.703125 43.21875 25.484375 
L 43.21875 27.484375 
z
M 52.203125 31.203125 
L 52.203125 0 
L 43.21875 0 
L 43.21875 8.296875 
Q 40.140625 3.328125 35.546875 0.953125 
Q 30.953125 -1.421875 24.3125 -1.421875 
Q 15.921875 -1.421875 10.953125 3.296875 
Q 6 8.015625 6 15.921875 
Q 6 25.140625 12.171875 29.828125 
Q 18.359375 34.515625 30.609375 34.515625 
L 43.21875 34.515625 
L 43.21875 35.40625 
Q 43.21875 41.609375 39.140625 45 
Q 35.0625 48.390625 27.6875 48.390625 
Q 23 48.390625 18.546875 47.265625 
Q 14.109375 46.140625 10.015625 43.890625 
L 10.015625 52.203125 
Q 14.9375 54.109375 19.578125 55.046875 
Q 24.21875 56 28.609375 56 
Q 40.484375 56 46.34375 49.84375 
Q 52.203125 43.703125 52.203125 31.203125 
z
" id="DejaVuSans-97"/>
      <path d="M 54.890625 33.015625 
L 54.890625 0 
L 45.90625 0 
L 45.90625 32.71875 
Q 45.90625 40.484375 42.875 44.328125 
Q 39.84375 48.1875 33.796875 48.1875 
Q 26.515625 48.1875 22.3125 43.546875 
Q 18.109375 38.921875 18.109375 30.90625 
L 18.109375 0 
L 9.078125 0 
L 9.078125 54.6875 
L 18.109375 54.6875 
L 18.109375 46.1875 
Q 21.34375 51.125 25.703125 53.5625 
Q 30.078125 56 35.796875 56 
Q 45.21875 56 50.046875 50.171875 
Q 54.890625 44.34375 54.890625 33.015625 
z
" id="DejaVuSans-110"/>
      <path d="M 50.984375 -16.609375 
L 50.984375 -23.578125 
L -0.984375 -23.578125 
L -0.984375 -16.609375 
z
" id="DejaVuSans-95"/>
      <path d="M 37.109375 75.984375 
L 37.109375 68.5 
L 28.515625 68.5 
Q 23.6875 68.5 21.796875 66.546875 
Q 19.921875 64.59375 19.921875 59.515625 
L 19.921875 54.6875 
L 34.71875 54.6875 
L 34.71875 47.703125 
L 19.921875 47.703125 
L 19.921875 0 
L 10.890625 0 
L 10.890625 47.703125 
L 2.296875 47.703125 
L 2.296875 54.6875 
L 10.890625 54.6875 
L 10.890625 58.5 
Q 10.890625 67.625 15.140625 71.796875 
Q 19.390625 75.984375 28.609375 75.984375 
z
" id="DejaVuSans-102"/>
      <path d="M 54.890625 33.015625 
L 54.890625 0 
L 45.90625 0 
L 45.90625 32.71875 
Q 45.90625 40.484375 42.875 44.328125 
Q 39.84375 48.1875 33.796875 48.1875 
Q 26.515625 48.1875 22.3125 43.546875 
Q 18.109375 38.921875 18.109375 30.90625 
L 18.109375 0 
L 9.078125 0 
L 9.078125 75.984375 
L 18.109375 75.984375 
L 18.109375 46.1875 
Q 21.34375 51.125 25.703125 53.5625 
Q 30.078125 56 35.796875 56 
Q 45.21875 56 50.046875 50.171875 
Q 54.890625 44.34375 54.890625 33.015625 
z
" id="DejaVuSans-104"/>
     </defs>
     <use xlink:href="#DejaVuSans-98"/>
     <use x="63.476562" xlink:href="#DejaVuSans-114"/>
     <use x="104.589844" xlink:href="#DejaVuSans-97"/>
     <use x="165.869141" xlink:href="#DejaVuSans-105"/>
     <use x="193.652344" xlink:href="#DejaVuSans-110"/>
     <use x="257.03125" xlink:href="#DejaVuSans-95"/>
     <use x="307.03125" xlink:href="#DejaVuSans-114"/>
     <use x="345.894531" xlink:href="#DejaVuSans-101"/>
     <use x="407.417969" xlink:href="#DejaVuSans-102"/>
     <use x="442.623047" xlink:href="#DejaVuSans-114"/>
     <use x="481.486328" xlink:href="#DejaVuSans-101"/>
     <use x="543.009766" xlink:href="#DejaVuSans-115"/>
     <use x="595.109375" xlink:href="#DejaVuSans-104"/>
    </g>
   </g>
  </g>
  <g id="text_15">
   <!-- CLE time profile -->
   <g transform="translate(168.892969 31.435313)scale(0.3 -0.3)">
    <defs>
     <path d="M 64.40625 67.28125 
L 64.40625 56.890625 
Q 59.421875 61.53125 53.78125 63.8125 
Q 48.140625 66.109375 41.796875 66.109375 
Q 29.296875 66.109375 22.65625 58.46875 
Q 16.015625 50.828125 16.015625 36.375 
Q 16.015625 21.96875 22.65625 14.328125 
Q 29.296875 6.6875 41.796875 6.6875 
Q 48.140625 6.6875 53.78125 8.984375 
Q 59.421875 11.28125 64.40625 15.921875 
L 64.40625 5.609375 
Q 59.234375 2.09375 53.4375 0.328125 
Q 47.65625 -1.421875 41.21875 -1.421875 
Q 24.65625 -1.421875 15.125 8.703125 
Q 5.609375 18.84375 5.609375 36.375 
Q 5.609375 53.953125 15.125 64.078125 
Q 24.65625 74.21875 41.21875 74.21875 
Q 47.75 74.21875 53.53125 72.484375 
Q 59.328125 70.75 64.40625 67.28125 
z
" id="DejaVuSans-67"/>
     <path d="M 9.8125 72.90625 
L 19.671875 72.90625 
L 19.671875 8.296875 
L 55.171875 8.296875 
L 55.171875 0 
L 9.8125 0 
z
" id="DejaVuSans-76"/>
     <path d="M 9.8125 72.90625 
L 55.90625 72.90625 
L 55.90625 64.59375 
L 19.671875 64.59375 
L 19.671875 43.015625 
L 54.390625 43.015625 
L 54.390625 34.71875 
L 19.671875 34.71875 
L 19.671875 8.296875 
L 56.78125 8.296875 
L 56.78125 0 
L 9.8125 0 
z
" id="DejaVuSans-69"/>
     <path d="M 30.609375 48.390625 
Q 23.390625 48.390625 19.1875 42.75 
Q 14.984375 37.109375 14.984375 27.296875 
Q 14.984375 17.484375 19.15625 11.84375 
Q 23.34375 6.203125 30.609375 6.203125 
Q 37.796875 6.203125 41.984375 11.859375 
Q 46.1875 17.53125 46.1875 27.296875 
Q 46.1875 37.015625 41.984375 42.703125 
Q 37.796875 48.390625 30.609375 48.390625 
z
M 30.609375 56 
Q 42.328125 56 49.015625 48.375 
Q 55.71875 40.765625 55.71875 27.296875 
Q 55.71875 13.875 49.015625 6.21875 
Q 42.328125 -1.421875 30.609375 -1.421875 
Q 18.84375 -1.421875 12.171875 6.21875 
Q 5.515625 13.875 5.515625 27.296875 
Q 5.515625 40.765625 12.171875 48.375 
Q 18.84375 56 30.609375 56 
z
" id="DejaVuSans-111"/>
    </defs>
    <use xlink:href="#DejaVuSans-67"/>
    <use x="69.824219" xlink:href="#DejaVuSans-76"/>
    <use x="125.537109" xlink:href="#DejaVuSans-69"/>
    <use x="188.720703" xlink:href="#DejaVuSans-32"/>
    <use x="220.507812" xlink:href="#DejaVuSans-116"/>
    <use x="259.716797" xlink:href="#DejaVuSans-105"/>
    <use x="287.5" xlink:href="#DejaVuSans-109"/>
    <use x="384.912109" xlink:href="#DejaVuSans-101"/>
    <use x="446.435547" xlink:href="#DejaVuSans-32"/>
    <use x="478.222656" xlink:href="#DejaVuSans-112"/>
    <use x="541.699219" xlink:href="#DejaVuSans-114"/>
    <use x="580.5625" xlink:href="#DejaVuSans-111"/>
    <use x="641.744141" xlink:href="#DejaVuSans-102"/>
    <use x="676.949219" xlink:href="#DejaVuSans-105"/>
    <use x="704.732422" xlink:href="#DejaVuSans-108"/>
    <use x="732.515625" xlink:href="#DejaVuSans-101"/>
   </g>
  </g>
 </g>
 <defs>
  <clipPath id="pfe3710634b">
   <rect height="301.56" width="518.2" x="50.6" y="74.08"/>
  </clipPath>
 </defs>
</svg>
