<?xml version="1.0" encoding="utf-8" standalone="no"?>
<!DOCTYPE svg PUBLIC "-//W3C//DTD SVG 1.1//EN"
  "http://www.w3.org/Graphics/SVG/1.1/DTD/svg11.dtd">
<!-- Created with matplotlib (https://matplotlib.org/) -->
<svg height="432pt" version="1.1" viewBox="0 0 576 432" width="576pt" xmlns="http://www.w3.org/2000/svg" xmlns:xlink="http://www.w3.org/1999/xlink">
 <metadata>
  <rdf:RDF xmlns:cc="http://creativecommons.org/ns#" xmlns:dc="http://purl.org/dc/elements/1.1/" xmlns:rdf="http://www.w3.org/1999/02/22-rdf-syntax-ns#">
   <cc:Work>
    <dc:type rdf:resource="http://purl.org/dc/dcmitype/StillImage"/>
    <dc:date>2022-04-11T20:24:38.718102</dc:date>
    <dc:format>image/svg+xml</dc:format>
    <dc:creator>
     <cc:Agent>
      <dc:title>Matplotlib v3.3.4, https://matplotlib.org/</dc:title>
     </cc:Agent>
    </dc:creator>
   </cc:Work>
  </rdf:RDF>
 </metadata>
 <defs>
  <style type="text/css">*{stroke-linecap:butt;stroke-linejoin:round;}</style>
 </defs>
 <g id="figure_1">
  <g id="patch_1">
   <path d="M 0 432 
L 576 432 
L 576 0 
L 0 0 
z
" style="fill:#ffffff;"/>
  </g>
  <g id="axes_1">
   <g id="patch_2">
    <path d="M 79.22 375.64 
L 568.8 375.64 
L 568.8 74.08 
L 79.22 74.08 
z
" style="fill:#ffffff;"/>
   </g>
   <g id="matplotlib.axis_1">
    <g id="xtick_1">
     <g id="line2d_1">
      <defs>
       <path d="M 0 0 
L 0 3.5 
" id="m647299a6e9" style="stroke:#666666;stroke-width:0.8;"/>
      </defs>
      <g>
       <use style="fill:#666666;stroke:#666666;stroke-width:0.8;" x="101.473636" xlink:href="#m647299a6e9" y="375.64"/>
      </g>
     </g>
     <g id="text_1">
      <!-- 0 -->
      <g style="fill:#666666;" transform="translate(95.747386 396.317187)scale(0.18 -0.18)">
       <defs>
        <path d="M 31.78125 66.40625 
Q 24.171875 66.40625 20.328125 58.90625 
Q 16.5 51.421875 16.5 36.375 
Q 16.5 21.390625 20.328125 13.890625 
Q 24.171875 6.390625 31.78125 6.390625 
Q 39.453125 6.390625 43.28125 13.890625 
Q 47.125 21.390625 47.125 36.375 
Q 47.125 51.421875 43.28125 58.90625 
Q 39.453125 66.40625 31.78125 66.40625 
z
M 31.78125 74.21875 
Q 44.046875 74.21875 50.515625 64.515625 
Q 56.984375 54.828125 56.984375 36.375 
Q 56.984375 17.96875 50.515625 8.265625 
Q 44.046875 -1.421875 31.78125 -1.421875 
Q 19.53125 -1.421875 13.0625 8.265625 
Q 6.59375 17.96875 6.59375 36.375 
Q 6.59375 54.828125 13.0625 64.515625 
Q 19.53125 74.21875 31.78125 74.21875 
z
" id="DejaVuSans-48"/>
       </defs>
       <use xlink:href="#DejaVuSans-48"/>
      </g>
     </g>
    </g>
    <g id="xtick_2">
     <g id="line2d_2">
      <g>
       <use style="fill:#666666;stroke:#666666;stroke-width:0.8;" x="192.304805" xlink:href="#m647299a6e9" y="375.64"/>
      </g>
     </g>
     <g id="text_2">
      <!-- 10 -->
      <g style="fill:#666666;" transform="translate(180.852305 396.317187)scale(0.18 -0.18)">
       <defs>
        <path d="M 12.40625 8.296875 
L 28.515625 8.296875 
L 28.515625 63.921875 
L 10.984375 60.40625 
L 10.984375 69.390625 
L 28.421875 72.90625 
L 38.28125 72.90625 
L 38.28125 8.296875 
L 54.390625 8.296875 
L 54.390625 0 
L 12.40625 0 
z
" id="DejaVuSans-49"/>
       </defs>
       <use xlink:href="#DejaVuSans-49"/>
       <use x="63.623047" xlink:href="#DejaVuSans-48"/>
      </g>
     </g>
    </g>
    <g id="xtick_3">
     <g id="line2d_3">
      <g>
       <use style="fill:#666666;stroke:#666666;stroke-width:0.8;" x="283.135974" xlink:href="#m647299a6e9" y="375.64"/>
      </g>
     </g>
     <g id="text_3">
      <!-- 20 -->
      <g style="fill:#666666;" transform="translate(271.683474 396.317187)scale(0.18 -0.18)">
       <defs>
        <path d="M 19.1875 8.296875 
L 53.609375 8.296875 
L 53.609375 0 
L 7.328125 0 
L 7.328125 8.296875 
Q 12.9375 14.109375 22.625 23.890625 
Q 32.328125 33.6875 34.8125 36.53125 
Q 39.546875 41.84375 41.421875 45.53125 
Q 43.3125 49.21875 43.3125 52.78125 
Q 43.3125 58.59375 39.234375 62.25 
Q 35.15625 65.921875 28.609375 65.921875 
Q 23.96875 65.921875 18.8125 64.3125 
Q 13.671875 62.703125 7.8125 59.421875 
L 7.8125 69.390625 
Q 13.765625 71.78125 18.9375 73 
Q 24.125 74.21875 28.421875 74.21875 
Q 39.75 74.21875 46.484375 68.546875 
Q 53.21875 62.890625 53.21875 53.421875 
Q 53.21875 48.921875 51.53125 44.890625 
Q 49.859375 40.875 45.40625 35.40625 
Q 44.1875 33.984375 37.640625 27.21875 
Q 31.109375 20.453125 19.1875 8.296875 
z
" id="DejaVuSans-50"/>
       </defs>
       <use xlink:href="#DejaVuSans-50"/>
       <use x="63.623047" xlink:href="#DejaVuSans-48"/>
      </g>
     </g>
    </g>
    <g id="xtick_4">
     <g id="line2d_4">
      <g>
       <use style="fill:#666666;stroke:#666666;stroke-width:0.8;" x="373.967143" xlink:href="#m647299a6e9" y="375.64"/>
      </g>
     </g>
     <g id="text_4">
      <!-- 30 -->
      <g style="fill:#666666;" transform="translate(362.514643 396.317187)scale(0.18 -0.18)">
       <defs>
        <path d="M 40.578125 39.3125 
Q 47.65625 37.796875 51.625 33 
Q 55.609375 28.21875 55.609375 21.1875 
Q 55.609375 10.40625 48.1875 4.484375 
Q 40.765625 -1.421875 27.09375 -1.421875 
Q 22.515625 -1.421875 17.65625 -0.515625 
Q 12.796875 0.390625 7.625 2.203125 
L 7.625 11.71875 
Q 11.71875 9.328125 16.59375 8.109375 
Q 21.484375 6.890625 26.8125 6.890625 
Q 36.078125 6.890625 40.9375 10.546875 
Q 45.796875 14.203125 45.796875 21.1875 
Q 45.796875 27.640625 41.28125 31.265625 
Q 36.765625 34.90625 28.71875 34.90625 
L 20.21875 34.90625 
L 20.21875 43.015625 
L 29.109375 43.015625 
Q 36.375 43.015625 40.234375 45.921875 
Q 44.09375 48.828125 44.09375 54.296875 
Q 44.09375 59.90625 40.109375 62.90625 
Q 36.140625 65.921875 28.71875 65.921875 
Q 24.65625 65.921875 20.015625 65.03125 
Q 15.375 64.15625 9.8125 62.3125 
L 9.8125 71.09375 
Q 15.4375 72.65625 20.34375 73.4375 
Q 25.25 74.21875 29.59375 74.21875 
Q 40.828125 74.21875 47.359375 69.109375 
Q 53.90625 64.015625 53.90625 55.328125 
Q 53.90625 49.265625 50.4375 45.09375 
Q 46.96875 40.921875 40.578125 39.3125 
z
" id="DejaVuSans-51"/>
       </defs>
       <use xlink:href="#DejaVuSans-51"/>
       <use x="63.623047" xlink:href="#DejaVuSans-48"/>
      </g>
     </g>
    </g>
    <g id="xtick_5">
     <g id="line2d_5">
      <g>
       <use style="fill:#666666;stroke:#666666;stroke-width:0.8;" x="464.798312" xlink:href="#m647299a6e9" y="375.64"/>
      </g>
     </g>
     <g id="text_5">
      <!-- 40 -->
      <g style="fill:#666666;" transform="translate(453.345812 396.317187)scale(0.18 -0.18)">
       <defs>
        <path d="M 37.796875 64.3125 
L 12.890625 25.390625 
L 37.796875 25.390625 
z
M 35.203125 72.90625 
L 47.609375 72.90625 
L 47.609375 25.390625 
L 58.015625 25.390625 
L 58.015625 17.1875 
L 47.609375 17.1875 
L 47.609375 0 
L 37.796875 0 
L 37.796875 17.1875 
L 4.890625 17.1875 
L 4.890625 26.703125 
z
" id="DejaVuSans-52"/>
       </defs>
       <use xlink:href="#DejaVuSans-52"/>
       <use x="63.623047" xlink:href="#DejaVuSans-48"/>
      </g>
     </g>
    </g>
    <g id="xtick_6">
     <g id="line2d_6">
      <g>
       <use style="fill:#666666;stroke:#666666;stroke-width:0.8;" x="555.629481" xlink:href="#m647299a6e9" y="375.64"/>
      </g>
     </g>
     <g id="text_6">
      <!-- 50 -->
      <g style="fill:#666666;" transform="translate(544.176981 396.317187)scale(0.18 -0.18)">
       <defs>
        <path d="M 10.796875 72.90625 
L 49.515625 72.90625 
L 49.515625 64.59375 
L 19.828125 64.59375 
L 19.828125 46.734375 
Q 21.96875 47.46875 24.109375 47.828125 
Q 26.265625 48.1875 28.421875 48.1875 
Q 40.625 48.1875 47.75 41.5 
Q 54.890625 34.8125 54.890625 23.390625 
Q 54.890625 11.625 47.5625 5.09375 
Q 40.234375 -1.421875 26.90625 -1.421875 
Q 22.3125 -1.421875 17.546875 -0.640625 
Q 12.796875 0.140625 7.71875 1.703125 
L 7.71875 11.625 
Q 12.109375 9.234375 16.796875 8.0625 
Q 21.484375 6.890625 26.703125 6.890625 
Q 35.15625 6.890625 40.078125 11.328125 
Q 45.015625 15.765625 45.015625 23.390625 
Q 45.015625 31 40.078125 35.4375 
Q 35.15625 39.890625 26.703125 39.890625 
Q 22.75 39.890625 18.8125 39.015625 
Q 14.890625 38.140625 10.796875 36.28125 
z
" id="DejaVuSans-53"/>
       </defs>
       <use xlink:href="#DejaVuSans-53"/>
       <use x="63.623047" xlink:href="#DejaVuSans-48"/>
      </g>
     </g>
    </g>
    <g id="text_7">
     <!-- cle step -->
     <g style="fill:#666666;" transform="translate(280.847031 420.777187)scale(0.22 -0.22)">
      <defs>
       <path d="M 48.78125 52.59375 
L 48.78125 44.1875 
Q 44.96875 46.296875 41.140625 47.34375 
Q 37.3125 48.390625 33.40625 48.390625 
Q 24.65625 48.390625 19.8125 42.84375 
Q 14.984375 37.3125 14.984375 27.296875 
Q 14.984375 17.28125 19.8125 11.734375 
Q 24.65625 6.203125 33.40625 6.203125 
Q 37.3125 6.203125 41.140625 7.25 
Q 44.96875 8.296875 48.78125 10.40625 
L 48.78125 2.09375 
Q 45.015625 0.34375 40.984375 -0.53125 
Q 36.96875 -1.421875 32.421875 -1.421875 
Q 20.0625 -1.421875 12.78125 6.34375 
Q 5.515625 14.109375 5.515625 27.296875 
Q 5.515625 40.671875 12.859375 48.328125 
Q 20.21875 56 33.015625 56 
Q 37.15625 56 41.109375 55.140625 
Q 45.0625 54.296875 48.78125 52.59375 
z
" id="DejaVuSans-99"/>
       <path d="M 9.421875 75.984375 
L 18.40625 75.984375 
L 18.40625 0 
L 9.421875 0 
z
" id="DejaVuSans-108"/>
       <path d="M 56.203125 29.59375 
L 56.203125 25.203125 
L 14.890625 25.203125 
Q 15.484375 15.921875 20.484375 11.0625 
Q 25.484375 6.203125 34.421875 6.203125 
Q 39.59375 6.203125 44.453125 7.46875 
Q 49.3125 8.734375 54.109375 11.28125 
L 54.109375 2.78125 
Q 49.265625 0.734375 44.1875 -0.34375 
Q 39.109375 -1.421875 33.890625 -1.421875 
Q 20.796875 -1.421875 13.15625 6.1875 
Q 5.515625 13.8125 5.515625 26.8125 
Q 5.515625 40.234375 12.765625 48.109375 
Q 20.015625 56 32.328125 56 
Q 43.359375 56 49.78125 48.890625 
Q 56.203125 41.796875 56.203125 29.59375 
z
M 47.21875 32.234375 
Q 47.125 39.59375 43.09375 43.984375 
Q 39.0625 48.390625 32.421875 48.390625 
Q 24.90625 48.390625 20.390625 44.140625 
Q 15.875 39.890625 15.1875 32.171875 
z
" id="DejaVuSans-101"/>
       <path id="DejaVuSans-32"/>
       <path d="M 44.28125 53.078125 
L 44.28125 44.578125 
Q 40.484375 46.53125 36.375 47.5 
Q 32.28125 48.484375 27.875 48.484375 
Q 21.1875 48.484375 17.84375 46.4375 
Q 14.5 44.390625 14.5 40.28125 
Q 14.5 37.15625 16.890625 35.375 
Q 19.28125 33.59375 26.515625 31.984375 
L 29.59375 31.296875 
Q 39.15625 29.25 43.1875 25.515625 
Q 47.21875 21.78125 47.21875 15.09375 
Q 47.21875 7.46875 41.1875 3.015625 
Q 35.15625 -1.421875 24.609375 -1.421875 
Q 20.21875 -1.421875 15.453125 -0.5625 
Q 10.6875 0.296875 5.421875 2 
L 5.421875 11.28125 
Q 10.40625 8.6875 15.234375 7.390625 
Q 20.0625 6.109375 24.8125 6.109375 
Q 31.15625 6.109375 34.5625 8.28125 
Q 37.984375 10.453125 37.984375 14.40625 
Q 37.984375 18.0625 35.515625 20.015625 
Q 33.0625 21.96875 24.703125 23.78125 
L 21.578125 24.515625 
Q 13.234375 26.265625 9.515625 29.90625 
Q 5.8125 33.546875 5.8125 39.890625 
Q 5.8125 47.609375 11.28125 51.796875 
Q 16.75 56 26.8125 56 
Q 31.78125 56 36.171875 55.265625 
Q 40.578125 54.546875 44.28125 53.078125 
z
" id="DejaVuSans-115"/>
       <path d="M 18.3125 70.21875 
L 18.3125 54.6875 
L 36.8125 54.6875 
L 36.8125 47.703125 
L 18.3125 47.703125 
L 18.3125 18.015625 
Q 18.3125 11.328125 20.140625 9.421875 
Q 21.96875 7.515625 27.59375 7.515625 
L 36.8125 7.515625 
L 36.8125 0 
L 27.59375 0 
Q 17.1875 0 13.234375 3.875 
Q 9.28125 7.765625 9.28125 18.015625 
L 9.28125 47.703125 
L 2.6875 47.703125 
L 2.6875 54.6875 
L 9.28125 54.6875 
L 9.28125 70.21875 
z
" id="DejaVuSans-116"/>
       <path d="M 18.109375 8.203125 
L 18.109375 -20.796875 
L 9.078125 -20.796875 
L 9.078125 54.6875 
L 18.109375 54.6875 
L 18.109375 46.390625 
Q 20.953125 51.265625 25.265625 53.625 
Q 29.59375 56 35.59375 56 
Q 45.5625 56 51.78125 48.09375 
Q 58.015625 40.1875 58.015625 27.296875 
Q 58.015625 14.40625 51.78125 6.484375 
Q 45.5625 -1.421875 35.59375 -1.421875 
Q 29.59375 -1.421875 25.265625 0.953125 
Q 20.953125 3.328125 18.109375 8.203125 
z
M 48.6875 27.296875 
Q 48.6875 37.203125 44.609375 42.84375 
Q 40.53125 48.484375 33.40625 48.484375 
Q 26.265625 48.484375 22.1875 42.84375 
Q 18.109375 37.203125 18.109375 27.296875 
Q 18.109375 17.390625 22.1875 11.75 
Q 26.265625 6.109375 33.40625 6.109375 
Q 40.53125 6.109375 44.609375 11.75 
Q 48.6875 17.390625 48.6875 27.296875 
z
" id="DejaVuSans-112"/>
      </defs>
      <use xlink:href="#DejaVuSans-99"/>
      <use x="54.980469" xlink:href="#DejaVuSans-108"/>
      <use x="82.763672" xlink:href="#DejaVuSans-101"/>
      <use x="144.287109" xlink:href="#DejaVuSans-32"/>
      <use x="176.074219" xlink:href="#DejaVuSans-115"/>
      <use x="228.173828" xlink:href="#DejaVuSans-116"/>
      <use x="267.382812" xlink:href="#DejaVuSans-101"/>
      <use x="328.90625" xlink:href="#DejaVuSans-112"/>
     </g>
    </g>
   </g>
   <g id="matplotlib.axis_2">
    <g id="ytick_1">
     <g id="line2d_7">
      <path clip-path="url(#pce62c43323)" d="M 79.22 344.705934 
L 568.8 344.705934 
" style="fill:none;stroke:#000000;stroke-dasharray:0.8,1.32;stroke-dashoffset:0;stroke-width:0.8;"/>
     </g>
     <g id="line2d_8">
      <defs>
       <path d="M 0 0 
L -3.5 0 
" id="m5c2c82fad9" style="stroke:#666666;stroke-width:0.8;"/>
      </defs>
      <g>
       <use style="fill:#666666;stroke:#666666;stroke-width:0.8;" x="79.22" xlink:href="#m5c2c82fad9" y="344.705934"/>
      </g>
     </g>
     <g id="text_8">
      <!-- 0.04 -->
      <g style="fill:#666666;" transform="translate(32.141875 351.544528)scale(0.18 -0.18)">
       <defs>
        <path d="M 10.6875 12.40625 
L 21 12.40625 
L 21 0 
L 10.6875 0 
z
" id="DejaVuSans-46"/>
       </defs>
       <use xlink:href="#DejaVuSans-48"/>
       <use x="63.623047" xlink:href="#DejaVuSans-46"/>
       <use x="95.410156" xlink:href="#DejaVuSans-48"/>
       <use x="159.033203" xlink:href="#DejaVuSans-52"/>
      </g>
     </g>
    </g>
    <g id="ytick_2">
     <g id="line2d_9">
      <path clip-path="url(#pce62c43323)" d="M 79.22 282.837802 
L 568.8 282.837802 
" style="fill:none;stroke:#000000;stroke-dasharray:0.8,1.32;stroke-dashoffset:0;stroke-width:0.8;"/>
     </g>
     <g id="line2d_10">
      <g>
       <use style="fill:#666666;stroke:#666666;stroke-width:0.8;" x="79.22" xlink:href="#m5c2c82fad9" y="282.837802"/>
      </g>
     </g>
     <g id="text_9">
      <!-- 0.05 -->
      <g style="fill:#666666;" transform="translate(32.141875 289.676396)scale(0.18 -0.18)">
       <use xlink:href="#DejaVuSans-48"/>
       <use x="63.623047" xlink:href="#DejaVuSans-46"/>
       <use x="95.410156" xlink:href="#DejaVuSans-48"/>
       <use x="159.033203" xlink:href="#DejaVuSans-53"/>
      </g>
     </g>
    </g>
    <g id="ytick_3">
     <g id="line2d_11">
      <path clip-path="url(#pce62c43323)" d="M 79.22 220.96967 
L 568.8 220.96967 
" style="fill:none;stroke:#000000;stroke-dasharray:0.8,1.32;stroke-dashoffset:0;stroke-width:0.8;"/>
     </g>
     <g id="line2d_12">
      <g>
       <use style="fill:#666666;stroke:#666666;stroke-width:0.8;" x="79.22" xlink:href="#m5c2c82fad9" y="220.96967"/>
      </g>
     </g>
     <g id="text_10">
      <!-- 0.06 -->
      <g style="fill:#666666;" transform="translate(32.141875 227.808264)scale(0.18 -0.18)">
       <defs>
        <path d="M 33.015625 40.375 
Q 26.375 40.375 22.484375 35.828125 
Q 18.609375 31.296875 18.609375 23.390625 
Q 18.609375 15.53125 22.484375 10.953125 
Q 26.375 6.390625 33.015625 6.390625 
Q 39.65625 6.390625 43.53125 10.953125 
Q 47.40625 15.53125 47.40625 23.390625 
Q 47.40625 31.296875 43.53125 35.828125 
Q 39.65625 40.375 33.015625 40.375 
z
M 52.59375 71.296875 
L 52.59375 62.3125 
Q 48.875 64.0625 45.09375 64.984375 
Q 41.3125 65.921875 37.59375 65.921875 
Q 27.828125 65.921875 22.671875 59.328125 
Q 17.53125 52.734375 16.796875 39.40625 
Q 19.671875 43.65625 24.015625 45.921875 
Q 28.375 48.1875 33.59375 48.1875 
Q 44.578125 48.1875 50.953125 41.515625 
Q 57.328125 34.859375 57.328125 23.390625 
Q 57.328125 12.15625 50.6875 5.359375 
Q 44.046875 -1.421875 33.015625 -1.421875 
Q 20.359375 -1.421875 13.671875 8.265625 
Q 6.984375 17.96875 6.984375 36.375 
Q 6.984375 53.65625 15.1875 63.9375 
Q 23.390625 74.21875 37.203125 74.21875 
Q 40.921875 74.21875 44.703125 73.484375 
Q 48.484375 72.75 52.59375 71.296875 
z
" id="DejaVuSans-54"/>
       </defs>
       <use xlink:href="#DejaVuSans-48"/>
       <use x="63.623047" xlink:href="#DejaVuSans-46"/>
       <use x="95.410156" xlink:href="#DejaVuSans-48"/>
       <use x="159.033203" xlink:href="#DejaVuSans-54"/>
      </g>
     </g>
    </g>
    <g id="ytick_4">
     <g id="line2d_13">
      <path clip-path="url(#pce62c43323)" d="M 79.22 159.101539 
L 568.8 159.101539 
" style="fill:none;stroke:#000000;stroke-dasharray:0.8,1.32;stroke-dashoffset:0;stroke-width:0.8;"/>
     </g>
     <g id="line2d_14">
      <g>
       <use style="fill:#666666;stroke:#666666;stroke-width:0.8;" x="79.22" xlink:href="#m5c2c82fad9" y="159.101539"/>
      </g>
     </g>
     <g id="text_11">
      <!-- 0.07 -->
      <g style="fill:#666666;" transform="translate(32.141875 165.940132)scale(0.18 -0.18)">
       <defs>
        <path d="M 8.203125 72.90625 
L 55.078125 72.90625 
L 55.078125 68.703125 
L 28.609375 0 
L 18.3125 0 
L 43.21875 64.59375 
L 8.203125 64.59375 
z
" id="DejaVuSans-55"/>
       </defs>
       <use xlink:href="#DejaVuSans-48"/>
       <use x="63.623047" xlink:href="#DejaVuSans-46"/>
       <use x="95.410156" xlink:href="#DejaVuSans-48"/>
       <use x="159.033203" xlink:href="#DejaVuSans-55"/>
      </g>
     </g>
    </g>
    <g id="ytick_5">
     <g id="line2d_15">
      <path clip-path="url(#pce62c43323)" d="M 79.22 97.233407 
L 568.8 97.233407 
" style="fill:none;stroke:#000000;stroke-dasharray:0.8,1.32;stroke-dashoffset:0;stroke-width:0.8;"/>
     </g>
     <g id="line2d_16">
      <g>
       <use style="fill:#666666;stroke:#666666;stroke-width:0.8;" x="79.22" xlink:href="#m5c2c82fad9" y="97.233407"/>
      </g>
     </g>
     <g id="text_12">
      <!-- 0.08 -->
      <g style="fill:#666666;" transform="translate(32.141875 104.072001)scale(0.18 -0.18)">
       <defs>
        <path d="M 31.78125 34.625 
Q 24.75 34.625 20.71875 30.859375 
Q 16.703125 27.09375 16.703125 20.515625 
Q 16.703125 13.921875 20.71875 10.15625 
Q 24.75 6.390625 31.78125 6.390625 
Q 38.8125 6.390625 42.859375 10.171875 
Q 46.921875 13.96875 46.921875 20.515625 
Q 46.921875 27.09375 42.890625 30.859375 
Q 38.875 34.625 31.78125 34.625 
z
M 21.921875 38.8125 
Q 15.578125 40.375 12.03125 44.71875 
Q 8.5 49.078125 8.5 55.328125 
Q 8.5 64.0625 14.71875 69.140625 
Q 20.953125 74.21875 31.78125 74.21875 
Q 42.671875 74.21875 48.875 69.140625 
Q 55.078125 64.0625 55.078125 55.328125 
Q 55.078125 49.078125 51.53125 44.71875 
Q 48 40.375 41.703125 38.8125 
Q 48.828125 37.15625 52.796875 32.3125 
Q 56.78125 27.484375 56.78125 20.515625 
Q 56.78125 9.90625 50.3125 4.234375 
Q 43.84375 -1.421875 31.78125 -1.421875 
Q 19.734375 -1.421875 13.25 4.234375 
Q 6.78125 9.90625 6.78125 20.515625 
Q 6.78125 27.484375 10.78125 32.3125 
Q 14.796875 37.15625 21.921875 38.8125 
z
M 18.3125 54.390625 
Q 18.3125 48.734375 21.84375 45.5625 
Q 25.390625 42.390625 31.78125 42.390625 
Q 38.140625 42.390625 41.71875 45.5625 
Q 45.3125 48.734375 45.3125 54.390625 
Q 45.3125 60.0625 41.71875 63.234375 
Q 38.140625 66.40625 31.78125 66.40625 
Q 25.390625 66.40625 21.84375 63.234375 
Q 18.3125 60.0625 18.3125 54.390625 
z
" id="DejaVuSans-56"/>
       </defs>
       <use xlink:href="#DejaVuSans-48"/>
       <use x="63.623047" xlink:href="#DejaVuSans-46"/>
       <use x="95.410156" xlink:href="#DejaVuSans-48"/>
       <use x="159.033203" xlink:href="#DejaVuSans-56"/>
      </g>
     </g>
    </g>
    <g id="text_13">
     <!-- time (s) -->
     <g style="fill:#666666;" transform="translate(23.566563 267.521094)rotate(-90)scale(0.22 -0.22)">
      <defs>
       <path d="M 9.421875 54.6875 
L 18.40625 54.6875 
L 18.40625 0 
L 9.421875 0 
z
M 9.421875 75.984375 
L 18.40625 75.984375 
L 18.40625 64.59375 
L 9.421875 64.59375 
z
" id="DejaVuSans-105"/>
       <path d="M 52 44.1875 
Q 55.375 50.25 60.0625 53.125 
Q 64.75 56 71.09375 56 
Q 79.640625 56 84.28125 50.015625 
Q 88.921875 44.046875 88.921875 33.015625 
L 88.921875 0 
L 79.890625 0 
L 79.890625 32.71875 
Q 79.890625 40.578125 77.09375 44.375 
Q 74.3125 48.1875 68.609375 48.1875 
Q 61.625 48.1875 57.5625 43.546875 
Q 53.515625 38.921875 53.515625 30.90625 
L 53.515625 0 
L 44.484375 0 
L 44.484375 32.71875 
Q 44.484375 40.625 41.703125 44.40625 
Q 38.921875 48.1875 33.109375 48.1875 
Q 26.21875 48.1875 22.15625 43.53125 
Q 18.109375 38.875 18.109375 30.90625 
L 18.109375 0 
L 9.078125 0 
L 9.078125 54.6875 
L 18.109375 54.6875 
L 18.109375 46.1875 
Q 21.1875 51.21875 25.484375 53.609375 
Q 29.78125 56 35.6875 56 
Q 41.65625 56 45.828125 52.96875 
Q 50 49.953125 52 44.1875 
z
" id="DejaVuSans-109"/>
       <path d="M 31 75.875 
Q 24.46875 64.65625 21.28125 53.65625 
Q 18.109375 42.671875 18.109375 31.390625 
Q 18.109375 20.125 21.3125 9.0625 
Q 24.515625 -2 31 -13.1875 
L 23.1875 -13.1875 
Q 15.875 -1.703125 12.234375 9.375 
Q 8.59375 20.453125 8.59375 31.390625 
Q 8.59375 42.28125 12.203125 53.3125 
Q 15.828125 64.359375 23.1875 75.875 
z
" id="DejaVuSans-40"/>
       <path d="M 8.015625 75.875 
L 15.828125 75.875 
Q 23.140625 64.359375 26.78125 53.3125 
Q 30.421875 42.28125 30.421875 31.390625 
Q 30.421875 20.453125 26.78125 9.375 
Q 23.140625 -1.703125 15.828125 -13.1875 
L 8.015625 -13.1875 
Q 14.5 -2 17.703125 9.0625 
Q 20.90625 20.125 20.90625 31.390625 
Q 20.90625 42.671875 17.703125 53.65625 
Q 14.5 64.65625 8.015625 75.875 
z
" id="DejaVuSans-41"/>
      </defs>
      <use xlink:href="#DejaVuSans-116"/>
      <use x="39.208984" xlink:href="#DejaVuSans-105"/>
      <use x="66.992188" xlink:href="#DejaVuSans-109"/>
      <use x="164.404297" xlink:href="#DejaVuSans-101"/>
      <use x="225.927734" xlink:href="#DejaVuSans-32"/>
      <use x="257.714844" xlink:href="#DejaVuSans-40"/>
      <use x="296.728516" xlink:href="#DejaVuSans-115"/>
      <use x="348.828125" xlink:href="#DejaVuSans-41"/>
     </g>
    </g>
   </g>
   <g id="line2d_17">
    <path clip-path="url(#pce62c43323)" d="M 101.473636 152.822659 
L 110.556753 339.258806 
L 119.63987 340.179238 
L 128.722987 357.098075 
L 137.806104 354.323504 
L 146.889221 356.64966 
L 155.972338 289.481728 
L 165.055455 282.277578 
L 174.138571 293.71955 
L 183.221688 287.919649 
L 192.304805 289.903593 
L 201.387922 298.146179 
L 210.471039 301.763004 
L 219.554156 309.360993 
L 228.637273 288.347414 
L 237.72039 293.119204 
L 246.803506 296.576724 
L 255.886623 294.468876 
L 264.96974 275.333037 
L 274.052857 286.177613 
L 283.135974 295.032346 
L 292.219091 294.344972 
L 301.302208 308.776873 
L 310.385325 316.62562 
L 319.468442 300.082921 
L 328.551558 296.227137 
L 337.634675 306.778178 
L 346.717792 315.246447 
L 355.800909 311.821378 
L 364.884026 308.838825 
L 373.967143 304.848811 
L 383.05026 314.103283 
L 392.133377 292.123545 
L 401.216494 282.49146 
L 410.29961 265.022429 
L 419.382727 292.169271 
L 428.465844 316.430913 
L 437.548961 312.530878 
L 446.632078 310.13982 
L 455.715195 301.559447 
L 464.798312 309.209063 
L 473.881429 314.486796 
L 482.964545 310.00559 
L 492.047662 303.620094 
L 501.130779 292.952523 
L 510.213896 290.800424 
L 519.297013 304.423997 
L 528.38013 311.076478 
L 537.463247 292.924497 
L 546.546364 308.886027 
" style="fill:none;stroke:#1f77b4;stroke-linecap:square;stroke-width:6;"/>
   </g>
   <g id="line2d_18">
    <path clip-path="url(#pce62c43323)" d="M 101.473636 109.459103 
L 110.556753 366.328946 
L 119.63987 372.388456 
L 128.722987 366.694758 
L 137.806104 344.580791 
L 146.889221 359.062844 
L 155.972338 308.350583 
L 165.055455 300.945826 
L 174.138571 311.449666 
L 183.221688 271.81799 
L 192.304805 308.149976 
L 201.387922 305.987551 
L 210.471039 312.794912 
L 219.554156 296.346616 
L 228.637273 299.454549 
L 237.72039 300.578538 
L 246.803506 308.751797 
L 255.886623 302.869293 
L 264.96974 302.319099 
L 274.052857 288.611448 
L 283.135974 290.415435 
L 292.219091 301.373591 
L 301.302208 280.775976 
L 310.385325 303.710072 
L 319.468442 287.447632 
L 328.551558 302.021138 
L 337.634675 299.4693 
L 346.717792 306.166032 
L 355.800909 310.144245 
L 364.884026 308.984855 
L 373.967143 305.701391 
L 383.05026 285.413537 
L 392.133377 290.228104 
L 401.216494 309.595526 
L 410.29961 291.489273 
L 419.382727 305.021392 
L 428.465844 298.062101 
L 437.548961 306.719176 
L 446.632078 289.354874 
L 455.715195 312.545629 
L 464.798312 304.903388 
L 473.881429 310.150145 
L 482.964545 292.810918 
L 492.047662 303.007947 
L 501.130779 307.704511 
L 510.213896 301.618449 
L 519.297013 304.654105 
L 528.38013 298.16978 
L 537.463247 287.758868 
L 546.546364 290.680945 
" style="fill:none;stroke:#ff7f0e;stroke-linecap:square;stroke-width:6;"/>
   </g>
   <g id="line2d_19">
    <path clip-path="url(#pce62c43323)" d="M 101.473636 140.174095 
L 110.556753 363.063182 
L 119.63987 364.849469 
L 128.722987 363.251989 
L 137.806104 363.13841 
L 146.889221 369.507681 
L 155.972338 302.316148 
L 165.055455 282.845473 
L 174.138571 296.427744 
L 183.221688 287.573012 
L 192.304805 285.915054 
L 201.387922 305.82087 
L 210.471039 293.325711 
L 219.554156 299.05186 
L 228.637273 262.948507 
L 237.72039 285.569892 
L 246.803506 296.759631 
L 255.886623 282.9089 
L 264.96974 295.129699 
L 274.052857 282.119747 
L 283.135974 290.546715 
L 292.219091 285.198179 
L 301.302208 267.751274 
L 310.385325 312.859815 
L 319.468442 312.123764 
L 328.551558 310.585286 
L 337.634675 295.340631 
L 346.717792 297.275899 
L 355.800909 309.431796 
L 364.884026 301.018103 
L 373.967143 305.132021 
L 383.05026 293.906882 
L 392.133377 284.999047 
L 401.216494 295.787572 
L 410.29961 285.466639 
L 419.382727 292.785843 
L 428.465844 295.899676 
L 437.548961 276.988044 
L 446.632078 288.580472 
L 455.715195 271.520029 
L 464.798312 295.123799 
L 473.881429 268.111186 
L 482.964545 285.826551 
L 492.047662 301.848557 
L 501.130779 297.298024 
L 510.213896 295.238853 
L 519.297013 291.332917 
L 528.38013 289.179342 
L 537.463247 297.882145 
L 546.546364 308.484813 
" style="fill:none;stroke:#2ca02c;stroke-linecap:square;stroke-width:6;"/>
   </g>
   <g id="line2d_20">
    <path clip-path="url(#pce62c43323)" d="M 101.473636 139.089932 
L 110.556753 342.866781 
L 119.63987 336.630265 
L 128.722987 332.958862 
L 137.806104 367.078272 
L 146.889221 341.135071 
L 155.972338 292.982024 
L 165.055455 280.830553 
L 174.138571 280.696323 
L 183.221688 285.246856 
L 192.304805 273.12341 
L 201.387922 313.137124 
L 210.471039 276.119239 
L 219.554156 263.364471 
L 228.637273 284.916444 
L 237.72039 293.813953 
L 246.803506 300.613939 
L 255.886623 259.446735 
L 264.96974 283.339615 
L 274.052857 281.414673 
L 283.135974 280.526692 
L 292.219091 294.331696 
L 301.302208 294.167966 
L 310.385325 282.618315 
L 319.468442 286.400346 
L 328.551558 286.037483 
L 337.634675 285.131802 
L 346.717792 278.084007 
L 355.800909 282.903 
L 364.884026 281.750985 
L 373.967143 262.581219 
L 383.05026 289.745762 
L 392.133377 304.980091 
L 401.216494 303.397361 
L 410.29961 292.920072 
L 419.382727 275.00115 
L 428.465844 280.500141 
L 437.548961 273.045232 
L 446.632078 275.240109 
L 455.715195 287.854746 
L 464.798312 272.040722 
L 473.881429 245.252317 
L 482.964545 255.071733 
L 492.047662 266.040214 
L 501.130779 272.008271 
L 510.213896 289.26637 
L 519.297013 257.064528 
L 528.38013 263.879264 
L 537.463247 306.117355 
L 546.546364 266.963596 
" style="fill:none;stroke:#d62728;stroke-linecap:square;stroke-width:6;"/>
   </g>
   <g id="line2d_21">
    <path clip-path="url(#pce62c43323)" d="M 101.473636 119.114788 
L 110.556753 336.410482 
L 119.63987 360.614597 
L 128.722987 348.110588 
L 137.806104 347.207857 
L 146.889221 363.505698 
L 155.972338 277.179801 
L 165.055455 248.585933 
L 174.138571 276.232818 
L 183.221688 278.494071 
L 192.304805 292.993825 
L 201.387922 278.942487 
L 210.471039 265.479695 
L 219.554156 269.002117 
L 228.637273 267.292533 
L 237.72039 246.805546 
L 246.803506 262.472065 
L 255.886623 263.537052 
L 264.96974 275.886181 
L 274.052857 271.506754 
L 283.135974 270.891658 
L 292.219091 269.718992 
L 301.302208 267.979906 
L 310.385325 251.37673 
L 319.468442 277.963053 
L 328.551558 279.632811 
L 337.634675 282.808596 
L 346.717792 269.500684 
L 355.800909 261.010289 
L 364.884026 269.466758 
L 373.967143 274.138245 
L 383.05026 274.101369 
L 392.133377 262.557618 
L 401.216494 269.832571 
L 410.29961 279.585609 
L 419.382727 259.259404 
L 428.465844 247.692052 
L 437.548961 282.203825 
L 446.632078 290.406585 
L 455.715195 265.987112 
L 464.798312 273.831435 
L 473.881429 299.976717 
L 482.964545 257.036502 
L 492.047662 255.287091 
L 501.130779 261.18287 
L 510.213896 288.741252 
L 519.297013 256.341752 
L 528.38013 257.608821 
L 537.463247 280.935281 
L 546.546364 283.392717 
" style="fill:none;stroke:#9467bd;stroke-linecap:square;stroke-width:6;"/>
   </g>
   <g id="line2d_22">
    <path clip-path="url(#pce62c43323)" d="M 101.473636 146.645144 
L 110.556753 74.08 
L 119.63987 335.100637 
L 128.722987 339.0936 
L 137.806104 311.893656 
L 146.889221 346.560309 
L 155.972338 252.329613 
L 165.055455 263.557703 
L 174.138571 261.696188 
L 183.221688 242.526423 
L 192.304805 255.710431 
L 201.387922 262.182955 
L 210.471039 274.564535 
L 219.554156 227.671182 
L 228.637273 258.808038 
L 237.72039 283.585948 
L 246.803506 262.066426 
L 255.886623 243.650412 
L 264.96974 275.852255 
L 274.052857 265.844032 
L 283.135974 271.646884 
L 292.219091 260.548598 
L 301.302208 290.565891 
L 310.385325 289.413876 
L 319.468442 211.91026 
L 328.551558 277.052946 
L 337.634675 263.395447 
L 346.717792 253.67191 
L 355.800909 227.986843 
L 364.884026 248.674436 
L 373.967143 263.590154 
L 383.05026 260.170985 
L 392.133377 253.97577 
L 401.216494 276.844964 
L 410.29961 235.755938 
L 419.382727 245.789236 
L 428.465844 269.049319 
L 437.548961 279.551683 
L 446.632078 268.08316 
L 455.715195 253.086314 
L 464.798312 249.794 
L 473.881429 261.128294 
L 482.964545 281.357146 
L 492.047662 265.373491 
L 501.130779 251.922499 
L 510.213896 244.32746 
L 519.297013 265.290888 
L 528.38013 249.385411 
L 537.463247 252.460893 
L 546.546364 257.57047 
" style="fill:none;stroke:#8c564b;stroke-linecap:square;stroke-width:6;"/>
   </g>
   <g id="line2d_23">
    <path clip-path="url(#pce62c43323)" d="M 101.473636 86.820017 
L 110.556753 300.718668 
L 119.63987 299.4752 
L 128.722987 326.363908 
L 137.806104 305.273626 
L 146.889221 297.678587 
L 155.972338 217.154067 
L 165.055455 239.235584 
L 174.138571 232.881063 
L 183.221688 226.511792 
L 192.304805 225.755091 
L 201.387922 190.016075 
L 210.471039 225.290449 
L 219.554156 248.138993 
L 228.637273 190.480716 
L 237.72039 204.033486 
L 246.803506 217.80899 
L 255.886623 270.077429 
L 264.96974 235.036113 
L 274.052857 202.191148 
L 283.135974 219.837185 
L 292.219091 206.986539 
L 301.302208 223.822773 
L 310.385325 238.816669 
L 319.468442 244.852579 
L 328.551558 246.656566 
L 337.634675 209.88649 
L 346.717792 244.774401 
L 355.800909 221.651498 
L 364.884026 220.894797 
L 373.967143 227.674132 
L 383.05026 240.71801 
L 392.133377 238.301876 
L 401.216494 246.144723 
L 410.29961 257.012901 
L 419.382727 230.209745 
L 428.465844 234.708651 
L 437.548961 272.711871 
L 446.632078 213.105051 
L 455.715195 199.782389 
L 464.798312 257.961359 
L 473.881429 245.867414 
L 482.964545 231.131652 
L 492.047662 242.042606 
L 501.130779 211.053255 
L 510.213896 237.12036 
L 519.297013 243.923296 
L 528.38013 191.365747 
L 537.463247 258.582355 
L 546.546364 239.374238 
" style="fill:none;stroke:#e377c2;stroke-linecap:square;stroke-width:6;"/>
   </g>
   <g id="line2d_24">
    <path clip-path="url(#pce62c43323)" d="M 146.889221 375.64 
L 146.889221 74.08 
" style="fill:none;stroke:#000000;stroke-dasharray:5.55,2.4;stroke-dashoffset:0;stroke-width:1.5;"/>
   </g>
   <g id="line2d_25">
    <path clip-path="url(#pce62c43323)" d="M 328.551558 375.64 
L 328.551558 74.08 
" style="fill:none;stroke:#000000;stroke-dasharray:5.55,2.4;stroke-dashoffset:0;stroke-width:1.5;"/>
   </g>
   <g id="text_14">
    <!-- transfer_function -->
    <g style="fill:#666666;" transform="translate(217.336172 64.08)scale(0.25 -0.25)">
     <defs>
      <path d="M 41.109375 46.296875 
Q 39.59375 47.171875 37.8125 47.578125 
Q 36.03125 48 33.890625 48 
Q 26.265625 48 22.1875 43.046875 
Q 18.109375 38.09375 18.109375 28.8125 
L 18.109375 0 
L 9.078125 0 
L 9.078125 54.6875 
L 18.109375 54.6875 
L 18.109375 46.1875 
Q 20.953125 51.171875 25.484375 53.578125 
Q 30.03125 56 36.53125 56 
Q 37.453125 56 38.578125 55.875 
Q 39.703125 55.765625 41.0625 55.515625 
z
" id="DejaVuSans-114"/>
      <path d="M 34.28125 27.484375 
Q 23.390625 27.484375 19.1875 25 
Q 14.984375 22.515625 14.984375 16.5 
Q 14.984375 11.71875 18.140625 8.90625 
Q 21.296875 6.109375 26.703125 6.109375 
Q 34.1875 6.109375 38.703125 11.40625 
Q 43.21875 16.703125 43.21875 25.484375 
L 43.21875 27.484375 
z
M 52.203125 31.203125 
L 52.203125 0 
L 43.21875 0 
L 43.21875 8.296875 
Q 40.140625 3.328125 35.546875 0.953125 
Q 30.953125 -1.421875 24.3125 -1.421875 
Q 15.921875 -1.421875 10.953125 3.296875 
Q 6 8.015625 6 15.921875 
Q 6 25.140625 12.171875 29.828125 
Q 18.359375 34.515625 30.609375 34.515625 
L 43.21875 34.515625 
L 43.21875 35.40625 
Q 43.21875 41.609375 39.140625 45 
Q 35.0625 48.390625 27.6875 48.390625 
Q 23 48.390625 18.546875 47.265625 
Q 14.109375 46.140625 10.015625 43.890625 
L 10.015625 52.203125 
Q 14.9375 54.109375 19.578125 55.046875 
Q 24.21875 56 28.609375 56 
Q 40.484375 56 46.34375 49.84375 
Q 52.203125 43.703125 52.203125 31.203125 
z
" id="DejaVuSans-97"/>
      <path d="M 54.890625 33.015625 
L 54.890625 0 
L 45.90625 0 
L 45.90625 32.71875 
Q 45.90625 40.484375 42.875 44.328125 
Q 39.84375 48.1875 33.796875 48.1875 
Q 26.515625 48.1875 22.3125 43.546875 
Q 18.109375 38.921875 18.109375 30.90625 
L 18.109375 0 
L 9.078125 0 
L 9.078125 54.6875 
L 18.109375 54.6875 
L 18.109375 46.1875 
Q 21.34375 51.125 25.703125 53.5625 
Q 30.078125 56 35.796875 56 
Q 45.21875 56 50.046875 50.171875 
Q 54.890625 44.34375 54.890625 33.015625 
z
" id="DejaVuSans-110"/>
      <path d="M 37.109375 75.984375 
L 37.109375 68.5 
L 28.515625 68.5 
Q 23.6875 68.5 21.796875 66.546875 
Q 19.921875 64.59375 19.921875 59.515625 
L 19.921875 54.6875 
L 34.71875 54.6875 
L 34.71875 47.703125 
L 19.921875 47.703125 
L 19.921875 0 
L 10.890625 0 
L 10.890625 47.703125 
L 2.296875 47.703125 
L 2.296875 54.6875 
L 10.890625 54.6875 
L 10.890625 58.5 
Q 10.890625 67.625 15.140625 71.796875 
Q 19.390625 75.984375 28.609375 75.984375 
z
" id="DejaVuSans-102"/>
      <path d="M 50.984375 -16.609375 
L 50.984375 -23.578125 
L -0.984375 -23.578125 
L -0.984375 -16.609375 
z
" id="DejaVuSans-95"/>
      <path d="M 8.5 21.578125 
L 8.5 54.6875 
L 17.484375 54.6875 
L 17.484375 21.921875 
Q 17.484375 14.15625 20.5 10.265625 
Q 23.53125 6.390625 29.59375 6.390625 
Q 36.859375 6.390625 41.078125 11.03125 
Q 45.3125 15.671875 45.3125 23.6875 
L 45.3125 54.6875 
L 54.296875 54.6875 
L 54.296875 0 
L 45.3125 0 
L 45.3125 8.40625 
Q 42.046875 3.421875 37.71875 1 
Q 33.40625 -1.421875 27.6875 -1.421875 
Q 18.265625 -1.421875 13.375 4.4375 
Q 8.5 10.296875 8.5 21.578125 
z
M 31.109375 56 
z
" id="DejaVuSans-117"/>
      <path d="M 30.609375 48.390625 
Q 23.390625 48.390625 19.1875 42.75 
Q 14.984375 37.109375 14.984375 27.296875 
Q 14.984375 17.484375 19.15625 11.84375 
Q 23.34375 6.203125 30.609375 6.203125 
Q 37.796875 6.203125 41.984375 11.859375 
Q 46.1875 17.53125 46.1875 27.296875 
Q 46.1875 37.015625 41.984375 42.703125 
Q 37.796875 48.390625 30.609375 48.390625 
z
M 30.609375 56 
Q 42.328125 56 49.015625 48.375 
Q 55.71875 40.765625 55.71875 27.296875 
Q 55.71875 13.875 49.015625 6.21875 
Q 42.328125 -1.421875 30.609375 -1.421875 
Q 18.84375 -1.421875 12.171875 6.21875 
Q 5.515625 13.875 5.515625 27.296875 
Q 5.515625 40.765625 12.171875 48.375 
Q 18.84375 56 30.609375 56 
z
" id="DejaVuSans-111"/>
     </defs>
     <use xlink:href="#DejaVuSans-116"/>
     <use x="39.208984" xlink:href="#DejaVuSans-114"/>
     <use x="80.322266" xlink:href="#DejaVuSans-97"/>
     <use x="141.601562" xlink:href="#DejaVuSans-110"/>
     <use x="204.980469" xlink:href="#DejaVuSans-115"/>
     <use x="257.080078" xlink:href="#DejaVuSans-102"/>
     <use x="292.285156" xlink:href="#DejaVuSans-101"/>
     <use x="353.808594" xlink:href="#DejaVuSans-114"/>
     <use x="394.921875" xlink:href="#DejaVuSans-95"/>
     <use x="444.921875" xlink:href="#DejaVuSans-102"/>
     <use x="480.126953" xlink:href="#DejaVuSans-117"/>
     <use x="543.505859" xlink:href="#DejaVuSans-110"/>
     <use x="606.884766" xlink:href="#DejaVuSans-99"/>
     <use x="661.865234" xlink:href="#DejaVuSans-116"/>
     <use x="701.074219" xlink:href="#DejaVuSans-105"/>
     <use x="728.857422" xlink:href="#DejaVuSans-111"/>
     <use x="790.039062" xlink:href="#DejaVuSans-110"/>
    </g>
   </g>
   <g id="legend_1">
    <g id="patch_3">
     <path d="M 371.939063 273.424375 
L 556.2 273.424375 
Q 559.8 273.424375 559.8 269.824375 
L 559.8 86.68 
Q 559.8 83.08 556.2 83.08 
L 371.939063 83.08 
Q 368.339063 83.08 368.339063 86.68 
L 368.339063 269.824375 
Q 368.339063 273.424375 371.939063 273.424375 
z
" style="fill:#ffffff;opacity:0.8;stroke:#cccccc;stroke-linejoin:miter;"/>
    </g>
    <g id="line2d_26">
     <path d="M 375.539063 97.657188 
L 411.539063 97.657188 
" style="fill:none;stroke:#1f77b4;stroke-linecap:square;stroke-width:6;"/>
    </g>
    <g id="line2d_27"/>
    <g id="text_15">
     <!-- 01 NEST proc. -->
     <g transform="translate(425.939063 103.957188)scale(0.18 -0.18)">
      <defs>
       <path d="M 9.8125 72.90625 
L 23.09375 72.90625 
L 55.421875 11.921875 
L 55.421875 72.90625 
L 64.984375 72.90625 
L 64.984375 0 
L 51.703125 0 
L 19.390625 60.984375 
L 19.390625 0 
L 9.8125 0 
z
" id="DejaVuSans-78"/>
       <path d="M 9.8125 72.90625 
L 55.90625 72.90625 
L 55.90625 64.59375 
L 19.671875 64.59375 
L 19.671875 43.015625 
L 54.390625 43.015625 
L 54.390625 34.71875 
L 19.671875 34.71875 
L 19.671875 8.296875 
L 56.78125 8.296875 
L 56.78125 0 
L 9.8125 0 
z
" id="DejaVuSans-69"/>
       <path d="M 53.515625 70.515625 
L 53.515625 60.890625 
Q 47.90625 63.578125 42.921875 64.890625 
Q 37.9375 66.21875 33.296875 66.21875 
Q 25.25 66.21875 20.875 63.09375 
Q 16.5 59.96875 16.5 54.203125 
Q 16.5 49.359375 19.40625 46.890625 
Q 22.3125 44.4375 30.421875 42.921875 
L 36.375 41.703125 
Q 47.40625 39.59375 52.65625 34.296875 
Q 57.90625 29 57.90625 20.125 
Q 57.90625 9.515625 50.796875 4.046875 
Q 43.703125 -1.421875 29.984375 -1.421875 
Q 24.8125 -1.421875 18.96875 -0.25 
Q 13.140625 0.921875 6.890625 3.21875 
L 6.890625 13.375 
Q 12.890625 10.015625 18.65625 8.296875 
Q 24.421875 6.59375 29.984375 6.59375 
Q 38.421875 6.59375 43.015625 9.90625 
Q 47.609375 13.234375 47.609375 19.390625 
Q 47.609375 24.75 44.3125 27.78125 
Q 41.015625 30.8125 33.5 32.328125 
L 27.484375 33.5 
Q 16.453125 35.6875 11.515625 40.375 
Q 6.59375 45.0625 6.59375 53.421875 
Q 6.59375 63.09375 13.40625 68.65625 
Q 20.21875 74.21875 32.171875 74.21875 
Q 37.3125 74.21875 42.625 73.28125 
Q 47.953125 72.359375 53.515625 70.515625 
z
" id="DejaVuSans-83"/>
       <path d="M -0.296875 72.90625 
L 61.375 72.90625 
L 61.375 64.59375 
L 35.5 64.59375 
L 35.5 0 
L 25.59375 0 
L 25.59375 64.59375 
L -0.296875 64.59375 
z
" id="DejaVuSans-84"/>
      </defs>
      <use xlink:href="#DejaVuSans-48"/>
      <use x="63.623047" xlink:href="#DejaVuSans-49"/>
      <use x="127.246094" xlink:href="#DejaVuSans-32"/>
      <use x="159.033203" xlink:href="#DejaVuSans-78"/>
      <use x="233.837891" xlink:href="#DejaVuSans-69"/>
      <use x="297.021484" xlink:href="#DejaVuSans-83"/>
      <use x="360.498047" xlink:href="#DejaVuSans-84"/>
      <use x="421.582031" xlink:href="#DejaVuSans-32"/>
      <use x="453.369141" xlink:href="#DejaVuSans-112"/>
      <use x="516.845703" xlink:href="#DejaVuSans-114"/>
      <use x="555.708984" xlink:href="#DejaVuSans-111"/>
      <use x="616.890625" xlink:href="#DejaVuSans-99"/>
      <use x="671.871094" xlink:href="#DejaVuSans-46"/>
     </g>
    </g>
    <g id="line2d_28">
     <path d="M 375.539063 124.077813 
L 411.539063 124.077813 
" style="fill:none;stroke:#ff7f0e;stroke-linecap:square;stroke-width:6;"/>
    </g>
    <g id="line2d_29"/>
    <g id="text_16">
     <!-- 02 NEST proc. -->
     <g transform="translate(425.939063 130.377813)scale(0.18 -0.18)">
      <use xlink:href="#DejaVuSans-48"/>
      <use x="63.623047" xlink:href="#DejaVuSans-50"/>
      <use x="127.246094" xlink:href="#DejaVuSans-32"/>
      <use x="159.033203" xlink:href="#DejaVuSans-78"/>
      <use x="233.837891" xlink:href="#DejaVuSans-69"/>
      <use x="297.021484" xlink:href="#DejaVuSans-83"/>
      <use x="360.498047" xlink:href="#DejaVuSans-84"/>
      <use x="421.582031" xlink:href="#DejaVuSans-32"/>
      <use x="453.369141" xlink:href="#DejaVuSans-112"/>
      <use x="516.845703" xlink:href="#DejaVuSans-114"/>
      <use x="555.708984" xlink:href="#DejaVuSans-111"/>
      <use x="616.890625" xlink:href="#DejaVuSans-99"/>
      <use x="671.871094" xlink:href="#DejaVuSans-46"/>
     </g>
    </g>
    <g id="line2d_30">
     <path d="M 375.539063 150.498438 
L 411.539063 150.498438 
" style="fill:none;stroke:#2ca02c;stroke-linecap:square;stroke-width:6;"/>
    </g>
    <g id="line2d_31"/>
    <g id="text_17">
     <!-- 04 NEST proc. -->
     <g transform="translate(425.939063 156.798438)scale(0.18 -0.18)">
      <use xlink:href="#DejaVuSans-48"/>
      <use x="63.623047" xlink:href="#DejaVuSans-52"/>
      <use x="127.246094" xlink:href="#DejaVuSans-32"/>
      <use x="159.033203" xlink:href="#DejaVuSans-78"/>
      <use x="233.837891" xlink:href="#DejaVuSans-69"/>
      <use x="297.021484" xlink:href="#DejaVuSans-83"/>
      <use x="360.498047" xlink:href="#DejaVuSans-84"/>
      <use x="421.582031" xlink:href="#DejaVuSans-32"/>
      <use x="453.369141" xlink:href="#DejaVuSans-112"/>
      <use x="516.845703" xlink:href="#DejaVuSans-114"/>
      <use x="555.708984" xlink:href="#DejaVuSans-111"/>
      <use x="616.890625" xlink:href="#DejaVuSans-99"/>
      <use x="671.871094" xlink:href="#DejaVuSans-46"/>
     </g>
    </g>
    <g id="line2d_32">
     <path d="M 375.539063 176.919063 
L 411.539063 176.919063 
" style="fill:none;stroke:#d62728;stroke-linecap:square;stroke-width:6;"/>
    </g>
    <g id="line2d_33"/>
    <g id="text_18">
     <!-- 08 NEST proc. -->
     <g transform="translate(425.939063 183.219063)scale(0.18 -0.18)">
      <use xlink:href="#DejaVuSans-48"/>
      <use x="63.623047" xlink:href="#DejaVuSans-56"/>
      <use x="127.246094" xlink:href="#DejaVuSans-32"/>
      <use x="159.033203" xlink:href="#DejaVuSans-78"/>
      <use x="233.837891" xlink:href="#DejaVuSans-69"/>
      <use x="297.021484" xlink:href="#DejaVuSans-83"/>
      <use x="360.498047" xlink:href="#DejaVuSans-84"/>
      <use x="421.582031" xlink:href="#DejaVuSans-32"/>
      <use x="453.369141" xlink:href="#DejaVuSans-112"/>
      <use x="516.845703" xlink:href="#DejaVuSans-114"/>
      <use x="555.708984" xlink:href="#DejaVuSans-111"/>
      <use x="616.890625" xlink:href="#DejaVuSans-99"/>
      <use x="671.871094" xlink:href="#DejaVuSans-46"/>
     </g>
    </g>
    <g id="line2d_34">
     <path d="M 375.539063 203.339688 
L 411.539063 203.339688 
" style="fill:none;stroke:#9467bd;stroke-linecap:square;stroke-width:6;"/>
    </g>
    <g id="line2d_35"/>
    <g id="text_19">
     <!-- 16 NEST proc. -->
     <g transform="translate(425.939063 209.639688)scale(0.18 -0.18)">
      <use xlink:href="#DejaVuSans-49"/>
      <use x="63.623047" xlink:href="#DejaVuSans-54"/>
      <use x="127.246094" xlink:href="#DejaVuSans-32"/>
      <use x="159.033203" xlink:href="#DejaVuSans-78"/>
      <use x="233.837891" xlink:href="#DejaVuSans-69"/>
      <use x="297.021484" xlink:href="#DejaVuSans-83"/>
      <use x="360.498047" xlink:href="#DejaVuSans-84"/>
      <use x="421.582031" xlink:href="#DejaVuSans-32"/>
      <use x="453.369141" xlink:href="#DejaVuSans-112"/>
      <use x="516.845703" xlink:href="#DejaVuSans-114"/>
      <use x="555.708984" xlink:href="#DejaVuSans-111"/>
      <use x="616.890625" xlink:href="#DejaVuSans-99"/>
      <use x="671.871094" xlink:href="#DejaVuSans-46"/>
     </g>
    </g>
    <g id="line2d_36">
     <path d="M 375.539063 229.760313 
L 411.539063 229.760313 
" style="fill:none;stroke:#8c564b;stroke-linecap:square;stroke-width:6;"/>
    </g>
    <g id="line2d_37"/>
    <g id="text_20">
     <!-- 32 NEST proc. -->
     <g transform="translate(425.939063 236.060313)scale(0.18 -0.18)">
      <use xlink:href="#DejaVuSans-51"/>
      <use x="63.623047" xlink:href="#DejaVuSans-50"/>
      <use x="127.246094" xlink:href="#DejaVuSans-32"/>
      <use x="159.033203" xlink:href="#DejaVuSans-78"/>
      <use x="233.837891" xlink:href="#DejaVuSans-69"/>
      <use x="297.021484" xlink:href="#DejaVuSans-83"/>
      <use x="360.498047" xlink:href="#DejaVuSans-84"/>
      <use x="421.582031" xlink:href="#DejaVuSans-32"/>
      <use x="453.369141" xlink:href="#DejaVuSans-112"/>
      <use x="516.845703" xlink:href="#DejaVuSans-114"/>
      <use x="555.708984" xlink:href="#DejaVuSans-111"/>
      <use x="616.890625" xlink:href="#DejaVuSans-99"/>
      <use x="671.871094" xlink:href="#DejaVuSans-46"/>
     </g>
    </g>
    <g id="line2d_38">
     <path d="M 375.539063 256.180938 
L 411.539063 256.180938 
" style="fill:none;stroke:#e377c2;stroke-linecap:square;stroke-width:6;"/>
    </g>
    <g id="line2d_39"/>
    <g id="text_21">
     <!-- 64 NEST proc. -->
     <g transform="translate(425.939063 262.480938)scale(0.18 -0.18)">
      <use xlink:href="#DejaVuSans-54"/>
      <use x="63.623047" xlink:href="#DejaVuSans-52"/>
      <use x="127.246094" xlink:href="#DejaVuSans-32"/>
      <use x="159.033203" xlink:href="#DejaVuSans-78"/>
      <use x="233.837891" xlink:href="#DejaVuSans-69"/>
      <use x="297.021484" xlink:href="#DejaVuSans-83"/>
      <use x="360.498047" xlink:href="#DejaVuSans-84"/>
      <use x="421.582031" xlink:href="#DejaVuSans-32"/>
      <use x="453.369141" xlink:href="#DejaVuSans-112"/>
      <use x="516.845703" xlink:href="#DejaVuSans-114"/>
      <use x="555.708984" xlink:href="#DejaVuSans-111"/>
      <use x="616.890625" xlink:href="#DejaVuSans-99"/>
      <use x="671.871094" xlink:href="#DejaVuSans-46"/>
     </g>
    </g>
   </g>
  </g>
  <g id="text_22">
   <!-- CLE time profile -->
   <g transform="translate(168.892969 31.435313)scale(0.3 -0.3)">
    <defs>
     <path d="M 64.40625 67.28125 
L 64.40625 56.890625 
Q 59.421875 61.53125 53.78125 63.8125 
Q 48.140625 66.109375 41.796875 66.109375 
Q 29.296875 66.109375 22.65625 58.46875 
Q 16.015625 50.828125 16.015625 36.375 
Q 16.015625 21.96875 22.65625 14.328125 
Q 29.296875 6.6875 41.796875 6.6875 
Q 48.140625 6.6875 53.78125 8.984375 
Q 59.421875 11.28125 64.40625 15.921875 
L 64.40625 5.609375 
Q 59.234375 2.09375 53.4375 0.328125 
Q 47.65625 -1.421875 41.21875 -1.421875 
Q 24.65625 -1.421875 15.125 8.703125 
Q 5.609375 18.84375 5.609375 36.375 
Q 5.609375 53.953125 15.125 64.078125 
Q 24.65625 74.21875 41.21875 74.21875 
Q 47.75 74.21875 53.53125 72.484375 
Q 59.328125 70.75 64.40625 67.28125 
z
" id="DejaVuSans-67"/>
     <path d="M 9.8125 72.90625 
L 19.671875 72.90625 
L 19.671875 8.296875 
L 55.171875 8.296875 
L 55.171875 0 
L 9.8125 0 
z
" id="DejaVuSans-76"/>
    </defs>
    <use xlink:href="#DejaVuSans-67"/>
    <use x="69.824219" xlink:href="#DejaVuSans-76"/>
    <use x="125.537109" xlink:href="#DejaVuSans-69"/>
    <use x="188.720703" xlink:href="#DejaVuSans-32"/>
    <use x="220.507812" xlink:href="#DejaVuSans-116"/>
    <use x="259.716797" xlink:href="#DejaVuSans-105"/>
    <use x="287.5" xlink:href="#DejaVuSans-109"/>
    <use x="384.912109" xlink:href="#DejaVuSans-101"/>
    <use x="446.435547" xlink:href="#DejaVuSans-32"/>
    <use x="478.222656" xlink:href="#DejaVuSans-112"/>
    <use x="541.699219" xlink:href="#DejaVuSans-114"/>
    <use x="580.5625" xlink:href="#DejaVuSans-111"/>
    <use x="641.744141" xlink:href="#DejaVuSans-102"/>
    <use x="676.949219" xlink:href="#DejaVuSans-105"/>
    <use x="704.732422" xlink:href="#DejaVuSans-108"/>
    <use x="732.515625" xlink:href="#DejaVuSans-101"/>
   </g>
  </g>
 </g>
 <defs>
  <clipPath id="pce62c43323">
   <rect height="301.56" width="489.58" x="79.22" y="74.08"/>
  </clipPath>
 </defs>
</svg>
